<svg version="1.1" viewBox="0.0 0.0 600.0 371.0" fill="none" stroke="none" stroke-linecap="square" stroke-miterlimit="10" width="600" height="371" xmlns:xlink="http://www.w3.org/1999/xlink" xmlns="http://www.w3.org/2000/svg"><path fill="#ffffff" d="M0 0L600.0 0L600.0 371.0L0 371.0L0 0Z" fill-rule="nonzero"/><path fill="#669bbc" d="M255.79385 117.85697C283.56668 77.62108 329.33618 53.599403 378.2264 53.599403L378.2264 202.36607Z" fill-rule="nonzero"/><path fill="#e76f51" d="M341.9246 348.65463C294.455 336.95444 255.76425 302.67743 238.42754 256.96426C221.09082 211.25107 227.3214 159.93765 255.09422 119.70177L377.5268 204.21086Z" fill-rule="nonzero"/><path fill="#003049" d="M380.3946 55.095985C437.849 55.095985 490.16763 88.1803 514.7979 140.0875C539.42816 191.99467 531.96674 253.44499 495.63 297.94943C459.29324 342.4539 400.57727 362.05615 344.7924 348.30643L380.3946 203.86266Z" fill-rule="nonzero"/><path fill="#ffffff" d="M470.4003 219.52457L471.69717 219.41519Q471.8378 220.35269 472.35342 220.83707Q472.88467 221.30582 473.61905 221.30582Q474.50967 221.30582 475.11905 220.63394Q475.74405 219.96207 475.74405 218.86832Q475.74405 217.80582 475.1503 217.19644Q474.55655 216.58707 473.60342 216.58707Q473.00967 216.58707 472.5253 216.86832Q472.05655 217.13394 471.7753 217.55582L470.61905 217.41519L471.5878 212.25894L476.57217 212.25894L476.57217 213.44644L472.57217 213.44644L472.04092 216.13394Q472.94717 215.50894 473.93155 215.50894Q475.24405 215.50894 476.13467 216.41519Q477.04092 217.32144 477.04092 218.75894Q477.04092 220.11832 476.25967 221.10269Q475.29092 222.32144 473.61905 222.32144Q472.25967 222.32144 471.38467 221.55582Q470.5253 220.79019 470.4003 219.52457ZM478.41592 219.50894L479.63467 219.33707Q479.85342 220.38394 480.35342 220.85269Q480.86905 221.30582 481.60342 221.30582Q482.47842 221.30582 483.07217 220.71207Q483.66592 220.10269 483.66592 219.21207Q483.66592 218.36832 483.10342 217.82144Q482.55655 217.27457 481.7128 217.27457Q481.35342 217.27457 480.8378 217.39957L480.97842 216.32144Q481.10342 216.33707 481.16592 216.33707Q481.9628 216.33707 482.5878 215.93082Q483.2128 215.52457 483.2128 214.66519Q483.2128 213.99332 482.75967 213.55582Q482.30655 213.10269 481.57217 213.10269Q480.85342 213.10269 480.36905 213.55582Q479.9003 213.99332 479.75967 214.89957L478.54092 214.68082Q478.75967 213.44644 479.55655 212.77457Q480.35342 212.08707 481.54092 212.08707Q482.36905 212.08707 483.05655 212.44644Q483.74405 212.79019 484.10342 213.39957Q484.47842 214.00894 484.47842 214.69644Q484.47842 215.33707 484.13467 215.86832Q483.79092 216.39957 483.10342 216.72769Q483.99405 216.93082 484.47842 217.57144Q484.97842 218.21207 484.97842 219.19644Q484.97842 220.50894 484.00967 221.41519Q483.05655 222.32144 481.60342 222.32144Q480.2753 222.32144 479.4003 221.54019Q478.54092 220.75894 478.41592 219.50894Z" fill-rule="nonzero"/><path fill="#ffffff" d="M489.04092 219.35269Q489.04092 219.93082 488.7753 220.43082Q488.57217 220.83707 488.16592 221.21207Q487.93155 221.44644 487.43155 221.82144L487.13467 221.44644Q487.61905 221.07144 487.7753 220.89957Q488.05655 220.58707 488.05655 220.32144Q487.7128 220.18082 487.4628 219.96207Q487.18155 219.72769 487.18155 219.30582Q487.18155 218.94644 487.43155 218.68082Q487.69717 218.41519 488.07217 218.41519Q488.44717 218.41519 488.74405 218.69644Q489.04092 218.96207 489.04092 219.35269Z" fill-rule="nonzero"/><path fill="#ffffff" d="M492.29092 216.71207Q491.5253 216.43082 491.1503 215.91519Q490.79092 215.39957 490.79092 214.66519Q490.79092 213.57144 491.57217 212.83707Q492.36905 212.08707 493.66592 212.08707Q494.97842 212.08707 495.7753 212.85269Q496.5878 213.61832 496.5878 214.71207Q496.5878 215.39957 496.2128 215.91519Q495.85342 216.43082 495.10342 216.71207Q496.0253 217.00894 496.50967 217.68082Q496.99405 218.35269 496.99405 219.29019Q496.99405 220.57144 496.0878 221.44644Q495.18155 222.32144 493.69717 222.32144Q492.2128 222.32144 491.29092 221.44644Q490.38467 220.55582 490.38467 219.24332Q490.38467 218.27457 490.88467 217.61832Q491.38467 216.94644 492.29092 216.71207ZM492.05655 214.63394Q492.05655 215.33707 492.50967 215.79019Q492.9628 216.24332 493.69717 216.24332Q494.41592 216.24332 494.86905 215.80582Q495.32217 215.35269 495.32217 214.69644Q495.32217 214.02457 494.85342 213.57144Q494.38467 213.10269 493.68155 213.10269Q492.97842 213.10269 492.50967 213.55582Q492.05655 213.99332 492.05655 214.63394ZM491.6503 219.25894Q491.6503 219.79019 491.9003 220.29019Q492.1503 220.77457 492.63467 221.04019Q493.13467 221.30582 493.7128 221.30582Q494.5878 221.30582 495.1503 220.74332Q495.72842 220.18082 495.72842 219.30582Q495.72842 218.41519 495.13467 217.83707Q494.55655 217.24332 493.66592 217.24332Q492.79092 217.24332 492.2128 217.82144Q491.6503 218.39957 491.6503 219.25894ZM498.63467 214.54019Q498.63467 213.46207 499.16592 212.71207Q499.7128 211.96207 500.74405 211.96207Q501.68155 211.96207 502.29092 212.63394Q502.91592 213.30582 502.91592 214.60269Q502.91592 215.88394 502.29092 216.57144Q501.66592 217.25894 500.75967 217.25894Q499.85342 217.25894 499.24405 216.58707Q498.63467 215.89957 498.63467 214.54019ZM500.7753 212.80582Q500.32217 212.80582 500.00967 213.21207Q499.7128 213.60269 499.7128 214.64957Q499.7128 215.61832 500.00967 216.00894Q500.32217 216.39957 500.7753 216.39957Q501.24405 216.39957 501.54092 216.00894Q501.85342 215.61832 501.85342 214.55582Q501.85342 213.58707 501.54092 213.19644Q501.22842 212.80582 500.7753 212.80582ZM500.7753 222.52457L506.25967 211.96207L507.25967 211.96207L501.80655 222.52457L500.7753 222.52457ZM505.11905 219.79019Q505.11905 218.71207 505.6503 217.97769Q506.19717 217.22769 507.22842 217.22769Q508.16592 217.22769 508.79092 217.89957Q509.41592 218.57144 509.41592 219.86832Q509.41592 221.14957 508.79092 221.83707Q508.16592 222.52457 507.22842 222.52457Q506.32217 222.52457 505.7128 221.85269Q505.11905 221.16519 505.11905 219.79019ZM507.25967 218.07144Q506.79092 218.07144 506.49405 218.47769Q506.19717 218.86832 506.19717 219.91519Q506.19717 220.88394 506.49405 221.27457Q506.80655 221.66519 507.25967 221.66519Q507.72842 221.66519 508.0253 221.27457Q508.3378 220.88394 508.3378 219.82144Q508.3378 218.85269 508.0253 218.46207Q507.72842 218.07144 507.25967 218.07144Z" fill-rule="nonzero"/><path fill="#ffffff" d="M257.3535 244.78615L258.57224 244.61427Q258.791 245.66115 259.291 246.1299Q259.8066 246.58302 260.541 246.58302Q261.416 246.58302 262.00974 245.98927Q262.6035 245.3799 262.6035 244.48927Q262.6035 243.64552 262.041 243.09865Q261.4941 242.55177 260.65036 242.55177Q260.291 242.55177 259.77536 242.67677L259.916 241.59865Q260.041 241.61427 260.1035 241.61427Q260.90036 241.61427 261.52536 241.20802Q262.15036 240.80177 262.15036 239.9424Q262.15036 239.27052 261.69724 238.83302Q261.2441 238.3799 260.50974 238.3799Q259.791 238.3799 259.3066 238.83302Q258.83786 239.27052 258.69724 240.17677L257.4785 239.95802Q257.69724 238.72365 258.4941 238.05177Q259.291 237.36427 260.4785 237.36427Q261.3066 237.36427 261.9941 237.72365Q262.6816 238.0674 263.041 238.67677Q263.416 239.28615 263.416 239.97365Q263.416 240.61427 263.07224 241.14552Q262.7285 241.67677 262.041 242.0049Q262.9316 242.20802 263.416 242.84865Q263.916 243.48927 263.916 244.47365Q263.916 245.78615 262.94724 246.6924Q261.9941 247.59865 260.541 247.59865Q259.21286 247.59865 258.33786 246.8174Q257.4785 246.03615 257.3535 244.78615ZM265.33786 242.48927Q265.33786 240.70802 265.69724 239.6299Q266.07224 238.53615 266.791 237.95802Q267.50974 237.36427 268.6035 237.36427Q269.416 237.36427 270.02536 237.6924Q270.63474 238.02052 271.02536 238.6299Q271.4316 239.23927 271.65036 240.11427Q271.8691 240.98927 271.8691 242.48927Q271.8691 244.2549 271.50974 245.33302Q271.15036 246.41115 270.4316 247.0049Q269.71286 247.59865 268.6035 247.59865Q267.166 247.59865 266.33786 246.55177Q265.33786 245.30177 265.33786 242.48927ZM266.6035 242.48927Q266.6035 244.95802 267.1816 245.77052Q267.75974 246.58302 268.6035 246.58302Q269.46286 246.58302 270.041 245.77052Q270.6191 244.9424 270.6191 242.48927Q270.6191 240.0049 270.041 239.1924Q269.46286 238.3799 268.58786 238.3799Q267.7441 238.3799 267.2441 239.09865Q266.6035 240.02052 266.6035 242.48927Z" fill-rule="nonzero"/><path fill="#ffffff" d="M275.9785 244.6299Q275.9785 245.20802 275.71286 245.70802Q275.50974 246.11427 275.1035 246.48927Q274.8691 246.72365 274.3691 247.09865L274.07224 246.72365Q274.5566 246.34865 274.71286 246.17677Q274.9941 245.86427 274.9941 245.59865Q274.65036 245.45802 274.40036 245.23927Q274.1191 245.0049 274.1191 244.58302Q274.1191 244.22365 274.3691 243.95802Q274.63474 243.6924 275.00974 243.6924Q275.38474 243.6924 275.6816 243.97365Q275.9785 244.23927 275.9785 244.6299Z" fill-rule="nonzero"/><path fill="#ffffff" d="M279.2285 241.98927Q278.46286 241.70802 278.08786 241.1924Q277.7285 240.67677 277.7285 239.9424Q277.7285 238.84865 278.50974 238.11427Q279.3066 237.36427 280.6035 237.36427Q281.916 237.36427 282.71286 238.1299Q283.52536 238.89552 283.52536 239.98927Q283.52536 240.67677 283.15036 241.1924Q282.791 241.70802 282.041 241.98927Q282.96286 242.28615 283.44724 242.95802Q283.9316 243.6299 283.9316 244.5674Q283.9316 245.84865 283.02536 246.72365Q282.1191 247.59865 280.63474 247.59865Q279.15036 247.59865 278.2285 246.72365Q277.32224 245.83302 277.32224 244.52052Q277.32224 243.55177 277.82224 242.89552Q278.32224 242.22365 279.2285 241.98927ZM278.9941 239.91115Q278.9941 240.61427 279.44724 241.0674Q279.90036 241.52052 280.63474 241.52052Q281.3535 241.52052 281.8066 241.08302Q282.25974 240.6299 282.25974 239.97365Q282.25974 239.30177 281.791 238.84865Q281.32224 238.3799 280.6191 238.3799Q279.916 238.3799 279.44724 238.83302Q278.9941 239.27052 278.9941 239.91115ZM278.58786 244.53615Q278.58786 245.0674 278.83786 245.5674Q279.08786 246.05177 279.57224 246.3174Q280.07224 246.58302 280.65036 246.58302Q281.52536 246.58302 282.08786 246.02052Q282.666 245.45802 282.666 244.58302Q282.666 243.6924 282.07224 243.11427Q281.4941 242.52052 280.6035 242.52052Q279.7285 242.52052 279.15036 243.09865Q278.58786 243.67677 278.58786 244.53615ZM285.57224 239.8174Q285.57224 238.73927 286.1035 237.98927Q286.65036 237.23927 287.6816 237.23927Q288.6191 237.23927 289.2285 237.91115Q289.8535 238.58302 289.8535 239.8799Q289.8535 241.16115 289.2285 241.84865Q288.6035 242.53615 287.69724 242.53615Q286.791 242.53615 286.1816 241.86427Q285.57224 241.17677 285.57224 239.8174ZM287.71286 238.08302Q287.25974 238.08302 286.94724 238.48927Q286.65036 238.8799 286.65036 239.92677Q286.65036 240.89552 286.94724 241.28615Q287.25974 241.67677 287.71286 241.67677Q288.1816 241.67677 288.4785 241.28615Q288.791 240.89552 288.791 239.83302Q288.791 238.86427 288.4785 238.47365Q288.166 238.08302 287.71286 238.08302ZM287.71286 247.80177L293.19724 237.23927L294.19724 237.23927L288.7441 247.80177L287.71286 247.80177ZM292.0566 245.0674Q292.0566 243.98927 292.58786 243.2549Q293.13474 242.5049 294.166 242.5049Q295.1035 242.5049 295.7285 243.17677Q296.3535 243.84865 296.3535 245.14552Q296.3535 246.42677 295.7285 247.11427Q295.1035 247.80177 294.166 247.80177Q293.25974 247.80177 292.65036 247.1299Q292.0566 246.4424 292.0566 245.0674ZM294.19724 243.34865Q293.7285 243.34865 293.4316 243.7549Q293.13474 244.14552 293.13474 245.1924Q293.13474 246.16115 293.4316 246.55177Q293.7441 246.9424 294.19724 246.9424Q294.666 246.9424 294.96286 246.55177Q295.27536 246.16115 295.27536 245.09865Q295.27536 244.1299 294.96286 243.73927Q294.666 243.34865 294.19724 243.34865Z" fill-rule="nonzero"/><path fill="#ffffff" d="M311.89917 109.15334L310.6648 109.15334L310.6648 101.30959Q310.2273 101.73147 309.49292 102.16897Q308.77417 102.59084 308.21167 102.79397L308.21167 101.60647Q309.24292 101.12209 310.00854 100.43459Q310.7898 99.74709 311.1023 99.09084L311.89917 99.09084L311.89917 109.15334ZM315.25854 106.52834L316.55542 106.41897Q316.69604 107.35647 317.21167 107.84084Q317.74292 108.30959 318.4773 108.30959Q319.36792 108.30959 319.9773 107.63772Q320.6023 106.96584 320.6023 105.87209Q320.6023 104.80959 320.00854 104.20022Q319.4148 103.59084 318.46167 103.59084Q317.86792 103.59084 317.38354 103.87209Q316.9148 104.13772 316.63354 104.55959L315.4773 104.41897L316.44604 99.26272L321.43042 99.26272L321.43042 100.45022L317.43042 100.45022L316.89917 103.13772Q317.80542 102.51272 318.7898 102.51272Q320.1023 102.51272 320.99292 103.41897Q321.89917 104.32522 321.89917 105.76272Q321.89917 107.12209 321.11792 108.10647Q320.14917 109.32522 318.4773 109.32522Q317.11792 109.32522 316.24292 108.55959Q315.38354 107.79397 315.25854 106.52834Z" fill-rule="nonzero"/><path fill="#ffffff" d="M325.89917 106.35647Q325.89917 106.93459 325.63354 107.43459Q325.43042 107.84084 325.02417 108.21584Q324.7898 108.45022 324.2898 108.82522L323.99292 108.45022Q324.4773 108.07522 324.63354 107.90334Q324.9148 107.59084 324.9148 107.32522Q324.57104 107.18459 324.32104 106.96584Q324.0398 106.73147 324.0398 106.30959Q324.0398 105.95022 324.2898 105.68459Q324.55542 105.41897 324.93042 105.41897Q325.30542 105.41897 325.6023 105.70022Q325.89917 105.96584 325.89917 106.35647Z" fill-rule="nonzero"/><path fill="#ffffff" d="M331.21167 109.15334L331.21167 106.74709L326.8523 106.74709L326.8523 105.62209L331.43042 99.13772L332.43042 99.13772L332.43042 105.62209L333.7898 105.62209L333.7898 106.74709L332.43042 106.74709L332.43042 109.15334L331.21167 109.15334ZM331.21167 105.62209L331.21167 101.10647L328.07104 105.62209L331.21167 105.62209ZM335.49292 101.54397Q335.49292 100.46584 336.02417 99.71584Q336.57104 98.96584 337.6023 98.96584Q338.5398 98.96584 339.14917 99.63772Q339.77417 100.30959 339.77417 101.60647Q339.77417 102.88772 339.14917 103.57522Q338.52417 104.26272 337.61792 104.26272Q336.71167 104.26272 336.1023 103.59084Q335.49292 102.90334 335.49292 101.54397ZM337.63354 99.80959Q337.18042 99.80959 336.86792 100.21584Q336.57104 100.60647 336.57104 101.65334Q336.57104 102.62209 336.86792 103.01272Q337.18042 103.40334 337.63354 103.40334Q338.1023 103.40334 338.39917 103.01272Q338.71167 102.62209 338.71167 101.55959Q338.71167 100.59084 338.39917 100.20022Q338.08667 99.80959 337.63354 99.80959ZM337.63354 109.52834L343.11792 98.96584L344.11792 98.96584L338.6648 109.52834L337.63354 109.52834ZM341.9773 106.79397Q341.9773 105.71584 342.50854 104.98147Q343.05542 104.23147 344.08667 104.23147Q345.02417 104.23147 345.64917 104.90334Q346.27417 105.57522 346.27417 106.87209Q346.27417 108.15334 345.64917 108.84084Q345.02417 109.52834 344.08667 109.52834Q343.18042 109.52834 342.57104 108.85647Q341.9773 108.16897 341.9773 106.79397ZM344.11792 105.07522Q343.64917 105.07522 343.3523 105.48147Q343.05542 105.87209 343.05542 106.91897Q343.05542 107.88772 343.3523 108.27834Q343.6648 108.66897 344.11792 108.66897Q344.58667 108.66897 344.88354 108.27834Q345.19604 107.88772 345.19604 106.82522Q345.19604 105.85647 344.88354 105.46584Q344.58667 105.07522 344.11792 105.07522Z" fill-rule="nonzero"/><path fill="#003049" d="M30.55 62.916668C30.55 66.23038 27.863708 68.916664 24.55 68.916664C21.236292 68.916664 18.55 66.23038 18.55 62.916668C18.55 59.60296 21.236292 56.916668 24.55 56.916668C27.863708 56.916668 30.55 59.60296 30.55 62.916668Z" fill-rule="nonzero"/><path fill="#1a1a1a" d="M72.8 65.916664L71.81563 65.916664Q71.33125 65.916664 70.95625 65.072914Q70.675 64.447914 70.50313 63.447914Q70.3 63.83854 69.9875 64.05729Q69.675 64.260414 69.31563 64.260414Q68.53438 64.260414 68.00313 64.15104Q67.4875 64.041664 67.4875 63.885414Q67.4875 63.291664 68.25313 62.58854Q69.01875 61.86979 70.175 61.33854Q70.15938 61.27604 70.1125 61.041664Q70.06563 60.80729 70.06563 60.760414Q70.06563 60.52604 70.22188 60.24479Q70.34688 60.010414 70.56563 59.760414Q70.62813 60.18229 70.70625 60.58854Q70.78438 60.979164 70.87813 61.40104L71.08125 62.572914Q71.25313 63.541664 71.37813 64.010414Q71.59688 64.729164 71.81563 64.729164L72.8 64.729164L72.8 65.916664ZM70.40938 62.854164L70.28438 62.11979Q69.69063 62.322914 69.34688 62.55729Q69.00313 62.77604 68.76875 63.15104Q68.925 63.21354 69.1125 63.260414Q69.3 63.291664 69.62813 63.291664Q70.05 63.291664 70.40938 62.854164ZM75.97188 65.916664L72.06563 65.916664L72.06563 64.729164L75.47188 64.729164Q75.47188 63.916664 75.28438 63.49479Q75.14375 63.197914 74.62813 62.65104L75.175 61.52604Q75.65938 62.15104 75.78438 62.49479Q75.97188 63.02604 75.97188 64.24479L75.97188 65.916664ZM75.94063 67.27604L75.39375 68.260414L74.3 67.68229L74.8 66.697914L75.94063 67.27604ZM74.3625 67.90104L73.84688 68.885414L72.7375 68.30729L73.2375 67.322914L74.3625 67.90104ZM78.425 59.58854L77.90938 60.58854L76.8 60.010414L77.3 59.010414L78.425 59.58854ZM78.97188 65.916664L75.06563 65.916664L75.06563 64.729164L78.47188 64.729164Q78.47188 63.916664 78.28438 63.49479Q78.14375 63.197914 77.62813 62.65104L78.175 61.52604Q78.65938 62.15104 78.78438 62.49479Q78.97188 63.02604 78.97188 64.24479L78.97188 65.916664ZM85.97188 65.916664L78.06563 65.916664L78.06563 64.729164L83.64375 64.729164Q82.94063 64.18229 82.47188 63.885414Q81.87813 63.510414 81.37813 63.33854Q80.83125 63.15104 80.25313 63.15104Q79.90938 63.15104 79.55 63.197914Q79.75313 62.68229 80.08125 62.385414Q80.53438 61.93229 81.25313 61.93229Q81.94063 61.93229 82.89375 62.61979Q83.3625 62.96354 84.44063 63.916664Q85.26875 64.666664 85.55 64.729164L85.97188 64.729164L85.97188 65.916664ZM82.4875 67.40104L81.97188 68.385414L80.8625 67.80729L81.39375 66.80729L82.4875 67.40104Z" fill-rule="nonzero"/><path fill="#1a1a1a" d="M96.59688 66.729164L96.59688 67.916664L89.97188 67.916664Q89.95625 67.479164 90.1125 67.05729Q90.37813 66.385414 90.925 65.729164Q91.4875 65.072914 92.53438 64.21354Q94.175 62.86979 94.7375 62.08854Q95.31563 61.30729 95.31563 60.604164Q95.31563 59.86979 94.78438 59.36979Q94.26875 58.86979 93.44063 58.86979Q92.55 58.86979 92.00313 59.40104Q91.47188 59.93229 91.47188 60.885414L90.20625 60.74479Q90.33125 59.33854 91.175 58.604164Q92.03438 57.854164 93.45625 57.854164Q94.90938 57.854164 95.7375 58.65104Q96.58125 59.447914 96.58125 60.635414Q96.58125 61.24479 96.33125 61.822914Q96.09688 62.40104 95.51875 63.041664Q94.95625 63.68229 93.62813 64.80729Q92.51875 65.729164 92.20625 66.072914Q91.89375 66.40104 91.69063 66.729164L96.59688 66.729164ZM98.12813 62.979164Q98.12813 61.197914 98.4875 60.11979Q98.8625 59.02604 99.58125 58.447914Q100.3 57.854164 101.39375 57.854164Q102.20625 57.854164 102.81563 58.18229Q103.425 58.510414 103.81563 59.11979Q104.22188 59.729164 104.44063 60.604164Q104.65938 61.479164 104.65938 62.979164Q104.65938 64.74479 104.3 65.822914Q103.94063 66.90104 103.22188 67.49479Q102.50313 68.08854 101.39375 68.08854Q99.95625 68.08854 99.12813 67.041664Q98.12813 65.791664 98.12813 62.979164ZM99.39375 62.979164Q99.39375 65.447914 99.97188 66.260414Q100.55 67.072914 101.39375 67.072914Q102.25313 67.072914 102.83125 66.260414Q103.40938 65.43229 103.40938 62.979164Q103.40938 60.49479 102.83125 59.68229Q102.25313 58.86979 101.37813 58.86979Q100.53438 58.86979 100.03438 59.58854Q99.39375 60.510414 99.39375 62.979164ZM106.12813 62.979164Q106.12813 61.197914 106.4875 60.11979Q106.8625 59.02604 107.58125 58.447914Q108.3 57.854164 109.39375 57.854164Q110.20625 57.854164 110.81563 58.18229Q111.425 58.510414 111.81563 59.11979Q112.22188 59.729164 112.44063 60.604164Q112.65938 61.479164 112.65938 62.979164Q112.65938 64.74479 112.3 65.822914Q111.94063 66.90104 111.22188 67.49479Q110.50313 68.08854 109.39375 68.08854Q107.95625 68.08854 107.12813 67.041664Q106.12813 65.791664 106.12813 62.979164ZM107.39375 62.979164Q107.39375 65.447914 107.97188 66.260414Q108.55 67.072914 109.39375 67.072914Q110.25313 67.072914 110.83125 66.260414Q111.40938 65.43229 111.40938 62.979164Q111.40938 60.49479 110.83125 59.68229Q110.25313 58.86979 109.37813 58.86979Q108.53438 58.86979 108.03438 59.58854Q107.39375 60.510414 107.39375 62.979164ZM114.12813 62.979164Q114.12813 61.197914 114.4875 60.11979Q114.8625 59.02604 115.58125 58.447914Q116.3 57.854164 117.39375 57.854164Q118.20625 57.854164 118.81563 58.18229Q119.425 58.510414 119.81563 59.11979Q120.22188 59.729164 120.44063 60.604164Q120.65938 61.479164 120.65938 62.979164Q120.65938 64.74479 120.3 65.822914Q119.94063 66.90104 119.22188 67.49479Q118.50313 68.08854 117.39375 68.08854Q115.95625 68.08854 115.12813 67.041664Q114.12813 65.791664 114.12813 62.979164ZM115.39375 62.979164Q115.39375 65.447914 115.97188 66.260414Q116.55 67.072914 117.39375 67.072914Q118.25313 67.072914 118.83125 66.260414Q119.40938 65.43229 119.40938 62.979164Q119.40938 60.49479 118.83125 59.68229Q118.25313 58.86979 117.37813 58.86979Q116.53438 58.86979 116.03438 59.58854Q115.39375 60.510414 115.39375 62.979164Z" fill-rule="nonzero"/><path fill="#1a1a1a" d="M130.3625 60.666664L129.8625 61.65104L128.78438 61.05729L129.28438 60.104164L130.3625 60.666664ZM132.90938 65.916664Q132.90938 67.43229 132.01875 68.15104Q131.05 68.93229 128.90938 68.93229Q127.53438 68.93229 126.81563 68.447914Q126.01875 67.916664 126.01875 66.83854Q126.01875 66.24479 126.15938 65.65104Q126.31563 65.041664 126.55 64.43229Q126.70625 64.072914 127.08125 63.30729L127.34688 63.43229Q126.8625 64.416664 126.70625 64.979164Q126.56563 65.541664 126.56563 66.010414Q126.56563 66.86979 127.15938 67.30729Q127.76875 67.74479 128.89375 67.74479Q130.19063 67.74479 131.19063 67.291664Q132.425 66.71354 132.425 65.697914Q132.425 65.010414 132.22188 64.40104Q132.03438 63.86979 131.70625 63.479164L132.28438 62.072914Q132.64375 62.61979 132.76875 63.197914Q132.90938 63.77604 132.90938 64.729164L132.90938 65.916664ZM138.06563 65.916664L137.3625 65.916664Q136.89375 65.916664 136.33125 65.71354Q135.65938 65.46354 135.15938 65.05729Q134.75313 65.541664 134.33125 65.729164Q133.925 65.916664 133.14375 65.916664L132.06563 65.916664L132.06563 64.729164L133.1125 64.729164Q133.7375 64.729164 134.22188 64.416664Q134.59688 64.166664 134.90938 63.71354Q135.33125 63.11979 135.94063 62.666664Q136.4875 62.27604 136.94063 62.166664Q137.40938 62.885414 137.69063 63.46354Q138.06563 64.24479 138.06563 64.729164L138.06563 65.916664ZM137.28438 64.572914Q137.19063 64.166664 137.00313 63.791664Q136.84688 63.46354 136.59688 63.11979Q136.26875 63.21354 136.03438 63.43229Q135.89375 63.572914 135.675 63.916664Q135.925 64.18229 136.3625 64.40104Q136.81563 64.604164 137.22188 64.65104L137.28438 64.572914ZM149.64375 65.072914Q149.64375 66.166664 149.12813 66.80729Q148.675 67.36979 147.78438 67.61979Q147.03438 67.822914 145.87813 67.822914Q144.55 67.822914 143.83125 67.33854Q143.03438 66.80729 143.03438 65.74479Q143.03438 65.15104 143.20625 64.52604Q143.34688 63.979164 143.64375 63.33854Q143.8625 62.86979 144.22188 62.21354L144.44063 62.33854Q144.19063 62.80729 144.01875 63.166664Q143.78438 63.65104 143.675 64.02604Q143.55 64.49479 143.55 64.93229Q143.55 65.77604 144.15938 66.21354Q144.76875 66.635414 145.8625 66.635414Q147.01875 66.635414 148.00313 66.24479Q149.08125 65.80729 149.08125 65.197914Q149.08125 64.52604 148.8625 62.947914Q148.70625 61.729164 148.45625 60.229164L148.2375 58.90104L147.925 58.729164Q147.925 57.822914 148.3 57.072914L148.40938 57.072914Q148.44063 57.322914 148.50313 57.447914Q148.58125 57.572914 148.7375 57.635414Q148.95625 57.729164 149.20625 57.854164Q149.39375 57.947914 149.51875 58.010414Q149.51875 58.49479 149.4875 58.71354Q149.45625 58.93229 149.34688 59.322914L148.95625 59.197914Q148.97188 59.354164 149.15938 60.572914Q149.37813 62.010414 149.47188 62.885414Q149.64375 64.30729 149.64375 65.072914ZM153.08125 58.135414L152.55 59.11979L151.44063 58.52604L151.95625 57.55729L153.08125 58.135414ZM151.50313 58.74479L150.9875 59.74479L149.87813 59.166664L150.37813 58.18229L151.50313 58.74479ZM153.3 65.916664L149.06563 65.916664L149.06563 64.729164L152.72188 64.729164Q152.72188 64.11979 152.56563 63.58854Q152.22188 63.697914 152.01875 63.74479Q151.70625 63.822914 151.47188 63.822914Q150.97188 63.822914 150.65938 63.572914Q150.3 63.291664 150.3 62.74479Q150.3 61.791664 150.64375 61.08854Q151.01875 60.291664 151.62813 60.291664Q152.47188 60.291664 152.925 61.604164Q153.3 62.68229 153.3 64.135414L153.3 65.916664ZM152.175 62.354164Q152.08125 62.11979 151.87813 61.854164Q151.58125 61.510414 151.33125 61.510414Q151.14375 61.510414 151.01875 61.666664Q150.90938 61.822914 150.90938 62.041664Q150.90938 62.58854 151.50313 62.58854Q151.65938 62.58854 151.83125 62.52604Q152.01875 62.46354 152.175 62.354164ZM156.05 56.71354Q156.05 56.885414 155.84688 57.02604Q155.69063 57.11979 155.40938 57.21354L154.14375 57.65104Q154.14375 57.33854 154.81563 57.104164Q154.6125 56.99479 154.50313 56.885414Q154.3625 56.760414 154.3625 56.61979Q154.3625 56.40104 154.72188 56.02604Q155.12813 55.604164 155.425 55.604164Q155.56563 55.604164 155.65938 55.697914Q155.76875 55.77604 155.76875 55.93229Q155.76875 56.02604 155.72188 56.135414Q155.69063 56.229164 155.6125 56.354164Q155.39375 56.15104 155.14375 56.15104Q155.00313 56.15104 154.84688 56.21354Q154.70625 56.27604 154.70625 56.36979Q154.70625 56.46354 155.01875 56.65104Q155.34688 56.822914 155.56563 56.822914Q155.72188 56.822914 155.78438 56.822914Q155.84688 56.80729 156.05 56.71354ZM155.8625 64.166664Q155.8625 64.71354 155.65938 65.229164Q155.56563 65.510414 155.22188 66.104164L155.09688 66.02604Q155.1125 65.83854 155.12813 65.572914Q155.14375 65.30729 155.14375 65.229164Q155.14375 64.510414 155.03438 63.24479Q154.925 61.96354 154.76875 60.572914Q154.675 59.729164 154.55 58.854164Q154.69063 58.55729 154.8625 58.21354Q155.03438 57.854164 155.19063 57.55729Q155.3 58.33854 155.47188 59.697914Q155.64375 61.041664 155.7375 62.11979Q155.8625 63.479164 155.8625 64.166664Z" fill-rule="nonzero"/><path fill="#e76f51" d="M30.55 88.916664C30.55 92.23038 27.863708 94.916664 24.55 94.916664C21.236292 94.916664 18.55 92.23038 18.55 88.916664C18.55 85.60296 21.236292 82.916664 24.55 82.916664C27.863708 82.916664 30.55 85.60296 30.55 88.916664Z" fill-rule="nonzero"/><path fill="#1a1a1a" d="M43.8 91.916664L42.815624 91.916664Q42.33125 91.916664 41.95625 91.072914Q41.675 90.447914 41.503124 89.447914Q41.3 89.83854 40.9875 90.05729Q40.675 90.260414 40.315624 90.260414Q39.534374 90.260414 39.003124 90.15104Q38.4875 90.041664 38.4875 89.885414Q38.4875 89.291664 39.253124 88.58854Q40.01875 87.86979 41.175 87.33854Q41.159374 87.27604 41.1125 87.041664Q41.065624 86.80729 41.065624 86.760414Q41.065624 86.52604 41.221874 86.24479Q41.346874 86.010414 41.565624 85.760414Q41.628124 86.18229 41.70625 86.58854Q41.784374 86.979164 41.878124 87.40104L42.08125 88.572914Q42.253124 89.541664 42.378124 90.010414Q42.596874 90.729164 42.815624 90.729164L43.8 90.729164L43.8 91.916664ZM41.409374 88.854164L41.284374 88.11979Q40.690624 88.322914 40.346874 88.55729Q40.003124 88.77604 39.76875 89.15104Q39.925 89.21354 40.1125 89.260414Q40.3 89.291664 40.628124 89.291664Q41.05 89.291664 41.409374 88.854164ZM46.971874 91.916664L43.065624 91.916664L43.065624 90.729164L46.471874 90.729164Q46.471874 89.916664 46.284374 89.49479Q46.14375 89.197914 45.628124 88.65104L46.175 87.52604Q46.659374 88.15104 46.784374 88.49479Q46.971874 89.02604 46.971874 90.24479L46.971874 91.916664ZM46.940624 93.27604L46.39375 94.260414L45.3 93.68229L45.8 92.697914L46.940624 93.27604ZM45.3625 93.90104L44.846874 94.885414L43.7375 94.30729L44.2375 93.322914L45.3625 93.90104ZM49.425 85.58854L48.909374 86.58854L47.8 86.010414L48.3 85.010414L49.425 85.58854ZM49.971874 91.916664L46.065624 91.916664L46.065624 90.729164L49.471874 90.729164Q49.471874 89.916664 49.284374 89.49479Q49.14375 89.197914 48.628124 88.65104L49.175 87.52604Q49.659374 88.15104 49.784374 88.49479Q49.971874 89.02604 49.971874 90.24479L49.971874 91.916664ZM56.971874 91.916664L49.065624 91.916664L49.065624 90.729164L54.64375 90.729164Q53.940624 90.18229 53.471874 89.885414Q52.878124 89.510414 52.378124 89.33854Q51.83125 89.15104 51.253124 89.15104Q50.909374 89.15104 50.55 89.197914Q50.753124 88.68229 51.08125 88.385414Q51.534374 87.93229 52.253124 87.93229Q52.940624 87.93229 53.89375 88.61979Q54.3625 88.96354 55.440624 89.916664Q56.26875 90.666664 56.55 90.729164L56.971874 90.729164L56.971874 91.916664ZM53.4875 93.40104L52.971874 94.385414L51.8625 93.80729L52.39375 92.80729L53.4875 93.40104Z" fill-rule="nonzero"/><path fill="#1a1a1a" d="M65.08125 93.916664L65.08125 91.510414L60.721874 91.510414L60.721874 90.385414L65.3 83.90104L66.3 83.90104L66.3 90.385414L67.65938 90.385414L67.65938 91.510414L66.3 91.510414L66.3 93.916664L65.08125 93.916664ZM65.08125 90.385414L65.08125 85.86979L61.940624 90.385414L65.08125 90.385414ZM69.12813 88.979164Q69.12813 87.197914 69.4875 86.11979Q69.8625 85.02604 70.58125 84.447914Q71.3 83.854164 72.39375 83.854164Q73.20625 83.854164 73.81563 84.18229Q74.425 84.510414 74.81563 85.11979Q75.22188 85.729164 75.44063 86.604164Q75.65938 87.479164 75.65938 88.979164Q75.65938 90.74479 75.3 91.822914Q74.94063 92.90104 74.22188 93.49479Q73.50313 94.08854 72.39375 94.08854Q70.95625 94.08854 70.12813 93.041664Q69.12813 91.791664 69.12813 88.979164ZM70.39375 88.979164Q70.39375 91.447914 70.97188 92.260414Q71.55 93.072914 72.39375 93.072914Q73.25313 93.072914 73.83125 92.260414Q74.40938 91.43229 74.40938 88.979164Q74.40938 86.49479 73.83125 85.68229Q73.25313 84.86979 72.37813 84.86979Q71.53438 84.86979 71.03438 85.58854Q70.39375 86.510414 70.39375 88.979164ZM77.12813 88.979164Q77.12813 87.197914 77.4875 86.11979Q77.8625 85.02604 78.58125 84.447914Q79.3 83.854164 80.39375 83.854164Q81.20625 83.854164 81.81563 84.18229Q82.425 84.510414 82.81563 85.11979Q83.22188 85.729164 83.44063 86.604164Q83.65938 87.479164 83.65938 88.979164Q83.65938 90.74479 83.3 91.822914Q82.94063 92.90104 82.22188 93.49479Q81.50313 94.08854 80.39375 94.08854Q78.95625 94.08854 78.12813 93.041664Q77.12813 91.791664 77.12813 88.979164ZM78.39375 88.979164Q78.39375 91.447914 78.97188 92.260414Q79.55 93.072914 80.39375 93.072914Q81.25313 93.072914 81.83125 92.260414Q82.40938 91.43229 82.40938 88.979164Q82.40938 86.49479 81.83125 85.68229Q81.25313 84.86979 80.37813 84.86979Q79.53438 84.86979 79.03438 85.58854Q78.39375 86.510414 78.39375 88.979164ZM85.12813 88.979164Q85.12813 87.197914 85.4875 86.11979Q85.8625 85.02604 86.58125 84.447914Q87.3 83.854164 88.39375 83.854164Q89.20625 83.854164 89.81563 84.18229Q90.425 84.510414 90.81563 85.11979Q91.22188 85.729164 91.44063 86.604164Q91.65938 87.479164 91.65938 88.979164Q91.65938 90.74479 91.3 91.822914Q90.94063 92.90104 90.22188 93.49479Q89.50313 94.08854 88.39375 94.08854Q86.95625 94.08854 86.12813 93.041664Q85.12813 91.791664 85.12813 88.979164ZM86.39375 88.979164Q86.39375 91.447914 86.97188 92.260414Q87.55 93.072914 88.39375 93.072914Q89.25313 93.072914 89.83125 92.260414Q90.40938 91.43229 90.40938 88.979164Q90.40938 86.49479 89.83125 85.68229Q89.25313 84.86979 88.37813 84.86979Q87.53438 84.86979 87.03438 85.58854Q86.39375 86.510414 86.39375 88.979164Z" fill-rule="nonzero"/><path fill="#1a1a1a" d="M103.64375 91.072914Q103.64375 92.166664 103.12813 92.80729Q102.675 93.36979 101.78438 93.61979Q101.03438 93.822914 99.87813 93.822914Q98.55 93.822914 97.83125 93.33854Q97.03438 92.80729 97.03438 91.74479Q97.03438 91.15104 97.20625 90.52604Q97.34688 89.979164 97.64375 89.33854Q97.8625 88.86979 98.22188 88.21354L98.44063 88.33854Q98.19063 88.80729 98.01875 89.166664Q97.78438 89.65104 97.675 90.02604Q97.55 90.49479 97.55 90.93229Q97.55 91.77604 98.15938 92.21354Q98.76875 92.635414 99.8625 92.635414Q101.01875 92.635414 102.00313 92.24479Q103.08125 91.80729 103.08125 91.197914Q103.08125 90.52604 102.8625 88.947914Q102.70625 87.729164 102.45625 86.229164L102.2375 84.90104L101.925 84.729164Q101.925 83.822914 102.3 83.072914L102.40938 83.072914Q102.44063 83.322914 102.50313 83.447914Q102.58125 83.572914 102.7375 83.635414Q102.95625 83.729164 103.20625 83.854164Q103.39375 83.947914 103.51875 84.010414Q103.51875 84.49479 103.4875 84.71354Q103.45625 84.93229 103.34688 85.322914L102.95625 85.197914Q102.97188 85.354164 103.15938 86.572914Q103.37813 88.010414 103.47188 88.885414Q103.64375 90.30729 103.64375 91.072914Z" fill-rule="nonzero"/><path fill="#1a1a1a" d="M114.59688 92.729164L114.59688 93.916664L107.97188 93.916664Q107.95625 93.479164 108.1125 93.05729Q108.37813 92.385414 108.925 91.729164Q109.4875 91.072914 110.53438 90.21354Q112.175 88.86979 112.7375 88.08854Q113.31563 87.30729 113.31563 86.604164Q113.31563 85.86979 112.78438 85.36979Q112.26875 84.86979 111.44063 84.86979Q110.55 84.86979 110.00313 85.40104Q109.47188 85.93229 109.47188 86.885414L108.20625 86.74479Q108.33125 85.33854 109.175 84.604164Q110.03438 83.854164 111.45625 83.854164Q112.90938 83.854164 113.7375 84.65104Q114.58125 85.447914 114.58125 86.635414Q114.58125 87.24479 114.33125 87.822914Q114.09688 88.40104 113.51875 89.041664Q112.95625 89.68229 111.62813 90.80729Q110.51875 91.729164 110.20625 92.072914Q109.89375 92.40104 109.69063 92.729164L114.59688 92.729164ZM116.12813 88.979164Q116.12813 87.197914 116.4875 86.11979Q116.8625 85.02604 117.58125 84.447914Q118.3 83.854164 119.39375 83.854164Q120.20625 83.854164 120.81563 84.18229Q121.425 84.510414 121.81563 85.11979Q122.22188 85.729164 122.44063 86.604164Q122.65938 87.479164 122.65938 88.979164Q122.65938 90.74479 122.3 91.822914Q121.94063 92.90104 121.22188 93.49479Q120.50313 94.08854 119.39375 94.08854Q117.95625 94.08854 117.12813 93.041664Q116.12813 91.791664 116.12813 88.979164ZM117.39375 88.979164Q117.39375 91.447914 117.97188 92.260414Q118.55 93.072914 119.39375 93.072914Q120.25313 93.072914 120.83125 92.260414Q121.40938 91.43229 121.40938 88.979164Q121.40938 86.49479 120.83125 85.68229Q120.25313 84.86979 119.37813 84.86979Q118.53438 84.86979 118.03438 85.58854Q117.39375 86.510414 117.39375 88.979164ZM124.12813 88.979164Q124.12813 87.197914 124.4875 86.11979Q124.8625 85.02604 125.58125 84.447914Q126.3 83.854164 127.39375 83.854164Q128.20625 83.854164 128.81563 84.18229Q129.425 84.510414 129.81563 85.11979Q130.22188 85.729164 130.44063 86.604164Q130.65938 87.479164 130.65938 88.979164Q130.65938 90.74479 130.3 91.822914Q129.94063 92.90104 129.22188 93.49479Q128.50313 94.08854 127.39375 94.08854Q125.95625 94.08854 125.12813 93.041664Q124.12813 91.791664 124.12813 88.979164ZM125.39375 88.979164Q125.39375 91.447914 125.97188 92.260414Q126.55 93.072914 127.39375 93.072914Q128.25313 93.072914 128.83125 92.260414Q129.40938 91.43229 129.40938 88.979164Q129.40938 86.49479 128.83125 85.68229Q128.25313 84.86979 127.37813 84.86979Q126.53438 84.86979 126.03438 85.58854Q125.39375 86.510414 125.39375 88.979164ZM132.12813 88.979164Q132.12813 87.197914 132.4875 86.11979Q132.8625 85.02604 133.58125 84.447914Q134.3 83.854164 135.39375 83.854164Q136.20625 83.854164 136.81563 84.18229Q137.425 84.510414 137.81563 85.11979Q138.22188 85.729164 138.44063 86.604164Q138.65938 87.479164 138.65938 88.979164Q138.65938 90.74479 138.3 91.822914Q137.94063 92.90104 137.22188 93.49479Q136.50313 94.08854 135.39375 94.08854Q133.95625 94.08854 133.12813 93.041664Q132.12813 91.791664 132.12813 88.979164ZM133.39375 88.979164Q133.39375 91.447914 133.97188 92.260414Q134.55 93.072914 135.39375 93.072914Q136.25313 93.072914 136.83125 92.260414Q137.40938 91.43229 137.40938 88.979164Q137.40938 86.49479 136.83125 85.68229Q136.25313 84.86979 135.37813 84.86979Q134.53438 84.86979 134.03438 85.58854Q133.39375 86.510414 133.39375 88.979164Z" fill-rule="nonzero"/><path fill="#1a1a1a" d="M148.3625 86.666664L147.8625 87.65104L146.78438 87.05729L147.28438 86.104164L148.3625 86.666664ZM150.90938 91.916664Q150.90938 93.43229 150.01875 94.15104Q149.05 94.93229 146.90938 94.93229Q145.53438 94.93229 144.81563 94.447914Q144.01875 93.916664 144.01875 92.83854Q144.01875 92.24479 144.15938 91.65104Q144.31563 91.041664 144.55 90.43229Q144.70625 90.072914 145.08125 89.30729L145.34688 89.43229Q144.8625 90.416664 144.70625 90.979164Q144.56563 91.541664 144.56563 92.010414Q144.56563 92.86979 145.15938 93.30729Q145.76875 93.74479 146.89375 93.74479Q148.19063 93.74479 149.19063 93.291664Q150.425 92.71354 150.425 91.697914Q150.425 91.010414 150.22188 90.40104Q150.03438 89.86979 149.70625 89.479164L150.28438 88.072914Q150.64375 88.61979 150.76875 89.197914Q150.90938 89.77604 150.90938 90.729164L150.90938 91.916664ZM156.06563 91.916664L155.3625 91.916664Q154.89375 91.916664 154.33125 91.71354Q153.65938 91.46354 153.15938 91.05729Q152.75313 91.541664 152.33125 91.729164Q151.925 91.916664 151.14375 91.916664L150.06563 91.916664L150.06563 90.729164L151.1125 90.729164Q151.7375 90.729164 152.22188 90.416664Q152.59688 90.166664 152.90938 89.71354Q153.33125 89.11979 153.94063 88.666664Q154.4875 88.27604 154.94063 88.166664Q155.40938 88.885414 155.69063 89.46354Q156.06563 90.24479 156.06563 90.729164L156.06563 91.916664ZM155.28438 90.572914Q155.19063 90.166664 155.00313 89.791664Q154.84688 89.46354 154.59688 89.11979Q154.26875 89.21354 154.03438 89.43229Q153.89375 89.572914 153.675 89.916664Q153.925 90.18229 154.3625 90.40104Q154.81563 90.604164 155.22188 90.65104L155.28438 90.572914Z" fill-rule="nonzero"/><path fill="#669bbc" d="M30.55 114.916664C30.55 118.23038 27.863708 120.916664 24.55 120.916664C21.236292 120.916664 18.55 118.23038 18.55 114.916664C18.55 111.60296 21.236292 108.916664 24.55 108.916664C27.863708 108.916664 30.55 111.60296 30.55 114.916664Z" fill-rule="nonzero"/><path fill="#1a1a1a" d="M43.8 117.916664L42.815624 117.916664Q42.33125 117.916664 41.95625 117.072914Q41.675 116.447914 41.503124 115.447914Q41.3 115.83854 40.9875 116.05729Q40.675 116.260414 40.315624 116.260414Q39.534374 116.260414 39.003124 116.15104Q38.4875 116.041664 38.4875 115.885414Q38.4875 115.291664 39.253124 114.58854Q40.01875 113.86979 41.175 113.33854Q41.159374 113.27604 41.1125 113.041664Q41.065624 112.80729 41.065624 112.760414Q41.065624 112.52604 41.221874 112.24479Q41.346874 112.010414 41.565624 111.760414Q41.628124 112.18229 41.70625 112.58854Q41.784374 112.979164 41.878124 113.40104L42.08125 114.572914Q42.253124 115.541664 42.378124 116.010414Q42.596874 116.729164 42.815624 116.729164L43.8 116.729164L43.8 117.916664ZM41.409374 114.854164L41.284374 114.11979Q40.690624 114.322914 40.346874 114.55729Q40.003124 114.77604 39.76875 115.15104Q39.925 115.21354 40.1125 115.260414Q40.3 115.291664 40.628124 115.291664Q41.05 115.291664 41.409374 114.854164ZM46.971874 117.916664L43.065624 117.916664L43.065624 116.729164L46.471874 116.729164Q46.471874 115.916664 46.284374 115.49479Q46.14375 115.197914 45.628124 114.65104L46.175 113.52604Q46.659374 114.15104 46.784374 114.49479Q46.971874 115.02604 46.971874 116.24479L46.971874 117.916664ZM46.940624 119.27604L46.39375 120.260414L45.3 119.68229L45.8 118.697914L46.940624 119.27604ZM45.3625 119.90104L44.846874 120.885414L43.7375 120.30729L44.2375 119.322914L45.3625 119.90104ZM49.425 111.58854L48.909374 112.58854L47.8 112.010414L48.3 111.010414L49.425 111.58854ZM49.971874 117.916664L46.065624 117.916664L46.065624 116.729164L49.471874 116.729164Q49.471874 115.916664 49.284374 115.49479Q49.14375 115.197914 48.628124 114.65104L49.175 113.52604Q49.659374 114.15104 49.784374 114.49479Q49.971874 115.02604 49.971874 116.24479L49.971874 117.916664ZM56.971874 117.916664L49.065624 117.916664L49.065624 116.729164L54.64375 116.729164Q53.940624 116.18229 53.471874 115.885414Q52.878124 115.510414 52.378124 115.33854Q51.83125 115.15104 51.253124 115.15104Q50.909374 115.15104 50.55 115.197914Q50.753124 114.68229 51.08125 114.385414Q51.534374 113.93229 52.253124 113.93229Q52.940624 113.93229 53.89375 114.61979Q54.3625 114.96354 55.440624 115.916664Q56.26875 116.666664 56.55 116.729164L56.971874 116.729164L56.971874 117.916664ZM53.4875 119.40104L52.971874 120.385414L51.8625 119.80729L52.39375 118.80729L53.4875 119.40104Z" fill-rule="nonzero"/><path fill="#1a1a1a" d="M67.51875 112.354164L66.3 112.447914Q66.12813 111.71354 65.83125 111.385414Q65.33125 110.86979 64.59688 110.86979Q64.00313 110.86979 63.565624 111.197914Q62.9875 111.61979 62.64375 112.43229Q62.315624 113.24479 62.3 114.74479Q62.7375 114.072914 63.378124 113.74479Q64.03438 113.416664 64.7375 113.416664Q65.97188 113.416664 66.83125 114.322914Q67.69063 115.229164 67.69063 116.666664Q67.69063 117.604164 67.28438 118.416664Q66.87813 119.229164 66.15938 119.666664Q65.45625 120.08854 64.55 120.08854Q63.01875 120.08854 62.05 118.96354Q61.08125 117.822914 61.08125 115.229164Q61.08125 112.322914 62.14375 110.99479Q63.08125 109.854164 64.675 109.854164Q65.8625 109.854164 66.6125 110.52604Q67.3625 111.18229 67.51875 112.354164ZM62.4875 116.666664Q62.4875 117.30729 62.753124 117.885414Q63.034374 118.46354 63.51875 118.77604Q64.00313 119.072914 64.53438 119.072914Q65.31563 119.072914 65.87813 118.447914Q66.44063 117.822914 66.44063 116.74479Q66.44063 115.697914 65.87813 115.104164Q65.33125 114.49479 64.4875 114.49479Q63.659374 114.49479 63.065624 115.104164Q62.4875 115.697914 62.4875 116.666664ZM69.12813 114.979164Q69.12813 113.197914 69.4875 112.11979Q69.8625 111.02604 70.58125 110.447914Q71.3 109.854164 72.39375 109.854164Q73.20625 109.854164 73.81563 110.18229Q74.425 110.510414 74.81563 111.11979Q75.22188 111.729164 75.44063 112.604164Q75.65938 113.479164 75.65938 114.979164Q75.65938 116.74479 75.3 117.822914Q74.94063 118.90104 74.22188 119.49479Q73.50313 120.08854 72.39375 120.08854Q70.95625 120.08854 70.12813 119.041664Q69.12813 117.791664 69.12813 114.979164ZM70.39375 114.979164Q70.39375 117.447914 70.97188 118.260414Q71.55 119.072914 72.39375 119.072914Q73.25313 119.072914 73.83125 118.260414Q74.40938 117.43229 74.40938 114.979164Q74.40938 112.49479 73.83125 111.68229Q73.25313 110.86979 72.37813 110.86979Q71.53438 110.86979 71.03438 111.58854Q70.39375 112.510414 70.39375 114.979164ZM77.12813 114.979164Q77.12813 113.197914 77.4875 112.11979Q77.8625 111.02604 78.58125 110.447914Q79.3 109.854164 80.39375 109.854164Q81.20625 109.854164 81.81563 110.18229Q82.425 110.510414 82.81563 111.11979Q83.22188 111.729164 83.44063 112.604164Q83.65938 113.479164 83.65938 114.979164Q83.65938 116.74479 83.3 117.822914Q82.94063 118.90104 82.22188 119.49479Q81.50313 120.08854 80.39375 120.08854Q78.95625 120.08854 78.12813 119.041664Q77.12813 117.791664 77.12813 114.979164ZM78.39375 114.979164Q78.39375 117.447914 78.97188 118.260414Q79.55 119.072914 80.39375 119.072914Q81.25313 119.072914 81.83125 118.260414Q82.40938 117.43229 82.40938 114.979164Q82.40938 112.49479 81.83125 111.68229Q81.25313 110.86979 80.37813 110.86979Q79.53438 110.86979 79.03438 111.58854Q78.39375 112.510414 78.39375 114.979164ZM85.12813 114.979164Q85.12813 113.197914 85.4875 112.11979Q85.8625 111.02604 86.58125 110.447914Q87.3 109.854164 88.39375 109.854164Q89.20625 109.854164 89.81563 110.18229Q90.425 110.510414 90.81563 111.11979Q91.22188 111.729164 91.44063 112.604164Q91.65938 113.479164 91.65938 114.979164Q91.65938 116.74479 91.3 117.822914Q90.94063 118.90104 90.22188 119.49479Q89.50313 120.08854 88.39375 120.08854Q86.95625 120.08854 86.12813 119.041664Q85.12813 117.791664 85.12813 114.979164ZM86.39375 114.979164Q86.39375 117.447914 86.97188 118.260414Q87.55 119.072914 88.39375 119.072914Q89.25313 119.072914 89.83125 118.260414Q90.40938 117.43229 90.40938 114.979164Q90.40938 112.49479 89.83125 111.68229Q89.25313 110.86979 88.37813 110.86979Q87.53438 110.86979 87.03438 111.58854Q86.39375 112.510414 86.39375 114.979164Z" fill-rule="nonzero"/><path fill="#1a1a1a" d="M103.64375 117.072914Q103.64375 118.166664 103.12813 118.80729Q102.675 119.36979 101.78438 119.61979Q101.03438 119.822914 99.87813 119.822914Q98.55 119.822914 97.83125 119.33854Q97.03438 118.80729 97.03438 117.74479Q97.03438 117.15104 97.20625 116.52604Q97.34688 115.979164 97.64375 115.33854Q97.8625 114.86979 98.22188 114.21354L98.44063 114.33854Q98.19063 114.80729 98.01875 115.166664Q97.78438 115.65104 97.675 116.02604Q97.55 116.49479 97.55 116.93229Q97.55 117.77604 98.15938 118.21354Q98.76875 118.635414 99.8625 118.635414Q101.01875 118.635414 102.00313 118.24479Q103.08125 117.80729 103.08125 117.197914Q103.08125 116.52604 102.8625 114.947914Q102.70625 113.729164 102.45625 112.229164L102.2375 110.90104L101.925 110.729164Q101.925 109.822914 102.3 109.072914L102.40938 109.072914Q102.44063 109.322914 102.50313 109.447914Q102.58125 109.572914 102.7375 109.635414Q102.95625 109.729164 103.20625 109.854164Q103.39375 109.947914 103.51875 110.010414Q103.51875 110.49479 103.4875 110.71354Q103.45625 110.93229 103.34688 111.322914L102.95625 111.197914Q102.97188 111.354164 103.15938 112.572914Q103.37813 114.010414 103.47188 114.885414Q103.64375 116.30729 103.64375 117.072914Z" fill-rule="nonzero"/><path fill="#1a1a1a" d="M112.08125 119.916664L112.08125 117.510414L107.72188 117.510414L107.72188 116.385414L112.3 109.90104L113.3 109.90104L113.3 116.385414L114.65938 116.385414L114.65938 117.510414L113.3 117.510414L113.3 119.916664L112.08125 119.916664ZM112.08125 116.385414L112.08125 111.86979L108.94063 116.385414L112.08125 116.385414ZM116.12813 114.979164Q116.12813 113.197914 116.4875 112.11979Q116.8625 111.02604 117.58125 110.447914Q118.3 109.854164 119.39375 109.854164Q120.20625 109.854164 120.81563 110.18229Q121.425 110.510414 121.81563 111.11979Q122.22188 111.729164 122.44063 112.604164Q122.65938 113.479164 122.65938 114.979164Q122.65938 116.74479 122.3 117.822914Q121.94063 118.90104 121.22188 119.49479Q120.50313 120.08854 119.39375 120.08854Q117.95625 120.08854 117.12813 119.041664Q116.12813 117.791664 116.12813 114.979164ZM117.39375 114.979164Q117.39375 117.447914 117.97188 118.260414Q118.55 119.072914 119.39375 119.072914Q120.25313 119.072914 120.83125 118.260414Q121.40938 117.43229 121.40938 114.979164Q121.40938 112.49479 120.83125 111.68229Q120.25313 110.86979 119.37813 110.86979Q118.53438 110.86979 118.03438 111.58854Q117.39375 112.510414 117.39375 114.979164ZM124.12813 114.979164Q124.12813 113.197914 124.4875 112.11979Q124.8625 111.02604 125.58125 110.447914Q126.3 109.854164 127.39375 109.854164Q128.20625 109.854164 128.81563 110.18229Q129.425 110.510414 129.81563 111.11979Q130.22188 111.729164 130.44063 112.604164Q130.65938 113.479164 130.65938 114.979164Q130.65938 116.74479 130.3 117.822914Q129.94063 118.90104 129.22188 119.49479Q128.50313 120.08854 127.39375 120.08854Q125.95625 120.08854 125.12813 119.041664Q124.12813 117.791664 124.12813 114.979164ZM125.39375 114.979164Q125.39375 117.447914 125.97188 118.260414Q126.55 119.072914 127.39375 119.072914Q128.25313 119.072914 128.83125 118.260414Q129.40938 117.43229 129.40938 114.979164Q129.40938 112.49479 128.83125 111.68229Q128.25313 110.86979 127.37813 110.86979Q126.53438 110.86979 126.03438 111.58854Q125.39375 112.510414 125.39375 114.979164ZM132.12813 114.979164Q132.12813 113.197914 132.4875 112.11979Q132.8625 111.02604 133.58125 110.447914Q134.3 109.854164 135.39375 109.854164Q136.20625 109.854164 136.81563 110.18229Q137.425 110.510414 137.81563 111.11979Q138.22188 111.729164 138.44063 112.604164Q138.65938 113.479164 138.65938 114.979164Q138.65938 116.74479 138.3 117.822914Q137.94063 118.90104 137.22188 119.49479Q136.50313 120.08854 135.39375 120.08854Q133.95625 120.08854 133.12813 119.041664Q132.12813 117.791664 132.12813 114.979164ZM133.39375 114.979164Q133.39375 117.447914 133.97188 118.260414Q134.55 119.072914 135.39375 119.072914Q136.25313 119.072914 136.83125 118.260414Q137.40938 117.43229 137.40938 114.979164Q137.40938 112.49479 136.83125 111.68229Q136.25313 110.86979 135.37813 110.86979Q134.53438 110.86979 134.03438 111.58854Q133.39375 112.510414 133.39375 114.979164Z" fill-rule="nonzero"/><path fill="#1a1a1a" d="M148.3625 112.666664L147.8625 113.65104L146.78438 113.05729L147.28438 112.104164L148.3625 112.666664ZM150.90938 117.916664Q150.90938 119.43229 150.01875 120.15104Q149.05 120.93229 146.90938 120.93229Q145.53438 120.93229 144.81563 120.447914Q144.01875 119.916664 144.01875 118.83854Q144.01875 118.24479 144.15938 117.65104Q144.31563 117.041664 144.55 116.43229Q144.70625 116.072914 145.08125 115.30729L145.34688 115.43229Q144.8625 116.416664 144.70625 116.979164Q144.56563 117.541664 144.56563 118.010414Q144.56563 118.86979 145.15938 119.30729Q145.76875 119.74479 146.89375 119.74479Q148.19063 119.74479 149.19063 119.291664Q150.425 118.71354 150.425 117.697914Q150.425 117.010414 150.22188 116.40104Q150.03438 115.86979 149.70625 115.479164L150.28438 114.072914Q150.64375 114.61979 150.76875 115.197914Q150.90938 115.77604 150.90938 116.729164L150.90938 117.916664ZM156.06563 117.916664L155.3625 117.916664Q154.89375 117.916664 154.33125 117.71354Q153.65938 117.46354 153.15938 117.05729Q152.75313 117.541664 152.33125 117.729164Q151.925 117.916664 151.14375 117.916664L150.06563 117.916664L150.06563 116.729164L151.1125 116.729164Q151.7375 116.729164 152.22188 116.416664Q152.59688 116.166664 152.90938 115.71354Q153.33125 115.11979 153.94063 114.666664Q154.4875 114.27604 154.94063 114.166664Q155.40938 114.885414 155.69063 115.46354Q156.06563 116.24479 156.06563 116.729164L156.06563 117.916664ZM155.28438 116.572914Q155.19063 116.166664 155.00313 115.791664Q154.84688 115.46354 154.59688 115.11979Q154.26875 115.21354 154.03438 115.43229Q153.89375 115.572914 153.675 115.916664Q153.925 116.18229 154.3625 116.40104Q154.81563 116.604164 155.22188 116.65104L155.28438 116.572914Z" fill-rule="nonzero"/><path fill="#001723" d="M203.41875 29.925L203.41875 27.175L206.15312 27.175L206.15312 29.925L203.41875 29.925ZM203.41875 37.55L203.41875 34.8L206.15312 34.8L206.15312 37.55L203.41875 37.55ZM214.43437 41.753124L212.55937 41.753124Q211.05937 39.503124 210.27812 37.08125Q209.49687 34.64375 209.49687 32.3625Q209.49687 29.534374 210.46562 27.01875Q211.30937 24.83125 212.59062 22.9875L214.46562 22.9875Q213.12187 25.940624 212.62187 28.01875Q212.12187 30.096874 212.12187 32.425Q212.12187 34.01875 212.41875 35.70625Q212.71562 37.378124 213.23125 38.89375Q213.575 39.89375 214.43437 41.753124ZM227.29375 25.378124L226.21562 27.378124L224.825 26.596874L224.04375 28.128124L222.23125 27.14375L223.24687 25.2375L224.68437 25.971874L225.5125 24.378124L227.29375 25.378124ZM227.7 34.95625Q227.7 36.878124 227.48125 37.503124Q227.2625 38.1125 226.45 38.76875Q224.68437 40.14375 221.45 40.14375Q218.74687 40.14375 217.27812 39.253124Q215.825 38.378124 215.825 36.70625Q215.825 35.26875 216.27812 34.096874Q216.77812 32.815624 218.1375 30.925L218.71562 31.33125Q217.84062 32.628124 217.45 33.51875Q217.075 34.409374 217.075 35.2375Q217.075 36.440624 218.30937 37.1125Q219.54375 37.76875 221.7625 37.76875Q223.77812 37.76875 225.325 36.9875Q226.87187 36.20625 226.87187 35.20625Q226.87187 35.08125 226.85625 34.940624Q226.85625 34.8 226.80937 34.6125Q225.77812 34.721874 225.27812 34.721874Q224.21562 34.721874 223.60625 34.190624Q222.99687 33.64375 222.99687 32.659374Q222.99687 31.2375 223.71562 29.8Q224.49687 28.26875 225.46562 28.26875Q226.5125 28.26875 227.1375 29.784374Q227.7 31.175 227.7 33.2375L227.7 34.95625ZM225.93437 32.01875Q225.66875 31.409374 225.3875 31.159374Q225.12187 30.909374 224.73125 30.909374Q224.49687 30.909374 224.35625 31.065624Q224.21562 31.20625 224.21562 31.45625Q224.21562 32.096874 225.02812 32.096874Q225.325 32.096874 225.45 32.08125Q225.59062 32.065624 225.93437 32.01875ZM232.12187 21.76875L230.95 23.95625L228.66875 22.76875L229.91875 20.55L232.12187 21.76875ZM233.54375 34.690624L226.7625 34.690624L226.7625 32.034374L232.62187 32.034374Q232.62187 31.175 232.575 30.815624Q232.49687 30.26875 232.2625 29.846874Q231.95 30.45625 231.41875 30.784374Q230.8875 31.096874 230.29375 31.096874Q229.5125 31.096874 228.96562 30.58125Q228.43437 30.065624 228.43437 29.284374Q228.43437 28.128124 229.1375 26.55Q229.91875 24.815624 230.7 24.815624Q231.73125 24.815624 232.6375 26.6125Q233.54375 28.39375 233.54375 30.378124L233.54375 34.690624ZM231.41875 28.1125Q231.16875 27.659374 230.96562 27.4875Q230.7625 27.3 230.52812 27.3Q230.23125 27.3 229.99687 27.565624Q229.7625 27.815624 229.7625 28.175Q229.7625 28.39375 229.93437 28.55Q230.12187 28.70625 230.40312 28.70625Q230.6375 28.70625 230.85625 28.58125Q231.09062 28.440624 231.41875 28.1125ZM237.05937 31.846874Q237.05937 32.721874 236.85625 33.440624Q236.65312 34.14375 236.075 35.3625L235.48125 35.128124Q235.71562 33.878124 235.71562 33.096874Q235.71562 32.503124 235.62187 31.346874Q235.52812 30.190624 235.37187 29.065624Q235.23125 27.940624 234.90312 26.378124Q234.77812 25.83125 234.77812 25.628124Q234.77812 25.315624 235.075 24.596874Q235.3875 23.8625 235.93437 22.83125L236.5125 26.284374Q236.84062 28.26875 236.96562 29.70625Q237.05937 30.815624 237.05937 31.846874ZM246.10625 34.909374Q246.10625 35.503124 245.41875 36.4875Q244.73125 37.471874 243.825 38.190624Q242.80937 39.003124 242.075 39.003124Q241.21562 39.003124 240.23125 38.503124Q239.37187 38.08125 237.54375 36.83125L237.96562 36.221874Q238.84062 36.8 239.37187 37.01875Q239.91875 37.221874 240.54375 37.221874Q241.21562 37.221874 241.8875 36.846874Q242.55937 36.45625 243.71562 35.425Q245.34062 33.971874 245.34062 33.190624Q245.34062 32.8 245.02812 32.175Q244.68437 31.440624 244.16875 30.971874L244.71562 28.33125Q245.3875 29.01875 245.74687 29.909374Q246.10625 30.784374 246.10625 31.925L246.10625 34.909374ZM254.74687 34.675Q253.73125 34.675 252.34062 34.284374Q251.12187 33.925 250.18437 33.440624Q249.62187 34.3 248.79375 34.565624Q248.3875 34.690624 247.7 34.690624L245.7625 34.690624L245.7625 32.034374L247.7 32.034374Q248.575 32.034374 249.09062 31.815624Q249.7625 31.55 250.0125 30.8625Q250.575 29.628124 251.43437 28.83125Q252.21562 28.1125 252.74687 28.1125Q253.24687 28.1125 253.98125 29.6125Q254.74687 31.20625 254.74687 32.55L254.74687 34.675ZM252.91875 31.721874Q252.91875 31.51875 252.5125 30.9875Q252.04375 30.39375 251.7 30.39375Q251.30937 30.39375 251.04375 31.284374Q251.55937 31.471874 251.825 31.565624Q252.60625 31.8625 252.71562 31.8625Q252.91875 31.8625 252.91875 31.721874ZM259.1375 34.690624L253.7625 34.690624L253.7625 32.034374L257.96564 32.034374L256.77814 25.39375L256.15314 24.9875Q256.15314 24.409374 256.34064 23.83125Q256.5594 23.08125 257.09064 22.065624L257.54376 22.3Q257.54376 22.346874 257.5125 22.6125Q257.5125 22.925 257.91876 23.2375Q258.27814 23.503124 259.075 23.83125Q258.98126 24.45625 258.8094 25.065624Q258.6375 25.659374 258.41876 26.128124L258.075 25.9875L259.1375 32.034374L259.1375 34.690624ZM263.0594 31.846874Q263.0594 32.721874 262.85626 33.440624Q262.65314 34.14375 262.075 35.3625L261.48126 35.128124Q261.71564 33.878124 261.71564 33.096874Q261.71564 32.503124 261.6219 31.346874Q261.52814 30.190624 261.3719 29.065624Q261.23126 27.940624 260.90314 26.378124Q260.77814 25.83125 260.77814 25.628124Q260.77814 25.315624 261.075 24.596874Q261.3875 23.8625 261.9344 22.83125L262.5125 26.284374Q262.84064 28.26875 262.96564 29.70625Q263.0594 30.815624 263.0594 31.846874ZM272.48126 34.01875Q272.48126 35.690624 271.04376 37.33125Q269.6219 38.971874 268.23126 38.971874Q267.41876 38.971874 266.45 38.45625Q265.4969 37.940624 263.5125 36.409374L263.91876 35.846874Q264.98126 36.55 265.65314 36.784374Q266.2 36.9875 266.90314 36.9875Q267.85626 36.9875 268.77814 36.45625Q269.8719 35.83125 271.04376 34.440624Q270.6375 34.503124 270.3719 34.503124Q269.40314 34.503124 268.825 33.878124Q268.2625 33.2375 268.2625 32.159374Q268.2625 30.690624 268.9344 29.33125Q269.66876 27.8625 270.60626 27.8625Q271.3875 27.8625 271.9344 28.925Q272.48126 29.9875 272.48126 31.4875L272.48126 34.01875ZM271.3094 32.034374Q271.02814 30.45625 270.1844 30.45625Q269.8875 30.45625 269.7 30.70625Q269.52814 30.940624 269.52814 31.221874Q269.52814 31.565624 269.90314 31.8Q270.29376 32.034374 270.9344 32.034374L271.3094 32.034374ZM287.9969 25.425L286.91876 27.409374L285.52814 26.628124L284.7469 28.175L282.9344 27.175L283.95 25.284374L285.3875 26.003124L286.21564 24.425L287.9969 25.425ZM291.4344 34.690624L283.2469 34.690624Q282.0594 34.690624 281.66876 34.659374Q281.29376 34.6125 280.84064 34.440624Q280.04376 34.175 279.52814 33.33125Q279.0125 32.4875 279.0125 31.45625Q279.0125 31.05 279.04376 30.7375Q279.09064 30.425 279.2 29.9875Q279.3719 29.3625 279.575 28.940624Q279.77814 28.503124 280.29376 27.76875L280.84064 28.159374Q280.41876 28.925 280.2625 29.378124Q280.1219 29.83125 280.1219 30.26875Q280.1219 30.815624 280.48126 31.26875Q280.84064 31.70625 281.40314 31.846874Q281.7469 31.940624 282.29376 31.9875Q282.85626 32.034374 283.46564 32.034374L290.52814 32.034374Q290.2469 31.284374 290.075 30.971874Q289.8719 30.6125 289.40314 30.034374L290.29376 27.76875Q291.0125 28.815624 291.2469 29.675Q291.4344 30.440624 291.4344 31.925L291.4344 34.690624ZM296.1375 34.690624L294.77814 34.690624Q293.6219 34.690624 293.1219 33.753124Q292.5594 32.721874 292.5594 30.26875L292.5594 27.4875Q292.5594 26.534374 292.29376 26.003124Q292.16876 25.753124 291.7 25.26875L292.7625 22.83125Q293.325 23.6125 293.54376 24.378124Q293.8094 25.26875 293.8094 26.64375L293.8094 28.565624Q293.8094 30.6125 294.09064 31.39375Q294.3094 32.034374 294.77814 32.034374L296.1375 32.034374L296.1375 34.690624ZM304.7469 34.675Q303.73126 34.675 302.34064 34.284374Q301.1219 33.925 300.1844 33.440624Q299.6219 34.3 298.79376 34.565624Q298.3875 34.690624 297.7 34.690624L295.7625 34.690624L295.7625 32.034374L297.7 32.034374Q298.575 32.034374 299.09064 31.815624Q299.7625 31.55 300.0125 30.8625Q300.575 29.628124 301.4344 28.83125Q302.21564 28.1125 302.7469 28.1125Q303.2469 28.1125 303.98126 29.6125Q304.7469 31.20625 304.7469 32.55L304.7469 34.675ZM302.91876 31.721874Q302.91876 31.51875 302.5125 30.9875Q302.04376 30.39375 301.7 30.39375Q301.3094 30.39375 301.04376 31.284374Q301.5594 31.471874 301.825 31.565624Q302.60626 31.8625 302.71564 31.8625Q302.91876 31.8625 302.91876 31.721874ZM311.3094 34.690624L306.8875 34.690624Q306.23126 34.690624 305.90314 34.409374Q305.48126 34.08125 305.48126 33.33125Q305.48126 32.89375 305.5125 32.409374Q305.5594 31.909374 305.65314 31.39375L306.02814 31.378124Q306.10626 31.721874 306.3719 31.878124Q306.6375 32.034374 307.0125 32.034374L310.3719 32.034374Q310.15314 30.596874 309.59064 29.7375Q309.1375 29.01875 308.325 28.503124L309.02814 25.45625Q310.29376 26.409374 310.825 27.89375Q311.3094 29.284374 311.3094 31.55L311.3094 34.690624ZM317.9969 24.284374L316.825 26.471874L314.54376 25.284374L315.71564 23.08125L317.9969 24.284374ZM321.91876 34.690624L310.7625 34.690624L310.7625 32.034374L317.71564 32.034374Q316.52814 30.815624 315.52814 30.26875Q314.6375 29.8 313.77814 29.8Q313.52814 29.8 313.3094 29.83125Q313.10626 29.846874 312.71564 29.925Q313.2469 28.70625 313.90314 28.128124Q314.5594 27.534374 315.40314 27.534374Q316.04376 27.534374 316.6375 27.846874Q317.2469 28.159374 317.98126 28.846874Q318.575 29.39375 319.6375 30.55Q320.3719 31.378124 320.7625 31.628124Q321.15314 31.8625 321.91876 32.034374L321.91876 34.690624ZM326.1375 34.690624L320.7625 34.690624L320.7625 32.034374L324.96564 32.034374L323.77814 25.39375L323.15314 24.9875Q323.15314 24.409374 323.34064 23.83125Q323.5594 23.08125 324.09064 22.065624L324.54376 22.3Q324.54376 22.346874 324.5125 22.6125Q324.5125 22.925 324.91876 23.2375Q325.27814 23.503124 326.075 23.83125Q325.98126 24.45625 325.8094 25.065624Q325.6375 25.659374 325.41876 26.128124L325.075 25.9875L326.1375 32.034374L326.1375 34.690624ZM330.0594 31.846874Q330.0594 32.721874 329.85626 33.440624Q329.65314 34.14375 329.075 35.3625L328.48126 35.128124Q328.71564 33.878124 328.71564 33.096874Q328.71564 32.503124 328.6219 31.346874Q328.52814 30.190624 328.3719 29.065624Q328.23126 27.940624 327.90314 26.378124Q327.77814 25.83125 327.77814 25.628124Q327.77814 25.315624 328.075 24.596874Q328.3875 23.8625 328.9344 22.83125L329.5125 26.284374Q329.84064 28.26875 329.96564 29.70625Q330.0594 30.815624 330.0594 31.846874ZM342.4969 21.003124L341.41876 22.815624L340.02814 22.034374L339.2469 23.58125L337.4344 22.58125L338.45 20.8625L339.90314 21.58125L340.7469 20.08125L342.4969 21.003124ZM344.7469 34.690624L343.46564 34.690624Q343.1219 34.690624 342.825 34.534374Q342.2625 34.253124 341.8719 33.503124Q341.34064 32.471874 341.1844 30.675Q340.52814 31.4875 340.15314 31.83125Q339.6219 32.33125 339.2469 32.33125Q339.075 32.33125 338.77814 32.26875L337.59064 32.034374Q336.825 31.878124 336.65314 31.815624Q336.48126 31.753124 336.48126 31.565624Q336.48126 31.315624 337.15314 29.909374Q337.84064 28.503124 338.1375 28.175Q338.3875 27.909374 339.0125 27.4875Q339.3875 27.2375 340.0594 26.83125L340.575 26.534374Q340.5594 26.39375 340.54376 26.253124Q340.52814 26.1125 340.52814 25.9875Q340.52814 25.6125 340.7 25.05Q340.8719 24.4875 341.3094 23.659374L342.2469 29.753124Q342.46564 31.190624 342.825 31.70625Q343.0594 32.034374 343.46564 32.034374L344.7469 32.034374L344.7469 34.690624ZM340.95 29.175L340.7625 28.003124Q340.45 28.14375 340.2625 28.2375Q339.73126 28.51875 339.40314 28.753124Q339.16876 28.95625 339.0125 29.128124Q338.825 29.33125 338.825 29.440624Q338.825 29.58125 339.16876 29.659374Q339.5125 29.7375 339.84064 29.7375Q340.0594 29.7375 340.29376 29.6125Q340.52814 29.4875 340.95 29.175ZM349.1375 34.690624L343.7625 34.690624L343.7625 32.034374L347.96564 32.034374L346.77814 25.39375L346.15314 24.9875Q346.15314 24.409374 346.34064 23.83125Q346.5594 23.08125 347.09064 22.065624L347.54376 22.3Q347.54376 22.346874 347.5125 22.6125Q347.5125 22.925 347.91876 23.2375Q348.27814 23.503124 349.075 23.83125Q348.98126 24.45625 348.8094 25.065624Q348.6375 25.659374 348.41876 26.128124L348.075 25.9875L349.1375 32.034374L349.1375 34.690624ZM357.7469 34.675Q356.73126 34.675 355.34064 34.284374Q354.1219 33.925 353.1844 33.440624Q352.6219 34.3 351.79376 34.565624Q351.3875 34.690624 350.7 34.690624L348.7625 34.690624L348.7625 32.034374L350.7 32.034374Q351.575 32.034374 352.09064 31.815624Q352.7625 31.55 353.0125 30.8625Q353.575 29.628124 354.4344 28.83125Q355.21564 28.1125 355.7469 28.1125Q356.2469 28.1125 356.98126 29.6125Q357.7469 31.20625 357.7469 32.55L357.7469 34.675ZM355.91876 31.721874Q355.91876 31.51875 355.5125 30.9875Q355.04376 30.39375 354.7 30.39375Q354.3094 30.39375 354.04376 31.284374Q354.5594 31.471874 354.825 31.565624Q355.60626 31.8625 355.71564 31.8625Q355.91876 31.8625 355.91876 31.721874ZM362.1375 34.690624L360.77814 34.690624Q359.6219 34.690624 359.1219 33.753124Q358.5594 32.721874 358.5594 30.26875L358.5594 27.4875Q358.5594 26.534374 358.29376 26.003124Q358.16876 25.753124 357.7 25.26875L358.7625 22.83125Q359.325 23.6125 359.54376 24.378124Q359.8094 25.26875 359.8094 26.64375L359.8094 28.565624Q359.8094 30.6125 360.09064 31.39375Q360.3094 32.034374 360.77814 32.034374L362.1375 32.034374L362.1375 34.690624ZM371.59064 23.003124L370.6219 25.034374L368.77814 24.065624L369.77814 22.065624L371.59064 23.003124ZM373.48126 25.315624L372.41876 27.315624L371.02814 26.534374L370.16876 28.08125L368.4344 27.08125L369.45 25.190624L370.8875 25.909374L371.71564 24.33125L373.48126 25.315624ZM374.6219 34.690624Q373.52814 34.690624 372.79376 34.534374Q372.075 34.378124 371.3719 34.034374Q370.8094 34.440624 370.35626 34.565624Q369.91876 34.690624 369.02814 34.690624L367.4344 34.690624Q366.79376 34.690624 366.40314 34.346874Q366.02814 34.003124 365.71564 33.20625Q365.1844 34.034374 364.52814 34.378124Q363.95 34.690624 363.16876 34.690624L361.7625 34.690624L361.7625 32.034374L363.16876 32.034374Q364.1844 32.034374 364.8719 31.45625Q365.7625 30.70625 365.7625 29.175L366.40314 29.26875Q366.3875 29.58125 366.35626 29.9875Q366.34064 30.378124 366.34064 30.8625Q366.34064 31.3625 366.6844 31.70625Q367.02814 32.034374 367.46564 32.034374L368.66876 32.034374Q369.85626 32.034374 370.3719 31.70625Q370.98126 31.3 370.98126 30.20625Q370.98126 29.971874 371.1375 29.784374Q371.21564 29.675 371.4969 29.45625L371.8719 29.175Q371.8875 29.3625 371.8875 29.675Q371.90314 29.9875 371.90314 30.08125Q371.90314 30.628124 371.7469 31.51875Q372.10626 31.690624 372.5594 31.815624Q373.0125 31.940624 373.5125 32.01875Q373.5125 31.675 373.2625 31.159374Q373.0125 30.628124 373.0125 30.440624Q373.0125 30.190624 373.09064 30.05Q373.10626 30.003124 373.29376 29.753124L374.1375 28.628124Q374.3875 29.2375 374.4969 29.7375Q374.6219 30.2375 374.6219 31.003124L374.6219 34.690624ZM375.1219 41.753124Q375.9344 40.01875 376.2625 39.08125Q376.60626 38.159374 376.8875 36.95625Q377.16876 35.7375 377.29376 34.659374Q377.4344 33.565624 377.4344 32.425Q377.4344 30.096874 376.9344 28.01875Q376.45 25.940624 375.10626 22.9875L376.96564 22.9875Q378.45 25.08125 379.2625 27.440624Q380.075 29.8 380.075 32.221874Q380.075 34.253124 379.4344 36.596874Q378.7 39.20625 377.0125 41.753124L375.1219 41.753124ZM395.0594 26.51875L393.8875 28.70625L391.60626 27.51875L392.77814 25.315624L395.0594 26.51875ZM398.27814 34.20625Q398.27814 35.55 398.0125 36.378124Q397.7469 37.190624 397.1375 37.690624Q396.54376 38.190624 395.3875 38.503124Q394.23126 38.815624 392.9969 38.815624Q390.6219 38.815624 389.34064 37.95625Q388.0594 37.096874 388.0594 35.503124Q388.0594 34.14375 388.46564 33.01875Q388.91876 31.784374 390.23126 29.8L390.8094 30.20625Q389.84064 31.8625 389.54376 32.6125Q389.2469 33.346874 389.2469 34.128124Q389.2469 35.159374 390.34064 35.815624Q391.45 36.45625 393.23126 36.45625Q394.9969 36.45625 396.1844 35.784374Q397.3875 35.1125 397.3875 34.128124Q397.3875 33.51875 397.16876 32.925Q396.96564 32.33125 396.27814 31.01875L397.1375 28.39375Q397.825 29.628124 397.98126 30.096874Q398.27814 30.940624 398.27814 32.253124L398.27814 34.20625ZM405.65314 34.690624L397.7625 34.690624L397.7625 32.034374L404.10626 32.034374Q403.73126 31.565624 403.35626 31.2375Q403.075 30.95625 402.575 30.565624Q402.0125 30.14375 401.46564 29.70625L401.15314 30.065624Q400.29376 29.20625 400.1219 29.01875Q399.6375 28.45625 399.6375 27.7375Q399.6375 26.753124 399.7625 26.346874Q399.96564 25.784374 400.60626 25.346874Q401.16876 24.95625 401.8094 24.628124Q402.325 24.378124 403.15314 24.034374Q403.54376 23.878124 404.8094 23.39375L404.8094 25.70625Q404.7625 25.70625 403.98126 25.971874Q403.02814 26.284374 402.46564 26.51875Q401.6375 26.846874 401.6375 27.01875Q401.6375 27.096874 402.34064 27.76875Q403.27814 28.690624 403.9344 29.45625Q404.9969 30.70625 405.65314 31.95625L405.65314 34.690624ZM417.6219 34.690624Q416.52814 34.690624 415.79376 34.534374Q415.075 34.378124 414.3719 34.034374Q413.8094 34.440624 413.35626 34.565624Q412.91876 34.690624 412.02814 34.690624L410.4344 34.690624Q409.79376 34.690624 409.40314 34.346874Q409.02814 34.003124 408.71564 33.20625Q408.1844 34.034374 407.52814 34.378124Q406.95 34.690624 406.16876 34.690624L404.7625 34.690624L404.7625 32.034374L406.16876 32.034374Q407.1844 32.034374 407.8719 31.45625Q408.7625 30.70625 408.7625 29.175L409.40314 29.26875Q409.3875 29.58125 409.35626 29.9875Q409.34064 30.378124 409.34064 30.8625Q409.34064 31.3625 409.6844 31.70625Q410.02814 32.034374 410.46564 32.034374L411.66876 32.034374Q412.85626 32.034374 413.3719 31.70625Q413.98126 31.3 413.98126 30.20625Q413.98126 29.971874 414.1375 29.784374Q414.21564 29.675 414.4969 29.45625L414.8719 29.175Q414.8875 29.3625 414.8875 29.675Q414.90314 29.9875 414.90314 30.08125Q414.90314 30.628124 414.7469 31.51875Q415.10626 31.690624 415.5594 31.815624Q416.0125 31.940624 416.5125 32.01875Q416.5125 31.675 416.2625 31.159374Q416.0125 30.628124 416.0125 30.440624Q416.0125 30.190624 416.09064 30.05Q416.10626 30.003124 416.29376 29.753124L417.1375 28.628124Q417.3875 29.2375 417.4969 29.7375Q417.6219 30.2375 417.6219 31.003124L417.6219 34.690624ZM422.1375 34.690624L416.7625 34.690624L416.7625 32.034374L420.96564 32.034374L419.77814 25.39375L419.15314 24.9875Q419.15314 24.409374 419.34064 23.83125Q419.5594 23.08125 420.09064 22.065624L420.54376 22.3Q420.54376 22.346874 420.5125 22.6125Q420.5125 22.925 420.91876 23.2375Q421.27814 23.503124 422.075 23.83125Q421.98126 24.45625 421.8094 25.065624Q421.6375 25.659374 421.41876 26.128124L421.075 25.9875L422.1375 32.034374L422.1375 34.690624ZM427.1375 34.690624L421.7625 34.690624L421.7625 32.034374L425.96564 32.034374L424.77814 25.39375L424.15314 24.9875Q424.15314 24.409374 424.34064 23.83125Q424.5594 23.08125 425.09064 22.065624L425.54376 22.3Q425.54376 22.346874 425.5125 22.6125Q425.5125 22.925 425.91876 23.2375Q426.27814 23.503124 427.075 23.83125Q426.98126 24.45625 426.8094 25.065624Q426.6375 25.659374 426.41876 26.128124L426.075 25.9875L427.1375 32.034374L427.1375 34.690624ZM439.4969 21.003124L438.41876 22.815624L437.02814 22.034374L436.2469 23.58125L434.4344 22.58125L435.45 20.8625L436.90314 21.58125L437.7469 20.08125L439.4969 21.003124ZM441.7469 34.690624L440.46564 34.690624Q440.1219 34.690624 439.825 34.534374Q439.2625 34.253124 438.8719 33.503124Q438.34064 32.471874 438.1844 30.675Q437.52814 31.4875 437.15314 31.83125Q436.6219 32.33125 436.2469 32.33125Q436.075 32.33125 435.77814 32.26875L434.59064 32.034374Q433.825 31.878124 433.65314 31.815624Q433.48126 31.753124 433.48126 31.565624Q433.48126 31.315624 434.15314 29.909374Q434.84064 28.503124 435.1375 28.175Q435.3875 27.909374 436.0125 27.4875Q436.3875 27.2375 437.0594 26.83125L437.575 26.534374Q437.5594 26.39375 437.54376 26.253124Q437.52814 26.1125 437.52814 25.9875Q437.52814 25.6125 437.7 25.05Q437.8719 24.4875 438.3094 23.659374L439.2469 29.753124Q439.46564 31.190624 439.825 31.70625Q440.0594 32.034374 440.46564 32.034374L441.7469 32.034374L441.7469 34.690624ZM437.95 29.175L437.7625 28.003124Q437.45 28.14375 437.2625 28.2375Q436.73126 28.51875 436.40314 28.753124Q436.16876 28.95625 436.0125 29.128124Q435.825 29.33125 435.825 29.440624Q435.825 29.58125 436.16876 29.659374Q436.5125 29.7375 436.84064 29.7375Q437.0594 29.7375 437.29376 29.6125Q437.52814 29.4875 437.95 29.175ZM446.8875 34.690624L440.7625 34.690624L440.7625 32.034374L445.90314 32.034374Q445.79376 31.3625 445.5125 30.909374Q445.3719 30.659374 444.825 30.034374L445.60626 27.70625Q446.34064 28.534374 446.60626 29.440624Q446.8875 30.346874 446.8875 32.14375L446.8875 34.690624ZM446.73126 36.409374L445.65314 38.39375L444.2625 37.6125L443.48126 39.159374L441.66876 38.159374L442.6844 36.26875L444.1219 36.9875L444.95 35.409374L446.73126 36.409374ZM455.10626 34.909374Q455.10626 35.503124 454.41876 36.4875Q453.73126 37.471874 452.825 38.190624Q451.8094 39.003124 451.075 39.003124Q450.21564 39.003124 449.23126 38.503124Q448.3719 38.08125 446.54376 36.83125L446.96564 36.221874Q447.84064 36.8 448.3719 37.01875Q448.91876 37.221874 449.54376 37.221874Q450.21564 37.221874 450.8875 36.846874Q451.5594 36.45625 452.71564 35.425Q454.34064 33.971874 454.34064 33.190624Q454.34064 32.8 454.02814 32.175Q453.6844 31.440624 453.16876 30.971874L453.71564 28.33125Q454.3875 29.01875 454.7469 29.909374Q455.10626 30.784374 455.10626 31.925L455.10626 34.909374ZM464.48126 34.690624L462.48126 34.690624Q462.2625 34.690624 462.02814 34.690624Q461.79376 34.690624 461.325 34.7375Q461.6844 34.940624 462.02814 35.14375Q462.3719 35.39375 462.3719 35.784374Q462.3719 36.175 462.2625 36.596874Q462.2 36.846874 461.98126 37.471874Q461.5594 38.690624 461.2 39.128124Q460.85626 39.565624 460.3094 39.565624Q458.95 39.565624 457.96564 38.128124Q456.9969 36.70625 456.9969 34.690624L454.7625 34.690624L454.7625 32.034374L455.65314 32.034374Q456.16876 32.034374 456.71564 31.940624Q457.34064 31.8 457.575 31.753124Q458.66876 28.815624 459.4969 27.503124Q460.23126 26.3625 460.84064 26.3625Q461.34064 26.3625 461.7 27.33125Q462.0125 28.175 462.0125 28.9875Q462.0125 30.128124 461.5594 30.925Q461.075 31.8 460.10626 32.221874Q460.8094 32.096874 461.3875 32.065624Q461.98126 32.034374 462.48126 32.034374L464.48126 32.034374L464.48126 34.690624ZM460.4969 30.221874Q460.4969 29.971874 460.3094 29.596874Q460.1219 29.221874 459.91876 29.221874Q459.66876 29.221874 459.325 29.784374Q458.9969 30.33125 458.5125 31.51875Q459.6375 31.128124 460.0594 30.846874Q460.4969 30.565624 460.4969 30.221874ZM460.90314 36.76875Q460.90314 36.221874 460.27814 35.7375Q459.52814 35.14375 458.10626 34.846874Q458.2625 35.70625 458.9969 36.346874Q459.7469 36.9875 460.60626 36.9875Q460.90314 36.9875 460.90314 36.76875ZM473.59064 23.003124L472.6219 25.034374L470.77814 24.065624L471.77814 22.065624L473.59064 23.003124ZM475.48126 25.315624L474.41876 27.315624L473.02814 26.534374L472.16876 28.08125L470.4344 27.08125L471.45 25.190624L472.8875 25.909374L473.71564 24.33125L475.48126 25.315624ZM476.6219 34.690624Q475.52814 34.690624 474.79376 34.534374Q474.075 34.378124 473.3719 34.034374Q472.8094 34.440624 472.35626 34.565624Q471.91876 34.690624 471.02814 34.690624L469.4344 34.690624Q468.79376 34.690624 468.40314 34.346874Q468.02814 34.003124 467.71564 33.20625Q467.1844 34.034374 466.52814 34.378124Q465.95 34.690624 465.16876 34.690624L463.7625 34.690624L463.7625 32.034374L465.16876 32.034374Q466.1844 32.034374 466.8719 31.45625Q467.7625 30.70625 467.7625 29.175L468.40314 29.26875Q468.3875 29.58125 468.35626 29.9875Q468.34064 30.378124 468.34064 30.8625Q468.34064 31.3625 468.6844 31.70625Q469.02814 32.034374 469.46564 32.034374L470.66876 32.034374Q471.85626 32.034374 472.3719 31.70625Q472.98126 31.3 472.98126 30.20625Q472.98126 29.971874 473.1375 29.784374Q473.21564 29.675 473.4969 29.45625L473.8719 29.175Q473.8875 29.3625 473.8875 29.675Q473.90314 29.9875 473.90314 30.08125Q473.90314 30.628124 473.7469 31.51875Q474.10626 31.690624 474.5594 31.815624Q475.0125 31.940624 475.5125 32.01875Q475.5125 31.675 475.2625 31.159374Q475.0125 30.628124 475.0125 30.440624Q475.0125 30.190624 475.09064 30.05Q475.10626 30.003124 475.29376 29.753124L476.1375 28.628124Q476.3875 29.2375 476.4969 29.7375Q476.6219 30.2375 476.6219 31.003124L476.6219 34.690624ZM481.1375 34.690624L475.7625 34.690624L475.7625 32.034374L479.96564 32.034374L478.77814 25.39375L478.15314 24.9875Q478.15314 24.409374 478.34064 23.83125Q478.5594 23.08125 479.09064 22.065624L479.54376 22.3Q479.54376 22.346874 479.5125 22.6125Q479.5125 22.925 479.91876 23.2375Q480.27814 23.503124 481.075 23.83125Q480.98126 24.45625 480.8094 25.065624Q480.6375 25.659374 480.41876 26.128124L480.075 25.9875L481.1375 32.034374L481.1375 34.690624ZM485.0594 31.846874Q485.0594 32.721874 484.85626 33.440624Q484.65314 34.14375 484.075 35.3625L483.48126 35.128124Q483.71564 33.878124 483.71564 33.096874Q483.71564 32.503124 483.6219 31.346874Q483.52814 30.190624 483.3719 29.065624Q483.23126 27.940624 482.90314 26.378124Q482.77814 25.83125 482.77814 25.628124Q482.77814 25.315624 483.075 24.596874Q483.3875 23.8625 483.9344 22.83125L484.5125 26.284374Q484.84064 28.26875 484.96564 29.70625Q485.0594 30.815624 485.0594 31.846874ZM498.91876 27.409374Q498.91876 28.70625 498.15314 29.440624Q497.3875 30.159374 496.0125 30.159374Q495.6375 30.159374 495.40314 30.14375Q495.16876 30.128124 494.6375 30.034374L494.7625 29.409374L494.9344 29.409374Q495.90314 29.409374 496.71564 29.14375Q497.52814 28.8625 497.52814 28.503124Q497.52814 28.3625 497.4344 28.315624Q497.34064 28.26875 497.04376 28.2375Q496.10626 28.2375 496.10626 27.409374Q496.10626 26.83125 496.34064 26.1125Q496.575 25.39375 496.98126 24.659374Q497.2625 24.20625 497.54376 24.003124Q497.825 23.784374 498.3875 23.596874Q498.3719 23.9875 498.35626 24.440624Q498.35626 24.878124 498.35626 25.221874Q497.825 25.378124 497.48126 25.628124Q497.16876 25.8625 497.16876 26.05Q497.16876 26.253124 497.825 26.33125Q498.4344 26.33125 498.66876 26.58125Q498.91876 26.83125 498.91876 27.409374ZM502.27814 34.690624L495.71564 34.690624Q493.60626 34.690624 492.6844 33.971874Q491.85626 33.315624 491.85626 31.95625Q491.85626 31.05 492.1219 30.175Q492.40314 29.3 493.075 28.096874L493.66876 28.503124Q493.29376 29.253124 493.16876 29.628124Q493.0594 29.9875 493.0594 30.39375Q493.0594 31.33125 493.7469 31.690624Q494.45 32.034374 496.40314 32.034374L501.10626 32.034374L499.91876 25.39375L499.29376 24.9875Q499.29376 24.409374 499.46564 23.83125Q499.7 23.08125 500.23126 22.065624L500.6844 22.3Q500.6844 22.346874 500.6375 22.6125Q500.6375 22.925 501.04376 23.2375Q501.41876 23.503124 502.2 23.83125Q502.1219 24.45625 501.95 25.065624Q501.77814 25.659374 501.5594 26.128124L501.2 25.9875L502.27814 32.034374L502.27814 34.690624ZM507.73126 24.253124L506.65314 26.2375L505.2625 25.45625L504.48126 27.003124L502.66876 26.003124L503.6844 24.1125L505.1219 24.83125L505.95 23.253124L507.73126 24.253124ZM507.8875 34.690624L501.7625 34.690624L501.7625 32.034374L506.90314 32.034374Q506.79376 31.3625 506.5125 30.909374Q506.3719 30.659374 505.825 30.034374L506.60626 27.70625Q507.34064 28.534374 507.60626 29.440624Q507.8875 30.346874 507.8875 32.14375L507.8875 34.690624ZM512.8875 34.690624L506.7625 34.690624L506.7625 32.034374L511.90314 32.034374Q511.79376 31.3625 511.5125 30.909374Q511.3719 30.659374 510.825 30.034374L511.60626 27.70625Q512.34064 28.534374 512.60626 29.440624Q512.8875 30.346874 512.8875 32.14375L512.8875 34.690624ZM512.73126 36.409374L511.65314 38.39375L510.2625 37.6125L509.48126 39.159374L507.66876 38.159374L508.6844 36.26875L510.1219 36.9875L510.95 35.409374L512.73126 36.409374ZM517.9344 24.05L516.7625 26.2375L514.48126 25.05L515.66876 22.846874L517.9344 24.05ZM517.8875 34.690624L511.7625 34.690624L511.7625 32.034374L516.90314 32.034374Q516.79376 31.3625 516.5125 30.909374Q516.3719 30.659374 515.825 30.034374L516.60626 27.70625Q517.34064 28.534374 517.60626 29.440624Q517.8875 30.346874 517.8875 32.14375L517.8875 34.690624ZM521.0594 31.846874Q521.0594 32.721874 520.85626 33.440624Q520.65314 34.14375 520.075 35.3625L519.48126 35.128124Q519.71564 33.878124 519.71564 33.096874Q519.71564 32.503124 519.6219 31.346874Q519.52814 30.190624 519.3719 29.065624Q519.23126 27.940624 518.90314 26.378124Q518.77814 25.83125 518.77814 25.628124Q518.77814 25.315624 519.075 24.596874Q519.3875 23.8625 519.9344 22.83125L520.5125 26.284374Q520.84064 28.26875 520.96564 29.70625Q521.0594 30.815624 521.0594 31.846874ZM529.60626 24.909374L528.4344 27.096874L526.15314 25.89375L527.3094 23.690624L529.60626 24.909374ZM530.10626 34.909374Q530.10626 35.503124 529.41876 36.4875Q528.73126 37.471874 527.825 38.190624Q526.8094 39.003124 526.075 39.003124Q525.21564 39.003124 524.23126 38.503124Q523.3719 38.08125 521.54376 36.83125L521.96564 36.221874Q522.84064 36.8 523.3719 37.01875Q523.91876 37.221874 524.54376 37.221874Q525.21564 37.221874 525.8875 36.846874Q526.5594 36.45625 527.71564 35.425Q529.34064 33.971874 529.34064 33.190624Q529.34064 32.8 529.02814 32.175Q528.6844 31.440624 528.16876 30.971874L528.71564 28.33125Q529.3875 29.01875 529.7469 29.909374Q530.10626 30.784374 530.10626 31.925L530.10626 34.909374ZM535.8875 34.690624L529.7625 34.690624L529.7625 32.034374L534.90314 32.034374Q534.79376 31.3625 534.5125 30.909374Q534.3719 30.659374 533.825 30.034374L534.60626 27.70625Q535.34064 28.534374 535.60626 29.440624Q535.8875 30.346874 535.8875 32.14375L535.8875 34.690624ZM535.73126 36.409374L534.65314 38.39375L533.2625 37.6125L532.48126 39.159374L530.66876 38.159374L531.6844 36.26875L533.1219 36.9875L533.95 35.409374L535.73126 36.409374ZM543.7469 34.675Q542.73126 34.675 541.34064 34.284374Q540.1219 33.925 539.1844 33.440624Q538.6219 34.3 537.79376 34.565624Q537.3875 34.690624 536.7 34.690624L534.7625 34.690624L534.7625 32.034374L536.7 32.034374Q537.575 32.034374 538.09064 31.815624Q538.7625 31.55 539.0125 30.8625Q539.575 29.628124 540.4344 28.83125Q541.21564 28.1125 541.7469 28.1125Q542.2469 28.1125 542.98126 29.6125Q543.7469 31.20625 543.7469 32.55L543.7469 34.675ZM541.91876 31.721874Q541.91876 31.51875 541.5125 30.9875Q541.04376 30.39375 540.7 30.39375Q540.3094 30.39375 540.04376 31.284374Q540.5594 31.471874 540.825 31.565624Q541.60626 31.8625 541.71564 31.8625Q541.91876 31.8625 541.91876 31.721874ZM559.91876 34.690624L548.7625 34.690624L548.7625 32.034374L550.0594 32.034374Q550.29376 32.034374 551.3875 31.221874Q551.7469 30.95625 552.4344 30.39375Q552.4344 29.20625 552.34064 28.378124Q552.2469 27.534374 552.0594 26.64375Q552.0125 26.425 551.52814 24.51875L550.96564 24.175Q551.1844 23.14375 551.325 22.70625Q551.48126 22.253124 551.90314 21.3L552.35626 21.471874Q552.35626 21.534374 552.3094 21.721874Q552.3094 22.065624 553.27814 22.534374Q553.60626 22.690624 554.2469 22.940624Q554.15314 23.70625 553.9344 24.3625Q553.825 24.690624 553.54376 25.39375L553.1844 25.284374Q553.4969 26.675 553.59064 27.33125Q553.7 27.9875 553.7 28.503124L553.7 28.6125Q553.7 28.89375 553.6844 29.065624Q553.66876 29.221874 553.60626 29.565624Q554.10626 29.190624 554.6219 28.815624Q555.41876 28.26875 556.04376 27.925Q556.85626 27.471874 557.29376 27.471874Q558.45 27.471874 559.1375 28.065624Q559.91876 28.7375 559.91876 30.003124L559.91876 34.690624ZM558.5594 31.034374Q558.5594 30.690624 557.84064 30.39375Q557.1219 30.096874 556.575 30.096874Q555.91876 30.096874 555.10626 30.51875Q554.3094 30.925 552.77814 32.034374L555.34064 32.034374Q558.5594 32.034374 558.5594 31.034374ZM571.6219 34.690624Q570.52814 34.690624 569.79376 34.534374Q569.075 34.378124 568.3719 34.034374Q567.8094 34.440624 567.35626 34.565624Q566.91876 34.690624 566.02814 34.690624L564.4344 34.690624Q563.79376 34.690624 563.40314 34.346874Q563.02814 34.003124 562.71564 33.20625Q562.1844 34.034374 561.52814 34.378124Q560.95 34.690624 560.16876 34.690624L558.7625 34.690624L558.7625 32.034374L560.16876 32.034374Q561.1844 32.034374 561.8719 31.45625Q562.7625 30.70625 562.7625 29.175L563.40314 29.26875Q563.3875 29.58125 563.35626 29.9875Q563.34064 30.378124 563.34064 30.8625Q563.34064 31.3625 563.6844 31.70625Q564.02814 32.034374 564.46564 32.034374L565.66876 32.034374Q566.85626 32.034374 567.3719 31.70625Q567.98126 31.3 567.98126 30.20625Q567.98126 29.971874 568.1375 29.784374Q568.21564 29.675 568.4969 29.45625L568.8719 29.175Q568.8875 29.3625 568.8875 29.675Q568.90314 29.9875 568.90314 30.08125Q568.90314 30.628124 568.7469 31.51875Q569.10626 31.690624 569.5594 31.815624Q570.0125 31.940624 570.5125 32.01875Q570.5125 31.675 570.2625 31.159374Q570.0125 30.628124 570.0125 30.440624Q570.0125 30.190624 570.09064 30.05Q570.10626 30.003124 570.29376 29.753124L571.1375 28.628124Q571.3875 29.2375 571.4969 29.7375Q571.6219 30.2375 571.6219 31.003124L571.6219 34.690624ZM580.48126 34.01875Q580.48126 35.690624 579.04376 37.33125Q577.6219 38.971874 576.23126 38.971874Q575.41876 38.971874 574.45 38.45625Q573.4969 37.940624 571.5125 36.409374L571.91876 35.846874Q572.98126 36.55 573.65314 36.784374Q574.2 36.9875 574.90314 36.9875Q575.85626 36.9875 576.77814 36.45625Q577.8719 35.83125 579.04376 34.440624Q578.6375 34.503124 578.3719 34.503124Q577.40314 34.503124 576.825 33.878124Q576.2625 33.2375 576.2625 32.159374Q576.2625 30.690624 576.9344 29.33125Q577.66876 27.8625 578.60626 27.8625Q579.3875 27.8625 579.9344 28.925Q580.48126 29.9875 580.48126 31.4875L580.48126 34.01875ZM579.3094 32.034374Q579.02814 30.45625 578.1844 30.45625Q577.8875 30.45625 577.7 30.70625Q577.52814 30.940624 577.52814 31.221874Q577.52814 31.565624 577.90314 31.8Q578.29376 32.034374 578.9344 32.034374L579.3094 32.034374ZM585.73126 24.253124L584.65314 26.2375L583.2625 25.45625L582.48126 27.003124L580.66876 26.003124L581.6844 24.1125L583.1219 24.83125L583.95 23.253124L585.73126 24.253124ZM585.8875 34.690624L579.7625 34.690624L579.7625 32.034374L584.90314 32.034374Q584.79376 31.3625 584.5125 30.909374Q584.3719 30.659374 583.825 30.034374L584.60626 27.70625Q585.34064 28.534374 585.60626 29.440624Q585.8875 30.346874 585.8875 32.14375L585.8875 34.690624ZM593.7469 34.675Q592.73126 34.675 591.34064 34.284374Q590.1219 33.925 589.1844 33.440624Q588.6219 34.3 587.79376 34.565624Q587.3875 34.690624 586.7 34.690624L584.7625 34.690624L584.7625 32.034374L586.7 32.034374Q587.575 32.034374 588.09064 31.815624Q588.7625 31.55 589.0125 30.8625Q589.575 29.628124 590.4344 28.83125Q591.21564 28.1125 591.7469 28.1125Q592.2469 28.1125 592.98126 29.6125Q593.7469 31.20625 593.7469 32.55L593.7469 34.675ZM591.91876 31.721874Q591.91876 31.51875 591.5125 30.9875Q591.04376 30.39375 590.7 30.39375Q590.3094 30.39375 590.04376 31.284374Q590.5594 31.471874 590.825 31.565624Q591.60626 31.8625 591.71564 31.8625Q591.91876 31.8625 591.91876 31.721874Z" fill-rule="nonzero"/></svg>