<svg version="1.1" viewBox="0.0 0.0 658.0 371.0" fill="none" stroke="none" stroke-linecap="square" stroke-miterlimit="10" width="658" height="371" xmlns:xlink="http://www.w3.org/1999/xlink" xmlns="http://www.w3.org/2000/svg"><path fill="#ffffff" d="M0 0L658.0 0L658.0 371.0L0 371.0L0 0Z" fill-rule="nonzero"/><path fill="#0d6491" d="M413.2738 53.47223C437.35852 53.47223 461.08316 59.319824 482.40912 70.51255L413.2738 202.23889Z" fill-rule="nonzero"/><path fill="#963c25" d="M483.0396 70.84346C504.36557 82.03619 522.65515 98.23936 536.33685 118.0607L413.9043 202.5698Z" fill-rule="nonzero"/><path fill="#669bbc" d="M343.42645 70.51255C364.7524 59.319824 388.47702 53.47223 412.56177 53.47223L412.56177 202.23889Z" fill-rule="nonzero"/><path fill="#e76f51" d="M312.7904 314.85745C276.19553 282.43723 257.8659 234.10596 263.75897 185.57217C269.65204 137.03839 299.01547 94.49811 342.30563 71.77767L411.44095 203.50401Z" fill-rule="nonzero"/><path fill="#003049" d="M536.33685 120.287766C579.07025 182.19783 568.86255 266.26602 512.5548 316.15033C456.2471 366.0346 371.56146 366.0346 315.25372 316.15033L413.9043 204.79688Z" fill-rule="nonzero"/><path fill="#f8f9fa" d="M425.9619 84.806046L425.9619 83.618546L432.4619 83.618546L432.4619 84.57167Q431.49316 85.587296 430.55566 87.274796Q429.61816 88.962296 429.10254 90.75917Q428.74316 92.00917 428.6338 93.50917L427.36816 93.50917Q427.3838 92.32167 427.8213 90.649796Q428.2744 88.97792 429.10254 87.431046Q429.9463 85.868546 430.8838 84.806046L425.9619 84.806046Z" fill-rule="nonzero"/><path fill="#f8f9fa" d="M436.5244 90.712296Q436.5244 91.29042 436.2588 91.79042Q436.05566 92.19667 435.6494 92.57167Q435.41504 92.806046 434.91504 93.181046L434.61816 92.806046Q435.10254 92.431046 435.2588 92.25917Q435.54004 91.94667 435.54004 91.681046Q435.1963 91.54042 434.9463 91.32167Q434.66504 91.087296 434.66504 90.66542Q434.66504 90.306046 434.91504 90.04042Q435.18066 89.774796 435.55566 89.774796Q435.93066 89.774796 436.22754 90.056046Q436.5244 90.32167 436.5244 90.712296Z" fill-rule="nonzero"/><path fill="#f8f9fa" d="M437.9619 84.806046L437.9619 83.618546L444.4619 83.618546L444.4619 84.57167Q443.49316 85.587296 442.55566 87.274796Q441.61816 88.962296 441.10254 90.75917Q440.74316 92.00917 440.6338 93.50917L439.36816 93.50917Q439.3838 92.32167 439.8213 90.649796Q440.2744 88.97792 441.10254 87.431046Q441.9463 85.868546 442.8838 84.806046L437.9619 84.806046ZM446.11816 85.899796Q446.11816 84.82167 446.6494 84.07167Q447.1963 83.32167 448.22754 83.32167Q449.16504 83.32167 449.7744 83.993546Q450.3994 84.66542 450.3994 85.962296Q450.3994 87.243546 449.7744 87.931046Q449.1494 88.618546 448.24316 88.618546Q447.3369 88.618546 446.72754 87.94667Q446.11816 87.25917 446.11816 85.899796ZM448.2588 84.16542Q447.80566 84.16542 447.49316 84.57167Q447.1963 84.962296 447.1963 86.00917Q447.1963 86.97792 447.49316 87.368546Q447.80566 87.75917 448.2588 87.75917Q448.72754 87.75917 449.0244 87.368546Q449.3369 86.97792 449.3369 85.91542Q449.3369 84.94667 449.0244 84.556046Q448.7119 84.16542 448.2588 84.16542ZM448.2588 93.88417L453.74316 83.32167L454.74316 83.32167L449.29004 93.88417L448.2588 93.88417ZM452.60254 91.149796Q452.60254 90.07167 453.1338 89.337296Q453.68066 88.587296 454.7119 88.587296Q455.6494 88.587296 456.2744 89.25917Q456.8994 89.931046 456.8994 91.22792Q456.8994 92.50917 456.2744 93.19667Q455.6494 93.88417 454.7119 93.88417Q453.80566 93.88417 453.1963 93.212296Q452.60254 92.524796 452.60254 91.149796ZM454.74316 89.431046Q454.2744 89.431046 453.97754 89.837296Q453.68066 90.22792 453.68066 91.274796Q453.68066 92.243546 453.97754 92.63417Q454.29004 93.024796 454.74316 93.024796Q455.2119 93.024796 455.5088 92.63417Q455.8213 92.243546 455.8213 91.181046Q455.8213 90.212296 455.5088 89.82167Q455.2119 89.431046 454.74316 89.431046Z" fill-rule="nonzero"/><path fill="#f8f9fa" d="M472.13803 115.81484L472.13803 114.62734L478.63803 114.62734L478.63803 115.58047Q477.66928 116.59609 476.73178 118.28359Q475.79428 119.97109 475.27866 121.76797Q474.91928 123.01797 474.8099 124.51797L473.54428 124.51797Q473.5599 123.33047 473.9974 121.65859Q474.45053 119.98672 475.27866 118.43984Q476.1224 116.87734 477.0599 115.81484L472.13803 115.81484Z" fill-rule="nonzero"/><path fill="#f8f9fa" d="M482.70053 121.72109Q482.70053 122.29922 482.4349 122.79922Q482.23178 123.20547 481.82553 123.58047Q481.59116 123.81484 481.09116 124.18984L480.79428 123.81484Q481.27866 123.43984 481.4349 123.26797Q481.71616 122.95547 481.71616 122.68984Q481.3724 122.54922 481.1224 122.33047Q480.84116 122.09609 480.84116 121.67422Q480.84116 121.31484 481.09116 121.04922Q481.35678 120.78359 481.73178 120.78359Q482.10678 120.78359 482.40366 121.06484Q482.70053 121.33047 482.70053 121.72109Z" fill-rule="nonzero"/><path fill="#f8f9fa" d="M484.13803 115.81484L484.13803 114.62734L490.63803 114.62734L490.63803 115.58047Q489.66928 116.59609 488.73178 118.28359Q487.79428 119.97109 487.27866 121.76797Q486.91928 123.01797 486.8099 124.51797L485.54428 124.51797Q485.5599 123.33047 485.9974 121.65859Q486.45053 119.98672 487.27866 118.43984Q488.1224 116.87734 489.0599 115.81484L484.13803 115.81484ZM492.29428 116.90859Q492.29428 115.83047 492.82553 115.08047Q493.3724 114.33047 494.40366 114.33047Q495.34116 114.33047 495.95053 115.00234Q496.57553 115.67422 496.57553 116.97109Q496.57553 118.25234 495.95053 118.93984Q495.32553 119.62734 494.41928 119.62734Q493.51303 119.62734 492.90366 118.95547Q492.29428 118.26797 492.29428 116.90859ZM494.4349 115.17422Q493.98178 115.17422 493.66928 115.58047Q493.3724 115.97109 493.3724 117.01797Q493.3724 117.98672 493.66928 118.37734Q493.98178 118.76797 494.4349 118.76797Q494.90366 118.76797 495.20053 118.37734Q495.51303 117.98672 495.51303 116.92422Q495.51303 115.95547 495.20053 115.56484Q494.88803 115.17422 494.4349 115.17422ZM494.4349 124.89297L499.91928 114.33047L500.91928 114.33047L495.46616 124.89297L494.4349 124.89297ZM498.77866 122.15859Q498.77866 121.08047 499.3099 120.34609Q499.85678 119.59609 500.88803 119.59609Q501.82553 119.59609 502.45053 120.26797Q503.07553 120.93984 503.07553 122.23672Q503.07553 123.51797 502.45053 124.20547Q501.82553 124.89297 500.88803 124.89297Q499.98178 124.89297 499.3724 124.22109Q498.77866 123.53359 498.77866 122.15859ZM500.91928 120.43984Q500.45053 120.43984 500.15366 120.84609Q499.85678 121.23672 499.85678 122.28359Q499.85678 123.25234 500.15366 123.64297Q500.46616 124.03359 500.91928 124.03359Q501.38803 124.03359 501.6849 123.64297Q501.9974 123.25234 501.9974 122.18984Q501.9974 121.22109 501.6849 120.83047Q501.38803 120.43984 500.91928 120.43984Z" fill-rule="nonzero"/><path fill="#f8f9fa" d="M470.1279 290.7208L470.1279 288.31454L465.76852 288.31454L465.76852 287.18954L470.34665 280.70517L471.34665 280.70517L471.34665 287.18954L472.70602 287.18954L472.70602 288.31454L471.34665 288.31454L471.34665 290.7208L470.1279 290.7208ZM470.1279 287.18954L470.1279 282.67392L466.98727 287.18954L470.1279 287.18954ZM480.5654 283.1583L479.34665 283.25204Q479.17477 282.51767 478.8779 282.18954Q478.3779 281.67392 477.64352 281.67392Q477.04977 281.67392 476.61227 282.00204Q476.03415 282.42392 475.6904 283.23642Q475.36227 284.04892 475.34665 285.54892Q475.78415 284.87704 476.42477 284.54892Q477.08102 284.2208 477.78415 284.2208Q479.01852 284.2208 479.8779 285.12704Q480.73727 286.0333 480.73727 287.4708Q480.73727 288.4083 480.33102 289.2208Q479.92477 290.0333 479.20602 290.4708Q478.5029 290.89267 477.59665 290.89267Q476.0654 290.89267 475.09665 289.76767Q474.1279 288.62704 474.1279 286.0333Q474.1279 283.12704 475.1904 281.79892Q476.1279 280.6583 477.72165 280.6583Q478.90915 280.6583 479.65915 281.33017Q480.40915 281.98642 480.5654 283.1583ZM475.53415 287.4708Q475.53415 288.11142 475.79977 288.68954Q476.08102 289.26767 476.5654 289.58017Q477.04977 289.87704 477.58102 289.87704Q478.36227 289.87704 478.92477 289.25204Q479.48727 288.62704 479.48727 287.54892Q479.48727 286.50204 478.92477 285.9083Q478.3779 285.29892 477.53415 285.29892Q476.70602 285.29892 476.11227 285.9083Q475.53415 286.50204 475.53415 287.4708Z" fill-rule="nonzero"/><path fill="#f8f9fa" d="M484.8154 287.92392Q484.8154 288.50204 484.54977 289.00204Q484.34665 289.4083 483.9404 289.7833Q483.70602 290.01767 483.20602 290.39267L482.90915 290.01767Q483.39352 289.64267 483.54977 289.4708Q483.83102 289.1583 483.83102 288.89267Q483.48727 288.75204 483.23727 288.5333Q482.95602 288.29892 482.95602 287.87704Q482.95602 287.51767 483.20602 287.25204Q483.47165 286.98642 483.84665 286.98642Q484.22165 286.98642 484.51852 287.26767Q484.8154 287.5333 484.8154 287.92392Z" fill-rule="nonzero"/><path fill="#f8f9fa" d="M492.64352 289.5333L492.64352 290.7208L486.01852 290.7208Q486.0029 290.2833 486.15915 289.86142Q486.42477 289.18954 486.97165 288.5333Q487.53415 287.87704 488.58102 287.01767Q490.22165 285.67392 490.78415 284.89267Q491.36227 284.11142 491.36227 283.4083Q491.36227 282.67392 490.83102 282.17392Q490.3154 281.67392 489.48727 281.67392Q488.59665 281.67392 488.04977 282.20517Q487.51852 282.73642 487.51852 283.68954L486.2529 283.54892Q486.3779 282.14267 487.22165 281.4083Q488.08102 280.6583 489.5029 280.6583Q490.95602 280.6583 491.78415 281.45517Q492.6279 282.25204 492.6279 283.43954Q492.6279 284.04892 492.3779 284.62704Q492.14352 285.20517 491.5654 285.8458Q491.0029 286.48642 489.67477 287.61142Q488.5654 288.5333 488.2529 288.87704Q487.9404 289.20517 487.73727 289.5333L492.64352 289.5333ZM494.40915 283.11142Q494.40915 282.0333 494.9404 281.2833Q495.48727 280.5333 496.51852 280.5333Q497.45602 280.5333 498.0654 281.20517Q498.6904 281.87704 498.6904 283.17392Q498.6904 284.45517 498.0654 285.14267Q497.4404 285.83017 496.53415 285.83017Q495.6279 285.83017 495.01852 285.1583Q494.40915 284.4708 494.40915 283.11142ZM496.54977 281.37704Q496.09665 281.37704 495.78415 281.7833Q495.48727 282.17392 495.48727 283.2208Q495.48727 284.18954 495.78415 284.58017Q496.09665 284.9708 496.54977 284.9708Q497.01852 284.9708 497.3154 284.58017Q497.6279 284.18954 497.6279 283.12704Q497.6279 282.1583 497.3154 281.76767Q497.0029 281.37704 496.54977 281.37704ZM496.54977 291.0958L502.03415 280.5333L503.03415 280.5333L497.58102 291.0958L496.54977 291.0958ZM500.89352 288.36142Q500.89352 287.2833 501.42477 286.54892Q501.97165 285.79892 503.0029 285.79892Q503.9404 285.79892 504.5654 286.4708Q505.1904 287.14267 505.1904 288.43954Q505.1904 289.7208 504.5654 290.4083Q503.9404 291.0958 503.0029 291.0958Q502.09665 291.0958 501.48727 290.42392Q500.89352 289.73642 500.89352 288.36142ZM503.03415 286.64267Q502.5654 286.64267 502.26852 287.04892Q501.97165 287.43954 501.97165 288.48642Q501.97165 289.45517 502.26852 289.8458Q502.58102 290.23642 503.03415 290.23642Q503.5029 290.23642 503.79977 289.8458Q504.11227 289.45517 504.11227 288.39267Q504.11227 287.42392 503.79977 287.0333Q503.5029 286.64267 503.03415 286.64267Z" fill-rule="nonzero"/><path fill="#f8f9fa" d="M282.60712 192.57648L283.82587 192.4046Q284.04462 193.45148 284.54462 193.92023Q285.06024 194.37335 285.79462 194.37335Q286.66962 194.37335 287.26337 193.7796Q287.85712 193.17023 287.85712 192.2796Q287.85712 191.43585 287.29462 190.88898Q286.74774 190.3421 285.904 190.3421Q285.54462 190.3421 285.029 190.4671L285.16962 189.38898Q285.29462 189.4046 285.35712 189.4046Q286.154 189.4046 286.779 188.99835Q287.404 188.5921 287.404 187.73273Q287.404 187.06085 286.95087 186.62335Q286.49774 186.17023 285.76337 186.17023Q285.04462 186.17023 284.56024 186.62335Q284.0915 187.06085 283.95087 187.9671L282.73212 187.74835Q282.95087 186.51398 283.74774 185.8421Q284.54462 185.1546 285.73212 185.1546Q286.56024 185.1546 287.24774 185.51398Q287.93524 185.85773 288.29462 186.4671Q288.66962 187.07648 288.66962 187.76398Q288.66962 188.4046 288.32587 188.93585Q287.98212 189.4671 287.29462 189.79523Q288.18524 189.99835 288.66962 190.63898Q289.16962 191.2796 289.16962 192.26398Q289.16962 193.57648 288.20087 194.48273Q287.24774 195.38898 285.79462 195.38898Q284.4665 195.38898 283.5915 194.60773Q282.73212 193.82648 282.60712 192.57648ZM290.5915 190.2796Q290.5915 188.49835 290.95087 187.42023Q291.32587 186.32648 292.04462 185.74835Q292.76337 185.1546 293.85712 185.1546Q294.66962 185.1546 295.279 185.48273Q295.88837 185.81085 296.279 186.42023Q296.68524 187.0296 296.904 187.9046Q297.12274 188.7796 297.12274 190.2796Q297.12274 192.04523 296.76337 193.12335Q296.404 194.20148 295.68524 194.79523Q294.9665 195.38898 293.85712 195.38898Q292.41962 195.38898 291.5915 194.3421Q290.5915 193.0921 290.5915 190.2796ZM291.85712 190.2796Q291.85712 192.74835 292.43524 193.56085Q293.01337 194.37335 293.85712 194.37335Q294.7165 194.37335 295.29462 193.56085Q295.87274 192.73273 295.87274 190.2796Q295.87274 187.79523 295.29462 186.98273Q294.7165 186.17023 293.8415 186.17023Q292.99774 186.17023 292.49774 186.88898Q291.85712 187.81085 291.85712 190.2796Z" fill-rule="nonzero"/><path fill="#f8f9fa" d="M301.23212 192.42023Q301.23212 192.99835 300.9665 193.49835Q300.76337 193.9046 300.35712 194.2796Q300.12274 194.51398 299.62274 194.88898L299.32587 194.51398Q299.81024 194.13898 299.9665 193.9671Q300.24774 193.6546 300.24774 193.38898Q299.904 193.24835 299.654 193.0296Q299.37274 192.79523 299.37274 192.37335Q299.37274 192.01398 299.62274 191.74835Q299.88837 191.48273 300.26337 191.48273Q300.63837 191.48273 300.93524 191.76398Q301.23212 192.0296 301.23212 192.42023Z" fill-rule="nonzero"/><path fill="#f8f9fa" d="M304.48212 189.7796Q303.7165 189.49835 303.3415 188.98273Q302.98212 188.4671 302.98212 187.73273Q302.98212 186.63898 303.76337 185.9046Q304.56024 185.1546 305.85712 185.1546Q307.16962 185.1546 307.9665 185.92023Q308.779 186.68585 308.779 187.7796Q308.779 188.4671 308.404 188.98273Q308.04462 189.49835 307.29462 189.7796Q308.2165 190.07648 308.70087 190.74835Q309.18524 191.42023 309.18524 192.35773Q309.18524 193.63898 308.279 194.51398Q307.37274 195.38898 305.88837 195.38898Q304.404 195.38898 303.48212 194.51398Q302.57587 193.62335 302.57587 192.31085Q302.57587 191.3421 303.07587 190.68585Q303.57587 190.01398 304.48212 189.7796ZM304.24774 187.70148Q304.24774 188.4046 304.70087 188.85773Q305.154 189.31085 305.88837 189.31085Q306.60712 189.31085 307.06024 188.87335Q307.51337 188.42023 307.51337 187.76398Q307.51337 187.0921 307.04462 186.63898Q306.57587 186.17023 305.87274 186.17023Q305.16962 186.17023 304.70087 186.62335Q304.24774 187.06085 304.24774 187.70148ZM303.8415 192.32648Q303.8415 192.85773 304.0915 193.35773Q304.3415 193.8421 304.82587 194.10773Q305.32587 194.37335 305.904 194.37335Q306.779 194.37335 307.3415 193.81085Q307.91962 193.24835 307.91962 192.37335Q307.91962 191.48273 307.32587 190.9046Q306.74774 190.31085 305.85712 190.31085Q304.98212 190.31085 304.404 190.88898Q303.8415 191.4671 303.8415 192.32648ZM310.82587 187.60773Q310.82587 186.5296 311.35712 185.7796Q311.904 185.0296 312.93524 185.0296Q313.87274 185.0296 314.48212 185.70148Q315.10712 186.37335 315.10712 187.67023Q315.10712 188.95148 314.48212 189.63898Q313.85712 190.32648 312.95087 190.32648Q312.04462 190.32648 311.43524 189.6546Q310.82587 188.9671 310.82587 187.60773ZM312.9665 185.87335Q312.51337 185.87335 312.20087 186.2796Q311.904 186.67023 311.904 187.7171Q311.904 188.68585 312.20087 189.07648Q312.51337 189.4671 312.9665 189.4671Q313.43524 189.4671 313.73212 189.07648Q314.04462 188.68585 314.04462 187.62335Q314.04462 186.6546 313.73212 186.26398Q313.41962 185.87335 312.9665 185.87335ZM312.9665 195.5921L318.45087 185.0296L319.45087 185.0296L313.99774 195.5921L312.9665 195.5921ZM317.31024 192.85773Q317.31024 191.7796 317.8415 191.04523Q318.38837 190.29523 319.41962 190.29523Q320.35712 190.29523 320.98212 190.9671Q321.60712 191.63898 321.60712 192.93585Q321.60712 194.2171 320.98212 194.9046Q320.35712 195.5921 319.41962 195.5921Q318.51337 195.5921 317.904 194.92023Q317.31024 194.23273 317.31024 192.85773ZM319.45087 191.13898Q318.98212 191.13898 318.68524 191.54523Q318.38837 191.93585 318.38837 192.98273Q318.38837 193.95148 318.68524 194.3421Q318.99774 194.73273 319.45087 194.73273Q319.91962 194.73273 320.2165 194.3421Q320.529 193.95148 320.529 192.88898Q320.529 191.92023 320.2165 191.5296Q319.91962 191.13898 319.45087 191.13898Z" fill-rule="nonzero"/><path fill="#f8f9fa" d="M369.18616 84.806046L369.18616 83.618546L375.68616 83.618546L375.68616 84.57167Q374.7174 85.587296 373.7799 87.274796Q372.8424 88.962296 372.32678 90.75917Q371.9674 92.00917 371.85803 93.50917L370.5924 93.50917Q370.60803 92.32167 371.04553 90.649796Q371.49866 88.97792 372.32678 87.431046Q373.17053 85.868546 374.10803 84.806046L369.18616 84.806046Z" fill-rule="nonzero"/><path fill="#f8f9fa" d="M379.74866 90.712296Q379.74866 91.29042 379.48303 91.79042Q379.2799 92.19667 378.87366 92.57167Q378.63928 92.806046 378.13928 93.181046L377.8424 92.806046Q378.32678 92.431046 378.48303 92.25917Q378.76428 91.94667 378.76428 91.681046Q378.42053 91.54042 378.17053 91.32167Q377.88928 91.087296 377.88928 90.66542Q377.88928 90.306046 378.13928 90.04042Q378.4049 89.774796 378.7799 89.774796Q379.1549 89.774796 379.45178 90.056046Q379.74866 90.32167 379.74866 90.712296Z" fill-rule="nonzero"/><path fill="#f8f9fa" d="M381.18616 84.806046L381.18616 83.618546L387.68616 83.618546L387.68616 84.57167Q386.7174 85.587296 385.7799 87.274796Q384.8424 88.962296 384.32678 90.75917Q383.9674 92.00917 383.85803 93.50917L382.5924 93.50917Q382.60803 92.32167 383.04553 90.649796Q383.49866 88.97792 384.32678 87.431046Q385.17053 85.868546 386.10803 84.806046L381.18616 84.806046ZM389.3424 85.899796Q389.3424 84.82167 389.87366 84.07167Q390.42053 83.32167 391.45178 83.32167Q392.38928 83.32167 392.99866 83.993546Q393.62366 84.66542 393.62366 85.962296Q393.62366 87.243546 392.99866 87.931046Q392.37366 88.618546 391.4674 88.618546Q390.56116 88.618546 389.95178 87.94667Q389.3424 87.25917 389.3424 85.899796ZM391.48303 84.16542Q391.0299 84.16542 390.7174 84.57167Q390.42053 84.962296 390.42053 86.00917Q390.42053 86.97792 390.7174 87.368546Q391.0299 87.75917 391.48303 87.75917Q391.95178 87.75917 392.24866 87.368546Q392.56116 86.97792 392.56116 85.91542Q392.56116 84.94667 392.24866 84.556046Q391.93616 84.16542 391.48303 84.16542ZM391.48303 93.88417L396.9674 83.32167L397.9674 83.32167L392.51428 93.88417L391.48303 93.88417ZM395.82678 91.149796Q395.82678 90.07167 396.35803 89.337296Q396.9049 88.587296 397.93616 88.587296Q398.87366 88.587296 399.49866 89.25917Q400.12366 89.931046 400.12366 91.22792Q400.12366 92.50917 399.49866 93.19667Q398.87366 93.88417 397.93616 93.88417Q397.0299 93.88417 396.42053 93.212296Q395.82678 92.524796 395.82678 91.149796ZM397.9674 89.431046Q397.49866 89.431046 397.20178 89.837296Q396.9049 90.22792 396.9049 91.274796Q396.9049 92.243546 397.20178 92.63417Q397.51428 93.024796 397.9674 93.024796Q398.43616 93.024796 398.73303 92.63417Q399.04553 92.243546 399.04553 91.181046Q399.04553 90.212296 398.73303 89.82167Q398.43616 89.431046 397.9674 89.431046Z" fill-rule="nonzero"/><path fill="#0d6491" d="M30.55 62.916668C30.55 66.23038 27.863708 68.916664 24.55 68.916664C21.236292 68.916664 18.55 66.23038 18.55 62.916668C18.55 59.60296 21.236292 56.916668 24.55 56.916668C27.863708 56.916668 30.55 59.60296 30.55 62.916668Z" fill-rule="nonzero"/><path fill="#1a1a1a" d="M85.3625 60.666664L84.8625 61.65104L83.78438 61.05729L84.28438 60.104164L85.3625 60.666664ZM87.90938 65.916664Q87.90938 67.43229 87.01875 68.15104Q86.05 68.93229 83.90938 68.93229Q82.53438 68.93229 81.81563 68.447914Q81.01875 67.916664 81.01875 66.83854Q81.01875 66.24479 81.15938 65.65104Q81.31563 65.041664 81.55 64.43229Q81.70625 64.072914 82.08125 63.30729L82.34688 63.43229Q81.8625 64.416664 81.70625 64.979164Q81.56563 65.541664 81.56563 66.010414Q81.56563 66.86979 82.15938 67.30729Q82.76875 67.74479 83.89375 67.74479Q85.19063 67.74479 86.19063 67.291664Q87.425 66.71354 87.425 65.697914Q87.425 65.010414 87.22188 64.40104Q87.03438 63.86979 86.70625 63.479164L87.28438 62.072914Q87.64375 62.61979 87.76875 63.197914Q87.90938 63.77604 87.90938 64.729164L87.90938 65.916664ZM93.06563 65.916664L87.06563 65.916664L87.06563 64.729164L92.26875 64.729164Q91.8 63.99479 91.175 63.46354Q90.56563 62.93229 89.51875 62.30729L89.3 62.510414L88.4875 61.90104Q88.06563 61.541664 88.06563 61.354164Q88.06563 60.166664 88.64375 59.49479Q89.175 58.885414 90.47188 58.40104L92.40938 57.635414L92.40938 58.822914L90.97188 59.30729Q90.12813 59.58854 89.59688 59.822914Q88.925 60.104164 88.925 60.260414Q88.925 60.416664 89.3625 60.74479Q89.62813 60.96354 89.90938 61.166664Q90.95625 61.947914 91.72188 62.80729Q92.56563 63.729164 93.06563 64.729164L93.06563 65.916664ZM100.9875 65.916664L100.45625 65.916664Q100.01875 65.916664 99.70625 65.791664Q99.39375 65.666664 99.12813 65.447914Q98.8 65.71354 98.56563 65.791664Q98.22188 65.916664 97.6125 65.916664L97.15938 65.916664Q96.81563 65.916664 96.45625 65.77604Q96.22188 65.68229 95.87813 65.479164Q95.55 65.729164 95.26875 65.822914Q95.00313 65.916664 94.39375 65.916664L93.06563 65.916664L93.06563 64.729164L94.39375 64.729164Q94.94063 64.729164 95.19063 64.635414Q95.58125 64.46354 95.58125 63.99479Q95.58125 63.80729 95.55 63.604164Q95.53438 63.40104 95.4875 63.15104L95.76875 62.74479Q95.95625 63.36979 96.08125 63.666664Q96.3 64.166664 96.56563 64.416664Q96.87813 64.729164 97.31563 64.729164L97.76875 64.729164Q98.28438 64.729164 98.53438 64.572914Q98.8 64.385414 98.8 63.99479Q98.8 63.791664 98.76875 63.58854Q98.75313 63.385414 98.69063 63.15104L98.9875 62.74479L99.12813 63.385414Q99.31563 64.15104 99.58125 64.447914Q99.81563 64.697914 100.20625 64.697914Q100.39375 64.697914 100.50313 64.58854Q100.6125 64.479164 100.6125 64.30729Q100.6125 63.916664 100.33125 63.49479Q100.28438 63.43229 100.00313 63.041664L100.44063 62.30729Q100.72188 62.729164 100.83125 63.041664Q100.9875 63.49479 100.9875 64.27604L100.9875 65.916664ZM112.78438 65.916664L111.59688 65.916664Q110.53438 65.916664 110.00313 65.979164Q109.47188 66.02604 109.47188 66.18229Q109.47188 66.416664 110.1125 66.416664Q110.39375 66.416664 110.55 66.43229Q110.72188 66.43229 111.28438 66.49479Q111.6125 66.541664 111.72188 66.604164Q111.925 66.71354 111.925 66.96354Q111.925 68.24479 111.08125 68.822914Q110.175 69.447914 108.05 69.447914Q106.58125 69.447914 105.72188 68.96354Q104.8 68.416664 104.8 67.43229Q104.8 66.65104 105.2375 65.760414Q105.39375 65.43229 106.06563 64.385414L106.33125 64.52604Q106.08125 64.96354 105.81563 65.40104Q105.425 66.15104 105.425 66.635414Q105.425 67.479164 106.3 67.916664Q107.14375 68.322914 108.59688 68.322914Q109.58125 68.322914 110.31563 68.18229Q111.2375 67.99479 111.2375 67.666664Q111.2375 67.55729 111.12813 67.49479Q111.03438 67.43229 110.78438 67.43229Q110.6125 67.416664 110.20625 67.40104Q109.81563 67.36979 109.69063 67.36979Q109.26875 67.36979 109.08125 67.260414Q108.89375 67.15104 108.89375 66.916664Q108.89375 66.072914 109.39375 65.52604Q109.8 65.08854 110.50313 64.885414Q111.01875 64.729164 111.59688 64.729164L112.78438 64.729164L112.78438 65.916664ZM115.45625 65.916664L112.06563 65.916664L112.06563 64.729164L114.75313 64.729164L113.94063 58.93229L113.59688 58.760414Q113.59688 58.291664 113.675 57.885414Q113.75313 57.46354 113.925 57.072914L114.01875 57.135414Q114.01875 57.541664 114.47188 57.74479Q114.8 57.86979 115.15938 58.010414Q115.15938 58.354164 115.09688 58.74479Q115.05 59.135414 114.97188 59.322914L114.64375 59.21354L115.45625 64.572914L115.45625 65.916664ZM122.12813 63.77604L121.65938 65.02604Q120.62813 65.40104 119.26875 65.666664Q117.90938 65.916664 116.76875 65.916664L115.06563 65.916664L115.06563 64.729164L116.70625 64.729164Q116.51875 64.40104 116.39375 63.99479Q116.26875 63.58854 116.26875 63.21354Q116.26875 62.40104 116.94063 61.854164Q117.6125 61.30729 118.675 61.30729Q119.51875 61.30729 120.06563 61.71354Q120.3 61.885414 120.84688 62.55729L120.72188 62.666664Q120.25313 62.541664 119.8625 62.479164Q119.4875 62.416664 119.09688 62.416664Q118.14375 62.416664 117.6125 62.61979Q117.08125 62.822914 117.08125 63.166664Q117.08125 63.510414 117.40938 63.93229Q117.75313 64.33854 118.28438 64.65104Q119.40938 64.479164 120.12813 64.322914Q120.84688 64.166664 122.12813 63.77604ZM133.39375 65.916664Q133.39375 66.666664 132.75313 67.479164Q132.19063 68.18229 131.3625 68.697914Q130.56563 69.18229 130.05 69.18229Q129.58125 69.18229 129.03438 69.05729Q128.6125 68.947914 128.03438 68.729164Q127.53438 68.541664 127.05 68.354164L127.175 68.08854Q127.62813 68.18229 128.1125 68.260414Q128.59688 68.354164 129.00313 68.354164Q129.87813 68.354164 130.81563 67.80729Q131.69063 67.291664 132.28438 66.510414Q132.89375 65.729164 132.89375 65.08854Q132.89375 64.55729 132.58125 63.96354Q132.33125 63.479164 131.87813 62.979164L132.26875 61.90104Q132.83125 62.416664 133.09688 62.93229Q133.39375 63.52604 133.39375 64.24479L133.39375 65.916664ZM139.59688 65.510414Q139.59688 66.635414 138.76875 67.74479Q137.83125 68.99479 136.6125 68.99479Q136.175 68.99479 135.69063 68.885414Q135.34688 68.80729 134.78438 68.635414Q134.33125 68.46354 133.89375 68.322914L134.00313 68.08854Q134.39375 68.166664 134.81563 68.260414Q135.2375 68.36979 135.56563 68.36979Q136.39375 68.36979 137.14375 67.947914Q137.72188 67.604164 138.31563 66.979164Q138.59688 66.65104 139.14375 65.93229Q138.22188 65.93229 137.76875 65.635414Q137.2375 65.291664 137.2375 64.52604Q137.2375 63.822914 137.56563 63.229164Q137.95625 62.52604 138.53438 62.52604Q139.12813 62.52604 139.39375 63.21354Q139.59688 63.760414 139.59688 64.729164L139.59688 65.510414ZM139.175 64.760414Q139.01875 64.104164 138.8 63.854164Q138.62813 63.635414 138.3625 63.635414Q138.15938 63.635414 138.01875 63.760414Q137.87813 63.885414 137.87813 64.072914Q137.87813 64.416664 138.175 64.58854Q138.4875 64.760414 139.175 64.760414ZM144.26875 65.916664L141.20625 65.916664Q140.81563 65.916664 140.50313 65.697914Q140.20625 65.46354 140.20625 65.15104Q140.20625 64.90104 140.22188 64.68229Q140.25313 64.46354 140.33125 64.21354L140.4875 64.21354Q140.56563 64.49479 140.75313 64.61979Q140.925 64.729164 141.20625 64.729164L143.8625 64.729164Q143.8625 63.49479 143.51875 62.760414Q143.09688 61.822914 142.09688 61.510414L142.20625 60.197914Q143.37813 60.77604 143.87813 62.041664Q144.26875 63.072914 144.26875 64.729164L144.26875 65.916664ZM147.97188 65.916664L144.06563 65.916664L144.06563 64.729164L147.47188 64.729164Q147.47188 63.916664 147.28438 63.49479Q147.14375 63.197914 146.62813 62.65104L147.175 61.52604Q147.65938 62.15104 147.78438 62.49479Q147.97188 63.02604 147.97188 64.24479L147.97188 65.916664ZM147.26875 67.572914L146.7375 68.572914L145.62813 67.99479L146.14375 66.99479L147.26875 67.572914ZM156.8 65.916664L155.81563 65.916664Q155.33125 65.916664 154.95625 65.072914Q154.675 64.447914 154.50313 63.447914Q154.3 63.83854 153.9875 64.05729Q153.675 64.260414 153.31563 64.260414Q152.53438 64.260414 152.00313 64.15104Q151.4875 64.041664 151.4875 63.885414Q151.4875 63.291664 152.25313 62.58854Q153.01875 61.86979 154.175 61.33854Q154.15938 61.27604 154.1125 61.041664Q154.06563 60.80729 154.06563 60.760414Q154.06563 60.52604 154.22188 60.24479Q154.34688 60.010414 154.56563 59.760414Q154.62813 60.18229 154.70625 60.58854Q154.78438 60.979164 154.87813 61.40104L155.08125 62.572914Q155.25313 63.541664 155.37813 64.010414Q155.59688 64.729164 155.81563 64.729164L156.8 64.729164L156.8 65.916664ZM154.40938 62.854164L154.28438 62.11979Q153.69063 62.322914 153.34688 62.55729Q153.00313 62.77604 152.76875 63.15104Q152.925 63.21354 153.1125 63.260414Q153.3 63.291664 153.62813 63.291664Q154.05 63.291664 154.40938 62.854164ZM163.9875 65.916664L163.45625 65.916664Q163.01875 65.916664 162.70625 65.791664Q162.39375 65.666664 162.12813 65.447914Q161.8 65.71354 161.56563 65.791664Q161.22188 65.916664 160.6125 65.916664L160.15938 65.916664Q159.81563 65.916664 159.45625 65.77604Q159.22188 65.68229 158.87813 65.479164Q158.55 65.729164 158.26875 65.822914Q158.00313 65.916664 157.39375 65.916664L156.06563 65.916664L156.06563 64.729164L157.39375 64.729164Q157.94063 64.729164 158.19063 64.635414Q158.58125 64.46354 158.58125 63.99479Q158.58125 63.80729 158.55 63.604164Q158.53438 63.40104 158.4875 63.15104L158.76875 62.74479Q158.95625 63.36979 159.08125 63.666664Q159.3 64.166664 159.56563 64.416664Q159.87813 64.729164 160.31563 64.729164L160.76875 64.729164Q161.28438 64.729164 161.53438 64.572914Q161.8 64.385414 161.8 63.99479Q161.8 63.791664 161.76875 63.58854Q161.75313 63.385414 161.69063 63.15104L161.9875 62.74479L162.12813 63.385414Q162.31563 64.15104 162.58125 64.447914Q162.81563 64.697914 163.20625 64.697914Q163.39375 64.697914 163.50313 64.58854Q163.6125 64.479164 163.6125 64.30729Q163.6125 63.916664 163.33125 63.49479Q163.28438 63.43229 163.00313 63.041664L163.44063 62.30729Q163.72188 62.729164 163.83125 63.041664Q163.9875 63.49479 163.9875 64.27604L163.9875 65.916664ZM166.45625 65.916664L163.06563 65.916664L163.06563 64.729164L165.75313 64.729164L164.94063 58.93229L164.59688 58.760414Q164.59688 58.291664 164.675 57.885414Q164.75313 57.46354 164.925 57.072914L165.01875 57.135414Q165.01875 57.541664 165.47188 57.74479Q165.8 57.86979 166.15938 58.010414Q166.15938 58.354164 166.09688 58.74479Q166.05 59.135414 165.97188 59.322914L165.64375 59.21354L166.45625 64.572914L166.45625 65.916664Z" fill-rule="nonzero"/><path fill="#963c25" d="M30.55 88.916664C30.55 92.23038 27.863708 94.916664 24.55 94.916664C21.236292 94.916664 18.55 92.23038 18.55 88.916664C18.55 85.60296 21.236292 82.916664 24.55 82.916664C27.863708 82.916664 30.55 85.60296 30.55 88.916664Z" fill-rule="nonzero"/><path fill="#1a1a1a" d="M106.53438 91.916664L100.01875 91.916664Q98.70625 91.916664 97.925 91.447914Q96.94063 90.885414 96.94063 89.65104Q96.94063 89.02604 97.2375 88.354164Q97.33125 88.11979 97.72188 87.447914L97.925 87.572914Q97.78438 87.90104 97.64375 88.21354Q97.44063 88.697914 97.44063 89.072914Q97.44063 89.885414 98.28438 90.322914Q99.05 90.729164 100.20625 90.729164L106.00313 90.729164L106.00313 90.541664Q106.00313 89.77604 105.81563 89.291664Q105.62813 88.80729 105.19063 88.46354L105.70625 87.354164Q106.01875 87.729164 106.06563 87.822914Q106.53438 88.58854 106.53438 90.05729L106.53438 91.916664ZM102.62813 93.572914L102.08125 94.572914L100.9875 93.99479L101.4875 92.99479L102.62813 93.572914ZM113.39375 91.916664Q113.39375 92.666664 112.75313 93.479164Q112.19063 94.18229 111.3625 94.697914Q110.56563 95.18229 110.05 95.18229Q109.58125 95.18229 109.03438 95.05729Q108.6125 94.947914 108.03438 94.729164Q107.53438 94.541664 107.05 94.354164L107.175 94.08854Q107.62813 94.18229 108.1125 94.260414Q108.59688 94.354164 109.00313 94.354164Q109.87813 94.354164 110.81563 93.80729Q111.69063 93.291664 112.28438 92.510414Q112.89375 91.729164 112.89375 91.08854Q112.89375 90.55729 112.58125 89.96354Q112.33125 89.479164 111.87813 88.979164L112.26875 87.90104Q112.83125 88.416664 113.09688 88.93229Q113.39375 89.52604 113.39375 90.24479L113.39375 91.916664ZM116.76875 91.916664L115.8 91.916664Q115.34688 91.916664 115.06563 91.541664Q114.81563 91.21354 114.69063 90.572914Q114.56563 89.916664 114.4875 88.96354Q114.45625 88.18229 114.40938 87.36979Q114.3625 86.55729 114.28438 86.135414Q114.22188 85.71354 114.09688 85.447914Q113.94063 85.11979 113.675 84.885414L114.51875 83.55729Q114.78438 84.36979 114.89375 85.510414Q114.97188 86.229164 115.03438 88.885414Q115.15938 90.08854 115.39375 90.43229Q115.58125 90.729164 115.8 90.729164L116.76875 90.729164L116.76875 91.916664ZM120.08125 84.135414L119.55 85.11979L118.44063 84.52604L118.95625 83.55729L120.08125 84.135414ZM118.50313 84.74479L117.9875 85.74479L116.87813 85.166664L117.37813 84.18229L118.50313 84.74479ZM120.3 91.916664L116.06563 91.916664L116.06563 90.729164L119.72188 90.729164Q119.72188 90.11979 119.56563 89.58854Q119.22188 89.697914 119.01875 89.74479Q118.70625 89.822914 118.47188 89.822914Q117.97188 89.822914 117.65938 89.572914Q117.3 89.291664 117.3 88.74479Q117.3 87.791664 117.64375 87.08854Q118.01875 86.291664 118.62813 86.291664Q119.47188 86.291664 119.925 87.604164Q120.3 88.68229 120.3 90.135414L120.3 91.916664ZM119.175 88.354164Q119.08125 88.11979 118.87813 87.854164Q118.58125 87.510414 118.33125 87.510414Q118.14375 87.510414 118.01875 87.666664Q117.90938 87.822914 117.90938 88.041664Q117.90938 88.58854 118.50313 88.58854Q118.65938 88.58854 118.83125 88.52604Q119.01875 88.46354 119.175 88.354164ZM123.05 82.71354Q123.05 82.885414 122.84688 83.02604Q122.69063 83.11979 122.40938 83.21354L121.14375 83.65104Q121.14375 83.33854 121.81563 83.104164Q121.6125 82.99479 121.50313 82.885414Q121.3625 82.760414 121.3625 82.61979Q121.3625 82.40104 121.72188 82.02604Q122.12813 81.604164 122.425 81.604164Q122.56563 81.604164 122.65938 81.697914Q122.76875 81.77604 122.76875 81.93229Q122.76875 82.02604 122.72188 82.135414Q122.69063 82.229164 122.6125 82.354164Q122.39375 82.15104 122.14375 82.15104Q122.00313 82.15104 121.84688 82.21354Q121.70625 82.27604 121.70625 82.36979Q121.70625 82.46354 122.01875 82.65104Q122.34688 82.822914 122.56563 82.822914Q122.72188 82.822914 122.78438 82.822914Q122.84688 82.80729 123.05 82.71354ZM122.8625 90.166664Q122.8625 90.71354 122.65938 91.229164Q122.56563 91.510414 122.22188 92.104164L122.09688 92.02604Q122.1125 91.83854 122.12813 91.572914Q122.14375 91.30729 122.14375 91.229164Q122.14375 90.510414 122.03438 89.24479Q121.925 87.96354 121.76875 86.572914Q121.675 85.729164 121.55 84.854164Q121.69063 84.55729 121.8625 84.21354Q122.03438 83.854164 122.19063 83.55729Q122.3 84.33854 122.47188 85.697914Q122.64375 87.041664 122.7375 88.11979Q122.8625 89.479164 122.8625 90.166664ZM134.34688 95.791664L132.97188 96.885414Q131.69063 96.885414 130.95625 96.760414Q129.62813 96.55729 128.87813 95.947914Q127.925 95.166664 127.925 93.74479Q127.925 92.80729 128.28438 92.010414Q128.56563 91.36979 129.14375 90.729164Q129.40938 90.416664 130.14375 89.74479Q130.08125 89.510414 129.95625 89.40104Q129.83125 89.291664 129.69063 89.291664Q129.50313 89.291664 129.33125 89.52604L129.22188 89.52604Q129.3625 88.80729 129.51875 88.541664Q129.90938 87.885414 130.78438 87.885414Q131.3625 87.885414 131.78438 88.166664Q132.25313 88.49479 132.25313 88.99479Q132.25313 89.33854 132.00313 89.572914Q131.76875 89.760414 131.6125 89.885414Q131.9875 90.33854 132.33125 90.541664Q132.69063 90.729164 133.22188 90.729164L133.84688 90.729164L133.84688 91.916664L133.22188 91.916664Q132.175 91.916664 131.59688 91.604164Q131.01875 91.291664 130.675 90.55729Q130.175 90.885414 129.76875 91.229164Q129.22188 91.68229 128.925 92.135414Q128.53438 92.68229 128.53438 93.197914Q128.53438 94.354164 129.69063 94.99479Q130.58125 95.479164 132.12813 95.65104Q132.95625 95.729164 134.33125 95.729164L134.34688 95.791664ZM139.06563 91.916664L138.3625 91.916664Q137.89375 91.916664 137.33125 91.71354Q136.65938 91.46354 136.15938 91.05729Q135.75313 91.541664 135.33125 91.729164Q134.925 91.916664 134.14375 91.916664L133.06563 91.916664L133.06563 90.729164L134.1125 90.729164Q134.7375 90.729164 135.22188 90.416664Q135.59688 90.166664 135.90938 89.71354Q136.33125 89.11979 136.94063 88.666664Q137.4875 88.27604 137.94063 88.166664Q138.40938 88.885414 138.69063 89.46354Q139.06563 90.24479 139.06563 90.729164L139.06563 91.916664ZM138.28438 90.572914Q138.19063 90.166664 138.00313 89.791664Q137.84688 89.46354 137.59688 89.11979Q137.26875 89.21354 137.03438 89.43229Q136.89375 89.572914 136.675 89.916664Q136.925 90.18229 137.3625 90.40104Q137.81563 90.604164 138.22188 90.65104L138.28438 90.572914ZM148.3625 86.666664L147.8625 87.65104L146.78438 87.05729L147.28438 86.104164L148.3625 86.666664ZM150.90938 91.916664Q150.90938 93.43229 150.01875 94.15104Q149.05 94.93229 146.90938 94.93229Q145.53438 94.93229 144.81563 94.447914Q144.01875 93.916664 144.01875 92.83854Q144.01875 92.24479 144.15938 91.65104Q144.31563 91.041664 144.55 90.43229Q144.70625 90.072914 145.08125 89.30729L145.34688 89.43229Q144.8625 90.416664 144.70625 90.979164Q144.56563 91.541664 144.56563 92.010414Q144.56563 92.86979 145.15938 93.30729Q145.76875 93.74479 146.89375 93.74479Q148.19063 93.74479 149.19063 93.291664Q150.425 92.71354 150.425 91.697914Q150.425 91.010414 150.22188 90.40104Q150.03438 89.86979 149.70625 89.479164L150.28438 88.072914Q150.64375 88.61979 150.76875 89.197914Q150.90938 89.77604 150.90938 90.729164L150.90938 91.916664ZM156.06563 91.916664L150.06563 91.916664L150.06563 90.729164L155.26875 90.729164Q154.8 89.99479 154.175 89.46354Q153.56563 88.93229 152.51875 88.30729L152.3 88.510414L151.4875 87.90104Q151.06563 87.541664 151.06563 87.354164Q151.06563 86.166664 151.64375 85.49479Q152.175 84.885414 153.47188 84.40104L155.40938 83.635414L155.40938 84.822914L153.97188 85.30729Q153.12813 85.58854 152.59688 85.822914Q151.925 86.104164 151.925 86.260414Q151.925 86.416664 152.3625 86.74479Q152.62813 86.96354 152.90938 87.166664Q153.95625 87.947914 154.72188 88.80729Q155.56563 89.729164 156.06563 90.729164L156.06563 91.916664ZM159.76875 91.916664L158.8 91.916664Q158.34688 91.916664 158.06563 91.541664Q157.81563 91.21354 157.69063 90.572914Q157.56563 89.916664 157.4875 88.96354Q157.45625 88.18229 157.40938 87.36979Q157.3625 86.55729 157.28438 86.135414Q157.22188 85.71354 157.09688 85.447914Q156.94063 85.11979 156.675 84.885414L157.51875 83.55729Q157.78438 84.36979 157.89375 85.510414Q157.97188 86.229164 158.03438 88.885414Q158.15938 90.08854 158.39375 90.43229Q158.58125 90.729164 158.8 90.729164L159.76875 90.729164L159.76875 91.916664ZM166.9875 91.916664L166.45625 91.916664Q166.01875 91.916664 165.70625 91.791664Q165.39375 91.666664 165.12813 91.447914Q164.8 91.71354 164.56563 91.791664Q164.22188 91.916664 163.6125 91.916664L163.15938 91.916664Q162.81563 91.916664 162.45625 91.77604Q162.22188 91.68229 161.87813 91.479164Q161.55 91.729164 161.26875 91.822914Q161.00313 91.916664 160.39375 91.916664L159.06563 91.916664L159.06563 90.729164L160.39375 90.729164Q160.94063 90.729164 161.19063 90.635414Q161.58125 90.46354 161.58125 89.99479Q161.58125 89.80729 161.55 89.604164Q161.53438 89.40104 161.4875 89.15104L161.76875 88.74479Q161.95625 89.36979 162.08125 89.666664Q162.3 90.166664 162.56563 90.416664Q162.87813 90.729164 163.31563 90.729164L163.76875 90.729164Q164.28438 90.729164 164.53438 90.572914Q164.8 90.385414 164.8 89.99479Q164.8 89.791664 164.76875 89.58854Q164.75313 89.385414 164.69063 89.15104L164.9875 88.74479L165.12813 89.385414Q165.31563 90.15104 165.58125 90.447914Q165.81563 90.697914 166.20625 90.697914Q166.39375 90.697914 166.50313 90.58854Q166.6125 90.479164 166.6125 90.30729Q166.6125 89.916664 166.33125 89.49479Q166.28438 89.43229 166.00313 89.041664L166.44063 88.30729Q166.72188 88.729164 166.83125 89.041664Q166.9875 89.49479 166.9875 90.27604L166.9875 91.916664Z" fill-rule="nonzero"/><path fill="#003049" d="M30.55 114.916664C30.55 118.23038 27.863708 120.916664 24.55 120.916664C21.236292 120.916664 18.55 118.23038 18.55 114.916664C18.55 111.60296 21.236292 108.916664 24.55 108.916664C27.863708 108.916664 30.55 111.60296 30.55 114.916664Z" fill-rule="nonzero"/><path fill="#1a1a1a" d="M43.64375 116.24479L43.315624 117.36979Q42.26875 117.61979 41.596874 117.947914Q40.83125 118.322914 40.190624 118.916664L39.971874 118.791664Q40.065624 118.479164 40.221874 118.21354Q40.346874 117.979164 40.51875 117.791664L39.721874 117.33854Q39.378124 117.11979 39.378124 116.83854Q39.378124 116.61979 39.64375 116.041664Q39.971874 115.36979 40.409374 114.90104Q40.95625 114.322914 41.503124 114.322914Q42.01875 114.322914 42.346874 114.604164Q42.425 114.666664 42.70625 114.99479L42.346874 115.885414Q42.096874 115.71354 42.05 115.68229Q41.628124 115.416664 41.3625 115.416664Q41.034374 115.416664 40.675 115.604164Q40.315624 115.77604 40.315624 116.010414Q40.315624 116.291664 40.7375 116.55729Q41.05 116.74479 41.70625 116.979164Q42.659374 116.52604 43.64375 116.24479ZM50.128124 114.33854Q50.128124 114.479164 50.1125 114.572914Q50.096874 114.666664 50.05 114.80729Q49.659374 113.947914 48.909374 113.041664Q48.08125 112.041664 47.596874 112.041664Q47.503124 112.041664 47.39375 112.229164Q47.284374 112.40104 47.159374 112.40104Q46.971874 112.40104 46.58125 112.15104Q46.08125 111.854164 45.76875 111.46354Q45.378124 110.93229 45.378124 110.322914Q45.378124 109.90104 45.64375 109.90104Q46.14375 109.90104 47.190624 110.510414Q48.3625 111.21354 49.14375 112.135414Q50.128124 113.260414 50.128124 114.33854ZM52.95625 117.916664L52.534374 117.916664Q51.971874 117.916664 51.6125 117.291664Q51.20625 116.541664 51.20625 115.010414Q51.20625 114.90104 51.175 114.729164Q51.159374 114.541664 51.159374 114.49479Q50.503124 116.30729 49.9875 116.99479Q49.378124 117.77604 48.26875 118.041664Q47.33125 118.260414 45.05 118.260414L45.05 118.072914Q46.89375 117.510414 47.8 117.11979Q49.253124 116.46354 50.003124 115.635414Q50.909374 114.61979 50.909374 113.229164Q50.909374 112.55729 50.815624 111.979164Q50.7375 111.40104 50.596874 110.791664L50.815624 110.21354Q50.95625 109.885414 51.065624 109.65104Q51.253124 110.635414 51.409374 111.77604Q51.51875 112.55729 51.6125 113.46354Q51.753124 114.572914 51.846874 115.24479Q51.971874 116.104164 52.20625 116.479164Q52.378124 116.729164 52.534374 116.729164L52.95625 116.729164L52.95625 117.916664ZM58.065624 117.916664L57.3625 117.916664Q56.89375 117.916664 56.33125 117.71354Q55.659374 117.46354 55.159374 117.05729Q54.753124 117.541664 54.33125 117.729164Q53.925 117.916664 53.14375 117.916664L52.065624 117.916664L52.065624 116.729164L53.1125 116.729164Q53.7375 116.729164 54.221874 116.416664Q54.596874 116.166664 54.909374 115.71354Q55.33125 115.11979 55.940624 114.666664Q56.4875 114.27604 56.940624 114.166664Q57.409374 114.885414 57.690624 115.46354Q58.065624 116.24479 58.065624 116.729164L58.065624 117.916664ZM57.284374 116.572914Q57.190624 116.166664 57.003124 115.791664Q56.846874 115.46354 56.596874 115.11979Q56.26875 115.21354 56.034374 115.43229Q55.89375 115.572914 55.675 115.916664Q55.925 116.18229 56.3625 116.40104Q56.815624 116.604164 57.221874 116.65104L57.284374 116.572914ZM64.3625 111.541664L63.846874 112.541664L62.7375 111.96354L63.253124 110.96354L64.3625 111.541664ZM65.39375 117.916664Q65.39375 118.666664 64.75313 119.479164Q64.19063 120.18229 63.3625 120.697914Q62.565624 121.18229 62.05 121.18229Q61.58125 121.18229 61.034374 121.05729Q60.6125 120.947914 60.034374 120.729164Q59.534374 120.541664 59.05 120.354164L59.175 120.08854Q59.628124 120.18229 60.1125 120.260414Q60.596874 120.354164 61.003124 120.354164Q61.878124 120.354164 62.815624 119.80729Q63.690624 119.291664 64.28438 118.510414Q64.89375 117.729164 64.89375 117.08854Q64.89375 116.55729 64.58125 115.96354Q64.33125 115.479164 63.878124 114.979164L64.26875 113.90104Q64.83125 114.416664 65.09688 114.93229Q65.39375 115.52604 65.39375 116.24479L65.39375 117.916664ZM76.34688 121.791664L74.97188 122.885414Q73.69063 122.885414 72.95625 122.760414Q71.62813 122.55729 70.87813 121.947914Q69.925 121.166664 69.925 119.74479Q69.925 118.80729 70.28438 118.010414Q70.56563 117.36979 71.14375 116.729164Q71.40938 116.416664 72.14375 115.74479Q72.08125 115.510414 71.95625 115.40104Q71.83125 115.291664 71.69063 115.291664Q71.50313 115.291664 71.33125 115.52604L71.22188 115.52604Q71.3625 114.80729 71.51875 114.541664Q71.90938 113.885414 72.78438 113.885414Q73.3625 113.885414 73.78438 114.166664Q74.25313 114.49479 74.25313 114.99479Q74.25313 115.33854 74.00313 115.572914Q73.76875 115.760414 73.6125 115.885414Q73.9875 116.33854 74.33125 116.541664Q74.69063 116.729164 75.22188 116.729164L75.84688 116.729164L75.84688 117.916664L75.22188 117.916664Q74.175 117.916664 73.59688 117.604164Q73.01875 117.291664 72.675 116.55729Q72.175 116.885414 71.76875 117.229164Q71.22188 117.68229 70.925 118.135414Q70.53438 118.68229 70.53438 119.197914Q70.53438 120.354164 71.69063 120.99479Q72.58125 121.479164 74.12813 121.65104Q74.95625 121.729164 76.33125 121.729164L76.34688 121.791664ZM81.06563 117.916664L80.3625 117.916664Q79.89375 117.916664 79.33125 117.71354Q78.65938 117.46354 78.15938 117.05729Q77.75313 117.541664 77.33125 117.729164Q76.925 117.916664 76.14375 117.916664L75.06563 117.916664L75.06563 116.729164L76.1125 116.729164Q76.7375 116.729164 77.22188 116.416664Q77.59688 116.166664 77.90938 115.71354Q78.33125 115.11979 78.94063 114.666664Q79.4875 114.27604 79.94063 114.166664Q80.40938 114.885414 80.69063 115.46354Q81.06563 116.24479 81.06563 116.729164L81.06563 117.916664ZM80.28438 116.572914Q80.19063 116.166664 80.00313 115.791664Q79.84688 115.46354 79.59688 115.11979Q79.26875 115.21354 79.03438 115.43229Q78.89375 115.572914 78.675 115.916664Q78.925 116.18229 79.3625 116.40104Q79.81563 116.604164 80.22188 116.65104L80.28438 116.572914ZM89.06563 109.74479L88.53438 110.729164L87.425 110.135414L87.94063 109.166664L89.06563 109.74479ZM87.50313 110.354164L86.97188 111.354164L85.87813 110.77604L86.37813 109.791664L87.50313 110.354164ZM90.8 117.916664L89.81563 117.916664Q89.33125 117.916664 88.95625 117.072914Q88.675 116.447914 88.50313 115.447914Q88.3 115.83854 87.9875 116.05729Q87.675 116.260414 87.31563 116.260414Q86.53438 116.260414 86.00313 116.15104Q85.4875 116.041664 85.4875 115.885414Q85.4875 115.291664 86.25313 114.58854Q87.01875 113.86979 88.175 113.33854Q88.15938 113.27604 88.1125 113.041664Q88.06563 112.80729 88.06563 112.760414Q88.06563 112.52604 88.22188 112.24479Q88.34688 112.010414 88.56563 111.760414Q88.62813 112.18229 88.70625 112.58854Q88.78438 112.979164 88.87813 113.40104L89.08125 114.572914Q89.25313 115.541664 89.37813 116.010414Q89.59688 116.729164 89.81563 116.729164L90.8 116.729164L90.8 117.916664ZM88.40938 114.854164L88.28438 114.11979Q87.69063 114.322914 87.34688 114.55729Q87.00313 114.77604 86.76875 115.15104Q86.925 115.21354 87.1125 115.260414Q87.3 115.291664 87.62813 115.291664Q88.05 115.291664 88.40938 114.854164ZM96.06563 117.916664L90.06563 117.916664L90.06563 116.729164L95.26875 116.729164Q94.8 115.99479 94.175 115.46354Q93.56563 114.93229 92.51875 114.30729L92.3 114.510414L91.4875 113.90104Q91.06563 113.541664 91.06563 113.354164Q91.06563 112.166664 91.64375 111.49479Q92.175 110.885414 93.47188 110.40104L95.40938 109.635414L95.40938 110.822914L93.97188 111.30729Q93.12813 111.58854 92.59688 111.822914Q91.925 112.104164 91.925 112.260414Q91.925 112.416664 92.3625 112.74479Q92.62813 112.96354 92.90938 113.166664Q93.95625 113.947914 94.72188 114.80729Q95.56563 115.729164 96.06563 116.729164L96.06563 117.916664ZM103.39375 117.916664Q103.39375 118.666664 102.75313 119.479164Q102.19063 120.18229 101.3625 120.697914Q100.56563 121.18229 100.05 121.18229Q99.58125 121.18229 99.03438 121.05729Q98.6125 120.947914 98.03438 120.729164Q97.53438 120.541664 97.05 120.354164L97.175 120.08854Q97.62813 120.18229 98.1125 120.260414Q98.59688 120.354164 99.00313 120.354164Q99.87813 120.354164 100.81563 119.80729Q101.69063 119.291664 102.28438 118.510414Q102.89375 117.729164 102.89375 117.08854Q102.89375 116.55729 102.58125 115.96354Q102.33125 115.479164 101.87813 114.979164L102.26875 113.90104Q102.83125 114.416664 103.09688 114.93229Q103.39375 115.52604 103.39375 116.24479L103.39375 117.916664ZM106.94063 111.166664L106.39375 112.15104L105.3 111.55729L105.8 110.572914L106.94063 111.166664ZM105.3625 111.77604L104.84688 112.760414L103.7375 112.197914L104.2375 111.197914L105.3625 111.77604ZM106.97188 117.916664L103.06563 117.916664L103.06563 116.729164L106.47188 116.729164Q106.47188 115.916664 106.28438 115.49479Q106.14375 115.197914 105.62813 114.65104L106.175 113.52604Q106.65938 114.15104 106.78438 114.49479Q106.97188 115.02604 106.97188 116.24479L106.97188 117.916664ZM112.01875 110.49479L111.50313 111.49479L110.40938 110.90104L110.90938 109.90104L112.01875 110.49479ZM113.37813 111.71354L112.84688 112.697914L111.7375 112.104164L112.2375 111.11979L113.37813 111.71354ZM111.8 112.322914L111.28438 113.30729L110.175 112.74479L110.675 111.74479L111.8 112.322914ZM113.9875 117.916664L113.45625 117.916664Q113.01875 117.916664 112.70625 117.791664Q112.39375 117.666664 112.12813 117.447914Q111.8 117.71354 111.56563 117.791664Q111.22188 117.916664 110.6125 117.916664L110.15938 117.916664Q109.81563 117.916664 109.45625 117.77604Q109.22188 117.68229 108.87813 117.479164Q108.55 117.729164 108.26875 117.822914Q108.00313 117.916664 107.39375 117.916664L106.06563 117.916664L106.06563 116.729164L107.39375 116.729164Q107.94063 116.729164 108.19063 116.635414Q108.58125 116.46354 108.58125 115.99479Q108.58125 115.80729 108.55 115.604164Q108.53438 115.40104 108.4875 115.15104L108.76875 114.74479Q108.95625 115.36979 109.08125 115.666664Q109.3 116.166664 109.56563 116.416664Q109.87813 116.729164 110.31563 116.729164L110.76875 116.729164Q111.28438 116.729164 111.53438 116.572914Q111.8 116.385414 111.8 115.99479Q111.8 115.791664 111.76875 115.58854Q111.75313 115.385414 111.69063 115.15104L111.9875 114.74479L112.12813 115.385414Q112.31563 116.15104 112.58125 116.447914Q112.81563 116.697914 113.20625 116.697914Q113.39375 116.697914 113.50313 116.58854Q113.6125 116.479164 113.6125 116.30729Q113.6125 115.916664 113.33125 115.49479Q113.28438 115.43229 113.00313 115.041664L113.44063 114.30729Q113.72188 114.729164 113.83125 115.041664Q113.9875 115.49479 113.9875 116.27604L113.9875 117.916664ZM119.06563 117.916664L118.3625 117.916664Q117.89375 117.916664 117.33125 117.71354Q116.65938 117.46354 116.15938 117.05729Q115.75313 117.541664 115.33125 117.729164Q114.925 117.916664 114.14375 117.916664L113.06563 117.916664L113.06563 116.729164L114.1125 116.729164Q114.7375 116.729164 115.22188 116.416664Q115.59688 116.166664 115.90938 115.71354Q116.33125 115.11979 116.94063 114.666664Q117.4875 114.27604 117.94063 114.166664Q118.40938 114.885414 118.69063 115.46354Q119.06563 116.24479 119.06563 116.729164L119.06563 117.916664ZM118.28438 116.572914Q118.19063 116.166664 118.00313 115.791664Q117.84688 115.46354 117.59688 115.11979Q117.26875 115.21354 117.03438 115.43229Q116.89375 115.572914 116.675 115.916664Q116.925 116.18229 117.3625 116.40104Q117.81563 116.604164 118.22188 116.65104L118.28438 116.572914ZM130.39375 117.916664Q130.39375 118.666664 129.75313 119.479164Q129.19063 120.18229 128.3625 120.697914Q127.56563 121.18229 127.05 121.18229Q126.58125 121.18229 126.03438 121.05729Q125.6125 120.947914 125.03438 120.729164Q124.53438 120.541664 124.05 120.354164L124.175 120.08854Q124.62813 120.18229 125.1125 120.260414Q125.59688 120.354164 126.00313 120.354164Q126.87813 120.354164 127.81563 119.80729Q128.69063 119.291664 129.28438 118.510414Q129.89375 117.729164 129.89375 117.08854Q129.89375 116.55729 129.58125 115.96354Q129.33125 115.479164 128.87813 114.979164L129.26875 113.90104Q129.83125 114.416664 130.09688 114.93229Q130.39375 115.52604 130.39375 116.24479L130.39375 117.916664ZM133.76875 117.916664L132.8 117.916664Q132.34688 117.916664 132.06563 117.541664Q131.81563 117.21354 131.69063 116.572914Q131.56563 115.916664 131.4875 114.96354Q131.45625 114.18229 131.40938 113.36979Q131.3625 112.55729 131.28438 112.135414Q131.22188 111.71354 131.09688 111.447914Q130.94063 111.11979 130.675 110.885414L131.51875 109.55729Q131.78438 110.36979 131.89375 111.510414Q131.97188 112.229164 132.03438 114.885414Q132.15938 116.08854 132.39375 116.43229Q132.58125 116.729164 132.8 116.729164L133.76875 116.729164L133.76875 117.916664ZM140.97188 117.916664L133.06563 117.916664L133.06563 116.729164L138.64375 116.729164Q137.94063 116.18229 137.47188 115.885414Q136.87813 115.510414 136.37813 115.33854Q135.83125 115.15104 135.25313 115.15104Q134.90938 115.15104 134.55 115.197914Q134.75313 114.68229 135.08125 114.385414Q135.53438 113.93229 136.25313 113.93229Q136.94063 113.93229 137.89375 114.61979Q138.3625 114.96354 139.44063 115.916664Q140.26875 116.666664 140.55 116.729164L140.97188 116.729164L140.97188 117.916664ZM137.4875 119.40104L136.97188 120.385414L135.8625 119.80729L136.39375 118.80729L137.4875 119.40104ZM143.97188 117.916664L140.06563 117.916664L140.06563 116.729164L143.47188 116.729164Q143.47188 115.916664 143.28438 115.49479Q143.14375 115.197914 142.62813 114.65104L143.175 113.52604Q143.65938 114.15104 143.78438 114.49479Q143.97188 115.02604 143.97188 116.24479L143.97188 117.916664ZM143.94063 119.27604L143.39375 120.260414L142.3 119.68229L142.8 118.697914L143.94063 119.27604ZM142.3625 119.90104L141.84688 120.885414L140.7375 120.30729L141.2375 119.322914L142.3625 119.90104ZM145.76875 120.291664Q145.76875 120.46354 145.56563 120.604164Q145.40938 120.68229 145.12813 120.791664L143.8625 121.229164Q143.8625 120.916664 144.53438 120.68229Q144.33125 120.572914 144.22188 120.46354Q144.08125 120.33854 144.08125 120.197914Q144.08125 119.979164 144.44063 119.58854Q144.84688 119.166664 145.14375 119.166664Q145.28438 119.166664 145.37813 119.260414Q145.4875 119.354164 145.4875 119.510414Q145.4875 119.604164 145.44063 119.71354Q145.40938 119.80729 145.33125 119.916664Q145.1125 119.729164 144.8625 119.729164Q144.72188 119.729164 144.56563 119.791664Q144.425 119.854164 144.425 119.93229Q144.425 120.041664 144.7375 120.21354Q145.06563 120.40104 145.28438 120.40104Q145.44063 120.40104 145.50313 120.385414Q145.56563 120.36979 145.76875 120.291664ZM145.8625 116.166664Q145.8625 116.71354 145.65938 117.229164Q145.56563 117.510414 145.22188 118.104164L145.09688 118.02604Q145.1125 117.83854 145.12813 117.572914Q145.14375 117.30729 145.14375 117.229164Q145.14375 116.510414 145.03438 115.24479Q144.925 113.96354 144.76875 112.572914Q144.675 111.729164 144.55 110.854164Q144.69063 110.55729 144.8625 110.21354Q145.03438 109.854164 145.19063 109.55729Q145.3 110.33854 145.47188 111.697914Q145.64375 113.041664 145.7375 114.11979Q145.8625 115.479164 145.8625 116.166664ZM154.06563 109.74479L153.53438 110.729164L152.425 110.135414L152.94063 109.166664L154.06563 109.74479ZM152.50313 110.354164L151.97188 111.354164L150.87813 110.77604L151.37813 109.791664L152.50313 110.354164ZM155.8 117.916664L154.81563 117.916664Q154.33125 117.916664 153.95625 117.072914Q153.675 116.447914 153.50313 115.447914Q153.3 115.83854 152.9875 116.05729Q152.675 116.260414 152.31563 116.260414Q151.53438 116.260414 151.00313 116.15104Q150.4875 116.041664 150.4875 115.885414Q150.4875 115.291664 151.25313 114.58854Q152.01875 113.86979 153.175 113.33854Q153.15938 113.27604 153.1125 113.041664Q153.06563 112.80729 153.06563 112.760414Q153.06563 112.52604 153.22188 112.24479Q153.34688 112.010414 153.56563 111.760414Q153.62813 112.18229 153.70625 112.58854Q153.78438 112.979164 153.87813 113.40104L154.08125 114.572914Q154.25313 115.541664 154.37813 116.010414Q154.59688 116.729164 154.81563 116.729164L155.8 116.729164L155.8 117.916664ZM153.40938 114.854164L153.28438 114.11979Q152.69063 114.322914 152.34688 114.55729Q152.00313 114.77604 151.76875 115.15104Q151.925 115.21354 152.1125 115.260414Q152.3 115.291664 152.62813 115.291664Q153.05 115.291664 153.40938 114.854164ZM158.94063 110.291664L158.34688 111.21354L157.50313 110.65104L158.08125 109.74479L158.94063 110.291664ZM157.3625 110.71354L156.83125 111.635414L155.9875 111.08854L156.55 110.166664L157.3625 110.71354ZM159.22188 117.916664L155.06563 117.916664L155.06563 116.729164L157.40938 116.729164Q157.84688 116.729164 158.14375 116.697914Q158.44063 116.666664 158.78438 116.55729Q157.6125 116.385414 157.25313 116.24479Q156.47188 115.90104 156.47188 115.072914Q156.47188 114.354164 156.84688 113.729164Q157.26875 113.010414 157.87813 113.010414Q158.58125 113.010414 158.94063 113.90104Q159.22188 114.604164 159.22188 115.55729L159.22188 117.916664ZM158.6125 115.52604Q158.45625 114.979164 158.31563 114.71354Q158.03438 114.197914 157.62813 114.197914Q157.44063 114.197914 157.3 114.354164Q157.175 114.49479 157.175 114.71354Q157.175 115.229164 157.70625 115.40104Q157.90938 115.46354 158.6125 115.52604ZM165.01875 110.49479L164.50313 111.49479L163.40938 110.90104L163.90938 109.90104L165.01875 110.49479ZM166.37813 111.71354L165.84688 112.697914L164.7375 112.104164L165.2375 111.11979L166.37813 111.71354ZM164.8 112.322914L164.28438 113.30729L163.175 112.74479L163.675 111.74479L164.8 112.322914ZM166.9875 117.916664L166.45625 117.916664Q166.01875 117.916664 165.70625 117.791664Q165.39375 117.666664 165.12813 117.447914Q164.8 117.71354 164.56563 117.791664Q164.22188 117.916664 163.6125 117.916664L163.15938 117.916664Q162.81563 117.916664 162.45625 117.77604Q162.22188 117.68229 161.87813 117.479164Q161.55 117.729164 161.26875 117.822914Q161.00313 117.916664 160.39375 117.916664L159.06563 117.916664L159.06563 116.729164L160.39375 116.729164Q160.94063 116.729164 161.19063 116.635414Q161.58125 116.46354 161.58125 115.99479Q161.58125 115.80729 161.55 115.604164Q161.53438 115.40104 161.4875 115.15104L161.76875 114.74479Q161.95625 115.36979 162.08125 115.666664Q162.3 116.166664 162.56563 116.416664Q162.87813 116.729164 163.31563 116.729164L163.76875 116.729164Q164.28438 116.729164 164.53438 116.572914Q164.8 116.385414 164.8 115.99479Q164.8 115.791664 164.76875 115.58854Q164.75313 115.385414 164.69063 115.15104L164.9875 114.74479L165.12813 115.385414Q165.31563 116.15104 165.58125 116.447914Q165.81563 116.697914 166.20625 116.697914Q166.39375 116.697914 166.50313 116.58854Q166.6125 116.479164 166.6125 116.30729Q166.6125 115.916664 166.33125 115.49479Q166.28438 115.43229 166.00313 115.041664L166.44063 114.30729Q166.72188 114.729164 166.83125 115.041664Q166.9875 115.49479 166.9875 116.27604L166.9875 117.916664Z" fill-rule="nonzero"/><path fill="#e76f51" d="M30.55 140.91667C30.55 144.23038 27.863708 146.91667 24.55 146.91667C21.236292 146.91667 18.55 144.23038 18.55 140.91667C18.55 137.60295 21.236292 134.91667 24.55 134.91667C27.863708 134.91667 30.55 137.60295 30.55 140.91667Z" fill-rule="nonzero"/><path fill="#1a1a1a" d="M120.78438 143.91667L119.59688 143.91667Q118.53438 143.91667 118.00313 143.97917Q117.47188 144.02605 117.47188 144.1823Q117.47188 144.41667 118.1125 144.41667Q118.39375 144.41667 118.55 144.4323Q118.72188 144.4323 119.28438 144.4948Q119.6125 144.54167 119.72188 144.60417Q119.925 144.71355 119.925 144.96355Q119.925 146.2448 119.08125 146.82292Q118.175 147.44792 116.05 147.44792Q114.58125 147.44792 113.72188 146.96355Q112.8 146.41667 112.8 145.4323Q112.8 144.65105 113.2375 143.76042Q113.39375 143.4323 114.06563 142.38542L114.33125 142.52605Q114.08125 142.96355 113.81563 143.40105Q113.425 144.15105 113.425 144.63542Q113.425 145.47917 114.3 145.91667Q115.14375 146.32292 116.59688 146.32292Q117.58125 146.32292 118.31563 146.1823Q119.2375 145.9948 119.2375 145.66667Q119.2375 145.5573 119.12813 145.4948Q119.03438 145.4323 118.78438 145.4323Q118.6125 145.41667 118.20625 145.40105Q117.81563 145.3698 117.69063 145.3698Q117.26875 145.3698 117.08125 145.26042Q116.89375 145.15105 116.89375 144.91667Q116.89375 144.07292 117.39375 143.52605Q117.8 143.08855 118.50313 142.88542Q119.01875 142.72917 119.59688 142.72917L120.78438 142.72917L120.78438 143.91667ZM117.95625 148.29167L117.31563 148.88542L116.55 148.40105L117.175 147.76042L117.95625 148.29167ZM116.55 148.29167L115.925 148.88542L115.12813 148.40105L115.76875 147.76042L116.55 148.29167ZM126.06563 143.91667L125.06563 143.91667Q124.6125 143.91667 124.15938 143.69792Q123.6125 143.44792 123.3625 142.9948Q122.90938 143.40105 122.31563 143.63542Q121.59688 143.91667 120.69063 143.91667L120.06563 143.91667L120.06563 142.72917L120.69063 142.72917Q121.26875 142.72917 121.75313 142.60417Q122.31563 142.46355 122.84688 142.13542L122.56563 141.77605Q122.34688 141.51042 122.08125 141.51042Q121.95625 141.51042 121.84688 141.5573Q121.75313 141.60417 121.64375 141.76042L121.50313 141.76042L121.50313 141.35417Q121.50313 140.60417 121.89375 140.32292Q122.25313 140.0573 123.15938 140.0573Q123.925 140.0573 124.40938 140.27605Q125.05 140.54167 125.05 141.08855Q125.05 141.38542 124.8 141.69792Q124.6125 141.9323 124.1125 142.33855Q124.22188 142.51042 124.53438 142.6198Q124.84688 142.72917 125.06563 142.72917L126.06563 142.72917L126.06563 143.91667ZM132.06563 143.91667L131.3625 143.91667Q130.89375 143.91667 130.33125 143.71355Q129.65938 143.46355 129.15938 143.0573Q128.75313 143.54167 128.33125 143.72917Q127.925 143.91667 127.14375 143.91667L126.06563 143.91667L126.06563 142.72917L127.1125 142.72917Q127.7375 142.72917 128.22188 142.41667Q128.59688 142.16667 128.90938 141.71355Q129.33125 141.1198 129.94063 140.66667Q130.4875 140.27605 130.94063 140.16667Q131.40938 140.88542 131.69063 141.46355Q132.06563 142.2448 132.06563 142.72917L132.06563 143.91667ZM131.28438 142.57292Q131.19063 142.16667 131.00313 141.79167Q130.84688 141.46355 130.59688 141.1198Q130.26875 141.21355 130.03438 141.4323Q129.89375 141.57292 129.675 141.91667Q129.925 142.1823 130.3625 142.40105Q130.81563 142.60417 131.22188 142.65105L131.28438 142.57292ZM135.76875 143.91667L134.8 143.91667Q134.34688 143.91667 134.06563 143.54167Q133.81563 143.21355 133.69063 142.57292Q133.56563 141.91667 133.4875 140.96355Q133.45625 140.1823 133.40938 139.3698Q133.3625 138.5573 133.28438 138.13542Q133.22188 137.71355 133.09688 137.44792Q132.94063 137.1198 132.675 136.88542L133.51875 135.5573Q133.78438 136.3698 133.89375 137.51042Q133.97188 138.22917 134.03438 140.88542Q134.15938 142.08855 134.39375 142.4323Q134.58125 142.72917 134.8 142.72917L135.76875 142.72917L135.76875 143.91667ZM142.97188 143.91667L135.06563 143.91667L135.06563 142.72917L140.64375 142.72917Q139.94063 142.1823 139.47188 141.88542Q138.87813 141.51042 138.37813 141.33855Q137.83125 141.15105 137.25313 141.15105Q136.90938 141.15105 136.55 141.19792Q136.75313 140.6823 137.08125 140.38542Q137.53438 139.9323 138.25313 139.9323Q138.94063 139.9323 139.89375 140.6198Q140.3625 140.96355 141.44063 141.91667Q142.26875 142.66667 142.55 142.72917L142.97188 142.72917L142.97188 143.91667ZM139.4875 145.40105L138.97188 146.38542L137.8625 145.8073L138.39375 144.8073L139.4875 145.40105ZM151.3625 138.66667L150.8625 139.65105L149.78438 139.0573L150.28438 138.10417L151.3625 138.66667ZM153.90938 143.91667Q153.90938 145.4323 153.01875 146.15105Q152.05 146.9323 149.90938 146.9323Q148.53438 146.9323 147.81563 146.44792Q147.01875 145.91667 147.01875 144.83855Q147.01875 144.2448 147.15938 143.65105Q147.31563 143.04167 147.55 142.4323Q147.70625 142.07292 148.08125 141.3073L148.34688 141.4323Q147.8625 142.41667 147.70625 142.97917Q147.56563 143.54167 147.56563 144.01042Q147.56563 144.8698 148.15938 145.3073Q148.76875 145.7448 149.89375 145.7448Q151.19063 145.7448 152.19063 145.29167Q153.425 144.71355 153.425 143.69792Q153.425 143.01042 153.22188 142.40105Q153.03438 141.8698 152.70625 141.47917L153.28438 140.07292Q153.64375 140.6198 153.76875 141.19792Q153.90938 141.77605 153.90938 142.72917L153.90938 143.91667ZM159.06563 143.91667L153.06563 143.91667L153.06563 142.72917L158.26875 142.72917Q157.8 141.9948 157.175 141.46355Q156.56563 140.9323 155.51875 140.3073L155.3 140.51042L154.4875 139.90105Q154.06563 139.54167 154.06563 139.35417Q154.06563 138.16667 154.64375 137.4948Q155.175 136.88542 156.47188 136.40105L158.40938 135.63542L158.40938 136.82292L156.97188 137.3073Q156.12813 137.58855 155.59688 137.82292Q154.925 138.10417 154.925 138.26042Q154.925 138.41667 155.3625 138.7448Q155.62813 138.96355 155.90938 139.16667Q156.95625 139.94792 157.72188 140.8073Q158.56563 141.72917 159.06563 142.72917L159.06563 143.91667ZM166.9875 143.91667L166.45625 143.91667Q166.01875 143.91667 165.70625 143.79167Q165.39375 143.66667 165.12813 143.44792Q164.8 143.71355 164.56563 143.79167Q164.22188 143.91667 163.6125 143.91667L163.15938 143.91667Q162.81563 143.91667 162.45625 143.77605Q162.22188 143.6823 161.87813 143.47917Q161.55 143.72917 161.26875 143.82292Q161.00313 143.91667 160.39375 143.91667L159.06563 143.91667L159.06563 142.72917L160.39375 142.72917Q160.94063 142.72917 161.19063 142.63542Q161.58125 142.46355 161.58125 141.9948Q161.58125 141.8073 161.55 141.60417Q161.53438 141.40105 161.4875 141.15105L161.76875 140.7448Q161.95625 141.3698 162.08125 141.66667Q162.3 142.16667 162.56563 142.41667Q162.87813 142.72917 163.31563 142.72917L163.76875 142.72917Q164.28438 142.72917 164.53438 142.57292Q164.8 142.38542 164.8 141.9948Q164.8 141.79167 164.76875 141.58855Q164.75313 141.38542 164.69063 141.15105L164.9875 140.7448L165.12813 141.38542Q165.31563 142.15105 165.58125 142.44792Q165.81563 142.69792 166.20625 142.69792Q166.39375 142.69792 166.50313 142.58855Q166.6125 142.47917 166.6125 142.3073Q166.6125 141.91667 166.33125 141.4948Q166.28438 141.4323 166.00313 141.04167L166.44063 140.3073Q166.72188 140.72917 166.83125 141.04167Q166.9875 141.4948 166.9875 142.27605L166.9875 143.91667Z" fill-rule="nonzero"/><path fill="#669bbc" d="M30.55 166.91667C30.55 170.23038 27.863708 172.91667 24.55 172.91667C21.236292 172.91667 18.55 170.23038 18.55 166.91667C18.55 163.60295 21.236292 160.91667 24.55 160.91667C27.863708 160.91667 30.55 163.60295 30.55 166.91667Z" fill-rule="nonzero"/><path fill="#1a1a1a" d="M95.06563 161.7448L94.53438 162.72917L93.425 162.13542L93.94063 161.16667L95.06563 161.7448ZM93.50313 162.35417L92.97188 163.35417L91.87813 162.77605L92.37813 161.79167L93.50313 162.35417ZM96.8 169.91667L95.81563 169.91667Q95.33125 169.91667 94.95625 169.07292Q94.675 168.44792 94.50313 167.44792Q94.3 167.83855 93.9875 168.0573Q93.675 168.26042 93.31563 168.26042Q92.53438 168.26042 92.00313 168.15105Q91.4875 168.04167 91.4875 167.88542Q91.4875 167.29167 92.25313 166.58855Q93.01875 165.8698 94.175 165.33855Q94.15938 165.27605 94.1125 165.04167Q94.06563 164.8073 94.06563 164.76042Q94.06563 164.52605 94.22188 164.2448Q94.34688 164.01042 94.56563 163.76042Q94.62813 164.1823 94.70625 164.58855Q94.78438 164.97917 94.87813 165.40105L95.08125 166.57292Q95.25313 167.54167 95.37813 168.01042Q95.59688 168.72917 95.81563 168.72917L96.8 168.72917L96.8 169.91667ZM94.40938 166.85417L94.28438 166.1198Q93.69063 166.32292 93.34688 166.5573Q93.00313 166.77605 92.76875 167.15105Q92.925 167.21355 93.1125 167.26042Q93.3 167.29167 93.62813 167.29167Q94.05 167.29167 94.40938 166.85417ZM99.45625 169.91667L96.06563 169.91667L96.06563 168.72917L98.75313 168.72917L97.94063 162.9323L97.59688 162.76042Q97.59688 162.29167 97.675 161.88542Q97.75313 161.46355 97.925 161.07292L98.01875 161.13542Q98.01875 161.54167 98.47188 161.7448Q98.8 161.8698 99.15938 162.01042Q99.15938 162.35417 99.09688 162.7448Q99.05 163.13542 98.97188 163.32292L98.64375 163.21355L99.45625 168.57292L99.45625 169.91667ZM102.94063 162.29167L102.34688 163.21355L101.50313 162.65105L102.08125 161.7448L102.94063 162.29167ZM101.3625 162.71355L100.83125 163.63542L99.9875 163.08855L100.55 162.16667L101.3625 162.71355ZM103.22188 169.91667L99.06563 169.91667L99.06563 168.72917L101.40938 168.72917Q101.84688 168.72917 102.14375 168.69792Q102.44063 168.66667 102.78438 168.5573Q101.6125 168.38542 101.25313 168.2448Q100.47188 167.90105 100.47188 167.07292Q100.47188 166.35417 100.84688 165.72917Q101.26875 165.01042 101.87813 165.01042Q102.58125 165.01042 102.94063 165.90105Q103.22188 166.60417 103.22188 167.5573L103.22188 169.91667ZM102.6125 167.52605Q102.45625 166.97917 102.31563 166.71355Q102.03438 166.19792 101.62813 166.19792Q101.44063 166.19792 101.3 166.35417Q101.175 166.4948 101.175 166.71355Q101.175 167.22917 101.70625 167.40105Q101.90938 167.46355 102.6125 167.52605ZM106.94063 163.16667L106.39375 164.15105L105.3 163.5573L105.8 162.57292L106.94063 163.16667ZM105.3625 163.77605L104.84688 164.76042L103.7375 164.19792L104.2375 163.19792L105.3625 163.77605ZM106.97188 169.91667L103.06563 169.91667L103.06563 168.72917L106.47188 168.72917Q106.47188 167.91667 106.28438 167.4948Q106.14375 167.19792 105.62813 166.65105L106.175 165.52605Q106.65938 166.15105 106.78438 166.4948Q106.97188 167.02605 106.97188 168.2448L106.97188 169.91667ZM113.9875 169.91667L113.45625 169.91667Q113.01875 169.91667 112.70625 169.79167Q112.39375 169.66667 112.12813 169.44792Q111.8 169.71355 111.56563 169.79167Q111.22188 169.91667 110.6125 169.91667L110.15938 169.91667Q109.81563 169.91667 109.45625 169.77605Q109.22188 169.6823 108.87813 169.47917Q108.55 169.72917 108.26875 169.82292Q108.00313 169.91667 107.39375 169.91667L106.06563 169.91667L106.06563 168.72917L107.39375 168.72917Q107.94063 168.72917 108.19063 168.63542Q108.58125 168.46355 108.58125 167.9948Q108.58125 167.8073 108.55 167.60417Q108.53438 167.40105 108.4875 167.15105L108.76875 166.7448Q108.95625 167.3698 109.08125 167.66667Q109.3 168.16667 109.56563 168.41667Q109.87813 168.72917 110.31563 168.72917L110.76875 168.72917Q111.28438 168.72917 111.53438 168.57292Q111.8 168.38542 111.8 167.9948Q111.8 167.79167 111.76875 167.58855Q111.75313 167.38542 111.69063 167.15105L111.9875 166.7448L112.12813 167.38542Q112.31563 168.15105 112.58125 168.44792Q112.81563 168.69792 113.20625 168.69792Q113.39375 168.69792 113.50313 168.58855Q113.6125 168.47917 113.6125 168.3073Q113.6125 167.91667 113.33125 167.4948Q113.28438 167.4323 113.00313 167.04167L113.44063 166.3073Q113.72188 166.72917 113.83125 167.04167Q113.9875 167.4948 113.9875 168.27605L113.9875 169.91667ZM119.06563 169.91667L118.3625 169.91667Q117.89375 169.91667 117.33125 169.71355Q116.65938 169.46355 116.15938 169.0573Q115.75313 169.54167 115.33125 169.72917Q114.925 169.91667 114.14375 169.91667L113.06563 169.91667L113.06563 168.72917L114.1125 168.72917Q114.7375 168.72917 115.22188 168.41667Q115.59688 168.16667 115.90938 167.71355Q116.33125 167.1198 116.94063 166.66667Q117.4875 166.27605 117.94063 166.16667Q118.40938 166.88542 118.69063 167.46355Q119.06563 168.2448 119.06563 168.72917L119.06563 169.91667ZM118.28438 168.57292Q118.19063 168.16667 118.00313 167.79167Q117.84688 167.46355 117.59688 167.1198Q117.26875 167.21355 117.03438 167.4323Q116.89375 167.57292 116.675 167.91667Q116.925 168.1823 117.3625 168.40105Q117.81563 168.60417 118.22188 168.65105L118.28438 168.57292ZM130.39375 169.91667Q130.39375 170.66667 129.75313 171.47917Q129.19063 172.1823 128.3625 172.69792Q127.56563 173.1823 127.05 173.1823Q126.58125 173.1823 126.03438 173.0573Q125.6125 172.94792 125.03438 172.72917Q124.53438 172.54167 124.05 172.35417L124.175 172.08855Q124.62813 172.1823 125.1125 172.26042Q125.59688 172.35417 126.00313 172.35417Q126.87813 172.35417 127.81563 171.8073Q128.69063 171.29167 129.28438 170.51042Q129.89375 169.72917 129.89375 169.08855Q129.89375 168.5573 129.58125 167.96355Q129.33125 167.47917 128.87813 166.97917L129.26875 165.90105Q129.83125 166.41667 130.09688 166.9323Q130.39375 167.52605 130.39375 168.2448L130.39375 169.91667ZM133.76875 169.91667L132.8 169.91667Q132.34688 169.91667 132.06563 169.54167Q131.81563 169.21355 131.69063 168.57292Q131.56563 167.91667 131.4875 166.96355Q131.45625 166.1823 131.40938 165.3698Q131.3625 164.5573 131.28438 164.13542Q131.22188 163.71355 131.09688 163.44792Q130.94063 163.1198 130.675 162.88542L131.51875 161.5573Q131.78438 162.3698 131.89375 163.51042Q131.97188 164.22917 132.03438 166.88542Q132.15938 168.08855 132.39375 168.4323Q132.58125 168.72917 132.8 168.72917L133.76875 168.72917L133.76875 169.91667ZM140.97188 169.91667L133.06563 169.91667L133.06563 168.72917L138.64375 168.72917Q137.94063 168.1823 137.47188 167.88542Q136.87813 167.51042 136.37813 167.33855Q135.83125 167.15105 135.25313 167.15105Q134.90938 167.15105 134.55 167.19792Q134.75313 166.6823 135.08125 166.38542Q135.53438 165.9323 136.25313 165.9323Q136.94063 165.9323 137.89375 166.6198Q138.3625 166.96355 139.44063 167.91667Q140.26875 168.66667 140.55 168.72917L140.97188 168.72917L140.97188 169.91667ZM137.4875 171.40105L136.97188 172.38542L135.8625 171.8073L136.39375 170.8073L137.4875 171.40105ZM143.97188 169.91667L140.06563 169.91667L140.06563 168.72917L143.47188 168.72917Q143.47188 167.91667 143.28438 167.4948Q143.14375 167.19792 142.62813 166.65105L143.175 165.52605Q143.65938 166.15105 143.78438 166.4948Q143.97188 167.02605 143.97188 168.2448L143.97188 169.91667ZM143.94063 171.27605L143.39375 172.26042L142.3 171.6823L142.8 170.69792L143.94063 171.27605ZM142.3625 171.90105L141.84688 172.88542L140.7375 172.3073L141.2375 171.32292L142.3625 171.90105ZM145.76875 172.29167Q145.76875 172.46355 145.56563 172.60417Q145.40938 172.6823 145.12813 172.79167L143.8625 173.22917Q143.8625 172.91667 144.53438 172.6823Q144.33125 172.57292 144.22188 172.46355Q144.08125 172.33855 144.08125 172.19792Q144.08125 171.97917 144.44063 171.58855Q144.84688 171.16667 145.14375 171.16667Q145.28438 171.16667 145.37813 171.26042Q145.4875 171.35417 145.4875 171.51042Q145.4875 171.60417 145.44063 171.71355Q145.40938 171.8073 145.33125 171.91667Q145.1125 171.72917 144.8625 171.72917Q144.72188 171.72917 144.56563 171.79167Q144.425 171.85417 144.425 171.9323Q144.425 172.04167 144.7375 172.21355Q145.06563 172.40105 145.28438 172.40105Q145.44063 172.40105 145.50313 172.38542Q145.56563 172.3698 145.76875 172.29167ZM145.8625 168.16667Q145.8625 168.71355 145.65938 169.22917Q145.56563 169.51042 145.22188 170.10417L145.09688 170.02605Q145.1125 169.83855 145.12813 169.57292Q145.14375 169.3073 145.14375 169.22917Q145.14375 168.51042 145.03438 167.2448Q144.925 165.96355 144.76875 164.57292Q144.675 163.72917 144.55 162.85417Q144.69063 162.5573 144.8625 162.21355Q145.03438 161.85417 145.19063 161.5573Q145.3 162.33855 145.47188 163.69792Q145.64375 165.04167 145.7375 166.1198Q145.8625 167.47917 145.8625 168.16667ZM154.06563 161.7448L153.53438 162.72917L152.425 162.13542L152.94063 161.16667L154.06563 161.7448ZM152.50313 162.35417L151.97188 163.35417L150.87813 162.77605L151.37813 161.79167L152.50313 162.35417ZM155.8 169.91667L154.81563 169.91667Q154.33125 169.91667 153.95625 169.07292Q153.675 168.44792 153.50313 167.44792Q153.3 167.83855 152.9875 168.0573Q152.675 168.26042 152.31563 168.26042Q151.53438 168.26042 151.00313 168.15105Q150.4875 168.04167 150.4875 167.88542Q150.4875 167.29167 151.25313 166.58855Q152.01875 165.8698 153.175 165.33855Q153.15938 165.27605 153.1125 165.04167Q153.06563 164.8073 153.06563 164.76042Q153.06563 164.52605 153.22188 164.2448Q153.34688 164.01042 153.56563 163.76042Q153.62813 164.1823 153.70625 164.58855Q153.78438 164.97917 153.87813 165.40105L154.08125 166.57292Q154.25313 167.54167 154.37813 168.01042Q154.59688 168.72917 154.81563 168.72917L155.8 168.72917L155.8 169.91667ZM153.40938 166.85417L153.28438 166.1198Q152.69063 166.32292 152.34688 166.5573Q152.00313 166.77605 151.76875 167.15105Q151.925 167.21355 152.1125 167.26042Q152.3 167.29167 152.62813 167.29167Q153.05 167.29167 153.40938 166.85417ZM158.94063 162.29167L158.34688 163.21355L157.50313 162.65105L158.08125 161.7448L158.94063 162.29167ZM157.3625 162.71355L156.83125 163.63542L155.9875 163.08855L156.55 162.16667L157.3625 162.71355ZM159.22188 169.91667L155.06563 169.91667L155.06563 168.72917L157.40938 168.72917Q157.84688 168.72917 158.14375 168.69792Q158.44063 168.66667 158.78438 168.5573Q157.6125 168.38542 157.25313 168.2448Q156.47188 167.90105 156.47188 167.07292Q156.47188 166.35417 156.84688 165.72917Q157.26875 165.01042 157.87813 165.01042Q158.58125 165.01042 158.94063 165.90105Q159.22188 166.60417 159.22188 167.5573L159.22188 169.91667ZM158.6125 167.52605Q158.45625 166.97917 158.31563 166.71355Q158.03438 166.19792 157.62813 166.19792Q157.44063 166.19792 157.3 166.35417Q157.175 166.4948 157.175 166.71355Q157.175 167.22917 157.70625 167.40105Q157.90938 167.46355 158.6125 167.52605ZM165.01875 162.4948L164.50313 163.4948L163.40938 162.90105L163.90938 161.90105L165.01875 162.4948ZM166.37813 163.71355L165.84688 164.69792L164.7375 164.10417L165.2375 163.1198L166.37813 163.71355ZM164.8 164.32292L164.28438 165.3073L163.175 164.7448L163.675 163.7448L164.8 164.32292ZM166.9875 169.91667L166.45625 169.91667Q166.01875 169.91667 165.70625 169.79167Q165.39375 169.66667 165.12813 169.44792Q164.8 169.71355 164.56563 169.79167Q164.22188 169.91667 163.6125 169.91667L163.15938 169.91667Q162.81563 169.91667 162.45625 169.77605Q162.22188 169.6823 161.87813 169.47917Q161.55 169.72917 161.26875 169.82292Q161.00313 169.91667 160.39375 169.91667L159.06563 169.91667L159.06563 168.72917L160.39375 168.72917Q160.94063 168.72917 161.19063 168.63542Q161.58125 168.46355 161.58125 167.9948Q161.58125 167.8073 161.55 167.60417Q161.53438 167.40105 161.4875 167.15105L161.76875 166.7448Q161.95625 167.3698 162.08125 167.66667Q162.3 168.16667 162.56563 168.41667Q162.87813 168.72917 163.31563 168.72917L163.76875 168.72917Q164.28438 168.72917 164.53438 168.57292Q164.8 168.38542 164.8 167.9948Q164.8 167.79167 164.76875 167.58855Q164.75313 167.38542 164.69063 167.15105L164.9875 166.7448L165.12813 167.38542Q165.31563 168.15105 165.58125 168.44792Q165.81563 168.69792 166.20625 168.69792Q166.39375 168.69792 166.50313 168.58855Q166.6125 168.47917 166.6125 168.3073Q166.6125 167.91667 166.33125 167.4948Q166.28438 167.4323 166.00313 167.04167L166.44063 166.3073Q166.72188 166.72917 166.83125 167.04167Q166.9875 167.4948 166.9875 168.27605L166.9875 169.91667Z" fill-rule="nonzero"/><path fill="#001926" d="M509.41876 29.925L509.41876 27.175L512.15314 27.175L512.15314 29.925L509.41876 29.925ZM509.41876 37.55L509.41876 34.8L512.15314 34.8L512.15314 37.55L509.41876 37.55ZM531.9969 34.690624L530.98126 34.690624Q530.54376 34.690624 530.35626 34.70625Q530.16876 34.721874 530.16876 34.83125Q530.45 35.003124 530.7 35.065624Q530.95 35.128124 531.02814 35.2375Q531.10626 35.33125 531.10626 35.55Q531.10626 36.253124 530.7 37.221874Q530.3094 38.175 529.9344 38.409374Q529.575 38.70625 527.79376 39.096874Q526.0125 39.503124 524.71564 39.503124Q522.8875 39.503124 521.7469 38.7375Q520.6219 37.9875 520.6219 36.753124Q520.6219 35.55 521.1219 34.471874Q521.71564 33.159374 523.35626 31.159374L523.9344 31.565624Q522.91876 32.815624 522.5125 33.596874Q522.1219 34.378124 522.1219 35.128124Q522.1219 36.175 522.98126 36.675Q523.85626 37.175 525.65314 37.175Q526.59064 37.175 528.2469 36.83125Q529.91876 36.4875 529.91876 36.2375Q529.91876 36.128124 529.27814 36.034374Q528.6375 35.925 527.8875 35.925Q526.7625 35.925 526.7625 35.440624Q526.7625 35.221874 527.02814 34.64375Q527.21564 34.2375 527.41876 33.83125Q527.77814 33.034374 528.79376 32.534374Q529.8094 32.034374 530.9344 32.034374L531.9969 32.034374L531.9969 34.690624ZM527.9344 40.51875L526.98126 41.6125L525.95 40.971874L525.1844 41.784374L523.95 41.1125L524.8719 39.940624L525.95 40.6125L526.71564 39.7375L527.9344 40.51875ZM537.1375 34.690624L531.7625 34.690624L531.7625 32.034374L535.96564 32.034374L534.77814 25.39375L534.15314 24.9875Q534.15314 24.409374 534.34064 23.83125Q534.5594 23.08125 535.09064 22.065624L535.54376 22.3Q535.54376 22.346874 535.5125 22.6125Q535.5125 22.925 535.91876 23.2375Q536.27814 23.503124 537.075 23.83125Q536.98126 24.45625 536.8094 25.065624Q536.6375 25.659374 536.41876 26.128124L536.075 25.9875L537.1375 32.034374L537.1375 34.690624ZM542.1375 34.690624L540.77814 34.690624Q539.6219 34.690624 539.1219 33.753124Q538.5594 32.721874 538.5594 30.26875L538.5594 27.4875Q538.5594 26.534374 538.29376 26.003124Q538.16876 25.753124 537.7 25.26875L538.7625 22.83125Q539.325 23.6125 539.54376 24.378124Q539.8094 25.26875 539.8094 26.64375L539.8094 28.565624Q539.8094 30.6125 540.09064 31.39375Q540.3094 32.034374 540.77814 32.034374L542.1375 32.034374L542.1375 34.690624ZM552.91876 34.690624L541.7625 34.690624L541.7625 32.034374L548.71564 32.034374Q547.52814 30.815624 546.52814 30.26875Q545.6375 29.8 544.77814 29.8Q544.52814 29.8 544.3094 29.83125Q544.10626 29.846874 543.71564 29.925Q544.2469 28.70625 544.90314 28.128124Q545.5594 27.534374 546.40314 27.534374Q547.04376 27.534374 547.6375 27.846874Q548.2469 28.159374 548.98126 28.846874Q549.575 29.39375 550.6375 30.55Q551.3719 31.378124 551.7625 31.628124Q552.15314 31.8625 552.91876 32.034374L552.91876 34.690624ZM557.1375 34.690624L551.7625 34.690624L551.7625 32.034374L555.96564 32.034374L554.77814 25.39375L554.15314 24.9875Q554.15314 24.409374 554.34064 23.83125Q554.5594 23.08125 555.09064 22.065624L555.54376 22.3Q555.54376 22.346874 555.5125 22.6125Q555.5125 22.925 555.91876 23.2375Q556.27814 23.503124 557.075 23.83125Q556.98126 24.45625 556.8094 25.065624Q556.6375 25.659374 556.41876 26.128124L556.075 25.9875L557.1375 32.034374L557.1375 34.690624ZM561.0594 31.846874Q561.0594 32.721874 560.85626 33.440624Q560.65314 34.14375 560.075 35.3625L559.48126 35.128124Q559.71564 33.878124 559.71564 33.096874Q559.71564 32.503124 559.6219 31.346874Q559.52814 30.190624 559.3719 29.065624Q559.23126 27.940624 558.90314 26.378124Q558.77814 25.83125 558.77814 25.628124Q558.77814 25.315624 559.075 24.596874Q559.3875 23.8625 559.9344 22.83125L560.5125 26.284374Q560.84064 28.26875 560.96564 29.70625Q561.0594 30.815624 561.0594 31.846874ZM575.0594 26.51875L573.8875 28.70625L571.60626 27.51875L572.77814 25.315624L575.0594 26.51875ZM578.27814 34.20625Q578.27814 35.55 578.0125 36.378124Q577.7469 37.190624 577.1375 37.690624Q576.54376 38.190624 575.3875 38.503124Q574.23126 38.815624 572.9969 38.815624Q570.6219 38.815624 569.34064 37.95625Q568.0594 37.096874 568.0594 35.503124Q568.0594 34.14375 568.46564 33.01875Q568.91876 31.784374 570.23126 29.8L570.8094 30.20625Q569.84064 31.8625 569.54376 32.6125Q569.2469 33.346874 569.2469 34.128124Q569.2469 35.159374 570.34064 35.815624Q571.45 36.45625 573.23126 36.45625Q574.9969 36.45625 576.1844 35.784374Q577.3875 35.1125 577.3875 34.128124Q577.3875 33.51875 577.16876 32.925Q576.96564 32.33125 576.27814 31.01875L577.1375 28.39375Q577.825 29.628124 577.98126 30.096874Q578.27814 30.940624 578.27814 32.253124L578.27814 34.20625ZM585.65314 34.690624L577.7625 34.690624L577.7625 32.034374L584.10626 32.034374Q583.73126 31.565624 583.35626 31.2375Q583.075 30.95625 582.575 30.565624Q582.0125 30.14375 581.46564 29.70625L581.15314 30.065624Q580.29376 29.20625 580.1219 29.01875Q579.6375 28.45625 579.6375 27.7375Q579.6375 26.753124 579.7625 26.346874Q579.96564 25.784374 580.60626 25.346874Q581.16876 24.95625 581.8094 24.628124Q582.325 24.378124 583.15314 24.034374Q583.54376 23.878124 584.8094 23.39375L584.8094 25.70625Q584.7625 25.70625 583.98126 25.971874Q583.02814 26.284374 582.46564 26.51875Q581.6375 26.846874 581.6375 27.01875Q581.6375 27.096874 582.34064 27.76875Q583.27814 28.690624 583.9344 29.45625Q584.9969 30.70625 585.65314 31.95625L585.65314 34.690624ZM597.6219 34.690624Q596.52814 34.690624 595.79376 34.534374Q595.075 34.378124 594.3719 34.034374Q593.8094 34.440624 593.35626 34.565624Q592.91876 34.690624 592.02814 34.690624L590.4344 34.690624Q589.79376 34.690624 589.40314 34.346874Q589.02814 34.003124 588.71564 33.20625Q588.1844 34.034374 587.52814 34.378124Q586.95 34.690624 586.16876 34.690624L584.7625 34.690624L584.7625 32.034374L586.16876 32.034374Q587.1844 32.034374 587.8719 31.45625Q588.7625 30.70625 588.7625 29.175L589.40314 29.26875Q589.3875 29.58125 589.35626 29.9875Q589.34064 30.378124 589.34064 30.8625Q589.34064 31.3625 589.6844 31.70625Q590.02814 32.034374 590.46564 32.034374L591.66876 32.034374Q592.85626 32.034374 593.3719 31.70625Q593.98126 31.3 593.98126 30.20625Q593.98126 29.971874 594.1375 29.784374Q594.21564 29.675 594.4969 29.45625L594.8719 29.175Q594.8875 29.3625 594.8875 29.675Q594.90314 29.9875 594.90314 30.08125Q594.90314 30.628124 594.7469 31.51875Q595.10626 31.690624 595.5594 31.815624Q596.0125 31.940624 596.5125 32.01875Q596.5125 31.675 596.2625 31.159374Q596.0125 30.628124 596.0125 30.440624Q596.0125 30.190624 596.09064 30.05Q596.10626 30.003124 596.29376 29.753124L597.1375 28.628124Q597.3875 29.2375 597.4969 29.7375Q597.6219 30.2375 597.6219 31.003124L597.6219 34.690624ZM602.1375 34.690624L596.7625 34.690624L596.7625 32.034374L600.96564 32.034374L599.77814 25.39375L599.15314 24.9875Q599.15314 24.409374 599.34064 23.83125Q599.5594 23.08125 600.09064 22.065624L600.54376 22.3Q600.54376 22.346874 600.5125 22.6125Q600.5125 22.925 600.91876 23.2375Q601.27814 23.503124 602.075 23.83125Q601.98126 24.45625 601.8094 25.065624Q601.6375 25.659374 601.41876 26.128124L601.075 25.9875L602.1375 32.034374L602.1375 34.690624ZM606.0594 31.846874Q606.0594 32.721874 605.85626 33.440624Q605.65314 34.14375 605.075 35.3625L604.48126 35.128124Q604.71564 33.878124 604.71564 33.096874Q604.71564 32.503124 604.6219 31.346874Q604.52814 30.190624 604.3719 29.065624Q604.23126 27.940624 603.90314 26.378124Q603.77814 25.83125 603.77814 25.628124Q603.77814 25.315624 604.075 24.596874Q604.3875 23.8625 604.9344 22.83125L605.5125 26.284374Q605.84064 28.26875 605.96564 29.70625Q606.0594 30.815624 606.0594 31.846874ZM622.7625 39.33125L619.16876 41.51875Q615.9969 41.51875 614.5594 40.315624Q613.1375 39.128124 613.1375 36.565624Q613.1375 34.8 613.8094 33.3625Q614.4969 31.925 615.96564 30.628124Q615.85626 29.909374 615.4344 29.909374Q615.27814 29.909374 615.2 30.003124Q615.075 30.14375 614.96564 30.26875L614.4969 30.159374Q614.4969 28.815624 615.10626 27.925Q615.79376 26.925 617.02814 26.925Q618.1219 26.925 618.825 27.534374Q619.54376 28.128124 619.54376 29.096874Q619.54376 29.675 619.2469 30.190624Q618.91876 30.753124 618.3719 31.01875Q618.85626 31.596874 619.5594 31.8625Q620.04376 32.034374 620.46564 32.034374L621.825 32.034374L621.825 34.690624L620.46564 34.690624Q619.0594 34.690624 618.21564 34.14375Q617.27814 33.534374 616.52814 31.9875Q615.4344 32.70625 614.84064 33.64375Q614.2469 34.565624 614.2469 35.534374Q614.2469 37.26875 615.77814 38.096874Q617.3094 38.940624 620.59064 38.940624Q621.10626 38.940624 621.66876 38.925Q622.23126 38.925 622.7 38.89375L622.7625 39.33125ZM632.0125 24.20625L630.84064 26.39375L628.5594 25.190624L629.7469 22.9875L632.0125 24.20625ZM636.8875 34.690624L626.54376 34.690624Q625.84064 34.690624 625.41876 34.346874Q625.0125 33.9875 624.71564 33.20625Q624.09064 34.08125 623.52814 34.39375Q623.0125 34.675 622.16876 34.675L620.7625 34.690624L620.7625 32.034374L622.16876 32.01875Q623.29376 32.01875 623.8875 31.45625Q624.5594 30.784374 624.7625 29.175L625.41876 29.26875Q625.40314 29.6125 625.3875 29.83125Q625.34064 30.471874 625.34064 30.8625Q625.34064 31.425 625.6375 31.7375Q625.9344 32.034374 626.41876 32.034374Q626.8875 32.034374 627.29376 31.846874Q627.7 31.64375 628.575 31.01875L632.0594 28.51875Q632.6844 28.08125 632.9969 27.89375Q633.7 27.471874 634.3719 27.471874Q635.46564 27.471874 636.1219 28.2375Q636.8875 29.14375 636.8875 30.940624L636.8875 34.690624ZM635.5125 31.034374Q635.5125 30.596874 634.825 30.315624Q634.2469 30.096874 633.52814 30.096874Q632.8875 30.096874 632.075 30.51875Q631.27814 30.925 629.7469 32.034374L632.29376 32.034374Q635.5125 32.034374 635.5125 31.034374ZM645.48126 34.01875Q645.48126 35.690624 644.04376 37.33125Q642.6219 38.971874 641.23126 38.971874Q640.41876 38.971874 639.45 38.45625Q638.4969 37.940624 636.5125 36.409374L636.91876 35.846874Q637.98126 36.55 638.65314 36.784374Q639.2 36.9875 639.90314 36.9875Q640.85626 36.9875 641.77814 36.45625Q642.8719 35.83125 644.04376 34.440624Q643.6375 34.503124 643.3719 34.503124Q642.40314 34.503124 641.825 33.878124Q641.2625 33.2375 641.2625 32.159374Q641.2625 30.690624 641.9344 29.33125Q642.66876 27.8625 643.60626 27.8625Q644.3875 27.8625 644.9344 28.925Q645.48126 29.9875 645.48126 31.4875L645.48126 34.01875ZM644.3094 32.034374Q644.02814 30.45625 643.1844 30.45625Q642.8875 30.45625 642.7 30.70625Q642.52814 30.940624 642.52814 31.221874Q642.52814 31.565624 642.90314 31.8Q643.29376 32.034374 643.9344 32.034374L644.3094 32.034374Z" fill-rule="nonzero"/></svg>