<svg version="1.1" viewBox="0.0 0.0 633.0 434.0" fill="none" stroke="none" stroke-linecap="square" stroke-miterlimit="10" width="633" height="434" xmlns:xlink="http://www.w3.org/1999/xlink" xmlns="http://www.w3.org/2000/svg"><path fill="#ffffff" d="M0 0L633.0 0L633.0 434.0L0 434.0L0 0Z" fill-rule="nonzero"/><path fill="#669bbc" d="M435.62512 58.45014C462.0757 58.45014 488.1864 64.40974 512.0176 75.88622L435.62512 234.51682Z" fill-rule="nonzero"/><path fill="#e76f51" d="M295.99255 345.24518C253.82475 292.3684 245.67206 220.01118 275.01645 159.07695C304.36084 98.1427 366.0151 59.40274 433.64703 59.40274L433.64703 235.4694Z" fill-rule="nonzero"/><path fill="#003049" d="M513.0023 78.70051C578.2438 110.11911 617.59564 178.27855 612.1842 250.48857C606.7728 322.69858 557.70184 384.23166 488.50644 405.57562C419.31104 426.91956 344.10388 403.72122 298.9554 347.10687L436.60986 237.33109Z" fill-rule="nonzero"/><path fill="#ffffff" d="M451.775 92.831154L451.775 91.643654L458.275 91.643654L458.275 92.59678Q457.30624 93.612404 456.36874 95.299904Q455.43124 96.987404 454.91562 98.78428Q454.55624 100.03428 454.44687 101.53428L453.18124 101.53428Q453.19687 100.34678 453.63437 98.674904Q454.0875 97.00303 454.91562 95.456154Q455.75937 93.893654 456.69687 92.831154L451.775 92.831154Z" fill-rule="nonzero"/><path fill="#ffffff" d="M462.3375 98.737404Q462.3375 99.31553 462.07187 99.81553Q461.86874 100.22178 461.4625 100.59678Q461.22812 100.831154 460.72812 101.206154L460.43124 100.831154Q460.91562 100.456154 461.07187 100.28428Q461.35312 99.97178 461.35312 99.706154Q461.00937 99.56553 460.75937 99.34678Q460.47812 99.112404 460.47812 98.69053Q460.47812 98.331154 460.72812 98.06553Q460.99374 97.799904 461.36874 97.799904Q461.74374 97.799904 462.04062 98.081154Q462.3375 98.34678 462.3375 98.737404Z" fill-rule="nonzero"/><path fill="#ffffff" d="M468.3375 101.53428L467.10312 101.53428L467.10312 93.69053Q466.66562 94.112404 465.93124 94.549904Q465.2125 94.97178 464.65 95.174904L464.65 93.987404Q465.68124 93.50303 466.44687 92.81553Q467.22812 92.12803 467.54062 91.47178L468.3375 91.47178L468.3375 101.53428ZM471.93124 93.924904Q471.93124 92.84678 472.4625 92.09678Q473.00937 91.34678 474.04062 91.34678Q474.97812 91.34678 475.5875 92.018654Q476.2125 92.69053 476.2125 93.987404Q476.2125 95.268654 475.5875 95.956154Q474.9625 96.643654 474.05624 96.643654Q473.15 96.643654 472.54062 95.97178Q471.93124 95.28428 471.93124 93.924904ZM474.07187 92.19053Q473.61874 92.19053 473.30624 92.59678Q473.00937 92.987404 473.00937 94.03428Q473.00937 95.00303 473.30624 95.393654Q473.61874 95.78428 474.07187 95.78428Q474.54062 95.78428 474.8375 95.393654Q475.15 95.00303 475.15 93.94053Q475.15 92.97178 474.8375 92.581154Q474.525 92.19053 474.07187 92.19053ZM474.07187 101.90928L479.55624 91.34678L480.55624 91.34678L475.10312 101.90928L474.07187 101.90928ZM478.41562 99.174904Q478.41562 98.09678 478.94687 97.362404Q479.49374 96.612404 480.525 96.612404Q481.4625 96.612404 482.0875 97.28428Q482.7125 97.956154 482.7125 99.25303Q482.7125 100.53428 482.0875 101.22178Q481.4625 101.90928 480.525 101.90928Q479.61874 101.90928 479.00937 101.237404Q478.41562 100.549904 478.41562 99.174904ZM480.55624 97.456154Q480.0875 97.456154 479.79062 97.862404Q479.49374 98.25303 479.49374 99.299904Q479.49374 100.268654 479.79062 100.65928Q480.10312 101.049904 480.55624 101.049904Q481.025 101.049904 481.32187 100.65928Q481.63437 100.268654 481.63437 99.206154Q481.63437 98.237404 481.32187 97.84678Q481.025 97.456154 480.55624 97.456154Z" fill-rule="nonzero"/><path fill="#ffffff" d="M519.34656 321.17484L520.64343 321.06546Q520.78406 322.00296 521.2997 322.48734Q521.83093 322.9561 522.5653 322.9561Q523.45593 322.9561 524.0653 322.2842Q524.6903 321.61234 524.6903 320.5186Q524.6903 319.4561 524.09656 318.8467Q523.5028 318.23734 522.5497 318.23734Q521.95593 318.23734 521.47156 318.5186Q521.0028 318.7842 520.72156 319.2061L519.5653 319.06546L520.53406 313.9092L525.51843 313.9092L525.51843 315.0967L521.51843 315.0967L520.9872 317.7842Q521.89343 317.1592 522.8778 317.1592Q524.1903 317.1592 525.08093 318.06546Q525.9872 318.9717 525.9872 320.4092Q525.9872 321.7686 525.20593 322.75296Q524.2372 323.9717 522.5653 323.9717Q521.20593 323.9717 520.33093 323.2061Q519.47156 322.44046 519.34656 321.17484ZM527.4247 315.0967L527.4247 313.9092L533.9247 313.9092L533.9247 314.86234Q532.95593 315.87796 532.01843 317.56546Q531.08093 319.25296 530.5653 321.04984Q530.20593 322.29984 530.09656 323.79984L528.83093 323.79984Q528.84656 322.61234 529.28406 320.94046Q529.7372 319.2686 530.5653 317.7217Q531.40906 316.1592 532.34656 315.0967L527.4247 315.0967Z" fill-rule="nonzero"/><path fill="#ffffff" d="M537.9872 321.00296Q537.9872 321.5811 537.72156 322.0811Q537.51843 322.48734 537.1122 322.86234Q536.8778 323.0967 536.3778 323.4717L536.08093 323.0967Q536.5653 322.7217 536.72156 322.54984Q537.0028 322.23734 537.0028 321.9717Q536.65906 321.8311 536.40906 321.61234Q536.1278 321.37796 536.1278 320.9561Q536.1278 320.5967 536.3778 320.3311Q536.64343 320.06546 537.01843 320.06546Q537.39343 320.06546 537.6903 320.3467Q537.9872 320.61234 537.9872 321.00296Z" fill-rule="nonzero"/><path fill="#ffffff" d="M543.9872 323.79984L542.7528 323.79984L542.7528 315.9561Q542.3153 316.37796 541.58093 316.81546Q540.8622 317.23734 540.2997 317.44046L540.2997 316.25296Q541.33093 315.7686 542.09656 315.0811Q542.8778 314.3936 543.1903 313.73734L543.9872 313.73734L543.9872 323.79984ZM547.58093 316.19046Q547.58093 315.11234 548.1122 314.36234Q548.65906 313.61234 549.6903 313.61234Q550.6278 313.61234 551.2372 314.2842Q551.8622 314.9561 551.8622 316.25296Q551.8622 317.5342 551.2372 318.2217Q550.6122 318.9092 549.70593 318.9092Q548.7997 318.9092 548.1903 318.23734Q547.58093 317.54984 547.58093 316.19046ZM549.72156 314.4561Q549.26843 314.4561 548.95593 314.86234Q548.65906 315.25296 548.65906 316.29984Q548.65906 317.2686 548.95593 317.6592Q549.26843 318.04984 549.72156 318.04984Q550.1903 318.04984 550.4872 317.6592Q550.7997 317.2686 550.7997 316.2061Q550.7997 315.23734 550.4872 314.8467Q550.1747 314.4561 549.72156 314.4561ZM549.72156 324.17484L555.20593 313.61234L556.20593 313.61234L550.7528 324.17484L549.72156 324.17484ZM554.0653 321.44046Q554.0653 320.36234 554.59656 319.62796Q555.14343 318.87796 556.1747 318.87796Q557.1122 318.87796 557.7372 319.54984Q558.3622 320.2217 558.3622 321.5186Q558.3622 322.79984 557.7372 323.48734Q557.1122 324.17484 556.1747 324.17484Q555.26843 324.17484 554.65906 323.50296Q554.0653 322.81546 554.0653 321.44046ZM556.20593 319.7217Q555.7372 319.7217 555.4403 320.12796Q555.14343 320.5186 555.14343 321.56546Q555.14343 322.5342 555.4403 322.92484Q555.7528 323.31546 556.20593 323.31546Q556.6747 323.31546 556.97156 322.92484Q557.28406 322.5342 557.28406 321.4717Q557.28406 320.50296 556.97156 320.11234Q556.6747 319.7217 556.20593 319.7217Z" fill-rule="nonzero"/><path fill="#ffffff" d="M296.264 181.01418L297.48276 180.8423Q297.7015 181.88918 298.2015 182.35793Q298.71713 182.81105 299.4515 182.81105Q300.3265 182.81105 300.92026 182.2173Q301.514 181.60793 301.514 180.7173Q301.514 179.87355 300.9515 179.32668Q300.40463 178.7798 299.56088 178.7798Q299.2015 178.7798 298.68588 178.9048L298.8265 177.82668Q298.9515 177.8423 299.014 177.8423Q299.81088 177.8423 300.43588 177.43605Q301.06088 177.0298 301.06088 176.17043Q301.06088 175.49855 300.60776 175.06105Q300.15463 174.60793 299.42026 174.60793Q298.7015 174.60793 298.21713 175.06105Q297.74838 175.49855 297.60776 176.4048L296.389 176.18605Q296.60776 174.95168 297.40463 174.2798Q298.2015 173.5923 299.389 173.5923Q300.21713 173.5923 300.90463 173.95168Q301.59213 174.29543 301.9515 174.9048Q302.3265 175.51418 302.3265 176.20168Q302.3265 176.8423 301.98276 177.37355Q301.639 177.9048 300.9515 178.23293Q301.84213 178.43605 302.3265 179.07668Q302.8265 179.7173 302.8265 180.70168Q302.8265 182.01418 301.85776 182.92043Q300.90463 183.82668 299.4515 183.82668Q298.12338 183.82668 297.24838 183.04543Q296.389 182.26418 296.264 181.01418ZM304.24838 181.0298L305.54526 180.92043Q305.68588 181.85793 306.2015 182.3423Q306.73276 182.81105 307.46713 182.81105Q308.35776 182.81105 308.96713 182.13918Q309.59213 181.4673 309.59213 180.37355Q309.59213 179.31105 308.99838 178.70168Q308.40463 178.0923 307.4515 178.0923Q306.85776 178.0923 306.37338 178.37355Q305.90463 178.63918 305.62338 179.06105L304.46713 178.92043L305.43588 173.76418L310.42026 173.76418L310.42026 174.95168L306.42026 174.95168L305.889 177.63918Q306.79526 177.01418 307.77963 177.01418Q309.09213 177.01418 309.98276 177.92043Q310.889 178.82668 310.889 180.26418Q310.889 181.62355 310.10776 182.60793Q309.139 183.82668 307.46713 183.82668Q306.10776 183.82668 305.23276 183.06105Q304.37338 182.29543 304.24838 181.0298Z" fill-rule="nonzero"/><path fill="#ffffff" d="M314.889 180.85793Q314.889 181.43605 314.62338 181.93605Q314.42026 182.3423 314.014 182.7173Q313.77963 182.95168 313.27963 183.32668L312.98276 182.95168Q313.46713 182.57668 313.62338 182.4048Q313.90463 182.0923 313.90463 181.82668Q313.56088 181.68605 313.31088 181.4673Q313.02963 181.23293 313.02963 180.81105Q313.02963 180.45168 313.27963 180.18605Q313.54526 179.92043 313.92026 179.92043Q314.29526 179.92043 314.59213 180.20168Q314.889 180.4673 314.889 180.85793Z" fill-rule="nonzero"/><path fill="#ffffff" d="M316.3265 174.95168L316.3265 173.76418L322.8265 173.76418L322.8265 174.7173Q321.85776 175.73293 320.92026 177.42043Q319.98276 179.10793 319.46713 180.9048Q319.10776 182.1548 318.99838 183.6548L317.73276 183.6548Q317.74838 182.4673 318.18588 180.79543Q318.639 179.12355 319.46713 177.57668Q320.31088 176.01418 321.24838 174.95168L316.3265 174.95168ZM324.48276 176.04543Q324.48276 174.9673 325.014 174.2173Q325.56088 173.4673 326.59213 173.4673Q327.52963 173.4673 328.139 174.13918Q328.764 174.81105 328.764 176.10793Q328.764 177.38918 328.139 178.07668Q327.514 178.76418 326.60776 178.76418Q325.7015 178.76418 325.09213 178.0923Q324.48276 177.4048 324.48276 176.04543ZM326.62338 174.31105Q326.17026 174.31105 325.85776 174.7173Q325.56088 175.10793 325.56088 176.1548Q325.56088 177.12355 325.85776 177.51418Q326.17026 177.9048 326.62338 177.9048Q327.09213 177.9048 327.389 177.51418Q327.7015 177.12355 327.7015 176.06105Q327.7015 175.0923 327.389 174.70168Q327.0765 174.31105 326.62338 174.31105ZM326.62338 184.0298L332.10776 173.4673L333.10776 173.4673L327.65463 184.0298L326.62338 184.0298ZM330.96713 181.29543Q330.96713 180.2173 331.49838 179.48293Q332.04526 178.73293 333.0765 178.73293Q334.014 178.73293 334.639 179.4048Q335.264 180.07668 335.264 181.37355Q335.264 182.6548 334.639 183.3423Q334.014 184.0298 333.0765 184.0298Q332.17026 184.0298 331.56088 183.35793Q330.96713 182.67043 330.96713 181.29543ZM333.10776 179.57668Q332.639 179.57668 332.34213 179.98293Q332.04526 180.37355 332.04526 181.42043Q332.04526 182.38918 332.34213 182.7798Q332.65463 183.17043 333.10776 183.17043Q333.5765 183.17043 333.87338 182.7798Q334.18588 182.38918 334.18588 181.32668Q334.18588 180.35793 333.87338 179.9673Q333.5765 179.57668 333.10776 179.57668Z" fill-rule="nonzero"/><path fill="#669bbc" d="M33.7 68.166664C33.7 71.48038 31.013708 74.166664 27.7 74.166664C24.386292 74.166664 21.7 71.48038 21.7 68.166664C21.7 64.85296 24.386292 62.166668 27.7 62.166668C31.013708 62.166668 33.7 64.85296 33.7 68.166664Z" fill-rule="nonzero"/><path fill="#001723" d="M127.25361 64.90104Q127.25361 65.322914 127.01923 65.65104Q126.73798 66.010414 126.30048 66.010414Q125.95673 66.010414 125.72236 65.791664Q125.50361 65.55729 125.50361 65.260414Q125.50361 64.791664 125.87861 64.55729Q126.25361 64.322914 126.25361 64.18229Q126.25361 63.947914 126.03486 63.80729Q125.81611 63.65104 125.45673 63.65104Q125.01923 63.65104 124.72236 63.90104Q124.44111 64.15104 124.44111 64.52604Q124.44111 64.854164 124.73798 65.36979Q125.17548 66.166664 125.26923 66.40104Q125.55048 67.11979 125.55048 67.947914Q125.55048 68.40104 125.48798 68.96354L125.06611 68.947914Q125.06611 68.83854 125.08173 68.760414L125.11298 68.40104Q125.11298 68.02604 124.61298 67.572914Q123.73798 66.80729 123.65986 66.71354Q123.14423 66.104164 123.14423 65.33854Q123.14423 64.416664 123.75361 63.822914Q124.37861 63.21354 125.28486 63.21354Q126.11298 63.21354 126.67548 63.68229Q127.25361 64.135414 127.25361 64.90104ZM126.01923 70.40104Q126.01923 70.760414 125.76923 71.010414Q125.51923 71.24479 125.15986 71.24479Q124.83173 71.24479 124.58173 70.99479Q124.33173 70.74479 124.33173 70.40104Q124.33173 70.041664 124.58173 69.80729Q124.83173 69.55729 125.19111 69.55729Q125.53486 69.55729 125.76923 69.80729Q126.01923 70.05729 126.01923 70.40104ZM138.53485 71.166664Q138.53485 71.916664 137.89423 72.729164Q137.33173 73.43229 136.5036 73.947914Q135.70673 74.43229 135.1911 74.43229Q134.72235 74.43229 134.17548 74.30729Q133.7536 74.197914 133.17548 73.979164Q132.67548 73.791664 132.1911 73.604164L132.3161 73.33854Q132.76923 73.43229 133.2536 73.510414Q133.73798 73.604164 134.14423 73.604164Q135.01923 73.604164 135.95673 73.05729Q136.83173 72.541664 137.42548 71.760414Q138.03485 70.979164 138.03485 70.33854Q138.03485 69.80729 137.72235 69.21354Q137.47235 68.729164 137.01923 68.229164L137.40985 67.15104Q137.97235 67.666664 138.23798 68.18229Q138.53485 68.77604 138.53485 69.49479L138.53485 71.166664ZM141.90985 71.166664L140.9411 71.166664Q140.48798 71.166664 140.20673 70.791664Q139.95673 70.46354 139.83173 69.822914Q139.70673 69.166664 139.6286 68.21354Q139.59735 67.43229 139.55048 66.61979Q139.5036 65.80729 139.42548 65.385414Q139.36298 64.96354 139.23798 64.697914Q139.08173 64.36979 138.8161 64.135414L139.65985 62.80729Q139.92548 63.61979 140.03485 64.760414Q140.11298 65.479164 140.17548 68.135414Q140.30048 69.33854 140.53485 69.68229Q140.72235 69.979164 140.9411 69.979164L141.90985 69.979164L141.90985 71.166664ZM149.11298 71.166664L141.20673 71.166664L141.20673 69.979164L146.78485 69.979164Q146.08173 69.43229 145.61298 69.135414Q145.01923 68.760414 144.51923 68.58854Q143.97235 68.40104 143.39423 68.40104Q143.05048 68.40104 142.6911 68.447914Q142.89423 67.93229 143.22235 67.635414Q143.67548 67.18229 144.39423 67.18229Q145.08173 67.18229 146.03485 67.86979Q146.5036 68.21354 147.58173 69.166664Q148.40985 69.916664 148.6911 69.979164L149.11298 69.979164L149.11298 71.166664ZM145.6286 72.65104L145.11298 73.635414L144.0036 73.05729L144.53485 72.05729L145.6286 72.65104ZM152.11298 71.166664L148.20673 71.166664L148.20673 69.979164L151.61298 69.979164Q151.61298 69.166664 151.42548 68.74479Q151.28485 68.447914 150.76923 67.90104L151.3161 66.77604Q151.80048 67.40104 151.92548 67.74479Q152.11298 68.27604 152.11298 69.49479L152.11298 71.166664ZM152.08173 72.52604L151.53485 73.510414L150.4411 72.93229L150.9411 71.947914L152.08173 72.52604ZM150.5036 73.15104L149.98798 74.135414L148.8786 73.55729L149.3786 72.572914L150.5036 73.15104ZM158.78485 63.93229L158.45673 65.166664L158.05048 64.96354L158.0661 65.58854Q158.0661 66.510414 157.83173 67.36979Q157.58173 68.30729 157.03485 69.229164Q157.30048 69.71354 157.39423 69.99479Q157.55048 70.416664 157.55048 70.86979Q157.55048 71.11979 157.53485 71.291664Q157.53485 71.46354 157.48798 71.71354Q156.7536 71.86979 155.92548 71.96354Q155.11298 72.05729 154.33173 72.05729Q154.33173 71.93229 154.33173 71.83854Q154.3786 71.322914 154.5036 70.86979Q155.65985 70.260414 156.45673 69.260414Q155.98798 68.354164 155.76923 67.979164Q155.51923 67.572914 154.95673 66.71354Q154.73798 66.416664 154.58173 66.229164Q154.34735 65.99479 154.22235 65.99479Q154.1286 65.99479 153.92548 66.104164Q153.8161 66.15104 153.73798 66.15104Q153.59735 66.15104 153.26923 65.854164Q152.98798 65.58854 152.67548 65.197914Q152.4411 64.885414 152.34735 64.68229Q152.2536 64.46354 152.2536 64.166664Q152.2536 63.74479 152.3161 63.510414Q152.39423 63.15104 152.59735 63.15104Q152.8786 63.15104 153.40985 63.68229Q153.8786 64.15104 154.45673 64.93229Q154.97235 65.61979 155.47235 66.43229L156.17548 67.541664Q156.47235 68.05729 156.80048 68.697914Q157.2536 67.77604 157.42548 66.822914Q157.58173 66.010414 157.58173 64.74479L157.1911 64.510414Q157.1911 64.05729 157.26923 63.697914Q157.34735 63.322914 157.48798 63.02604L157.64423 63.072914Q157.67548 63.36979 157.97235 63.541664Q158.14423 63.635414 158.39423 63.760414Q158.64423 63.885414 158.78485 63.93229ZM157.0036 70.58854Q157.0036 70.43229 156.9411 70.27604Q156.89423 70.11979 156.6911 69.74479Q156.48798 70.010414 156.08173 70.36979Q155.67548 70.71354 155.28485 70.96354Q156.08173 70.96354 156.42548 70.916664Q157.0036 70.822914 157.0036 70.58854ZM155.95673 73.77604Q155.95673 73.947914 155.73798 74.08854Q155.59735 74.18229 155.30048 74.27604L154.03485 74.71354Q154.03485 74.40104 154.72235 74.166664Q154.5036 74.05729 154.39423 73.947914Q154.2536 73.822914 154.2536 73.68229Q154.2536 73.46354 154.61298 73.08854Q155.01923 72.666664 155.33173 72.666664Q155.47235 72.666664 155.5661 72.760414Q155.65985 72.83854 155.65985 72.99479Q155.65985 73.08854 155.61298 73.18229Q155.58173 73.291664 155.5036 73.416664Q155.30048 73.229164 155.05048 73.229164Q154.89423 73.229164 154.73798 73.27604Q154.59735 73.33854 154.59735 73.43229Q154.59735 73.52604 154.90985 73.697914Q155.23798 73.885414 155.47235 73.885414Q155.61298 73.885414 155.67548 73.86979Q155.73798 73.86979 155.95673 73.77604ZM162.0036 69.416664Q162.0036 69.96354 161.80048 70.479164Q161.70673 70.760414 161.36298 71.354164L161.23798 71.27604Q161.2536 71.08854 161.26923 70.822914Q161.28485 70.55729 161.28485 70.479164Q161.28485 69.760414 161.17548 68.49479Q161.0661 67.21354 160.90985 65.822914Q160.8161 64.979164 160.6911 64.104164Q160.83173 63.80729 161.0036 63.46354Q161.17548 63.104164 161.33173 62.80729Q161.4411 63.58854 161.61298 64.947914Q161.78485 66.291664 161.8786 67.36979Q162.0036 68.729164 162.0036 69.416664ZM173.48798 75.041664L172.11298 76.135414Q170.83173 76.135414 170.09735 76.010414Q168.76923 75.80729 168.01923 75.197914Q167.0661 74.416664 167.0661 72.99479Q167.0661 72.05729 167.42548 71.260414Q167.70673 70.61979 168.28485 69.979164Q168.55048 69.666664 169.28485 68.99479Q169.22235 68.760414 169.09735 68.65104Q168.97235 68.541664 168.83173 68.541664Q168.64423 68.541664 168.47235 68.77604L168.36298 68.77604Q168.5036 68.05729 168.65985 67.791664Q169.05048 67.135414 169.92548 67.135414Q170.5036 67.135414 170.92548 67.416664Q171.39423 67.74479 171.39423 68.24479Q171.39423 68.58854 171.14423 68.822914Q170.90985 69.010414 170.7536 69.135414Q171.1286 69.58854 171.47235 69.791664Q171.83173 69.979164 172.36298 69.979164L172.98798 69.979164L172.98798 71.166664L172.36298 71.166664Q171.3161 71.166664 170.73798 70.854164Q170.15985 70.541664 169.8161 69.80729Q169.3161 70.135414 168.90985 70.479164Q168.36298 70.93229 168.0661 71.385414Q167.67548 71.93229 167.67548 72.447914Q167.67548 73.604164 168.83173 74.24479Q169.72235 74.729164 171.26923 74.90104Q172.09735 74.979164 173.47235 74.979164L173.48798 75.041664ZM175.53485 63.58854L175.0036 64.58854L173.89423 63.99479L174.40985 62.99479L175.53485 63.58854ZM176.4411 71.166664L172.20673 71.166664L172.20673 69.979164L175.86298 69.979164Q175.86298 69.36979 175.70673 68.83854Q175.36298 68.947914 175.15985 68.99479Q174.84735 69.072914 174.61298 69.072914Q174.11298 69.072914 173.80048 68.822914Q173.4411 68.541664 173.4411 67.99479Q173.4411 67.041664 173.78485 66.33854Q174.15985 65.541664 174.76923 65.541664Q175.61298 65.541664 176.0661 66.854164Q176.4411 67.93229 176.4411 69.385414L176.4411 71.166664ZM175.3161 67.604164Q175.22235 67.36979 175.01923 67.104164Q174.72235 66.760414 174.47235 66.760414Q174.28485 66.760414 174.15985 66.916664Q174.05048 67.072914 174.05048 67.291664Q174.05048 67.83854 174.64423 67.83854Q174.80048 67.83854 174.97235 67.77604Q175.15985 67.71354 175.3161 67.604164ZM181.40985 71.166664L178.34735 71.166664Q177.95673 71.166664 177.64423 70.947914Q177.34735 70.71354 177.34735 70.40104Q177.34735 70.15104 177.36298 69.93229Q177.39423 69.71354 177.47235 69.46354L177.6286 69.46354Q177.70673 69.74479 177.89423 69.86979Q178.0661 69.979164 178.34735 69.979164L181.0036 69.979164Q181.0036 68.74479 180.65985 68.010414Q180.23798 67.072914 179.23798 66.760414L179.34735 65.447914Q180.51923 66.02604 181.01923 67.291664Q181.40985 68.322914 181.40985 69.979164L181.40985 71.166664ZM192.78485 70.322914Q192.78485 71.416664 192.26923 72.05729Q191.8161 72.61979 190.92548 72.86979Q190.17548 73.072914 189.01923 73.072914Q187.6911 73.072914 186.97235 72.58854Q186.17548 72.05729 186.17548 70.99479Q186.17548 70.40104 186.34735 69.77604Q186.48798 69.229164 186.78485 68.58854Q187.0036 68.11979 187.36298 67.46354L187.58173 67.58854Q187.33173 68.05729 187.15985 68.416664Q186.92548 68.90104 186.8161 69.27604Q186.6911 69.74479 186.6911 70.18229Q186.6911 71.02604 187.30048 71.46354Q187.90985 71.885414 189.0036 71.885414Q190.15985 71.885414 191.14423 71.49479Q192.22235 71.05729 192.22235 70.447914Q192.22235 69.77604 192.0036 68.197914Q191.84735 66.979164 191.59735 65.479164L191.3786 64.15104L191.0661 63.979164Q191.0661 63.072914 191.4411 62.322914L191.55048 62.322914Q191.58173 62.572914 191.64423 62.697914Q191.72235 62.822914 191.8786 62.885414Q192.09735 62.979164 192.34735 63.104164Q192.53485 63.197914 192.65985 63.260414Q192.65985 63.74479 192.6286 63.96354Q192.59735 64.18229 192.48798 64.572914L192.09735 64.447914Q192.11298 64.604164 192.30048 65.822914Q192.51923 67.260414 192.61298 68.135414Q192.78485 69.55729 192.78485 70.322914ZM200.1911 65.479164L199.67548 66.479164L198.5661 65.90104L199.0661 64.90104L200.1911 65.479164ZM204.53485 71.166664L196.3161 71.166664Q195.95673 71.166664 195.61298 71.041664Q195.36298 70.947914 195.01923 70.729164Q194.73798 70.979164 194.4411 71.072914Q194.15985 71.166664 193.53485 71.166664L192.20673 71.166664L192.20673 69.979164L193.53485 69.979164Q194.08173 69.979164 194.33173 69.885414Q194.72235 69.71354 194.72235 69.24479Q194.72235 69.05729 194.6911 68.854164Q194.67548 68.65104 194.6286 68.40104L194.90985 67.99479Q195.14423 68.93229 195.5661 69.43229Q196.0036 69.979164 196.61298 69.979164Q197.17548 69.979164 197.95673 69.71354Q198.78485 69.43229 199.39423 69.010414Q200.36298 68.30729 200.58173 68.166664Q201.14423 67.80729 201.59735 67.666664Q202.09735 67.49479 202.70673 67.49479Q203.6286 67.49479 204.09735 68.02604Q204.53485 68.52604 204.53485 69.43229L204.53485 71.166664ZM203.42548 69.447914Q203.42548 69.11979 203.0036 68.93229Q202.59735 68.729164 202.03485 68.729164Q201.34735 68.729164 200.3786 69.197914Q199.61298 69.58854 198.84735 69.979164L201.98798 69.979164Q202.73798 69.979164 203.08173 69.854164Q203.42548 69.71354 203.42548 69.447914ZM207.76923 63.90104L207.17548 64.885414L206.22235 64.229164L206.78485 63.27604L207.76923 63.90104ZM208.36298 71.166664L204.20673 71.166664L204.20673 69.979164L206.55048 69.979164Q206.98798 69.979164 207.28485 69.947914Q207.58173 69.916664 207.92548 69.80729Q206.7536 69.635414 206.39423 69.49479Q205.61298 69.15104 205.61298 68.322914Q205.61298 67.604164 205.98798 66.979164Q206.40985 66.260414 207.01923 66.260414Q207.72235 66.260414 208.08173 67.15104Q208.36298 67.854164 208.36298 68.80729L208.36298 71.166664ZM207.7536 68.77604Q207.59735 68.229164 207.45673 67.96354Q207.17548 67.447914 206.76923 67.447914Q206.58173 67.447914 206.4411 67.604164Q206.3161 67.74479 206.3161 67.96354Q206.3161 68.479164 206.84735 68.65104Q207.05048 68.71354 207.7536 68.77604ZM212.08173 64.416664L211.53485 65.40104L210.4411 64.80729L210.9411 63.822914L212.08173 64.416664ZM210.5036 65.02604L209.98798 66.010414L208.8786 65.447914L209.3786 64.447914L210.5036 65.02604ZM212.11298 71.166664L208.20673 71.166664L208.20673 69.979164L211.61298 69.979164Q211.61298 69.166664 211.42548 68.74479Q211.28485 68.447914 210.76923 67.90104L211.3161 66.77604Q211.80048 67.40104 211.92548 67.74479Q212.11298 68.27604 212.11298 69.49479L212.11298 71.166664ZM225.3786 64.21354L224.8161 65.229164L223.70673 64.635414L224.26923 63.635414L225.3786 64.21354ZM226.73798 71.166664L220.45673 71.166664Q219.01923 71.166664 218.14423 70.979164Q217.08173 70.77604 216.55048 70.27604Q215.95673 69.74479 215.95673 68.83854Q215.95673 68.229164 216.30048 67.416664Q216.5661 66.854164 216.67548 66.58854L216.95673 66.74479Q216.65985 67.33854 216.5661 67.65104Q216.47235 67.96354 216.47235 68.21354Q216.47235 69.11979 217.45673 69.55729Q218.4411 69.979164 220.58173 69.979164L225.6286 69.979164Q224.83173 69.760414 224.4411 69.46354Q224.01923 69.135414 224.01923 68.65104Q224.01923 68.02604 224.4411 67.291664Q224.92548 66.479164 225.5036 66.479164Q226.17548 66.479164 226.47235 67.27604Q226.73798 67.947914 226.73798 69.18229L226.73798 71.166664ZM226.01923 69.08854Q226.01923 68.49479 225.89423 68.18229Q225.73798 67.791664 225.40985 67.791664Q225.17548 67.791664 225.0661 67.93229Q224.95673 68.072914 224.95673 68.322914Q224.95673 68.666664 225.23798 68.83854Q225.4411 68.947914 226.01923 69.08854ZM230.11298 71.166664L226.20673 71.166664L226.20673 69.979164L229.61298 69.979164Q229.61298 69.166664 229.42548 68.74479Q229.28485 68.447914 228.76923 67.90104L229.3161 66.77604Q229.80048 67.40104 229.92548 67.74479Q230.11298 68.27604 230.11298 69.49479L230.11298 71.166664ZM230.08173 72.52604L229.53485 73.510414L228.4411 72.93229L228.9411 71.947914L230.08173 72.52604ZM228.5036 73.15104L227.98798 74.135414L226.8786 73.55729L227.3786 72.572914L228.5036 73.15104ZM235.20673 71.166664L229.20673 71.166664L229.20673 69.979164L234.40985 69.979164Q233.9411 69.24479 233.3161 68.71354Q232.70673 68.18229 231.65985 67.55729L231.4411 67.760414L230.6286 67.15104Q230.20673 66.791664 230.20673 66.604164Q230.20673 65.416664 230.78485 64.74479Q231.3161 64.135414 232.61298 63.65104L234.55048 62.885414L234.55048 64.072914L233.11298 64.55729Q232.26923 64.83854 231.73798 65.072914Q231.0661 65.354164 231.0661 65.510414Q231.0661 65.666664 231.5036 65.99479Q231.76923 66.21354 232.05048 66.416664Q233.09735 67.197914 233.86298 68.05729Q234.70673 68.979164 235.20673 69.979164L235.20673 71.166664Z" fill-rule="nonzero"/><path fill="#003049" d="M33.7 94.166664C33.7 97.48038 31.013708 100.166664 27.7 100.166664C24.386292 100.166664 21.7 97.48038 21.7 94.166664C21.7 90.85296 24.386292 88.166664 27.7 88.166664C31.013708 88.166664 33.7 90.85296 33.7 94.166664Z" fill-rule="nonzero"/><path fill="#001723" d="M56.206738 88.99479L55.675488 89.979164L54.566113 89.385414L55.081738 88.416664L56.206738 88.99479ZM54.644238 89.604164L54.112988 90.604164L53.019238 90.02604L53.519238 89.041664L54.644238 89.604164ZM57.941113 97.166664L56.956738 97.166664Q56.472363 97.166664 56.097363 96.322914Q55.816113 95.697914 55.644238 94.697914Q55.441113 95.08854 55.128613 95.30729Q54.816113 95.510414 54.456738 95.510414Q53.675488 95.510414 53.144238 95.40104Q52.628613 95.291664 52.628613 95.135414Q52.628613 94.541664 53.394238 93.83854Q54.159863 93.11979 55.316113 92.58854Q55.300488 92.52604 55.253613 92.291664Q55.206738 92.05729 55.206738 92.010414Q55.206738 91.77604 55.362988 91.49479Q55.487988 91.260414 55.706738 91.010414Q55.769238 91.43229 55.847363 91.83854Q55.925488 92.229164 56.019238 92.65104L56.222363 93.822914Q56.394238 94.791664 56.519238 95.260414Q56.737988 95.979164 56.956738 95.979164L57.941113 95.979164L57.941113 97.166664ZM55.550488 94.104164L55.425488 93.36979Q54.831738 93.572914 54.487988 93.80729Q54.144238 94.02604 53.909863 94.40104Q54.066113 94.46354 54.253613 94.510414Q54.441113 94.541664 54.769238 94.541664Q55.191113 94.541664 55.550488 94.104164ZM63.972363 90.791664L63.441113 91.791664L62.347363 91.21354L62.847363 90.21354L63.972363 90.791664ZM65.83174 97.166664L57.206738 97.166664L57.206738 95.979164L58.253613 95.96354Q58.722363 95.96354 59.128613 95.83854Q59.597363 95.697914 60.175488 95.33854Q60.300488 95.041664 60.378613 94.697914Q60.456738 94.354164 60.456738 94.02604Q60.456738 93.291664 60.316113 92.416664Q60.206738 91.77604 60.003613 90.90104Q59.894238 90.447914 59.722363 89.80729L59.300488 89.58854Q59.347363 89.18229 59.441113 88.80729Q59.534863 88.416664 59.691113 88.05729Q59.800488 88.385414 60.191113 88.55729Q60.519238 88.697914 61.019238 88.74479Q60.941113 89.447914 60.909863 89.65104Q60.878613 89.83854 60.784863 90.11979Q60.737988 90.104164 60.534863 90.041664L60.441113 90.02604Q60.675488 90.822914 60.831738 91.666664Q60.987988 92.510414 60.987988 93.08854Q60.987988 93.572914 60.894238 94.166664Q60.862988 94.36979 60.769238 94.822914Q61.956738 94.135414 62.300488 93.96354Q63.316113 93.49479 64.03487 93.49479Q64.95674 93.49479 65.40987 94.02604Q65.83174 94.52604 65.83174 95.43229L65.83174 97.166664ZM64.75362 95.447914Q64.75362 95.104164 64.39424 94.916664Q64.03487 94.729164 63.362988 94.729164Q62.862988 94.729164 62.222363 94.947914Q61.691113 95.135414 61.081738 95.447914Q60.644238 95.68229 60.159863 95.979164L63.144238 95.979164Q64.75362 95.979164 64.75362 95.447914ZM68.76924 89.90104L68.17549 90.885414L67.22237 90.229164L67.78487 89.27604L68.76924 89.90104ZM69.36299 97.166664L65.20674 97.166664L65.20674 95.979164L67.55049 95.979164Q67.98799 95.979164 68.28487 95.947914Q68.58174 95.916664 68.92549 95.80729Q67.75362 95.635414 67.39424 95.49479Q66.61299 95.15104 66.61299 94.322914Q66.61299 93.604164 66.98799 92.979164Q67.40987 92.260414 68.01924 92.260414Q68.72237 92.260414 69.08174 93.15104Q69.36299 93.854164 69.36299 94.80729L69.36299 97.166664ZM68.75362 94.77604Q68.59737 94.229164 68.45674 93.96354Q68.17549 93.447914 67.76924 93.447914Q67.58174 93.447914 67.44112 93.604164Q67.31612 93.74479 67.31612 93.96354Q67.31612 94.479164 67.84737 94.65104Q68.05049 94.71354 68.75362 94.77604ZM77.11299 97.166664L69.20674 97.166664L69.20674 95.979164L74.78487 95.979164Q74.08174 95.43229 73.61299 95.135414Q73.01924 94.760414 72.51924 94.58854Q71.97237 94.40104 71.39424 94.40104Q71.05049 94.40104 70.69112 94.447914Q70.89424 93.93229 71.22237 93.635414Q71.67549 93.18229 72.39424 93.18229Q73.08174 93.18229 74.03487 93.86979Q74.50362 94.21354 75.58174 95.166664Q76.40987 95.916664 76.69112 95.979164L77.11299 95.979164L77.11299 97.166664ZM82.20674 97.166664L81.50362 97.166664Q81.03487 97.166664 80.47237 96.96354Q79.80049 96.71354 79.30049 96.30729Q78.89424 96.791664 78.47237 96.979164Q78.06612 97.166664 77.28487 97.166664L76.20674 97.166664L76.20674 95.979164L77.25362 95.979164Q77.87862 95.979164 78.36299 95.666664Q78.73799 95.416664 79.05049 94.96354Q79.47237 94.36979 80.08174 93.916664Q80.62862 93.52604 81.08174 93.416664Q81.55049 94.135414 81.83174 94.71354Q82.20674 95.49479 82.20674 95.979164L82.20674 97.166664ZM81.42549 95.822914Q81.33174 95.416664 81.14424 95.041664Q80.98799 94.71354 80.73799 94.36979Q80.40987 94.46354 80.17549 94.68229Q80.03487 94.822914 79.81612 95.166664Q80.06612 95.43229 80.50362 95.65104Q80.95674 95.854164 81.36299 95.90104L81.42549 95.822914ZM90.06612 96.322914Q90.06612 96.68229 89.78487 96.96354Q89.51924 97.24479 89.08174 97.24479Q88.55049 97.24479 88.20674 96.760414Q87.86299 96.260414 87.86299 95.541664Q87.86299 94.510414 88.45674 93.74479Q88.75362 93.36979 89.34737 92.96354L89.56612 93.33854Q89.15987 93.697914 88.95674 93.979164Q88.58174 94.46354 88.58174 94.83854Q88.58174 95.197914 89.31612 95.36979Q90.06612 95.52604 90.06612 96.322914ZM99.17549 93.697914Q99.17549 93.916664 99.12862 94.15104Q99.09737 94.36979 99.08174 94.46354Q98.84737 94.166664 98.50362 93.99479Q98.17549 93.80729 97.83174 93.80729Q97.23799 93.80729 96.58174 94.49479Q95.98799 95.135414 95.98799 95.510414Q95.98799 95.635414 96.12862 95.71354Q96.26924 95.77604 96.64424 95.77604L97.19112 95.77604Q97.67549 95.77604 97.90987 95.791664Q98.14424 95.791664 98.47237 95.854164Q98.80049 95.90104 98.80049 96.33854Q98.80049 98.05729 97.31612 98.947914Q95.94112 99.77604 93.59737 99.77604Q92.37862 99.77604 91.73799 99.30729Q91.03487 98.791664 91.03487 97.760414Q91.03487 97.041664 91.26924 96.260414Q91.44112 95.666664 91.75362 95.02604Q91.78487 94.979164 92.19112 94.21354L92.47237 94.322914Q92.05049 95.08854 91.81612 95.760414Q91.58174 96.43229 91.58174 96.93229Q91.58174 97.77604 92.15987 98.197914Q92.73799 98.604164 93.81612 98.604164Q94.62862 98.604164 95.72237 98.27604Q96.65987 97.99479 97.39424 97.604164Q98.14424 97.21354 98.14424 97.02604Q98.14424 96.90104 98.05049 96.86979Q97.97237 96.822914 97.78487 96.822914L96.17549 96.822914Q95.89424 96.822914 95.65987 96.61979Q95.44112 96.40104 95.44112 96.05729Q95.44112 95.604164 95.81612 94.822914Q96.22237 93.96354 96.80049 93.385414Q97.50362 92.697914 98.20674 92.697914Q98.65987 92.697914 98.90987 92.979164Q99.17549 93.24479 99.17549 93.697914ZM96.59737 100.479164L96.06612 101.46354L94.95674 100.86979L95.47237 99.885414L96.59737 100.479164ZM95.01924 101.08854L94.50362 102.072914L93.39424 101.510414L93.90987 100.510414L95.01924 101.08854ZM106.53487 97.166664Q106.53487 97.916664 105.89424 98.729164Q105.33174 99.43229 104.50362 99.947914Q103.70674 100.43229 103.19112 100.43229Q102.72237 100.43229 102.17549 100.30729Q101.75362 100.197914 101.17549 99.979164Q100.67549 99.791664 100.19112 99.604164L100.31612 99.33854Q100.76924 99.43229 101.25362 99.510414Q101.73799 99.604164 102.14424 99.604164Q103.01924 99.604164 103.95674 99.05729Q104.83174 98.541664 105.42549 97.760414Q106.03487 96.979164 106.03487 96.33854Q106.03487 95.80729 105.72237 95.21354Q105.47237 94.729164 105.01924 94.229164L105.40987 93.15104Q105.97237 93.666664 106.23799 94.18229Q106.53487 94.77604 106.53487 95.49479L106.53487 97.166664ZM112.73799 96.760414Q112.73799 97.885414 111.90987 98.99479Q110.97237 100.24479 109.75362 100.24479Q109.31612 100.24479 108.83174 100.135414Q108.48799 100.05729 107.92549 99.885414Q107.47237 99.71354 107.03487 99.572914L107.14424 99.33854Q107.53487 99.416664 107.95674 99.510414Q108.37862 99.61979 108.70674 99.61979Q109.53487 99.61979 110.28487 99.197914Q110.86299 98.854164 111.45674 98.229164Q111.73799 97.90104 112.28487 97.18229Q111.36299 97.18229 110.90987 96.885414Q110.37862 96.541664 110.37862 95.77604Q110.37862 95.072914 110.70674 94.479164Q111.09737 93.77604 111.67549 93.77604Q112.26924 93.77604 112.53487 94.46354Q112.73799 95.010414 112.73799 95.979164L112.73799 96.760414ZM112.31612 96.010414Q112.15987 95.354164 111.94112 95.104164Q111.76924 94.885414 111.50362 94.885414Q111.30049 94.885414 111.15987 95.010414Q111.01924 95.135414 111.01924 95.322914Q111.01924 95.666664 111.31612 95.83854Q111.62862 96.010414 112.31612 96.010414ZM115.53487 89.58854L115.00362 90.58854L113.89424 89.99479L114.40987 88.99479L115.53487 89.58854ZM116.44112 97.166664L112.20674 97.166664L112.20674 95.979164L115.86299 95.979164Q115.86299 95.36979 115.70674 94.83854Q115.36299 94.947914 115.15987 94.99479Q114.84737 95.072914 114.61299 95.072914Q114.11299 95.072914 113.80049 94.822914Q113.44112 94.541664 113.44112 93.99479Q113.44112 93.041664 113.78487 92.33854Q114.15987 91.541664 114.76924 91.541664Q115.61299 91.541664 116.06612 92.854164Q116.44112 93.93229 116.44112 95.385414L116.44112 97.166664ZM115.31612 93.604164Q115.22237 93.36979 115.01924 93.104164Q114.72237 92.760414 114.47237 92.760414Q114.28487 92.760414 114.15987 92.916664Q114.05049 93.072914 114.05049 93.291664Q114.05049 93.83854 114.64424 93.83854Q114.80049 93.83854 114.97237 93.77604Q115.15987 93.71354 115.31612 93.604164ZM118.42549 102.11979L117.53487 102.11979Q119.58174 98.83854 119.58174 95.541664Q119.58174 94.260414 119.28487 92.99479Q119.05049 91.96354 118.64424 91.02604Q118.37862 90.416664 117.53487 88.979164L118.42549 88.979164Q119.70674 90.68229 120.31612 92.416664Q120.84737 93.916664 120.84737 95.541664Q120.84737 97.385414 120.12862 99.104164Q119.42549 100.822914 118.42549 102.11979ZM133.03487 90.18229L132.50362 91.166664L131.39424 90.572914L131.90987 89.604164L133.03487 90.18229ZM131.45674 90.791664L130.94112 91.791664L129.83174 91.21354L130.34737 90.229164L131.45674 90.791664ZM133.83174 97.510414Q133.83174 98.86979 132.53487 99.572914Q131.36299 100.21354 129.42549 100.21354Q127.90987 100.21354 127.06612 99.666664Q126.17549 99.072914 126.17549 97.90104Q126.17549 97.08854 126.42549 96.21354Q126.67549 95.385414 127.11299 94.572914L127.39424 94.68229Q127.20674 95.166664 127.06612 95.541664Q126.87862 96.041664 126.80049 96.40104Q126.69112 96.86979 126.69112 97.291664Q126.69112 98.18229 127.44112 98.604164Q128.14424 98.99479 129.50362 98.99479Q130.95674 98.99479 132.05049 98.510414Q133.31612 97.96354 133.31612 97.02604Q133.31612 96.666664 133.28487 96.52604Q133.26924 96.36979 133.20674 96.21354Q132.95674 96.322914 132.69112 96.40104Q132.42549 96.479164 132.15987 96.479164Q131.55049 96.479164 131.17549 96.197914Q130.72237 95.86979 130.72237 95.21354Q130.72237 94.43229 131.11299 93.729164Q131.56612 92.93229 132.17549 92.93229Q132.97237 92.93229 133.44112 94.02604Q133.83174 94.96354 133.83174 96.18229L133.83174 97.510414ZM132.75362 94.979164Q132.56612 94.55729 132.48799 94.447914Q132.30049 94.166664 132.01924 94.166664Q131.69112 94.166664 131.53487 94.322914Q131.37862 94.479164 131.37862 94.729164Q131.37862 94.93229 131.56612 95.05729Q131.76924 95.18229 132.03487 95.18229Q132.20674 95.18229 132.36299 95.135414Q132.51924 95.072914 132.75362 94.979164ZM137.11299 97.166664L133.20674 97.166664L133.20674 95.979164L136.61299 95.979164Q136.61299 95.166664 136.42549 94.74479Q136.28487 94.447914 135.76924 93.90104L136.31612 92.77604Q136.80049 93.40104 136.92549 93.74479Q137.11299 94.27604 137.11299 95.49479L137.11299 97.166664ZM137.08174 98.52604L136.53487 99.510414L135.44112 98.93229L135.94112 97.947914L137.08174 98.52604ZM135.50362 99.15104L134.98799 100.135414L133.87862 99.55729L134.37862 98.572914L135.50362 99.15104ZM140.11299 97.166664L136.20674 97.166664L136.20674 95.979164L139.61299 95.979164Q139.61299 95.166664 139.42549 94.74479Q139.28487 94.447914 138.76924 93.90104L139.31612 92.77604Q139.80049 93.40104 139.92549 93.74479Q140.11299 94.27604 140.11299 95.49479L140.11299 97.166664ZM139.40987 98.822914L138.87862 99.822914L137.76924 99.24479L138.28487 98.24479L139.40987 98.822914ZM147.83174 97.166664L139.20674 97.166664L139.20674 95.979164L140.25362 95.96354Q140.72237 95.96354 141.12862 95.83854Q141.59737 95.697914 142.17549 95.33854Q142.30049 95.041664 142.37862 94.697914Q142.45674 94.354164 142.45674 94.02604Q142.45674 93.291664 142.31612 92.416664Q142.20674 91.77604 142.00362 90.90104Q141.89424 90.447914 141.72237 89.80729L141.30049 89.58854Q141.34737 89.18229 141.44112 88.80729Q141.53487 88.416664 141.69112 88.05729Q141.80049 88.385414 142.19112 88.55729Q142.51924 88.697914 143.01924 88.74479Q142.94112 89.447914 142.90987 89.65104Q142.87862 89.83854 142.78487 90.11979Q142.73799 90.104164 142.53487 90.041664L142.44112 90.02604Q142.67549 90.822914 142.83174 91.666664Q142.98799 92.510414 142.98799 93.08854Q142.98799 93.572914 142.89424 94.166664Q142.86299 94.36979 142.76924 94.822914Q143.95674 94.135414 144.30049 93.96354Q145.31612 93.49479 146.03487 93.49479Q146.95674 93.49479 147.40987 94.02604Q147.83174 94.52604 147.83174 95.43229L147.83174 97.166664ZM146.75362 95.447914Q146.75362 95.104164 146.39424 94.916664Q146.03487 94.729164 145.36299 94.729164Q144.86299 94.729164 144.22237 94.947914Q143.69112 95.135414 143.08174 95.447914Q142.64424 95.68229 142.15987 95.979164L145.14424 95.979164Q146.75362 95.979164 146.75362 95.447914ZM151.08174 90.416664L150.53487 91.40104L149.44112 90.80729L149.94112 89.822914L151.08174 90.416664ZM149.50362 91.02604L148.98799 92.010414L147.87862 91.447914L148.37862 90.447914L149.50362 91.02604ZM151.11299 97.166664L147.20674 97.166664L147.20674 95.979164L150.61299 95.979164Q150.61299 95.166664 150.42549 94.74479Q150.28487 94.447914 149.76924 93.90104L150.31612 92.77604Q150.80049 93.40104 150.92549 93.74479Q151.11299 94.27604 151.11299 95.49479L151.11299 97.166664ZM153.59737 97.166664L150.20674 97.166664L150.20674 95.979164L152.89424 95.979164L152.08174 90.18229L151.73799 90.010414Q151.73799 89.541664 151.81612 89.135414Q151.89424 88.71354 152.06612 88.322914L152.15987 88.385414Q152.15987 88.791664 152.61299 88.99479Q152.94112 89.11979 153.30049 89.260414Q153.30049 89.604164 153.23799 89.99479Q153.19112 90.385414 153.11299 90.572914L152.78487 90.46354L153.59737 95.822914L153.59737 97.166664ZM156.00362 95.416664Q156.00362 95.96354 155.80049 96.479164Q155.70674 96.760414 155.36299 97.354164L155.23799 97.27604Q155.25362 97.08854 155.26924 96.822914Q155.28487 96.55729 155.28487 96.479164Q155.28487 95.760414 155.17549 94.49479Q155.06612 93.21354 154.90987 91.822914Q154.81612 90.979164 154.69112 90.104164Q154.83174 89.80729 155.00362 89.46354Q155.17549 89.104164 155.33174 88.80729Q155.44112 89.58854 155.61299 90.947914Q155.78487 92.291664 155.87862 93.36979Q156.00362 94.729164 156.00362 95.416664ZM167.53487 97.166664Q167.53487 97.916664 166.89424 98.729164Q166.33174 99.43229 165.50362 99.947914Q164.70674 100.43229 164.19112 100.43229Q163.72237 100.43229 163.17549 100.30729Q162.75362 100.197914 162.17549 99.979164Q161.67549 99.791664 161.19112 99.604164L161.31612 99.33854Q161.76924 99.43229 162.25362 99.510414Q162.73799 99.604164 163.14424 99.604164Q164.01924 99.604164 164.95674 99.05729Q165.83174 98.541664 166.42549 97.760414Q167.03487 96.979164 167.03487 96.33854Q167.03487 95.80729 166.72237 95.21354Q166.47237 94.729164 166.01924 94.229164L166.40987 93.15104Q166.97237 93.666664 167.23799 94.18229Q167.53487 94.77604 167.53487 95.49479L167.53487 97.166664ZM171.11299 97.166664L167.20674 97.166664L167.20674 95.979164L170.61299 95.979164Q170.61299 95.166664 170.42549 94.74479Q170.28487 94.447914 169.76924 93.90104L170.31612 92.77604Q170.80049 93.40104 170.92549 93.74479Q171.11299 94.27604 171.11299 95.49479L171.11299 97.166664ZM170.40987 98.822914L169.87862 99.822914L168.76924 99.24479L169.28487 98.24479L170.40987 98.822914ZM177.26924 95.02604L176.80049 96.27604Q175.76924 96.65104 174.40987 96.916664Q173.05049 97.166664 171.90987 97.166664L170.20674 97.166664L170.20674 95.979164L171.84737 95.979164Q171.65987 95.65104 171.53487 95.24479Q171.40987 94.83854 171.40987 94.46354Q171.40987 93.65104 172.08174 93.104164Q172.75362 92.55729 173.81612 92.55729Q174.65987 92.55729 175.20674 92.96354Q175.44112 93.135414 175.98799 93.80729L175.86299 93.916664Q175.39424 93.791664 175.00362 93.729164Q174.62862 93.666664 174.23799 93.666664Q173.28487 93.666664 172.75362 93.86979Q172.22237 94.072914 172.22237 94.416664Q172.22237 94.760414 172.55049 95.18229Q172.89424 95.58854 173.42549 95.90104Q174.55049 95.729164 175.26924 95.572914Q175.98799 95.416664 177.26924 95.02604ZM189.92549 97.166664L188.73799 97.166664Q187.67549 97.166664 187.14424 97.229164Q186.61299 97.27604 186.61299 97.43229Q186.61299 97.666664 187.25362 97.666664Q187.53487 97.666664 187.69112 97.68229Q187.86299 97.68229 188.42549 97.74479Q188.75362 97.791664 188.86299 97.854164Q189.06612 97.96354 189.06612 98.21354Q189.06612 99.49479 188.22237 100.072914Q187.31612 100.697914 185.19112 100.697914Q183.72237 100.697914 182.86299 100.21354Q181.94112 99.666664 181.94112 98.68229Q181.94112 97.90104 182.37862 97.010414Q182.53487 96.68229 183.20674 95.635414L183.47237 95.77604Q183.22237 96.21354 182.95674 96.65104Q182.56612 97.40104 182.56612 97.885414Q182.56612 98.729164 183.44112 99.166664Q184.28487 99.572914 185.73799 99.572914Q186.72237 99.572914 187.45674 99.43229Q188.37862 99.24479 188.37862 98.916664Q188.37862 98.80729 188.26924 98.74479Q188.17549 98.68229 187.92549 98.68229Q187.75362 98.666664 187.34737 98.65104Q186.95674 98.61979 186.83174 98.61979Q186.40987 98.61979 186.22237 98.510414Q186.03487 98.40104 186.03487 98.166664Q186.03487 97.322914 186.53487 96.77604Q186.94112 96.33854 187.64424 96.135414Q188.15987 95.979164 188.73799 95.979164L189.92549 95.979164L189.92549 97.166664ZM187.09737 101.541664L186.45674 102.135414L185.69112 101.65104L186.31612 101.010414L187.09737 101.541664ZM185.69112 101.541664L185.06612 102.135414L184.26924 101.65104L184.90987 101.010414L185.69112 101.541664ZM192.56612 90.83854L192.05049 91.83854L190.94112 91.260414L191.44112 90.260414L192.56612 90.83854ZM193.11299 97.166664L189.20674 97.166664L189.20674 95.979164L192.61299 95.979164Q192.61299 95.166664 192.42549 94.74479Q192.28487 94.447914 191.76924 93.90104L192.31612 92.77604Q192.80049 93.40104 192.92549 93.74479Q193.11299 94.27604 193.11299 95.49479L193.11299 97.166664ZM198.73799 96.760414Q198.73799 97.885414 197.90987 98.99479Q196.97237 100.24479 195.75362 100.24479Q195.31612 100.24479 194.83174 100.135414Q194.48799 100.05729 193.92549 99.885414Q193.47237 99.71354 193.03487 99.572914L193.14424 99.33854Q193.53487 99.416664 193.95674 99.510414Q194.37862 99.61979 194.70674 99.61979Q195.53487 99.61979 196.28487 99.197914Q196.86299 98.854164 197.45674 98.229164Q197.73799 97.90104 198.28487 97.18229Q197.36299 97.18229 196.90987 96.885414Q196.37862 96.541664 196.37862 95.77604Q196.37862 95.072914 196.70674 94.479164Q197.09737 93.77604 197.67549 93.77604Q198.26924 93.77604 198.53487 94.46354Q198.73799 95.010414 198.73799 95.979164L198.73799 96.760414ZM198.31612 96.010414Q198.15987 95.354164 197.94112 95.104164Q197.76924 94.885414 197.50362 94.885414Q197.30049 94.885414 197.15987 95.010414Q197.01924 95.135414 197.01924 95.322914Q197.01924 95.666664 197.31612 95.83854Q197.62862 96.010414 198.31612 96.010414ZM205.53487 97.166664Q205.53487 97.916664 204.89424 98.729164Q204.33174 99.43229 203.50362 99.947914Q202.70674 100.43229 202.19112 100.43229Q201.72237 100.43229 201.17549 100.30729Q200.75362 100.197914 200.17549 99.979164Q199.67549 99.791664 199.19112 99.604164L199.31612 99.33854Q199.76924 99.43229 200.25362 99.510414Q200.73799 99.604164 201.14424 99.604164Q202.01924 99.604164 202.95674 99.05729Q203.83174 98.541664 204.42549 97.760414Q205.03487 96.979164 205.03487 96.33854Q205.03487 95.80729 204.72237 95.21354Q204.47237 94.729164 204.01924 94.229164L204.40987 93.15104Q204.97237 93.666664 205.23799 94.18229Q205.53487 94.77604 205.53487 95.49479L205.53487 97.166664ZM209.08174 90.416664L208.53487 91.40104L207.44112 90.80729L207.94112 89.822914L209.08174 90.416664ZM207.50362 91.02604L206.98799 92.010414L205.87862 91.447914L206.37862 90.447914L207.50362 91.02604ZM209.11299 97.166664L205.20674 97.166664L205.20674 95.979164L208.61299 95.979164Q208.61299 95.166664 208.42549 94.74479Q208.28487 94.447914 207.76924 93.90104L208.31612 92.77604Q208.80049 93.40104 208.92549 93.74479Q209.11299 94.27604 209.11299 95.49479L209.11299 97.166664ZM214.20674 97.166664L208.20674 97.166664L208.20674 95.979164L213.40987 95.979164Q212.94112 95.24479 212.31612 94.71354Q211.70674 94.18229 210.65987 93.55729L210.44112 93.760414L209.62862 93.15104Q209.20674 92.791664 209.20674 92.604164Q209.20674 91.416664 209.78487 90.74479Q210.31612 90.135414 211.61299 89.65104L213.55049 88.885414L213.55049 90.072914L212.11299 90.55729Q211.26924 90.83854 210.73799 91.072914Q210.06612 91.354164 210.06612 91.510414Q210.06612 91.666664 210.50362 91.99479Q210.76924 92.21354 211.05049 92.416664Q212.09737 93.197914 212.86299 94.05729Q213.70674 94.979164 214.20674 95.979164L214.20674 97.166664ZM217.59737 97.166664L214.20674 97.166664L214.20674 95.979164L216.89424 95.979164L216.08174 90.18229L215.73799 90.010414Q215.73799 89.541664 215.81612 89.135414Q215.89424 88.71354 216.06612 88.322914L216.15987 88.385414Q216.15987 88.791664 216.61299 88.99479Q216.94112 89.11979 217.30049 89.260414Q217.30049 89.604164 217.23799 89.99479Q217.19112 90.385414 217.11299 90.572914L216.78487 90.46354L217.59737 95.822914L217.59737 97.166664ZM219.90987 99.541664Q219.90987 99.71354 219.70674 99.854164Q219.55049 99.93229 219.26924 100.041664L218.00362 100.479164Q218.00362 100.166664 218.67549 99.93229Q218.47237 99.822914 218.36299 99.71354Q218.22237 99.58854 218.22237 99.447914Q218.22237 99.229164 218.58174 98.83854Q218.98799 98.416664 219.28487 98.416664Q219.42549 98.416664 219.51924 98.510414Q219.62862 98.604164 219.62862 98.760414Q219.62862 98.854164 219.58174 98.96354Q219.55049 99.05729 219.47237 99.166664Q219.25362 98.979164 219.00362 98.979164Q218.86299 98.979164 218.70674 99.041664Q218.56612 99.104164 218.56612 99.18229Q218.56612 99.291664 218.87862 99.46354Q219.20674 99.65104 219.42549 99.65104Q219.58174 99.65104 219.64424 99.635414Q219.70674 99.61979 219.90987 99.541664ZM220.00362 95.416664Q220.00362 95.96354 219.80049 96.479164Q219.70674 96.760414 219.36299 97.354164L219.23799 97.27604Q219.25362 97.08854 219.26924 96.822914Q219.28487 96.55729 219.28487 96.479164Q219.28487 95.760414 219.17549 94.49479Q219.06612 93.21354 218.90987 91.822914Q218.81612 90.979164 218.69112 90.104164Q218.83174 89.80729 219.00362 89.46354Q219.17549 89.104164 219.33174 88.80729Q219.44112 89.58854 219.61299 90.947914Q219.78487 92.291664 219.87862 93.36979Q220.00362 94.729164 220.00362 95.416664ZM231.48799 101.041664L230.11299 102.135414Q228.83174 102.135414 228.09737 102.010414Q226.76924 101.80729 226.01924 101.197914Q225.06612 100.416664 225.06612 98.99479Q225.06612 98.05729 225.42549 97.260414Q225.70674 96.61979 226.28487 95.979164Q226.55049 95.666664 227.28487 94.99479Q227.22237 94.760414 227.09737 94.65104Q226.97237 94.541664 226.83174 94.541664Q226.64424 94.541664 226.47237 94.77604L226.36299 94.77604Q226.50362 94.05729 226.65987 93.791664Q227.05049 93.135414 227.92549 93.135414Q228.50362 93.135414 228.92549 93.416664Q229.39424 93.74479 229.39424 94.24479Q229.39424 94.58854 229.14424 94.822914Q228.90987 95.010414 228.75362 95.135414Q229.12862 95.58854 229.47237 95.791664Q229.83174 95.979164 230.36299 95.979164L230.98799 95.979164L230.98799 97.166664L230.36299 97.166664Q229.31612 97.166664 228.73799 96.854164Q228.15987 96.541664 227.81612 95.80729Q227.31612 96.135414 226.90987 96.479164Q226.36299 96.93229 226.06612 97.385414Q225.67549 97.93229 225.67549 98.447914Q225.67549 99.604164 226.83174 100.24479Q227.72237 100.729164 229.26924 100.90104Q230.09737 100.979164 231.47237 100.979164L231.48799 101.041664ZM233.53487 89.58854L233.00362 90.58854L231.89424 89.99479L232.40987 88.99479L233.53487 89.58854ZM234.44112 97.166664L230.20674 97.166664L230.20674 95.979164L233.86299 95.979164Q233.86299 95.36979 233.70674 94.83854Q233.36299 94.947914 233.15987 94.99479Q232.84737 95.072914 232.61299 95.072914Q232.11299 95.072914 231.80049 94.822914Q231.44112 94.541664 231.44112 93.99479Q231.44112 93.041664 231.78487 92.33854Q232.15987 91.541664 232.76924 91.541664Q233.61299 91.541664 234.06612 92.854164Q234.44112 93.93229 234.44112 95.385414L234.44112 97.166664ZM233.31612 93.604164Q233.22237 93.36979 233.01924 93.104164Q232.72237 92.760414 232.47237 92.760414Q232.28487 92.760414 232.15987 92.916664Q232.05049 93.072914 232.05049 93.291664Q232.05049 93.83854 232.64424 93.83854Q232.80049 93.83854 232.97237 93.77604Q233.15987 93.71354 233.31612 93.604164ZM239.40987 97.166664L236.34737 97.166664Q235.95674 97.166664 235.64424 96.947914Q235.34737 96.71354 235.34737 96.40104Q235.34737 96.15104 235.36299 95.93229Q235.39424 95.71354 235.47237 95.46354L235.62862 95.46354Q235.70674 95.74479 235.89424 95.86979Q236.06612 95.979164 236.34737 95.979164L239.00362 95.979164Q239.00362 94.74479 238.65987 94.010414Q238.23799 93.072914 237.23799 92.760414L237.34737 91.447914Q238.51924 92.02604 239.01924 93.291664Q239.40987 94.322914 239.40987 95.979164L239.40987 97.166664Z" fill-rule="nonzero"/><path fill="#001723" d="M136.97237 119.11979Q135.94112 117.822914 135.23799 116.104164Q134.53487 114.385414 134.53487 112.541664Q134.53487 110.916664 135.06612 109.416664Q135.67549 107.68229 136.97237 105.979164L137.84737 105.979164Q137.01924 107.40104 136.75362 108.010414Q136.33174 108.947914 136.09737 109.979164Q135.80049 111.24479 135.80049 112.541664Q135.80049 115.83854 137.84737 119.11979L136.97237 119.11979ZM143.95674 116.166664L143.95674 114.760414L145.36299 114.760414L145.36299 116.166664L143.95674 116.166664ZM147.95674 116.166664L147.95674 114.760414L149.36299 114.760414L149.36299 116.166664L147.95674 116.166664ZM151.95674 116.166664L151.95674 114.760414L153.36299 114.760414L153.36299 116.166664L151.95674 116.166664ZM162.06612 113.322914Q162.06612 113.68229 161.78487 113.96354Q161.51924 114.24479 161.08174 114.24479Q160.55049 114.24479 160.20674 113.760414Q159.86299 113.260414 159.86299 112.541664Q159.86299 111.510414 160.45674 110.74479Q160.75362 110.36979 161.34737 109.96354L161.56612 110.33854Q161.15987 110.697914 160.95674 110.979164Q160.58174 111.46354 160.58174 111.83854Q160.58174 112.197914 161.31612 112.36979Q162.06612 112.52604 162.06612 113.322914ZM169.47237 107.96354L168.92549 108.947914L167.83174 108.354164L168.33174 107.36979L169.47237 107.96354ZM167.89424 108.572914L167.37862 109.55729L166.26924 108.99479L166.76924 107.99479L167.89424 108.572914ZM172.67549 114.166664L166.15987 114.166664Q164.84737 114.166664 164.06612 113.697914Q163.08174 113.135414 163.08174 111.90104Q163.08174 111.27604 163.37862 110.604164Q163.47237 110.36979 163.86299 109.697914L164.06612 109.822914Q163.92549 110.15104 163.78487 110.46354Q163.58174 110.947914 163.58174 111.322914Q163.58174 112.135414 164.42549 112.572914Q165.19112 112.979164 166.34737 112.979164L172.14424 112.979164L172.14424 112.791664Q172.14424 112.02604 171.95674 111.541664Q171.76924 111.05729 171.33174 110.71354L171.84737 109.604164Q172.15987 109.979164 172.20674 110.072914Q172.67549 110.83854 172.67549 112.30729L172.67549 114.166664ZM179.53487 114.166664Q179.53487 114.916664 178.89424 115.729164Q178.33174 116.43229 177.50362 116.947914Q176.70674 117.43229 176.19112 117.43229Q175.72237 117.43229 175.17549 117.30729Q174.75362 117.197914 174.17549 116.979164Q173.67549 116.791664 173.19112 116.604164L173.31612 116.33854Q173.76924 116.43229 174.25362 116.510414Q174.73799 116.604164 175.14424 116.604164Q176.01924 116.604164 176.95674 116.05729Q177.83174 115.541664 178.42549 114.760414Q179.03487 113.979164 179.03487 113.33854Q179.03487 112.80729 178.72237 112.21354Q178.47237 111.729164 178.01924 111.229164L178.40987 110.15104Q178.97237 110.666664 179.23799 111.18229Q179.53487 111.77604 179.53487 112.49479L179.53487 114.166664ZM182.90987 114.166664L181.94112 114.166664Q181.48799 114.166664 181.20674 113.791664Q180.95674 113.46354 180.83174 112.822914Q180.70674 112.166664 180.62862 111.21354Q180.59737 110.43229 180.55049 109.61979Q180.50362 108.80729 180.42549 108.385414Q180.36299 107.96354 180.23799 107.697914Q180.08174 107.36979 179.81612 107.135414L180.65987 105.80729Q180.92549 106.61979 181.03487 107.760414Q181.11299 108.479164 181.17549 111.135414Q181.30049 112.33854 181.53487 112.68229Q181.72237 112.979164 181.94112 112.979164L182.90987 112.979164L182.90987 114.166664ZM188.20674 114.166664L182.20674 114.166664L182.20674 112.979164L187.40987 112.979164Q186.94112 112.24479 186.31612 111.71354Q185.70674 111.18229 184.65987 110.55729L184.44112 110.760414L183.62862 110.15104Q183.20674 109.791664 183.20674 109.604164Q183.20674 108.416664 183.78487 107.74479Q184.31612 107.135414 185.61299 106.65104L187.55049 105.885414L187.55049 107.072914L186.11299 107.55729Q185.26924 107.83854 184.73799 108.072914Q184.06612 108.354164 184.06612 108.510414Q184.06612 108.666664 184.50362 108.99479Q184.76924 109.21354 185.05049 109.416664Q186.09737 110.197914 186.86299 111.05729Q187.70674 111.979164 188.20674 112.979164L188.20674 114.166664ZM196.06612 113.322914Q196.06612 113.68229 195.78487 113.96354Q195.51924 114.24479 195.08174 114.24479Q194.55049 114.24479 194.20674 113.760414Q193.86299 113.260414 193.86299 112.541664Q193.86299 111.510414 194.45674 110.74479Q194.75362 110.36979 195.34737 109.96354L195.56612 110.33854Q195.15987 110.697914 194.95674 110.979164Q194.58174 111.46354 194.58174 111.83854Q194.58174 112.197914 195.31612 112.36979Q196.06612 112.52604 196.06612 113.322914ZM200.20674 105.99479L199.67549 106.979164L198.56612 106.385414L199.08174 105.416664L200.20674 105.99479ZM198.64424 106.604164L198.11299 107.604164L197.01924 107.02604L197.51924 106.041664L198.64424 106.604164ZM201.94112 114.166664L200.95674 114.166664Q200.47237 114.166664 200.09737 113.322914Q199.81612 112.697914 199.64424 111.697914Q199.44112 112.08854 199.12862 112.30729Q198.81612 112.510414 198.45674 112.510414Q197.67549 112.510414 197.14424 112.40104Q196.62862 112.291664 196.62862 112.135414Q196.62862 111.541664 197.39424 110.83854Q198.15987 110.11979 199.31612 109.58854Q199.30049 109.52604 199.25362 109.291664Q199.20674 109.05729 199.20674 109.010414Q199.20674 108.77604 199.36299 108.49479Q199.48799 108.260414 199.70674 108.010414Q199.76924 108.43229 199.84737 108.83854Q199.92549 109.229164 200.01924 109.65104L200.22237 110.822914Q200.39424 111.791664 200.51924 112.260414Q200.73799 112.979164 200.95674 112.979164L201.94112 112.979164L201.94112 114.166664ZM199.55049 111.104164L199.42549 110.36979Q198.83174 110.572914 198.48799 110.80729Q198.14424 111.02604 197.90987 111.40104Q198.06612 111.46354 198.25362 111.510414Q198.44112 111.541664 198.76924 111.541664Q199.19112 111.541664 199.55049 111.104164ZM205.11299 114.166664L201.20674 114.166664L201.20674 112.979164L204.61299 112.979164Q204.61299 112.166664 204.42549 111.74479Q204.28487 111.447914 203.76924 110.90104L204.31612 109.77604Q204.80049 110.40104 204.92549 110.74479Q205.11299 111.27604 205.11299 112.49479L205.11299 114.166664ZM205.08174 115.52604L204.53487 116.510414L203.44112 115.93229L203.94112 114.947914L205.08174 115.52604ZM203.50362 116.15104L202.98799 117.135414L201.87862 116.55729L202.37862 115.572914L203.50362 116.15104ZM207.56612 107.83854L207.05049 108.83854L205.94112 108.260414L206.44112 107.260414L207.56612 107.83854ZM208.11299 114.166664L204.20674 114.166664L204.20674 112.979164L207.61299 112.979164Q207.61299 112.166664 207.42549 111.74479Q207.28487 111.447914 206.76924 110.90104L207.31612 109.77604Q207.80049 110.40104 207.92549 110.74479Q208.11299 111.27604 208.11299 112.49479L208.11299 114.166664ZM213.73799 113.760414Q213.73799 114.885414 212.90987 115.99479Q211.97237 117.24479 210.75362 117.24479Q210.31612 117.24479 209.83174 117.135414Q209.48799 117.05729 208.92549 116.885414Q208.47237 116.71354 208.03487 116.572914L208.14424 116.33854Q208.53487 116.416664 208.95674 116.510414Q209.37862 116.61979 209.70674 116.61979Q210.53487 116.61979 211.28487 116.197914Q211.86299 115.854164 212.45674 115.229164Q212.73799 114.90104 213.28487 114.18229Q212.36299 114.18229 211.90987 113.885414Q211.37862 113.541664 211.37862 112.77604Q211.37862 112.072914 211.70674 111.479164Q212.09737 110.77604 212.67549 110.77604Q213.26924 110.77604 213.53487 111.46354Q213.73799 112.010414 213.73799 112.979164L213.73799 113.760414ZM213.31612 113.010414Q213.15987 112.354164 212.94112 112.104164Q212.76924 111.885414 212.50362 111.885414Q212.30049 111.885414 212.15987 112.010414Q212.01924 112.135414 212.01924 112.322914Q212.01924 112.666664 212.31612 112.83854Q212.62862 113.010414 213.31612 113.010414ZM220.53487 114.166664Q220.53487 114.916664 219.89424 115.729164Q219.33174 116.43229 218.50362 116.947914Q217.70674 117.43229 217.19112 117.43229Q216.72237 117.43229 216.17549 117.30729Q215.75362 117.197914 215.17549 116.979164Q214.67549 116.791664 214.19112 116.604164L214.31612 116.33854Q214.76924 116.43229 215.25362 116.510414Q215.73799 116.604164 216.14424 116.604164Q217.01924 116.604164 217.95674 116.05729Q218.83174 115.541664 219.42549 114.760414Q220.03487 113.979164 220.03487 113.33854Q220.03487 112.80729 219.72237 112.21354Q219.47237 111.729164 219.01924 111.229164L219.40987 110.15104Q219.97237 110.666664 220.23799 111.18229Q220.53487 111.77604 220.53487 112.49479L220.53487 114.166664ZM224.08174 107.416664L223.53487 108.40104L222.44112 107.80729L222.94112 106.822914L224.08174 107.416664ZM222.50362 108.02604L221.98799 109.010414L220.87862 108.447914L221.37862 107.447914L222.50362 108.02604ZM224.11299 114.166664L220.20674 114.166664L220.20674 112.979164L223.61299 112.979164Q223.61299 112.166664 223.42549 111.74479Q223.28487 111.447914 222.76924 110.90104L223.31612 109.77604Q223.80049 110.40104 223.92549 110.74479Q224.11299 111.27604 224.11299 112.49479L224.11299 114.166664ZM229.20674 114.166664L223.20674 114.166664L223.20674 112.979164L228.40987 112.979164Q227.94112 112.24479 227.31612 111.71354Q226.70674 111.18229 225.65987 110.55729L225.44112 110.760414L224.62862 110.15104Q224.20674 109.791664 224.20674 109.604164Q224.20674 108.416664 224.78487 107.74479Q225.31612 107.135414 226.61299 106.65104L228.55049 105.885414L228.55049 107.072914L227.11299 107.55729Q226.26924 107.83854 225.73799 108.072914Q225.06612 108.354164 225.06612 108.510414Q225.06612 108.666664 225.50362 108.99479Q225.76924 109.21354 226.05049 109.416664Q227.09737 110.197914 227.86299 111.05729Q228.70674 111.979164 229.20674 112.979164L229.20674 114.166664ZM232.59737 114.166664L229.20674 114.166664L229.20674 112.979164L231.89424 112.979164L231.08174 107.18229L230.73799 107.010414Q230.73799 106.541664 230.81612 106.135414Q230.89424 105.71354 231.06612 105.322914L231.15987 105.385414Q231.15987 105.791664 231.61299 105.99479Q231.94112 106.11979 232.30049 106.260414Q232.30049 106.604164 232.23799 106.99479Q232.19112 107.385414 232.11299 107.572914L231.78487 107.46354L232.59737 112.822914L232.59737 114.166664ZM234.90987 116.541664Q234.90987 116.71354 234.70674 116.854164Q234.55049 116.93229 234.26924 117.041664L233.00362 117.479164Q233.00362 117.166664 233.67549 116.93229Q233.47237 116.822914 233.36299 116.71354Q233.22237 116.58854 233.22237 116.447914Q233.22237 116.229164 233.58174 115.83854Q233.98799 115.416664 234.28487 115.416664Q234.42549 115.416664 234.51924 115.510414Q234.62862 115.604164 234.62862 115.760414Q234.62862 115.854164 234.58174 115.96354Q234.55049 116.05729 234.47237 116.166664Q234.25362 115.979164 234.00362 115.979164Q233.86299 115.979164 233.70674 116.041664Q233.56612 116.104164 233.56612 116.18229Q233.56612 116.291664 233.87862 116.46354Q234.20674 116.65104 234.42549 116.65104Q234.58174 116.65104 234.64424 116.635414Q234.70674 116.61979 234.90987 116.541664ZM235.00362 112.416664Q235.00362 112.96354 234.80049 113.479164Q234.70674 113.760414 234.36299 114.354164L234.23799 114.27604Q234.25362 114.08854 234.26924 113.822914Q234.28487 113.55729 234.28487 113.479164Q234.28487 112.760414 234.17549 111.49479Q234.06612 110.21354 233.90987 108.822914Q233.81612 107.979164 233.69112 107.104164Q233.83174 106.80729 234.00362 106.46354Q234.17549 106.104164 234.33174 105.80729Q234.44112 106.58854 234.61299 107.947914Q234.78487 109.291664 234.87862 110.36979Q235.00362 111.729164 235.00362 112.416664Z" fill-rule="nonzero"/><path fill="#e76f51" d="M33.7 137.16667C33.7 140.48038 31.013708 143.16667 27.7 143.16667C24.386292 143.16667 21.7 140.48038 21.7 137.16667C21.7 133.85295 24.386292 131.16667 27.7 131.16667C31.013708 131.16667 33.7 133.85295 33.7 137.16667Z" fill-rule="nonzero"/><path fill="#001723" d="M153.83174 129.61784Q153.83174 129.93034 153.48799 130.22722Q152.86299 130.47722 151.50362 131.0241Q151.50362 130.74284 151.80049 130.4616Q152.36299 130.22722 153.83174 129.61784ZM153.83174 130.6491Q153.83174 130.97722 153.73799 131.05534Q153.64424 131.13347 153.48799 131.2741Q152.86299 131.5241 151.50362 132.07097Q151.50362 131.7741 151.80049 131.50847Q152.36299 131.25847 153.83174 130.6491ZM153.89424 133.77605L153.36299 134.76042L152.25362 134.1823L152.76924 133.19792L153.89424 133.77605ZM152.31612 134.40105L151.80049 135.38542L150.69112 134.8073L151.19112 133.82292L152.31612 134.40105ZM154.48799 138.15105Q154.48799 139.10417 154.17549 139.58855Q153.69112 140.35417 152.39424 140.35417Q151.89424 140.35417 151.56612 140.15105Q151.19112 139.91667 151.19112 139.51042Q151.19112 139.02605 151.44112 138.40105Q151.65987 137.8698 151.87862 137.32292L151.78487 137.29167L152.19112 136.15105Q153.42549 136.79167 153.67549 136.96355Q154.48799 137.54167 154.48799 138.15105ZM153.89424 138.6823Q153.89424 138.41667 153.14424 137.9948Q152.83174 137.8073 152.45674 137.6198Q152.14424 137.96355 152.08174 138.04167Q151.89424 138.3073 151.89424 138.5573Q151.89424 138.90105 152.08174 139.10417Q152.28487 139.29167 152.61299 139.29167Q152.98799 139.29167 153.44112 139.07292Q153.89424 138.85417 153.89424 138.6823ZM161.53487 140.16667Q161.53487 140.91667 160.89424 141.72917Q160.33174 142.4323 159.50362 142.94792Q158.70674 143.4323 158.19112 143.4323Q157.72237 143.4323 157.17549 143.3073Q156.75362 143.19792 156.17549 142.97917Q155.67549 142.79167 155.19112 142.60417L155.31612 142.33855Q155.76924 142.4323 156.25362 142.51042Q156.73799 142.60417 157.14424 142.60417Q158.01924 142.60417 158.95674 142.0573Q159.83174 141.54167 160.42549 140.76042Q161.03487 139.97917 161.03487 139.33855Q161.03487 138.8073 160.72237 138.21355Q160.47237 137.72917 160.01924 137.22917L160.40987 136.15105Q160.97237 136.66667 161.23799 137.1823Q161.53487 137.77605 161.53487 138.4948L161.53487 140.16667ZM167.15987 132.7448L166.64424 133.7448L165.55049 133.15105L166.05049 132.15105L167.15987 132.7448ZM168.51924 133.96355L167.98799 134.94792L166.87862 134.35417L167.37862 133.3698L168.51924 133.96355ZM166.94112 134.57292L166.42549 135.5573L165.31612 134.9948L165.81612 133.9948L166.94112 134.57292ZM169.12862 140.16667L168.59737 140.16667Q168.15987 140.16667 167.84737 140.04167Q167.53487 139.91667 167.26924 139.69792Q166.94112 139.96355 166.70674 140.04167Q166.36299 140.16667 165.75362 140.16667L165.30049 140.16667Q164.95674 140.16667 164.59737 140.02605Q164.36299 139.9323 164.01924 139.72917Q163.69112 139.97917 163.40987 140.07292Q163.14424 140.16667 162.53487 140.16667L161.20674 140.16667L161.20674 138.97917L162.53487 138.97917Q163.08174 138.97917 163.33174 138.88542Q163.72237 138.71355 163.72237 138.2448Q163.72237 138.0573 163.69112 137.85417Q163.67549 137.65105 163.62862 137.40105L163.90987 136.9948Q164.09737 137.6198 164.22237 137.91667Q164.44112 138.41667 164.70674 138.66667Q165.01924 138.97917 165.45674 138.97917L165.90987 138.97917Q166.42549 138.97917 166.67549 138.82292Q166.94112 138.63542 166.94112 138.2448Q166.94112 138.04167 166.90987 137.83855Q166.89424 137.63542 166.83174 137.40105L167.12862 136.9948L167.26924 137.63542Q167.45674 138.40105 167.72237 138.69792Q167.95674 138.94792 168.34737 138.94792Q168.53487 138.94792 168.64424 138.83855Q168.75362 138.72917 168.75362 138.5573Q168.75362 138.16667 168.47237 137.7448Q168.42549 137.6823 168.14424 137.29167L168.58174 136.5573Q168.86299 136.97917 168.97237 137.29167Q169.12862 137.7448 169.12862 138.52605L169.12862 140.16667ZM171.90987 140.16667L170.94112 140.16667Q170.48799 140.16667 170.20674 139.79167Q169.95674 139.46355 169.83174 138.82292Q169.70674 138.16667 169.62862 137.21355Q169.59737 136.4323 169.55049 135.6198Q169.50362 134.8073 169.42549 134.38542Q169.36299 133.96355 169.23799 133.69792Q169.08174 133.3698 168.81612 133.13542L169.65987 131.8073Q169.92549 132.6198 170.03487 133.76042Q170.11299 134.47917 170.17549 137.13542Q170.30049 138.33855 170.53487 138.6823Q170.72237 138.97917 170.94112 138.97917L171.90987 138.97917L171.90987 140.16667ZM175.11299 140.16667L171.20674 140.16667L171.20674 138.97917L174.61299 138.97917Q174.61299 138.16667 174.42549 137.7448Q174.28487 137.44792 173.76924 136.90105L174.31612 135.77605Q174.80049 136.40105 174.92549 136.7448Q175.11299 137.27605 175.11299 138.4948L175.11299 140.16667ZM174.40987 141.82292L173.87862 142.82292L172.76924 142.2448L173.28487 141.2448L174.40987 141.82292ZM180.20674 140.16667L179.50362 140.16667Q179.03487 140.16667 178.47237 139.96355Q177.80049 139.71355 177.30049 139.3073Q176.89424 139.79167 176.47237 139.97917Q176.06612 140.16667 175.28487 140.16667L174.20674 140.16667L174.20674 138.97917L175.25362 138.97917Q175.87862 138.97917 176.36299 138.66667Q176.73799 138.41667 177.05049 137.96355Q177.47237 137.3698 178.08174 136.91667Q178.62862 136.52605 179.08174 136.41667Q179.55049 137.13542 179.83174 137.71355Q180.20674 138.4948 180.20674 138.97917L180.20674 140.16667ZM179.42549 138.82292Q179.33174 138.41667 179.14424 138.04167Q178.98799 137.71355 178.73799 137.3698Q178.40987 137.46355 178.17549 137.6823Q178.03487 137.82292 177.81612 138.16667Q178.06612 138.4323 178.50362 138.65105Q178.95674 138.85417 179.36299 138.90105L179.42549 138.82292ZM190.59737 135.97917Q190.59737 136.72917 190.09737 137.15105Q189.61299 137.5573 188.70674 137.5573Q188.28487 137.5573 187.78487 137.4323Q187.47237 137.3698 186.87862 137.1823L186.98799 137.04167Q187.15987 137.04167 187.39424 137.0573Q187.92549 137.10417 188.06612 137.10417Q188.84737 137.10417 189.40987 136.88542Q189.97237 136.65105 189.97237 136.33855Q189.97237 136.19792 189.84737 136.08855Q189.73799 135.97917 189.58174 135.97917Q189.40987 135.97917 189.31612 135.9948L188.83174 136.02605Q188.65987 136.02605 188.53487 135.94792Q188.42549 135.85417 188.42549 135.63542Q188.42549 135.0573 189.01924 134.26042Q189.61299 133.46355 190.26924 133.2448L190.14424 134.13542Q189.67549 134.27605 189.42549 134.41667Q189.01924 134.66667 189.01924 134.9948Q189.01924 135.10417 189.12862 135.16667Q189.23799 135.21355 189.37862 135.21355Q189.50362 135.21355 189.59737 135.19792L189.95674 135.15105Q190.31612 135.15105 190.45674 135.33855Q190.59737 135.52605 190.59737 135.97917ZM193.11299 140.16667L188.06612 140.16667Q186.42549 140.16667 185.73799 139.77605Q185.00362 139.35417 185.00362 138.35417Q185.00362 137.7448 185.31612 136.97917Q185.40987 136.77605 185.69112 136.19792L185.92549 136.33855Q185.69112 136.8698 185.61299 137.16667Q185.55049 137.44792 185.55049 137.69792Q185.55049 138.44792 186.33174 138.7448Q186.92549 138.97917 188.06612 138.97917L192.40987 138.97917L191.56612 133.1823L191.20674 133.01042Q191.20674 132.54167 191.28487 132.13542Q191.36299 131.71355 191.53487 131.32292L191.64424 131.38542Q191.64424 131.79167 192.12862 131.9948L192.86299 132.26042Q192.86299 132.57292 192.78487 132.96355Q192.70674 133.35417 192.62862 133.57292L192.30049 133.46355L193.11299 138.82292L193.11299 140.16667ZM195.59737 140.16667L192.20674 140.16667L192.20674 138.97917L194.89424 138.97917L194.08174 133.1823L193.73799 133.01042Q193.73799 132.54167 193.81612 132.13542Q193.89424 131.71355 194.06612 131.32292L194.15987 131.38542Q194.15987 131.79167 194.61299 131.9948Q194.94112 132.1198 195.30049 132.26042Q195.30049 132.60417 195.23799 132.9948Q195.19112 133.38542 195.11299 133.57292L194.78487 133.46355L195.59737 138.82292L195.59737 140.16667ZM198.90987 140.16667L197.94112 140.16667Q197.48799 140.16667 197.20674 139.79167Q196.95674 139.46355 196.83174 138.82292Q196.70674 138.16667 196.62862 137.21355Q196.59737 136.4323 196.55049 135.6198Q196.50362 134.8073 196.42549 134.38542Q196.36299 133.96355 196.23799 133.69792Q196.08174 133.3698 195.81612 133.13542L196.65987 131.8073Q196.92549 132.6198 197.03487 133.76042Q197.11299 134.47917 197.17549 137.13542Q197.30049 138.33855 197.53487 138.6823Q197.72237 138.97917 197.94112 138.97917L198.90987 138.97917L198.90987 140.16667ZM204.20674 140.16667L203.50362 140.16667Q203.03487 140.16667 202.47237 139.96355Q201.80049 139.71355 201.30049 139.3073Q200.89424 139.79167 200.47237 139.97917Q200.06612 140.16667 199.28487 140.16667L198.20674 140.16667L198.20674 138.97917L199.25362 138.97917Q199.87862 138.97917 200.36299 138.66667Q200.73799 138.41667 201.05049 137.96355Q201.47237 137.3698 202.08174 136.91667Q202.62862 136.52605 203.08174 136.41667Q203.55049 137.13542 203.83174 137.71355Q204.20674 138.4948 204.20674 138.97917L204.20674 140.16667ZM203.42549 138.82292Q203.33174 138.41667 203.14424 138.04167Q202.98799 137.71355 202.73799 137.3698Q202.40987 137.46355 202.17549 137.6823Q202.03487 137.82292 201.81612 138.16667Q202.06612 138.4323 202.50362 138.65105Q202.95674 138.85417 203.36299 138.90105L203.42549 138.82292ZM207.59737 140.16667L204.20674 140.16667L204.20674 138.97917L206.89424 138.97917L206.08174 133.1823L205.73799 133.01042Q205.73799 132.54167 205.81612 132.13542Q205.89424 131.71355 206.06612 131.32292L206.15987 131.38542Q206.15987 131.79167 206.61299 131.9948Q206.94112 132.1198 207.30049 132.26042Q207.30049 132.60417 207.23799 132.9948Q207.19112 133.38542 207.11299 133.57292L206.78487 133.46355L207.59737 138.82292L207.59737 140.16667ZM210.59737 140.16667L207.20674 140.16667L207.20674 138.97917L209.89424 138.97917L209.08174 133.1823L208.73799 133.01042Q208.73799 132.54167 208.81612 132.13542Q208.89424 131.71355 209.06612 131.32292L209.15987 131.38542Q209.15987 131.79167 209.61299 131.9948Q209.94112 132.1198 210.30049 132.26042Q210.30049 132.60417 210.23799 132.9948Q210.19112 133.38542 210.11299 133.57292L209.78487 133.46355L210.59737 138.82292L210.59737 140.16667ZM224.30049 132.7448L223.76924 133.7448L222.67549 133.15105L223.19112 132.15105L224.30049 132.7448ZM225.64424 133.96355L225.11299 134.94792L224.00362 134.35417L224.51924 133.3698L225.64424 133.96355ZM224.08174 134.57292L223.55049 135.5573L222.45674 134.9948L222.95674 133.9948L224.08174 134.57292ZM226.19112 140.16667L225.64424 140.16667Q225.23799 140.16667 224.92549 140.0573Q224.61299 139.9323 224.30049 139.69792Q224.00362 139.94792 223.78487 140.04167Q223.45674 140.16667 222.84737 140.16667L222.00362 140.16667Q222.00362 140.79167 221.70674 141.38542Q221.31612 142.16667 220.51924 142.60417Q219.50362 143.1823 218.00362 143.1823Q216.62862 143.1823 215.90987 142.69792Q215.11299 142.16667 215.11299 141.08855Q215.11299 140.4948 215.25362 139.90105Q215.40987 139.29167 215.64424 138.6823Q215.80049 138.32292 216.17549 137.5573L216.44112 137.6823Q215.95674 138.66667 215.80049 139.22917Q215.65987 139.79167 215.65987 140.26042Q215.65987 141.1198 216.25362 141.5573Q216.86299 141.9948 217.98799 141.9948Q219.30049 141.9948 220.33174 141.54167Q221.61299 140.96355 221.61299 139.94792Q221.61299 139.26042 221.36299 138.65105Q221.15987 138.16667 220.80049 137.72917L221.36299 136.32292Q221.70674 136.88542 221.83174 137.3073Q222.00362 137.91667 222.00362 138.97917L222.84737 138.97917Q223.50362 138.97917 223.76924 138.77605Q224.00362 138.60417 224.00362 138.2448Q224.00362 138.0573 223.97237 137.85417Q223.95674 137.65105 223.90987 137.40105L224.19112 136.9948L224.30049 137.66667Q224.44112 138.33855 224.70674 138.6198Q224.97237 138.94792 225.48799 138.94792Q225.64424 138.94792 225.72237 138.85417Q225.81612 138.76042 225.81612 138.60417Q225.81612 138.26042 225.61299 137.8698Q225.45674 137.58855 225.19112 137.29167L225.64424 136.5573Q225.97237 137.07292 226.03487 137.27605Q226.19112 137.69792 226.19112 138.52605L226.19112 140.16667ZM229.90987 140.16667L228.94112 140.16667Q228.48799 140.16667 228.20674 139.79167Q227.95674 139.46355 227.83174 138.82292Q227.70674 138.16667 227.62862 137.21355Q227.59737 136.4323 227.55049 135.6198Q227.50362 134.8073 227.42549 134.38542Q227.36299 133.96355 227.23799 133.69792Q227.08174 133.3698 226.81612 133.13542L227.65987 131.8073Q227.92549 132.6198 228.03487 133.76042Q228.11299 134.47917 228.17549 137.13542Q228.30049 138.33855 228.53487 138.6823Q228.72237 138.97917 228.94112 138.97917L229.90987 138.97917L229.90987 140.16667ZM235.20674 140.16667L229.20674 140.16667L229.20674 138.97917L234.40987 138.97917Q233.94112 138.2448 233.31612 137.71355Q232.70674 137.1823 231.65987 136.5573L231.44112 136.76042L230.62862 136.15105Q230.20674 135.79167 230.20674 135.60417Q230.20674 134.41667 230.78487 133.7448Q231.31612 133.13542 232.61299 132.65105L234.55049 131.88542L234.55049 133.07292L233.11299 133.5573Q232.26924 133.83855 231.73799 134.07292Q231.06612 134.35417 231.06612 134.51042Q231.06612 134.66667 231.50362 134.9948Q231.76924 135.21355 232.05049 135.41667Q233.09737 136.19792 233.86299 137.0573Q234.70674 137.97917 235.20674 138.97917L235.20674 140.16667Z" fill-rule="nonzero"/><path fill="#001723" d="M459.83124 28.8875Q459.83124 29.496876 459.47186 29.95Q459.0656 30.48125 458.4406 30.48125Q457.95624 30.48125 457.6281 30.153126Q457.3156 29.825 457.3156 29.403126Q457.3156 28.73125 457.84686 28.403126Q458.39374 28.075 458.39374 27.85625Q458.39374 27.528126 458.08124 27.325Q457.76874 27.121876 457.2531 27.121876Q456.6281 27.121876 456.22186 27.48125Q455.8156 27.825 455.8156 28.340626Q455.8156 28.825 456.22186 29.559376Q456.84686 30.7 456.9875 31.028126Q457.39374 32.059376 457.39374 33.246876Q457.39374 33.8875 457.3 34.7L456.70624 34.684376Q456.70624 34.5125 456.70624 34.403126L456.7531 33.903126Q456.7531 33.35625 456.03436 32.715626Q454.8 31.621876 454.6906 31.48125Q453.95624 30.60625 453.95624 29.528126Q453.95624 28.215626 454.83124 27.340626Q455.70624 26.465626 457.01874 26.465626Q458.1906 26.465626 459.0031 27.1375Q459.83124 27.809376 459.83124 28.8875ZM458.05 36.746876Q458.05 37.246876 457.6906 37.60625Q457.33124 37.965626 456.83124 37.965626Q456.34686 37.965626 455.9875 37.60625Q455.64374 37.246876 455.64374 36.746876Q455.64374 36.246876 456.0031 35.8875Q456.3625 35.528126 456.8625 35.528126Q457.3625 35.528126 457.70624 35.903126Q458.05 36.2625 458.05 36.746876ZM474.95624 38.059376Q474.95624 38.653126 474.26874 39.6375Q473.58124 40.621876 472.675 41.340626Q471.65936 42.153126 470.925 42.153126Q470.0656 42.153126 469.08124 41.653126Q468.22186 41.23125 466.39374 39.98125L466.8156 39.371876Q467.6906 39.95 468.22186 40.16875Q468.76874 40.371876 469.39374 40.371876Q470.0656 40.371876 470.7375 39.996876Q471.40936 39.60625 472.5656 38.575Q474.1906 37.121876 474.1906 36.340626Q474.1906 35.95 473.8781 35.325Q473.53436 34.590626 473.01874 34.121876L473.5656 31.48125Q474.2375 32.16875 474.59686 33.059376Q474.95624 33.934376 474.95624 35.075L474.95624 38.059376ZM479.9875 37.840626L478.6281 37.840626Q477.47186 37.840626 476.97186 36.903126Q476.40936 35.871876 476.40936 33.41875L476.40936 30.6375Q476.40936 29.684376 476.14374 29.153126Q476.01874 28.903126 475.55 28.41875L476.6125 25.98125Q477.175 26.7625 477.39374 27.528126Q477.65936 28.41875 477.65936 29.79375L477.65936 31.715626Q477.65936 33.7625 477.9406 34.54375Q478.15936 35.184376 478.6281 35.184376L479.9875 35.184376L479.9875 37.840626ZM490.76874 37.840626L479.6125 37.840626L479.6125 35.184376L486.5656 35.184376Q485.3781 33.965626 484.3781 33.41875Q483.4875 32.95 482.6281 32.95Q482.3781 32.95 482.15936 32.98125Q481.95624 32.996876 481.5656 33.075Q482.09686 31.85625 482.7531 31.278126Q483.40936 30.684376 484.2531 30.684376Q484.89374 30.684376 485.4875 30.996876Q486.09686 31.309376 486.83124 31.996876Q487.425 32.54375 488.4875 33.7Q489.22186 34.528126 489.6125 34.778126Q490.0031 35.0125 490.76874 35.184376L490.76874 37.840626ZM487.15936 39.98125L485.925 42.184376L483.675 40.98125L484.8781 38.7625L487.15936 39.98125ZM495.7375 37.840626L489.6125 37.840626L489.6125 35.184376L494.7531 35.184376Q494.64374 34.5125 494.3625 34.059376Q494.22186 33.809376 493.675 33.184376L494.45624 30.85625Q495.1906 31.684376 495.45624 32.590626Q495.7375 33.496876 495.7375 35.29375L495.7375 37.840626ZM495.58124 39.559376L494.5031 41.54375L493.1125 40.7625L492.33124 42.309376L490.51874 41.309376L491.53436 39.41875L492.97186 40.1375L493.8 38.559376L495.58124 39.559376ZM504.72186 27.45Q504.72186 28.1375 504.58124 28.840626Q504.51874 29.121876 504.3 29.903126L503.59686 29.621876Q503.59686 30.778126 503.3156 31.91875Q503.05 33.059376 502.45624 34.16875Q502.9875 35.1375 503.08124 35.309376Q503.3156 35.7625 503.3156 36.121876L503.3156 36.41875Q503.3156 36.66875 503.15936 38.41875Q502.03436 38.934376 501.15936 39.090626Q500.28436 39.246876 498.5656 39.246876L498.5656 36.35625Q499.55 35.85625 499.97186 35.5125Q500.39374 35.16875 501.08124 34.309376Q499.97186 32.903126 499.45624 32.325Q499.05 31.85625 498.40936 31.246876Q498.2531 31.575 498.175 31.684376Q498.09686 31.778126 498.03436 31.778126Q497.8 31.778126 497.15936 31.371876Q496.58124 31.0125 496.26874 30.73125Q495.95624 30.45 495.78436 29.66875Q495.6281 28.8875 495.6281 27.684376Q495.6281 27.16875 495.6906 26.965626Q495.7531 26.746876 495.97186 26.746876Q496.34686 26.746876 497.5031 27.840626Q498.5031 28.778126 499.28436 29.715626Q499.89374 30.403126 500.39374 31.075Q500.84686 31.66875 501.8 33.121876Q502.2375 32.29375 502.40936 30.996876Q502.5031 30.215626 502.5031 29.1375Q502.15936 28.965626 502.03436 28.809376Q501.90936 28.653126 501.90936 28.371876Q501.90936 27.79375 502.03436 27.184376Q502.15936 26.575 502.45624 25.91875L502.8625 26.04375Q502.8625 26.66875 503.15936 26.8875Q503.39374 27.04375 504.72186 27.45ZM502.15936 35.95L501.6906 35.23125Q501.2531 35.715626 501.01874 35.91875Q500.8 36.10625 500.22186 36.5125Q500.97186 36.434376 501.28436 36.35625Q501.59686 36.2625 502.15936 35.95ZM501.83124 41.825Q501.7375 42.1375 501.59686 42.278126Q501.4875 42.3875 501.2531 42.465626L499.14374 43.10625Q499.34686 42.746876 499.4875 42.60625Q499.64374 42.48125 500.0031 42.35625Q499.72186 42.16875 499.59686 42.0125Q499.4875 41.871876 499.4875 41.73125Q499.4875 41.60625 499.5656 41.434376Q499.64374 41.278126 499.76874 41.121876Q500.39374 40.2625 501.01874 40.2625Q501.20624 40.2625 501.3156 40.3875Q501.4406 40.5125 501.4406 40.715626Q501.4406 40.871876 501.39374 40.98125Q501.34686 41.090626 501.20624 41.309376Q500.72186 41.075 500.55 41.075Q500.3625 41.075 500.1906 41.153126Q500.08124 41.215626 499.97186 41.309376Q499.97186 41.45 500.4406 41.7Q500.90936 41.965626 501.1281 41.965626Q501.2531 41.965626 501.83124 41.825ZM508.90936 34.996876Q508.90936 35.871876 508.70624 36.590626Q508.5031 37.29375 507.925 38.5125L507.33124 38.278126Q507.5656 37.028126 507.5656 36.246876Q507.5656 35.653126 507.47186 34.496876Q507.3781 33.340626 507.22186 32.215626Q507.08124 31.090626 506.7531 29.528126Q506.6281 28.98125 506.6281 28.778126Q506.6281 28.465626 506.925 27.746876Q507.2375 27.0125 507.78436 25.98125L508.3625 29.434376Q508.6906 31.41875 508.8156 32.85625Q508.90936 33.965626 508.90936 34.996876ZM525.6125 42.48125L522.01874 44.66875Q518.84686 44.66875 517.40936 43.465626Q515.9875 42.278126 515.9875 39.715626Q515.9875 37.95 516.65936 36.5125Q517.34686 35.075 518.8156 33.778126Q518.70624 33.059376 518.28436 33.059376Q518.1281 33.059376 518.05 33.153126Q517.925 33.29375 517.8156 33.41875L517.34686 33.309376Q517.34686 31.965626 517.95624 31.075Q518.64374 30.075 519.8781 30.075Q520.97186 30.075 521.675 30.684376Q522.39374 31.278126 522.39374 32.246876Q522.39374 32.825 522.09686 33.340626Q521.76874 33.903126 521.22186 34.16875Q521.70624 34.746876 522.40936 35.0125Q522.89374 35.184376 523.3156 35.184376L524.675 35.184376L524.675 37.840626L523.3156 37.840626Q521.90936 37.840626 521.0656 37.29375Q520.1281 36.684376 519.3781 35.1375Q518.28436 35.85625 517.6906 36.79375Q517.09686 37.715626 517.09686 38.684376Q517.09686 40.41875 518.6281 41.246876Q520.15936 42.090626 523.4406 42.090626Q523.95624 42.090626 524.51874 42.075Q525.08124 42.075 525.55 42.04375L525.6125 42.48125ZM528.97186 24.91875L527.8 27.10625L525.51874 25.91875L526.76874 23.7L528.97186 24.91875ZM530.39374 37.840626L523.6125 37.840626L523.6125 35.184376L529.47186 35.184376Q529.47186 34.325 529.425 33.965626Q529.34686 33.41875 529.1125 32.996876Q528.8 33.60625 528.26874 33.934376Q527.7375 34.246876 527.14374 34.246876Q526.3625 34.246876 525.8156 33.73125Q525.28436 33.215626 525.28436 32.434376Q525.28436 31.278126 525.9875 29.7Q526.76874 27.965626 527.55 27.965626Q528.58124 27.965626 529.4875 29.7625Q530.39374 31.54375 530.39374 33.528126L530.39374 37.840626ZM528.26874 31.2625Q528.01874 30.809376 527.8156 30.6375Q527.6125 30.45 527.3781 30.45Q527.08124 30.45 526.84686 30.715626Q526.6125 30.965626 526.6125 31.325Q526.6125 31.54375 526.78436 31.7Q526.97186 31.85625 527.2531 31.85625Q527.4875 31.85625 527.70624 31.73125Q527.9406 31.590626 528.26874 31.2625ZM537.15936 37.840626L532.7375 37.840626Q532.08124 37.840626 531.7531 37.559376Q531.33124 37.23125 531.33124 36.48125Q531.33124 36.04375 531.3625 35.559376Q531.40936 35.059376 531.5031 34.54375L531.8781 34.528126Q531.95624 34.871876 532.22186 35.028126Q532.4875 35.184376 532.8625 35.184376L536.22186 35.184376Q536.0031 33.746876 535.4406 32.8875Q534.9875 32.16875 534.175 31.653126L534.8781 28.60625Q536.14374 29.559376 536.675 31.04375Q537.15936 32.434376 537.15936 34.7L537.15936 37.840626ZM552.33124 37.590626Q552.33124 39.090626 550.76874 40.2625Q549.20624 41.41875 547.1906 41.41875Q545.53436 41.41875 544.58124 40.575Q543.64374 39.73125 543.64374 38.215626Q543.64374 36.809376 543.9875 35.746876Q544.39374 34.559376 545.55 32.825L546.15936 33.23125Q545.39374 34.3875 545.0656 35.23125Q544.7531 36.059376 544.7531 36.8875Q544.7531 37.778126 545.40936 38.2625Q546.08124 38.746876 547.26874 38.746876Q548.9875 38.746876 550.0656 38.090626Q551.14374 37.41875 551.14374 36.340626Q551.14374 36.153126 551.14374 36.059376Q551.14374 35.95 551.14374 35.8875Q551.14374 35.496876 551.08124 35.04375Q551.01874 34.590626 550.7531 33.153126Q550.33124 30.840626 549.90936 28.5125L549.425 28.153126Q549.425 27.2 550.3156 25.23125L550.76874 25.45Q550.7375 25.575 550.7375 25.7625Q550.7375 26.153126 551.1281 26.3875Q551.72186 26.73125 552.2531 27.028126Q552.14374 27.871876 552.03436 28.23125Q551.9406 28.590626 551.59686 29.309376L551.3 29.2Q551.3 29.340626 551.58124 30.85625Q551.8625 32.371876 552.05 33.48125Q552.33124 35.059376 552.33124 35.403126L552.33124 37.590626ZM562.8625 27.35625L561.6906 29.54375L559.40936 28.340626L560.59686 26.1375L562.8625 27.35625ZM567.7375 37.840626L557.39374 37.840626Q556.6906 37.840626 556.26874 37.496876Q555.8625 37.1375 555.5656 36.35625Q554.9406 37.23125 554.3781 37.54375Q553.8625 37.825 553.01874 37.825L551.6125 37.840626L551.6125 35.184376L553.01874 35.16875Q554.14374 35.16875 554.7375 34.60625Q555.40936 33.934376 555.6125 32.325L556.26874 32.41875Q556.2531 32.7625 556.2375 32.98125Q556.1906 33.621876 556.1906 34.0125Q556.1906 34.575 556.4875 34.8875Q556.78436 35.184376 557.26874 35.184376Q557.7375 35.184376 558.14374 34.996876Q558.55 34.79375 559.425 34.16875L562.90936 31.66875Q563.53436 31.23125 563.84686 31.04375Q564.55 30.621876 565.22186 30.621876Q566.3156 30.621876 566.97186 31.3875Q567.7375 32.29375 567.7375 34.090626L567.7375 37.840626ZM566.3625 34.184376Q566.3625 33.746876 565.675 33.465626Q565.09686 33.246876 564.3781 33.246876Q563.7375 33.246876 562.925 33.66875Q562.1281 34.075 560.59686 35.184376L563.14374 35.184376Q566.3625 35.184376 566.3625 34.184376ZM572.83124 26.325L571.65936 28.5125L569.3781 27.325L570.55 25.10625L572.83124 26.325ZM573.78436 37.840626L566.6125 37.840626L566.6125 35.184376L568.3781 35.184376Q568.83124 35.184376 569.22186 35.215626Q570.3 35.340626 571.675 35.48125Q570.22186 35.16875 569.64374 34.6375Q569.0656 34.090626 569.0656 33.075Q569.0656 31.575 569.7531 30.35625Q570.45624 29.1375 571.33124 29.1375Q572.3156 29.1375 573.05 30.840626Q573.78436 32.54375 573.78436 34.95L573.78436 37.840626ZM572.45624 33.778126Q572.1125 32.95 571.675 32.48125Q571.2531 32.0125 570.8156 32.0125Q570.6281 32.0125 570.47186 32.1375Q570.33124 32.2625 570.33124 32.434376Q570.33124 32.85625 570.95624 33.2625Q571.58124 33.653126 572.45624 33.778126ZM578.58124 27.403126L577.5031 29.3875L576.1125 28.60625L575.33124 30.153126L573.51874 29.153126L574.53436 27.2625L575.97186 27.98125L576.8 26.403126L578.58124 27.403126ZM578.7375 37.840626L572.6125 37.840626L572.6125 35.184376L577.7531 35.184376Q577.64374 34.5125 577.3625 34.059376Q577.22186 33.809376 576.675 33.184376L577.45624 30.85625Q578.1906 31.684376 578.45624 32.590626Q578.7375 33.496876 578.7375 35.29375L578.7375 37.840626ZM598.6906 26.325L597.51874 28.5125L595.2375 27.325L596.40936 25.10625L598.6906 26.325ZM599.45624 37.840626L598.14374 37.840626Q596.4406 37.840626 594.26874 37.91875Q592.95624 37.965626 590.8625 38.059376Q588.78436 38.153126 588.6281 38.153126Q586.55 38.153126 585.6125 37.434376Q584.7531 36.746876 584.7531 35.309376Q584.7531 34.2 584.97186 33.371876Q585.1906 32.528126 585.97186 30.684376L586.6125 30.965626Q585.90936 32.6375 585.90936 33.41875Q585.90936 34.41875 586.70624 34.85625Q587.58124 35.340626 589.7375 35.340626Q591.2375 35.2625 592.64374 35.2Q594.0656 35.1375 595.3625 35.1375Q594.97186 34.934376 594.8156 34.7Q594.65936 34.465626 594.65936 33.996876Q594.65936 32.60625 595.51874 31.215626Q596.425 29.715626 597.53436 29.715626Q598.5656 29.715626 599.03436 31.16875Q599.45624 32.48125 599.45624 35.184376L599.45624 37.840626ZM597.9406 33.934376Q597.59686 32.98125 597.3625 32.684376Q597.14374 32.371876 596.78436 32.371876Q596.59686 32.371876 596.45624 32.528126Q596.3156 32.66875 596.3156 32.8875Q596.3156 33.184376 596.7375 33.45Q597.15936 33.715626 597.9406 33.934376ZM604.7375 37.840626L598.6125 37.840626L598.6125 35.184376L603.7531 35.184376Q603.64374 34.5125 603.3625 34.059376Q603.22186 33.809376 602.675 33.184376L603.45624 30.85625Q604.1906 31.684376 604.45624 32.590626Q604.7375 33.496876 604.7375 35.29375L604.7375 37.840626ZM604.58124 39.559376L603.5031 41.54375L602.1125 40.7625L601.33124 42.309376L599.51874 41.309376L600.53436 39.41875L601.97186 40.1375L602.8 38.559376L604.58124 39.559376ZM611.5031 37.840626L603.6125 37.840626L603.6125 35.184376L609.95624 35.184376Q609.58124 34.715626 609.20624 34.3875Q608.925 34.10625 608.425 33.715626Q607.8625 33.29375 607.3156 32.85625L607.0031 33.215626Q606.14374 32.35625 605.97186 32.16875Q605.4875 31.60625 605.4875 30.8875Q605.4875 29.903126 605.6125 29.496876Q605.8156 28.934376 606.45624 28.496876Q607.01874 28.10625 607.65936 27.778126Q608.175 27.528126 609.0031 27.184376Q609.39374 27.028126 610.65936 26.54375L610.65936 28.85625Q610.6125 28.85625 609.83124 29.121876Q608.8781 29.434376 608.3156 29.66875Q607.4875 29.996876 607.4875 30.16875Q607.4875 30.246876 608.1906 30.91875Q609.1281 31.840626 609.78436 32.60625Q610.84686 33.85625 611.5031 35.10625L611.5031 37.840626Z" fill-rule="nonzero"/></svg>