<svg version="1.1" viewBox="0.0 0.0 600.0 371.0" fill="none" stroke="none" stroke-linecap="square" stroke-miterlimit="10" width="600" height="371" xmlns:xlink="http://www.w3.org/1999/xlink" xmlns="http://www.w3.org/2000/svg"><path fill="#ffffff" d="M0 0L600.0 0L600.0 371.0L0 371.0L0 0Z" fill-rule="nonzero"/><path fill="#669bbc" d="M285.42645 70.51255C306.7524 59.319824 330.47702 53.47223 354.56177 53.47223L354.56177 202.23889Z" fill-rule="nonzero"/><path fill="#e76f51" d="M214.42754 255.90918C187.7519 185.57133 217.78185 106.38888 284.39148 71.42946L353.5268 203.15579Z" fill-rule="nonzero"/><path fill="#003049" d="M356.1421 55.761757C431.36844 55.761757 494.75656 111.91873 503.8241 186.59659C512.8916 261.27444 464.7847 330.96936 391.7443 348.9722C318.7039 366.97504 243.71848 327.61966 217.04285 257.2818L356.1421 204.52843Z" fill-rule="nonzero"/><path fill="#ffffff" d="M431.22366 262.7858L430.0049 262.87955Q429.83304 262.14517 429.53616 261.81705Q429.03616 261.30142 428.3018 261.30142Q427.70804 261.30142 427.27054 261.62955Q426.6924 262.05142 426.34866 262.86392Q426.02054 263.67642 426.0049 265.17642Q426.4424 264.50455 427.08304 264.17642Q427.7393 263.8483 428.4424 263.8483Q429.6768 263.8483 430.53616 264.75455Q431.39554 265.6608 431.39554 267.0983Q431.39554 268.0358 430.9893 268.8483Q430.58304 269.6608 429.8643 270.0983Q429.16116 270.52017 428.2549 270.52017Q426.72366 270.52017 425.7549 269.39517Q424.78616 268.25455 424.78616 265.6608Q424.78616 262.75455 425.84866 261.42642Q426.78616 260.2858 428.3799 260.2858Q429.5674 260.2858 430.3174 260.95767Q431.0674 261.61392 431.22366 262.7858ZM426.1924 267.0983Q426.1924 267.73892 426.45804 268.31705Q426.7393 268.89517 427.22366 269.20767Q427.70804 269.50455 428.2393 269.50455Q429.02054 269.50455 429.58304 268.87955Q430.14554 268.25455 430.14554 267.17642Q430.14554 266.12955 429.58304 265.5358Q429.03616 264.92642 428.1924 264.92642Q427.3643 264.92642 426.77054 265.5358Q426.1924 266.12955 426.1924 267.0983ZM433.02054 268.0358L434.20804 267.92642Q434.34866 268.75455 434.77054 269.12955Q435.20804 269.50455 435.8643 269.50455Q436.4268 269.50455 436.84866 269.25455Q437.28616 268.98892 437.5518 268.55142Q437.83304 268.11392 438.02054 267.37955Q438.20804 266.64517 438.20804 265.87955Q438.20804 265.80142 438.1924 265.62955Q437.83304 266.2233 437.1924 266.5983Q436.5518 266.95767 435.8018 266.95767Q434.5518 266.95767 433.6924 266.05142Q432.83304 265.14517 432.83304 263.67642Q432.83304 262.14517 433.72366 261.2233Q434.6299 260.2858 435.9893 260.2858Q436.95804 260.2858 437.77054 260.81705Q438.58304 261.33267 439.0049 262.31705Q439.4268 263.2858 439.4268 265.12955Q439.4268 267.05142 439.0049 268.19205Q438.59866 269.33267 437.77054 269.92642Q436.9424 270.52017 435.83304 270.52017Q434.66116 270.52017 433.91116 269.86392Q433.1768 269.20767 433.02054 268.0358ZM438.0518 263.61392Q438.0518 262.55142 437.4893 261.92642Q436.9268 261.30142 436.14554 261.30142Q435.3174 261.30142 434.70804 261.9733Q434.09866 262.64517 434.09866 263.70767Q434.09866 264.6608 434.6768 265.27017Q435.2549 265.86392 436.09866 265.86392Q436.95804 265.86392 437.5049 265.27017Q438.0518 264.6608 438.0518 263.61392Z" fill-rule="nonzero"/><path fill="#ffffff" d="M443.47366 267.55142Q443.47366 268.12955 443.20804 268.62955Q443.0049 269.0358 442.59866 269.4108Q442.3643 269.64517 441.8643 270.02017L441.5674 269.64517Q442.0518 269.27017 442.20804 269.0983Q442.4893 268.7858 442.4893 268.52017Q442.14554 268.37955 441.89554 268.1608Q441.6143 267.92642 441.6143 267.50455Q441.6143 267.14517 441.8643 266.87955Q442.1299 266.61392 442.5049 266.61392Q442.8799 266.61392 443.1768 266.89517Q443.47366 267.1608 443.47366 267.55142Z" fill-rule="nonzero"/><path fill="#ffffff" d="M451.3018 269.1608L451.3018 270.3483L444.6768 270.3483Q444.66116 269.9108 444.8174 269.48892Q445.08304 268.81705 445.6299 268.1608Q446.1924 267.50455 447.2393 266.64517Q448.8799 265.30142 449.4424 264.52017Q450.02054 263.73892 450.02054 263.0358Q450.02054 262.30142 449.4893 261.80142Q448.97366 261.30142 448.14554 261.30142Q447.2549 261.30142 446.70804 261.83267Q446.1768 262.36392 446.1768 263.31705L444.91116 263.17642Q445.03616 261.77017 445.8799 261.0358Q446.7393 260.2858 448.16116 260.2858Q449.6143 260.2858 450.4424 261.08267Q451.28616 261.87955 451.28616 263.06705Q451.28616 263.67642 451.03616 264.25455Q450.8018 264.83267 450.22366 265.4733Q449.66116 266.11392 448.33304 267.23892Q447.22366 268.1608 446.91116 268.50455Q446.59866 268.83267 446.39554 269.1608L451.3018 269.1608ZM453.0674 262.73892Q453.0674 261.6608 453.59866 260.9108Q454.14554 260.1608 455.1768 260.1608Q456.1143 260.1608 456.72366 260.83267Q457.34866 261.50455 457.34866 262.80142Q457.34866 264.08267 456.72366 264.77017Q456.09866 265.45767 455.1924 265.45767Q454.28616 265.45767 453.6768 264.7858Q453.0674 264.0983 453.0674 262.73892ZM455.20804 261.00455Q454.7549 261.00455 454.4424 261.4108Q454.14554 261.80142 454.14554 262.8483Q454.14554 263.81705 454.4424 264.20767Q454.7549 264.5983 455.20804 264.5983Q455.6768 264.5983 455.97366 264.20767Q456.28616 263.81705 456.28616 262.75455Q456.28616 261.7858 455.97366 261.39517Q455.66116 261.00455 455.20804 261.00455ZM455.20804 270.7233L460.6924 260.1608L461.6924 260.1608L456.2393 270.7233L455.20804 270.7233ZM459.5518 267.98892Q459.5518 266.9108 460.08304 266.17642Q460.6299 265.42642 461.66116 265.42642Q462.59866 265.42642 463.22366 266.0983Q463.84866 266.77017 463.84866 268.06705Q463.84866 269.3483 463.22366 270.0358Q462.59866 270.7233 461.66116 270.7233Q460.7549 270.7233 460.14554 270.05142Q459.5518 269.36392 459.5518 267.98892ZM461.6924 266.27017Q461.22366 266.27017 460.9268 266.67642Q460.6299 267.06705 460.6299 268.11392Q460.6299 269.08267 460.9268 269.4733Q461.2393 269.86392 461.6924 269.86392Q462.16116 269.86392 462.45804 269.4733Q462.77054 269.08267 462.77054 268.02017Q462.77054 267.05142 462.45804 266.6608Q462.16116 266.27017 461.6924 266.27017Z" fill-rule="nonzero"/><path fill="#ffffff" d="M239.80661 168.7524L239.80661 169.9399L233.18161 169.9399Q233.16599 169.5024 233.32224 169.08052Q233.58786 168.40865 234.13474 167.7524Q234.69724 167.09615 235.74411 166.23677Q237.38474 164.89302 237.94724 164.11177Q238.52536 163.33052 238.52536 162.6274Q238.52536 161.89302 237.99411 161.39302Q237.47849 160.89302 236.65036 160.89302Q235.75974 160.89302 235.21286 161.42427Q234.68161 161.95552 234.68161 162.90865L233.41599 162.76802Q233.54099 161.36177 234.38474 160.6274Q235.24411 159.8774 236.66599 159.8774Q238.11911 159.8774 238.94724 160.67427Q239.79099 161.47115 239.79099 162.65865Q239.79099 163.26802 239.54099 163.84615Q239.30661 164.42427 238.72849 165.0649Q238.16599 165.70552 236.83786 166.83052Q235.72849 167.7524 235.41599 168.09615Q235.10349 168.42427 234.90036 168.7524L239.80661 168.7524ZM241.35349 167.29927L242.57224 167.1274Q242.79099 168.17427 243.29099 168.64302Q243.80661 169.09615 244.54099 169.09615Q245.41599 169.09615 246.00974 168.5024Q246.60349 167.89302 246.60349 167.0024Q246.60349 166.15865 246.04099 165.61177Q245.49411 165.0649 244.65036 165.0649Q244.29099 165.0649 243.77536 165.1899L243.91599 164.11177Q244.04099 164.1274 244.10349 164.1274Q244.90036 164.1274 245.52536 163.72115Q246.15036 163.3149 246.15036 162.45552Q246.15036 161.78365 245.69724 161.34615Q245.24411 160.89302 244.50974 160.89302Q243.79099 160.89302 243.30661 161.34615Q242.83786 161.78365 242.69724 162.6899L241.47849 162.47115Q241.69724 161.23677 242.49411 160.5649Q243.29099 159.8774 244.47849 159.8774Q245.30661 159.8774 245.99411 160.23677Q246.68161 160.58052 247.04099 161.1899Q247.41599 161.79927 247.41599 162.48677Q247.41599 163.1274 247.07224 163.65865Q246.72849 164.1899 246.04099 164.51802Q246.93161 164.72115 247.41599 165.36177Q247.91599 166.0024 247.91599 166.98677Q247.91599 168.29927 246.94724 169.20552Q245.99411 170.11177 244.54099 170.11177Q243.21286 170.11177 242.33786 169.33052Q241.47849 168.54927 241.35349 167.29927Z" fill-rule="nonzero"/><path fill="#ffffff" d="M251.97849 167.14302Q251.97849 167.72115 251.71286 168.22115Q251.50974 168.6274 251.10349 169.0024Q250.86911 169.23677 250.36911 169.61177L250.07224 169.23677Q250.55661 168.86177 250.71286 168.6899Q250.99411 168.3774 250.99411 168.11177Q250.65036 167.97115 250.40036 167.7524Q250.11911 167.51802 250.11911 167.09615Q250.11911 166.73677 250.36911 166.47115Q250.63474 166.20552 251.00974 166.20552Q251.38474 166.20552 251.68161 166.48677Q251.97849 166.7524 251.97849 167.14302Z" fill-rule="nonzero"/><path fill="#ffffff" d="M257.9785 169.9399L256.7441 169.9399L256.7441 162.09615Q256.3066 162.51802 255.57224 162.95552Q254.85349 163.3774 254.29099 163.58052L254.29099 162.39302Q255.32224 161.90865 256.08786 161.22115Q256.8691 160.53365 257.1816 159.8774L257.9785 159.8774L257.9785 169.9399ZM261.57224 162.33052Q261.57224 161.2524 262.1035 160.5024Q262.65036 159.7524 263.6816 159.7524Q264.6191 159.7524 265.2285 160.42427Q265.8535 161.09615 265.8535 162.39302Q265.8535 163.67427 265.2285 164.36177Q264.6035 165.04927 263.69724 165.04927Q262.791 165.04927 262.1816 164.3774Q261.57224 163.6899 261.57224 162.33052ZM263.71286 160.59615Q263.25974 160.59615 262.94724 161.0024Q262.65036 161.39302 262.65036 162.4399Q262.65036 163.40865 262.94724 163.79927Q263.25974 164.1899 263.71286 164.1899Q264.1816 164.1899 264.4785 163.79927Q264.791 163.40865 264.791 162.34615Q264.791 161.3774 264.4785 160.98677Q264.166 160.59615 263.71286 160.59615ZM263.71286 170.3149L269.19724 159.7524L270.19724 159.7524L264.7441 170.3149L263.71286 170.3149ZM268.0566 167.58052Q268.0566 166.5024 268.58786 165.76802Q269.13474 165.01802 270.166 165.01802Q271.1035 165.01802 271.7285 165.6899Q272.3535 166.36177 272.3535 167.65865Q272.3535 168.9399 271.7285 169.6274Q271.1035 170.3149 270.166 170.3149Q269.25974 170.3149 268.65036 169.64302Q268.0566 168.95552 268.0566 167.58052ZM270.19724 165.86177Q269.7285 165.86177 269.4316 166.26802Q269.13474 166.65865 269.13474 167.70552Q269.13474 168.67427 269.4316 169.0649Q269.7441 169.45552 270.19724 169.45552Q270.666 169.45552 270.96286 169.0649Q271.27536 168.67427 271.27536 167.61177Q271.27536 166.64302 270.96286 166.2524Q270.666 165.86177 270.19724 165.86177Z" fill-rule="nonzero"/><path fill="#ffffff" d="M311.18616 84.806046L311.18616 83.618546L317.68616 83.618546L317.68616 84.57167Q316.7174 85.587296 315.7799 87.274796Q314.8424 88.962296 314.32678 90.75917Q313.9674 92.00917 313.85803 93.50917L312.5924 93.50917Q312.60803 92.32167 313.04553 90.649796Q313.49866 88.97792 314.32678 87.431046Q315.17053 85.868546 316.10803 84.806046L311.18616 84.806046Z" fill-rule="nonzero"/><path fill="#ffffff" d="M321.74866 90.712296Q321.74866 91.29042 321.48303 91.79042Q321.2799 92.19667 320.87366 92.57167Q320.63928 92.806046 320.13928 93.181046L319.8424 92.806046Q320.32678 92.431046 320.48303 92.25917Q320.76428 91.94667 320.76428 91.681046Q320.42053 91.54042 320.17053 91.32167Q319.88928 91.087296 319.88928 90.66542Q319.88928 90.306046 320.13928 90.04042Q320.4049 89.774796 320.7799 89.774796Q321.1549 89.774796 321.45178 90.056046Q321.74866 90.32167 321.74866 90.712296Z" fill-rule="nonzero"/><path fill="#ffffff" d="M323.18616 84.806046L323.18616 83.618546L329.68616 83.618546L329.68616 84.57167Q328.7174 85.587296 327.7799 87.274796Q326.8424 88.962296 326.32678 90.75917Q325.9674 92.00917 325.85803 93.50917L324.5924 93.50917Q324.60803 92.32167 325.04553 90.649796Q325.49866 88.97792 326.32678 87.431046Q327.17053 85.868546 328.10803 84.806046L323.18616 84.806046ZM331.3424 85.899796Q331.3424 84.82167 331.87366 84.07167Q332.42053 83.32167 333.45178 83.32167Q334.38928 83.32167 334.99866 83.993546Q335.62366 84.66542 335.62366 85.962296Q335.62366 87.243546 334.99866 87.931046Q334.37366 88.618546 333.4674 88.618546Q332.56116 88.618546 331.95178 87.94667Q331.3424 87.25917 331.3424 85.899796ZM333.48303 84.16542Q333.0299 84.16542 332.7174 84.57167Q332.42053 84.962296 332.42053 86.00917Q332.42053 86.97792 332.7174 87.368546Q333.0299 87.75917 333.48303 87.75917Q333.95178 87.75917 334.24866 87.368546Q334.56116 86.97792 334.56116 85.91542Q334.56116 84.94667 334.24866 84.556046Q333.93616 84.16542 333.48303 84.16542ZM333.48303 93.88417L338.9674 83.32167L339.9674 83.32167L334.51428 93.88417L333.48303 93.88417ZM337.82678 91.149796Q337.82678 90.07167 338.35803 89.337296Q338.9049 88.587296 339.93616 88.587296Q340.87366 88.587296 341.49866 89.25917Q342.12366 89.931046 342.12366 91.22792Q342.12366 92.50917 341.49866 93.19667Q340.87366 93.88417 339.93616 93.88417Q339.0299 93.88417 338.42053 93.212296Q337.82678 92.524796 337.82678 91.149796ZM339.9674 89.431046Q339.49866 89.431046 339.20178 89.837296Q338.9049 90.22792 338.9049 91.274796Q338.9049 92.243546 339.20178 92.63417Q339.51428 93.024796 339.9674 93.024796Q340.43616 93.024796 340.73303 92.63417Q341.04553 92.243546 341.04553 91.181046Q341.04553 90.212296 340.73303 89.82167Q340.43616 89.431046 339.9674 89.431046Z" fill-rule="nonzero"/><path fill="#003049" d="M30.55 62.916668C30.55 66.23038 27.863708 68.916664 24.55 68.916664C21.236292 68.916664 18.55 66.23038 18.55 62.916668C18.55 59.60296 21.236292 56.916668 24.55 56.916668C27.863708 56.916668 30.55 59.60296 30.55 62.916668Z" fill-rule="nonzero"/><path fill="#1a1a1a" d="M45.39375 65.916664Q45.39375 66.666664 44.753124 67.479164Q44.190624 68.18229 43.3625 68.697914Q42.565624 69.18229 42.05 69.18229Q41.58125 69.18229 41.034374 69.05729Q40.6125 68.947914 40.034374 68.729164Q39.534374 68.541664 39.05 68.354164L39.175 68.08854Q39.628124 68.18229 40.1125 68.260414Q40.596874 68.354164 41.003124 68.354164Q41.878124 68.354164 42.815624 67.80729Q43.690624 67.291664 44.284374 66.510414Q44.89375 65.729164 44.89375 65.08854Q44.89375 64.55729 44.58125 63.96354Q44.33125 63.479164 43.878124 62.979164L44.26875 61.90104Q44.83125 62.416664 45.096874 62.93229Q45.39375 63.52604 45.39375 64.24479L45.39375 65.916664ZM47.58125 57.947914L47.065624 58.947914L45.971874 58.354164L46.471874 57.354164L47.58125 57.947914ZM48.940624 59.166664L48.39375 60.15104L47.3 59.55729L47.8 58.572914L48.940624 59.166664ZM47.3625 59.77604L46.846874 60.760414L45.7375 60.197914L46.2375 59.197914L47.3625 59.77604ZM48.971874 65.916664L45.065624 65.916664L45.065624 64.729164L48.471874 64.729164Q48.471874 63.916664 48.284374 63.49479Q48.14375 63.197914 47.628124 62.65104L48.175 61.52604Q48.659374 62.15104 48.784374 62.49479Q48.971874 63.02604 48.971874 64.24479L48.971874 65.916664ZM54.065624 65.916664L48.065624 65.916664L48.065624 64.729164L53.26875 64.729164Q52.8 63.99479 52.175 63.46354Q51.565624 62.93229 50.51875 62.30729L50.3 62.510414L49.4875 61.90104Q49.065624 61.541664 49.065624 61.354164Q49.065624 60.166664 49.64375 59.49479Q50.175 58.885414 51.471874 58.40104L53.409374 57.635414L53.409374 58.822914L51.971874 59.30729Q51.128124 59.58854 50.596874 59.822914Q49.925 60.104164 49.925 60.260414Q49.925 60.416664 50.3625 60.74479Q50.628124 60.96354 50.909374 61.166664Q51.95625 61.947914 52.721874 62.80729Q53.565624 63.729164 54.065624 64.729164L54.065624 65.916664ZM56.58125 56.71354Q56.58125 56.885414 56.3625 57.02604Q56.221874 57.11979 55.925 57.21354L54.659374 57.65104Q54.659374 57.33854 55.346874 57.104164Q55.128124 56.99479 55.01875 56.885414Q54.878124 56.760414 54.878124 56.61979Q54.878124 56.40104 55.2375 56.02604Q55.64375 55.604164 55.95625 55.604164Q56.08125 55.604164 56.175 55.697914Q56.284374 55.77604 56.284374 55.93229Q56.284374 56.02604 56.2375 56.135414Q56.20625 56.229164 56.128124 56.354164Q55.925 56.15104 55.675 56.15104Q55.51875 56.15104 55.3625 56.21354Q55.221874 56.27604 55.221874 56.36979Q55.221874 56.46354 55.534374 56.65104Q55.8625 56.822914 56.08125 56.822914Q56.2375 56.822914 56.3 56.822914Q56.3625 56.80729 56.58125 56.71354ZM57.76875 65.916664L56.8 65.916664Q56.346874 65.916664 56.065624 65.541664Q55.815624 65.21354 55.690624 64.572914Q55.565624 63.916664 55.4875 62.96354Q55.45625 62.18229 55.409374 61.36979Q55.3625 60.55729 55.284374 60.135414Q55.221874 59.71354 55.096874 59.447914Q54.940624 59.11979 54.675 58.885414L55.51875 57.55729Q55.784374 58.36979 55.89375 59.510414Q55.971874 60.229164 56.034374 62.885414Q56.159374 64.08854 56.39375 64.43229Q56.58125 64.729164 56.8 64.729164L57.76875 64.729164L57.76875 65.916664ZM60.39375 58.33854L59.8625 59.33854L58.753124 58.74479L59.26875 57.74479L60.39375 58.33854ZM61.3 65.916664L57.065624 65.916664L57.065624 64.729164L60.721874 64.729164Q60.721874 64.11979 60.565624 63.58854Q60.221874 63.697914 60.01875 63.74479Q59.70625 63.822914 59.471874 63.822914Q58.971874 63.822914 58.659374 63.572914Q58.3 63.291664 58.3 62.74479Q58.3 61.791664 58.64375 61.08854Q59.01875 60.291664 59.628124 60.291664Q60.471874 60.291664 60.925 61.604164Q61.3 62.68229 61.3 64.135414L61.3 65.916664ZM60.175 62.354164Q60.08125 62.11979 59.878124 61.854164Q59.58125 61.510414 59.33125 61.510414Q59.14375 61.510414 59.01875 61.666664Q58.909374 61.822914 58.909374 62.041664Q58.909374 62.58854 59.503124 62.58854Q59.659374 62.58854 59.83125 62.52604Q60.01875 62.46354 60.175 62.354164ZM69.06563 57.74479L68.53438 58.729164L67.425 58.135414L67.94063 57.166664L69.06563 57.74479ZM67.50313 58.354164L66.97188 59.354164L65.87813 58.77604L66.37813 57.791664L67.50313 58.354164ZM70.8 65.916664L69.81563 65.916664Q69.33125 65.916664 68.95625 65.072914Q68.675 64.447914 68.50313 63.447914Q68.3 63.83854 67.9875 64.05729Q67.675 64.260414 67.31563 64.260414Q66.53438 64.260414 66.00313 64.15104Q65.4875 64.041664 65.4875 63.885414Q65.4875 63.291664 66.25313 62.58854Q67.01875 61.86979 68.175 61.33854Q68.15938 61.27604 68.1125 61.041664Q68.06563 60.80729 68.06563 60.760414Q68.06563 60.52604 68.22188 60.24479Q68.34688 60.010414 68.56563 59.760414Q68.62813 60.18229 68.70625 60.58854Q68.78438 60.979164 68.87813 61.40104L69.08125 62.572914Q69.25313 63.541664 69.37813 64.010414Q69.59688 64.729164 69.81563 64.729164L70.8 64.729164L70.8 65.916664ZM68.40938 62.854164L68.28438 62.11979Q67.69063 62.322914 67.34688 62.55729Q67.00313 62.77604 66.76875 63.15104Q66.925 63.21354 67.1125 63.260414Q67.3 63.291664 67.62813 63.291664Q68.05 63.291664 68.40938 62.854164ZM76.06563 65.916664L75.06563 65.916664Q74.6125 65.916664 74.15938 65.697914Q73.6125 65.447914 73.3625 64.99479Q72.90938 65.40104 72.31563 65.635414Q71.59688 65.916664 70.69063 65.916664L70.06563 65.916664L70.06563 64.729164L70.69063 64.729164Q71.26875 64.729164 71.75313 64.604164Q72.31563 64.46354 72.84688 64.135414L72.56563 63.77604Q72.34688 63.510414 72.08125 63.510414Q71.95625 63.510414 71.84688 63.55729Q71.75313 63.604164 71.64375 63.760414L71.50313 63.760414L71.50313 63.354164Q71.50313 62.604164 71.89375 62.322914Q72.25313 62.05729 73.15938 62.05729Q73.925 62.05729 74.40938 62.27604Q75.05 62.541664 75.05 63.08854Q75.05 63.385414 74.8 63.697914Q74.6125 63.93229 74.1125 64.33854Q74.22188 64.510414 74.53438 64.61979Q74.84688 64.729164 75.06563 64.729164L76.06563 64.729164L76.06563 65.916664ZM79.97188 65.916664L76.06563 65.916664L76.06563 64.729164L79.47188 64.729164Q79.47188 63.916664 79.28438 63.49479Q79.14375 63.197914 78.62813 62.65104L79.175 61.52604Q79.65938 62.15104 79.78438 62.49479Q79.97188 63.02604 79.97188 64.24479L79.97188 65.916664ZM79.26875 67.572914L78.7375 68.572914L77.62813 67.99479L78.14375 66.99479L79.26875 67.572914ZM81.8625 64.166664Q81.8625 64.71354 81.65938 65.229164Q81.56563 65.510414 81.22188 66.104164L81.09688 66.02604Q81.1125 65.83854 81.12813 65.572914Q81.14375 65.30729 81.14375 65.229164Q81.14375 64.510414 81.03438 63.24479Q80.925 61.96354 80.76875 60.572914Q80.675 59.729164 80.55 58.854164Q80.69063 58.55729 80.8625 58.21354Q81.03438 57.854164 81.19063 57.55729Q81.3 58.33854 81.47188 59.697914Q81.64375 61.041664 81.7375 62.11979Q81.8625 63.479164 81.8625 64.166664ZM89.39375 65.916664Q89.39375 66.666664 88.75313 67.479164Q88.19063 68.18229 87.3625 68.697914Q86.56563 69.18229 86.05 69.18229Q85.58125 69.18229 85.03438 69.05729Q84.6125 68.947914 84.03438 68.729164Q83.53438 68.541664 83.05 68.354164L83.175 68.08854Q83.62813 68.18229 84.1125 68.260414Q84.59688 68.354164 85.00313 68.354164Q85.87813 68.354164 86.81563 67.80729Q87.69063 67.291664 88.28438 66.510414Q88.89375 65.729164 88.89375 65.08854Q88.89375 64.55729 88.58125 63.96354Q88.33125 63.479164 87.87813 62.979164L88.26875 61.90104Q88.83125 62.416664 89.09688 62.93229Q89.39375 63.52604 89.39375 64.24479L89.39375 65.916664ZM97.06563 57.74479L96.53438 58.729164L95.425 58.135414L95.94063 57.166664L97.06563 57.74479ZM95.50313 58.354164L94.97188 59.354164L93.87813 58.77604L94.37813 57.791664L95.50313 58.354164ZM98.8 65.916664L97.81563 65.916664Q97.33125 65.916664 96.95625 65.072914Q96.675 64.447914 96.50313 63.447914Q96.3 63.83854 95.9875 64.05729Q95.675 64.260414 95.31563 64.260414Q94.53438 64.260414 94.00313 64.15104Q93.4875 64.041664 93.4875 63.885414Q93.4875 63.291664 94.25313 62.58854Q95.01875 61.86979 96.175 61.33854Q96.15938 61.27604 96.1125 61.041664Q96.06563 60.80729 96.06563 60.760414Q96.06563 60.52604 96.22188 60.24479Q96.34688 60.010414 96.56563 59.760414Q96.62813 60.18229 96.70625 60.58854Q96.78438 60.979164 96.87813 61.40104L97.08125 62.572914Q97.25313 63.541664 97.37813 64.010414Q97.59688 64.729164 97.81563 64.729164L98.8 64.729164L98.8 65.916664ZM96.40938 62.854164L96.28438 62.11979Q95.69063 62.322914 95.34688 62.55729Q95.00313 62.77604 94.76875 63.15104Q94.925 63.21354 95.1125 63.260414Q95.3 63.291664 95.62813 63.291664Q96.05 63.291664 96.40938 62.854164ZM101.425 59.58854L100.90938 60.58854L99.8 60.010414L100.3 59.010414L101.425 59.58854ZM101.97188 65.916664L98.06563 65.916664L98.06563 64.729164L101.47188 64.729164Q101.47188 63.916664 101.28438 63.49479Q101.14375 63.197914 100.62813 62.65104L101.175 61.52604Q101.65938 62.15104 101.78438 62.49479Q101.97188 63.02604 101.97188 64.24479L101.97188 65.916664ZM108.9875 65.916664L108.45625 65.916664Q108.01875 65.916664 107.70625 65.791664Q107.39375 65.666664 107.12813 65.447914Q106.8 65.71354 106.56563 65.791664Q106.22188 65.916664 105.6125 65.916664L105.15938 65.916664Q104.81563 65.916664 104.45625 65.77604Q104.22188 65.68229 103.87813 65.479164Q103.55 65.729164 103.26875 65.822914Q103.00313 65.916664 102.39375 65.916664L101.06563 65.916664L101.06563 64.729164L102.39375 64.729164Q102.94063 64.729164 103.19063 64.635414Q103.58125 64.46354 103.58125 63.99479Q103.58125 63.80729 103.55 63.604164Q103.53438 63.40104 103.4875 63.15104L103.76875 62.74479Q103.95625 63.36979 104.08125 63.666664Q104.3 64.166664 104.56563 64.416664Q104.87813 64.729164 105.31563 64.729164L105.76875 64.729164Q106.28438 64.729164 106.53438 64.572914Q106.8 64.385414 106.8 63.99479Q106.8 63.791664 106.76875 63.58854Q106.75313 63.385414 106.69063 63.15104L106.9875 62.74479L107.12813 63.385414Q107.31563 64.15104 107.58125 64.447914Q107.81563 64.697914 108.20625 64.697914Q108.39375 64.697914 108.50313 64.58854Q108.6125 64.479164 108.6125 64.30729Q108.6125 63.916664 108.33125 63.49479Q108.28438 63.43229 108.00313 63.041664L108.44063 62.30729Q108.72188 62.729164 108.83125 63.041664Q108.9875 63.49479 108.9875 64.27604L108.9875 65.916664Z" fill-rule="nonzero"/><path fill="#e76f51" d="M30.55 88.916664C30.55 92.23038 27.863708 94.916664 24.55 94.916664C21.236292 94.916664 18.55 92.23038 18.55 88.916664C18.55 85.60296 21.236292 82.916664 24.55 82.916664C27.863708 82.916664 30.55 85.60296 30.55 88.916664Z" fill-rule="nonzero"/><path fill="#1a1a1a" d="M76.06563 83.74479L75.53438 84.729164L74.425 84.135414L74.94063 83.166664L76.06563 83.74479ZM74.50313 84.354164L73.97188 85.354164L72.87813 84.77604L73.37813 83.791664L74.50313 84.354164ZM77.8 91.916664L76.81563 91.916664Q76.33125 91.916664 75.95625 91.072914Q75.675 90.447914 75.50313 89.447914Q75.3 89.83854 74.9875 90.05729Q74.675 90.260414 74.31563 90.260414Q73.53438 90.260414 73.00313 90.15104Q72.4875 90.041664 72.4875 89.885414Q72.4875 89.291664 73.25313 88.58854Q74.01875 87.86979 75.175 87.33854Q75.15938 87.27604 75.1125 87.041664Q75.06563 86.80729 75.06563 86.760414Q75.06563 86.52604 75.22188 86.24479Q75.34688 86.010414 75.56563 85.760414Q75.62813 86.18229 75.70625 86.58854Q75.78438 86.979164 75.87813 87.40104L76.08125 88.572914Q76.25313 89.541664 76.37813 90.010414Q76.59688 90.729164 76.81563 90.729164L77.8 90.729164L77.8 91.916664ZM75.40938 88.854164L75.28438 88.11979Q74.69063 88.322914 74.34688 88.55729Q74.00313 88.77604 73.76875 89.15104Q73.925 89.21354 74.1125 89.260414Q74.3 89.291664 74.62813 89.291664Q75.05 89.291664 75.40938 88.854164ZM80.97188 91.916664L77.06563 91.916664L77.06563 90.729164L80.47188 90.729164Q80.47188 89.916664 80.28438 89.49479Q80.14375 89.197914 79.62813 88.65104L80.175 87.52604Q80.65938 88.15104 80.78438 88.49479Q80.97188 89.02604 80.97188 90.24479L80.97188 91.916664ZM80.94063 93.27604L80.39375 94.260414L79.3 93.68229L79.8 92.697914L80.94063 93.27604ZM79.3625 93.90104L78.84688 94.885414L77.7375 94.30729L78.2375 93.322914L79.3625 93.90104ZM83.425 85.58854L82.90938 86.58854L81.8 86.010414L82.3 85.010414L83.425 85.58854ZM83.97188 91.916664L80.06563 91.916664L80.06563 90.729164L83.47188 90.729164Q83.47188 89.916664 83.28438 89.49479Q83.14375 89.197914 82.62813 88.65104L83.175 87.52604Q83.65938 88.15104 83.78438 88.49479Q83.97188 89.02604 83.97188 90.24479L83.97188 91.916664ZM86.76875 91.916664L85.8 91.916664Q85.34688 91.916664 85.06563 91.541664Q84.81563 91.21354 84.69063 90.572914Q84.56563 89.916664 84.4875 88.96354Q84.45625 88.18229 84.40938 87.36979Q84.3625 86.55729 84.28438 86.135414Q84.22188 85.71354 84.09688 85.447914Q83.94063 85.11979 83.675 84.885414L84.51875 83.55729Q84.78438 84.36979 84.89375 85.510414Q84.97188 86.229164 85.03438 88.885414Q85.15938 90.08854 85.39375 90.43229Q85.58125 90.729164 85.8 90.729164L86.76875 90.729164L86.76875 91.916664ZM88.58125 83.947914L88.06563 84.947914L86.97188 84.354164L87.47188 83.354164L88.58125 83.947914ZM89.94063 85.166664L89.39375 86.15104L88.3 85.55729L88.8 84.572914L89.94063 85.166664ZM88.3625 85.77604L87.84688 86.760414L86.7375 86.197914L87.2375 85.197914L88.3625 85.77604ZM89.97188 91.916664L86.06563 91.916664L86.06563 90.729164L89.47188 90.729164Q89.47188 89.916664 89.28438 89.49479Q89.14375 89.197914 88.62813 88.65104L89.175 87.52604Q89.65938 88.15104 89.78438 88.49479Q89.97188 89.02604 89.97188 90.24479L89.97188 91.916664ZM97.06563 83.74479L96.53438 84.729164L95.425 84.135414L95.94063 83.166664L97.06563 83.74479ZM95.50313 84.354164L94.97188 85.354164L93.87813 84.77604L94.37813 83.791664L95.50313 84.354164ZM98.8 91.916664L97.81563 91.916664Q97.33125 91.916664 96.95625 91.072914Q96.675 90.447914 96.50313 89.447914Q96.3 89.83854 95.9875 90.05729Q95.675 90.260414 95.31563 90.260414Q94.53438 90.260414 94.00313 90.15104Q93.4875 90.041664 93.4875 89.885414Q93.4875 89.291664 94.25313 88.58854Q95.01875 87.86979 96.175 87.33854Q96.15938 87.27604 96.1125 87.041664Q96.06563 86.80729 96.06563 86.760414Q96.06563 86.52604 96.22188 86.24479Q96.34688 86.010414 96.56563 85.760414Q96.62813 86.18229 96.70625 86.58854Q96.78438 86.979164 96.87813 87.40104L97.08125 88.572914Q97.25313 89.541664 97.37813 90.010414Q97.59688 90.729164 97.81563 90.729164L98.8 90.729164L98.8 91.916664ZM96.40938 88.854164L96.28438 88.11979Q95.69063 88.322914 95.34688 88.55729Q95.00313 88.77604 94.76875 89.15104Q94.925 89.21354 95.1125 89.260414Q95.3 89.291664 95.62813 89.291664Q96.05 89.291664 96.40938 88.854164ZM101.425 85.58854L100.90938 86.58854L99.8 86.010414L100.3 85.010414L101.425 85.58854ZM101.97188 91.916664L98.06563 91.916664L98.06563 90.729164L101.47188 90.729164Q101.47188 89.916664 101.28438 89.49479Q101.14375 89.197914 100.62813 88.65104L101.175 87.52604Q101.65938 88.15104 101.78438 88.49479Q101.97188 89.02604 101.97188 90.24479L101.97188 91.916664ZM108.9875 91.916664L108.45625 91.916664Q108.01875 91.916664 107.70625 91.791664Q107.39375 91.666664 107.12813 91.447914Q106.8 91.71354 106.56563 91.791664Q106.22188 91.916664 105.6125 91.916664L105.15938 91.916664Q104.81563 91.916664 104.45625 91.77604Q104.22188 91.68229 103.87813 91.479164Q103.55 91.729164 103.26875 91.822914Q103.00313 91.916664 102.39375 91.916664L101.06563 91.916664L101.06563 90.729164L102.39375 90.729164Q102.94063 90.729164 103.19063 90.635414Q103.58125 90.46354 103.58125 89.99479Q103.58125 89.80729 103.55 89.604164Q103.53438 89.40104 103.4875 89.15104L103.76875 88.74479Q103.95625 89.36979 104.08125 89.666664Q104.3 90.166664 104.56563 90.416664Q104.87813 90.729164 105.31563 90.729164L105.76875 90.729164Q106.28438 90.729164 106.53438 90.572914Q106.8 90.385414 106.8 89.99479Q106.8 89.791664 106.76875 89.58854Q106.75313 89.385414 106.69063 89.15104L106.9875 88.74479L107.12813 89.385414Q107.31563 90.15104 107.58125 90.447914Q107.81563 90.697914 108.20625 90.697914Q108.39375 90.697914 108.50313 90.58854Q108.6125 90.479164 108.6125 90.30729Q108.6125 89.916664 108.33125 89.49479Q108.28438 89.43229 108.00313 89.041664L108.44063 88.30729Q108.72188 88.729164 108.83125 89.041664Q108.9875 89.49479 108.9875 90.27604L108.9875 91.916664Z" fill-rule="nonzero"/><path fill="#669bbc" d="M30.55 114.916664C30.55 118.23038 27.863708 120.916664 24.55 120.916664C21.236292 120.916664 18.55 118.23038 18.55 114.916664C18.55 111.60296 21.236292 108.916664 24.55 108.916664C27.863708 108.916664 30.55 111.60296 30.55 114.916664Z" fill-rule="nonzero"/><path fill="#1a1a1a" d="M76.06563 109.74479L75.53438 110.729164L74.425 110.135414L74.94063 109.166664L76.06563 109.74479ZM74.50313 110.354164L73.97188 111.354164L72.87813 110.77604L73.37813 109.791664L74.50313 110.354164ZM77.8 117.916664L76.81563 117.916664Q76.33125 117.916664 75.95625 117.072914Q75.675 116.447914 75.50313 115.447914Q75.3 115.83854 74.9875 116.05729Q74.675 116.260414 74.31563 116.260414Q73.53438 116.260414 73.00313 116.15104Q72.4875 116.041664 72.4875 115.885414Q72.4875 115.291664 73.25313 114.58854Q74.01875 113.86979 75.175 113.33854Q75.15938 113.27604 75.1125 113.041664Q75.06563 112.80729 75.06563 112.760414Q75.06563 112.52604 75.22188 112.24479Q75.34688 112.010414 75.56563 111.760414Q75.62813 112.18229 75.70625 112.58854Q75.78438 112.979164 75.87813 113.40104L76.08125 114.572914Q76.25313 115.541664 76.37813 116.010414Q76.59688 116.729164 76.81563 116.729164L77.8 116.729164L77.8 117.916664ZM75.40938 114.854164L75.28438 114.11979Q74.69063 114.322914 74.34688 114.55729Q74.00313 114.77604 73.76875 115.15104Q73.925 115.21354 74.1125 115.260414Q74.3 115.291664 74.62813 115.291664Q75.05 115.291664 75.40938 114.854164ZM79.58125 109.947914L79.06563 110.947914L77.97188 110.354164L78.47188 109.354164L79.58125 109.947914ZM80.94063 111.166664L80.39375 112.15104L79.3 111.55729L79.8 110.572914L80.94063 111.166664ZM79.3625 111.77604L78.84688 112.760414L77.7375 112.197914L78.2375 111.197914L79.3625 111.77604ZM80.97188 117.916664L77.06563 117.916664L77.06563 116.729164L80.47188 116.729164Q80.47188 115.916664 80.28438 115.49479Q80.14375 115.197914 79.62813 114.65104L80.175 113.52604Q80.65938 114.15104 80.78438 114.49479Q80.97188 115.02604 80.97188 116.24479L80.97188 117.916664ZM83.45625 117.916664L80.06563 117.916664L80.06563 116.729164L82.75313 116.729164L81.94063 110.93229L81.59688 110.760414Q81.59688 110.291664 81.675 109.885414Q81.75313 109.46354 81.925 109.072914L82.01875 109.135414Q82.01875 109.541664 82.47188 109.74479Q82.8 109.86979 83.15938 110.010414Q83.15938 110.354164 83.09688 110.74479Q83.05 111.135414 82.97188 111.322914L82.64375 111.21354L83.45625 116.572914L83.45625 117.916664ZM86.76875 117.916664L85.8 117.916664Q85.34688 117.916664 85.06563 117.541664Q84.81563 117.21354 84.69063 116.572914Q84.56563 115.916664 84.4875 114.96354Q84.45625 114.18229 84.40938 113.36979Q84.3625 112.55729 84.28438 112.135414Q84.22188 111.71354 84.09688 111.447914Q83.94063 111.11979 83.675 110.885414L84.51875 109.55729Q84.78438 110.36979 84.89375 111.510414Q84.97188 112.229164 85.03438 114.885414Q85.15938 116.08854 85.39375 116.43229Q85.58125 116.729164 85.8 116.729164L86.76875 116.729164L86.76875 117.916664ZM88.58125 109.947914L88.06563 110.947914L86.97188 110.354164L87.47188 109.354164L88.58125 109.947914ZM89.94063 111.166664L89.39375 112.15104L88.3 111.55729L88.8 110.572914L89.94063 111.166664ZM88.3625 111.77604L87.84688 112.760414L86.7375 112.197914L87.2375 111.197914L88.3625 111.77604ZM89.97188 117.916664L86.06563 117.916664L86.06563 116.729164L89.47188 116.729164Q89.47188 115.916664 89.28438 115.49479Q89.14375 115.197914 88.62813 114.65104L89.175 113.52604Q89.65938 114.15104 89.78438 114.49479Q89.97188 115.02604 89.97188 116.24479L89.97188 117.916664ZM97.06563 109.74479L96.53438 110.729164L95.425 110.135414L95.94063 109.166664L97.06563 109.74479ZM95.50313 110.354164L94.97188 111.354164L93.87813 110.77604L94.37813 109.791664L95.50313 110.354164ZM98.8 117.916664L97.81563 117.916664Q97.33125 117.916664 96.95625 117.072914Q96.675 116.447914 96.50313 115.447914Q96.3 115.83854 95.9875 116.05729Q95.675 116.260414 95.31563 116.260414Q94.53438 116.260414 94.00313 116.15104Q93.4875 116.041664 93.4875 115.885414Q93.4875 115.291664 94.25313 114.58854Q95.01875 113.86979 96.175 113.33854Q96.15938 113.27604 96.1125 113.041664Q96.06563 112.80729 96.06563 112.760414Q96.06563 112.52604 96.22188 112.24479Q96.34688 112.010414 96.56563 111.760414Q96.62813 112.18229 96.70625 112.58854Q96.78438 112.979164 96.87813 113.40104L97.08125 114.572914Q97.25313 115.541664 97.37813 116.010414Q97.59688 116.729164 97.81563 116.729164L98.8 116.729164L98.8 117.916664ZM96.40938 114.854164L96.28438 114.11979Q95.69063 114.322914 95.34688 114.55729Q95.00313 114.77604 94.76875 115.15104Q94.925 115.21354 95.1125 115.260414Q95.3 115.291664 95.62813 115.291664Q96.05 115.291664 96.40938 114.854164ZM101.425 111.58854L100.90938 112.58854L99.8 112.010414L100.3 111.010414L101.425 111.58854ZM101.97188 117.916664L98.06563 117.916664L98.06563 116.729164L101.47188 116.729164Q101.47188 115.916664 101.28438 115.49479Q101.14375 115.197914 100.62813 114.65104L101.175 113.52604Q101.65938 114.15104 101.78438 114.49479Q101.97188 115.02604 101.97188 116.24479L101.97188 117.916664ZM108.9875 117.916664L108.45625 117.916664Q108.01875 117.916664 107.70625 117.791664Q107.39375 117.666664 107.12813 117.447914Q106.8 117.71354 106.56563 117.791664Q106.22188 117.916664 105.6125 117.916664L105.15938 117.916664Q104.81563 117.916664 104.45625 117.77604Q104.22188 117.68229 103.87813 117.479164Q103.55 117.729164 103.26875 117.822914Q103.00313 117.916664 102.39375 117.916664L101.06563 117.916664L101.06563 116.729164L102.39375 116.729164Q102.94063 116.729164 103.19063 116.635414Q103.58125 116.46354 103.58125 115.99479Q103.58125 115.80729 103.55 115.604164Q103.53438 115.40104 103.4875 115.15104L103.76875 114.74479Q103.95625 115.36979 104.08125 115.666664Q104.3 116.166664 104.56563 116.416664Q104.87813 116.729164 105.31563 116.729164L105.76875 116.729164Q106.28438 116.729164 106.53438 116.572914Q106.8 116.385414 106.8 115.99479Q106.8 115.791664 106.76875 115.58854Q106.75313 115.385414 106.69063 115.15104L106.9875 114.74479L107.12813 115.385414Q107.31563 116.15104 107.58125 116.447914Q107.81563 116.697914 108.20625 116.697914Q108.39375 116.697914 108.50313 116.58854Q108.6125 116.479164 108.6125 116.30729Q108.6125 115.916664 108.33125 115.49479Q108.28438 115.43229 108.00313 115.041664L108.44063 114.30729Q108.72188 114.729164 108.83125 115.041664Q108.9875 115.49479 108.9875 116.27604L108.9875 117.916664Z" fill-rule="nonzero"/><path fill="#001723" d="M482.41876 29.925L482.41876 27.175L485.15314 27.175L485.15314 29.925L482.41876 29.925ZM482.41876 37.55L482.41876 34.8L485.15314 34.8L485.15314 37.55L482.41876 37.55ZM499.4969 21.003124L498.41876 22.815624L497.02814 22.034374L496.2469 23.58125L494.4344 22.58125L495.45 20.8625L496.90314 21.58125L497.7469 20.08125L499.4969 21.003124ZM501.7469 34.690624L500.46564 34.690624Q500.1219 34.690624 499.825 34.534374Q499.2625 34.253124 498.8719 33.503124Q498.34064 32.471874 498.1844 30.675Q497.52814 31.4875 497.15314 31.83125Q496.6219 32.33125 496.2469 32.33125Q496.075 32.33125 495.77814 32.26875L494.59064 32.034374Q493.825 31.878124 493.65314 31.815624Q493.48126 31.753124 493.48126 31.565624Q493.48126 31.315624 494.15314 29.909374Q494.84064 28.503124 495.1375 28.175Q495.3875 27.909374 496.0125 27.4875Q496.3875 27.2375 497.0594 26.83125L497.575 26.534374Q497.5594 26.39375 497.54376 26.253124Q497.52814 26.1125 497.52814 25.9875Q497.52814 25.6125 497.7 25.05Q497.8719 24.4875 498.3094 23.659374L499.2469 29.753124Q499.46564 31.190624 499.825 31.70625Q500.0594 32.034374 500.46564 32.034374L501.7469 32.034374L501.7469 34.690624ZM497.95 29.175L497.7625 28.003124Q497.45 28.14375 497.2625 28.2375Q496.73126 28.51875 496.40314 28.753124Q496.16876 28.95625 496.0125 29.128124Q495.825 29.33125 495.825 29.440624Q495.825 29.58125 496.16876 29.659374Q496.5125 29.7375 496.84064 29.7375Q497.0594 29.7375 497.29376 29.6125Q497.52814 29.4875 497.95 29.175ZM506.8875 34.690624L500.7625 34.690624L500.7625 32.034374L505.90314 32.034374Q505.79376 31.3625 505.5125 30.909374Q505.3719 30.659374 504.825 30.034374L505.60626 27.70625Q506.34064 28.534374 506.60626 29.440624Q506.8875 30.346874 506.8875 32.14375L506.8875 34.690624ZM506.73126 36.409374L505.65314 38.39375L504.2625 37.6125L503.48126 39.159374L501.66876 38.159374L502.6844 36.26875L504.1219 36.9875L504.95 35.409374L506.73126 36.409374ZM518.6219 34.690624Q517.52814 34.690624 516.79376 34.534374Q516.075 34.378124 515.3719 34.034374Q514.8094 34.440624 514.35626 34.565624Q513.91876 34.690624 513.02814 34.690624L511.4344 34.690624Q510.79376 34.690624 510.40314 34.346874Q510.02814 34.003124 509.71564 33.20625Q509.1844 34.034374 508.52814 34.378124Q507.95 34.690624 507.16876 34.690624L505.7625 34.690624L505.7625 32.034374L507.16876 32.034374Q508.1844 32.034374 508.8719 31.45625Q509.7625 30.70625 509.7625 29.175L510.40314 29.26875Q510.3875 29.58125 510.35626 29.9875Q510.34064 30.378124 510.34064 30.8625Q510.34064 31.3625 510.6844 31.70625Q511.02814 32.034374 511.46564 32.034374L512.66876 32.034374Q513.85626 32.034374 514.3719 31.70625Q514.98126 31.3 514.98126 30.20625Q514.98126 29.971874 515.1375 29.784374Q515.21564 29.675 515.4969 29.45625L515.8719 29.175Q515.8875 29.3625 515.8875 29.675Q515.90314 29.9875 515.90314 30.08125Q515.90314 30.628124 515.7469 31.51875Q516.10626 31.690624 516.5594 31.815624Q517.0125 31.940624 517.5125 32.01875Q517.5125 31.675 517.2625 31.159374Q517.0125 30.628124 517.0125 30.440624Q517.0125 30.190624 517.09064 30.05Q517.10626 30.003124 517.29376 29.753124L518.1375 28.628124Q518.3875 29.2375 518.4969 29.7375Q518.6219 30.2375 518.6219 31.003124L518.6219 34.690624ZM522.0594 31.846874Q522.0594 32.721874 521.85626 33.440624Q521.65314 34.14375 521.075 35.3625L520.48126 35.128124Q520.71564 33.878124 520.71564 33.096874Q520.71564 32.503124 520.6219 31.346874Q520.52814 30.190624 520.3719 29.065624Q520.23126 27.940624 519.90314 26.378124Q519.77814 25.83125 519.77814 25.628124Q519.77814 25.315624 520.075 24.596874Q520.3875 23.8625 520.9344 22.83125L521.5125 26.284374Q521.84064 28.26875 521.96564 29.70625Q522.0594 30.815624 522.0594 31.846874ZM531.10626 34.909374Q531.10626 35.503124 530.41876 36.4875Q529.73126 37.471874 528.825 38.190624Q527.8094 39.003124 527.075 39.003124Q526.21564 39.003124 525.23126 38.503124Q524.3719 38.08125 522.54376 36.83125L522.96564 36.221874Q523.84064 36.8 524.3719 37.01875Q524.91876 37.221874 525.54376 37.221874Q526.21564 37.221874 526.8875 36.846874Q527.5594 36.45625 528.71564 35.425Q530.34064 33.971874 530.34064 33.190624Q530.34064 32.8 530.02814 32.175Q529.6844 31.440624 529.16876 30.971874L529.71564 28.33125Q530.3875 29.01875 530.7469 29.909374Q531.10626 30.784374 531.10626 31.925L531.10626 34.909374ZM538.3094 34.690624L533.8875 34.690624Q533.23126 34.690624 532.90314 34.409374Q532.48126 34.08125 532.48126 33.33125Q532.48126 32.89375 532.5125 32.409374Q532.5594 31.909374 532.65314 31.39375L533.02814 31.378124Q533.10626 31.721874 533.3719 31.878124Q533.6375 32.034374 534.0125 32.034374L537.3719 32.034374Q537.15314 30.596874 536.59064 29.7375Q536.1375 29.01875 535.325 28.503124L536.02814 25.45625Q537.29376 26.409374 537.825 27.89375Q538.3094 29.284374 538.3094 31.55L538.3094 34.690624ZM543.1375 34.690624L537.7625 34.690624L537.7625 32.034374L541.96564 32.034374L540.77814 25.39375L540.15314 24.9875Q540.15314 24.409374 540.34064 23.83125Q540.5594 23.08125 541.09064 22.065624L541.54376 22.3Q541.54376 22.346874 541.5125 22.6125Q541.5125 22.925 541.91876 23.2375Q542.27814 23.503124 543.075 23.83125Q542.98126 24.45625 542.8094 25.065624Q542.6375 25.659374 542.41876 26.128124L542.075 25.9875L543.1375 32.034374L543.1375 34.690624ZM547.0594 31.846874Q547.0594 32.721874 546.85626 33.440624Q546.65314 34.14375 546.075 35.3625L545.48126 35.128124Q545.71564 33.878124 545.71564 33.096874Q545.71564 32.503124 545.6219 31.346874Q545.52814 30.190624 545.3719 29.065624Q545.23126 27.940624 544.90314 26.378124Q544.77814 25.83125 544.77814 25.628124Q544.77814 25.315624 545.075 24.596874Q545.3875 23.8625 545.9344 22.83125L546.5125 26.284374Q546.84064 28.26875 546.96564 29.70625Q547.0594 30.815624 547.0594 31.846874ZM559.4969 21.003124L558.41876 22.815624L557.02814 22.034374L556.2469 23.58125L554.4344 22.58125L555.45 20.8625L556.90314 21.58125L557.7469 20.08125L559.4969 21.003124ZM561.7469 34.690624L560.46564 34.690624Q560.1219 34.690624 559.825 34.534374Q559.2625 34.253124 558.8719 33.503124Q558.34064 32.471874 558.1844 30.675Q557.52814 31.4875 557.15314 31.83125Q556.6219 32.33125 556.2469 32.33125Q556.075 32.33125 555.77814 32.26875L554.59064 32.034374Q553.825 31.878124 553.65314 31.815624Q553.48126 31.753124 553.48126 31.565624Q553.48126 31.315624 554.15314 29.909374Q554.84064 28.503124 555.1375 28.175Q555.3875 27.909374 556.0125 27.4875Q556.3875 27.2375 557.0594 26.83125L557.575 26.534374Q557.5594 26.39375 557.54376 26.253124Q557.52814 26.1125 557.52814 25.9875Q557.52814 25.6125 557.7 25.05Q557.8719 24.4875 558.3094 23.659374L559.2469 29.753124Q559.46564 31.190624 559.825 31.70625Q560.0594 32.034374 560.46564 32.034374L561.7469 32.034374L561.7469 34.690624ZM557.95 29.175L557.7625 28.003124Q557.45 28.14375 557.2625 28.2375Q556.73126 28.51875 556.40314 28.753124Q556.16876 28.95625 556.0125 29.128124Q555.825 29.33125 555.825 29.440624Q555.825 29.58125 556.16876 29.659374Q556.5125 29.7375 556.84064 29.7375Q557.0594 29.7375 557.29376 29.6125Q557.52814 29.4875 557.95 29.175ZM566.9344 24.05L565.7625 26.2375L563.48126 25.05L564.66876 22.846874L566.9344 24.05ZM566.8875 34.690624L560.7625 34.690624L560.7625 32.034374L565.90314 32.034374Q565.79376 31.3625 565.5125 30.909374Q565.3719 30.659374 564.825 30.034374L565.60626 27.70625Q566.34064 28.534374 566.60626 29.440624Q566.8875 30.346874 566.8875 32.14375L566.8875 34.690624ZM578.6219 34.690624Q577.52814 34.690624 576.79376 34.534374Q576.075 34.378124 575.3719 34.034374Q574.8094 34.440624 574.35626 34.565624Q573.91876 34.690624 573.02814 34.690624L571.4344 34.690624Q570.79376 34.690624 570.40314 34.346874Q570.02814 34.003124 569.71564 33.20625Q569.1844 34.034374 568.52814 34.378124Q567.95 34.690624 567.16876 34.690624L565.7625 34.690624L565.7625 32.034374L567.16876 32.034374Q568.1844 32.034374 568.8719 31.45625Q569.7625 30.70625 569.7625 29.175L570.40314 29.26875Q570.3875 29.58125 570.35626 29.9875Q570.34064 30.378124 570.34064 30.8625Q570.34064 31.3625 570.6844 31.70625Q571.02814 32.034374 571.46564 32.034374L572.66876 32.034374Q573.85626 32.034374 574.3719 31.70625Q574.98126 31.3 574.98126 30.20625Q574.98126 29.971874 575.1375 29.784374Q575.21564 29.675 575.4969 29.45625L575.8719 29.175Q575.8875 29.3625 575.8875 29.675Q575.90314 29.9875 575.90314 30.08125Q575.90314 30.628124 575.7469 31.51875Q576.10626 31.690624 576.5594 31.815624Q577.0125 31.940624 577.5125 32.01875Q577.5125 31.675 577.2625 31.159374Q577.0125 30.628124 577.0125 30.440624Q577.0125 30.190624 577.09064 30.05Q577.10626 30.003124 577.29376 29.753124L578.1375 28.628124Q578.3875 29.2375 578.4969 29.7375Q578.6219 30.2375 578.6219 31.003124L578.6219 34.690624ZM583.1375 34.690624L577.7625 34.690624L577.7625 32.034374L581.96564 32.034374L580.77814 25.39375L580.15314 24.9875Q580.15314 24.409374 580.34064 23.83125Q580.5594 23.08125 581.09064 22.065624L581.54376 22.3Q581.54376 22.346874 581.5125 22.6125Q581.5125 22.925 581.91876 23.2375Q582.27814 23.503124 583.075 23.83125Q582.98126 24.45625 582.8094 25.065624Q582.6375 25.659374 582.41876 26.128124L582.075 25.9875L583.1375 32.034374L583.1375 34.690624ZM587.0594 31.846874Q587.0594 32.721874 586.85626 33.440624Q586.65314 34.14375 586.075 35.3625L585.48126 35.128124Q585.71564 33.878124 585.71564 33.096874Q585.71564 32.503124 585.6219 31.346874Q585.52814 30.190624 585.3719 29.065624Q585.23126 27.940624 584.90314 26.378124Q584.77814 25.83125 584.77814 25.628124Q584.77814 25.315624 585.075 24.596874Q585.3875 23.8625 585.9344 22.83125L586.5125 26.284374Q586.84064 28.26875 586.96564 29.70625Q587.0594 30.815624 587.0594 31.846874Z" fill-rule="nonzero"/></svg>