<svg version="1.1" viewBox="0.0 0.0 600.0 371.0" fill="none" stroke="none" stroke-linecap="square" stroke-miterlimit="10" width="600" height="371" xmlns:xlink="http://www.w3.org/1999/xlink" xmlns="http://www.w3.org/2000/svg"><path fill="#ffffff" d="M0 0L600.0 0L600.0 371.0L0 371.0L0 0Z" fill-rule="nonzero"/><path fill="#e76f51" d="M213.74928 184.63795C222.81682 109.960106 286.20493 53.80313 361.43127 53.80313L361.43127 202.5698Z" fill-rule="nonzero"/><path fill="#003049" d="M363.4043 56.0302C425.2144 56.0302 480.58536 94.25004 502.50354 152.04349C524.4217 209.83691 508.32034 275.16266 462.05484 316.15033C415.7893 357.138 348.99908 365.2478 294.26895 336.52322C239.53885 307.7986 208.27191 248.22446 215.72229 186.86502L363.4043 204.79688Z" fill-rule="nonzero"/><path fill="#ffffff" d="M415.7529 282.01767L415.7529 280.83017L422.2529 280.83017L422.2529 281.7833Q421.28415 282.79892 420.34665 284.48642Q419.40915 286.17392 418.89352 287.9708Q418.53415 289.2208 418.42477 290.7208L417.15915 290.7208Q417.17477 289.5333 417.61227 287.86142Q418.0654 286.18954 418.89352 284.64267Q419.73727 283.08017 420.67477 282.01767L415.7529 282.01767ZM430.0654 283.1583L428.84665 283.25204Q428.67477 282.51767 428.3779 282.18954Q427.8779 281.67392 427.14352 281.67392Q426.54977 281.67392 426.11227 282.00204Q425.53415 282.42392 425.1904 283.23642Q424.86227 284.04892 424.84665 285.54892Q425.28415 284.87704 425.92477 284.54892Q426.58102 284.2208 427.28415 284.2208Q428.51852 284.2208 429.3779 285.12704Q430.23727 286.0333 430.23727 287.4708Q430.23727 288.4083 429.83102 289.2208Q429.42477 290.0333 428.70602 290.4708Q428.0029 290.89267 427.09665 290.89267Q425.5654 290.89267 424.59665 289.76767Q423.6279 288.62704 423.6279 286.0333Q423.6279 283.12704 424.6904 281.79892Q425.6279 280.6583 427.22165 280.6583Q428.40915 280.6583 429.15915 281.33017Q429.90915 281.98642 430.0654 283.1583ZM425.03415 287.4708Q425.03415 288.11142 425.29977 288.68954Q425.58102 289.26767 426.0654 289.58017Q426.54977 289.87704 427.08102 289.87704Q427.86227 289.87704 428.42477 289.25204Q428.98727 288.62704 428.98727 287.54892Q428.98727 286.50204 428.42477 285.9083Q427.8779 285.29892 427.03415 285.29892Q426.20602 285.29892 425.61227 285.9083Q425.03415 286.50204 425.03415 287.4708Z" fill-rule="nonzero"/><path fill="#ffffff" d="M434.3154 287.92392Q434.3154 288.50204 434.04977 289.00204Q433.84665 289.4083 433.4404 289.7833Q433.20602 290.01767 432.70602 290.39267L432.40915 290.01767Q432.89352 289.64267 433.04977 289.4708Q433.33102 289.1583 433.33102 288.89267Q432.98727 288.75204 432.73727 288.5333Q432.45602 288.29892 432.45602 287.87704Q432.45602 287.51767 432.70602 287.25204Q432.97165 286.98642 433.34665 286.98642Q433.72165 286.98642 434.01852 287.26767Q434.3154 287.5333 434.3154 287.92392Z" fill-rule="nonzero"/><path fill="#ffffff" d="M435.86227 288.4083L437.04977 288.29892Q437.1904 289.12704 437.61227 289.50204Q438.04977 289.87704 438.70602 289.87704Q439.26852 289.87704 439.6904 289.62704Q440.1279 289.36142 440.39352 288.92392Q440.67477 288.48642 440.86227 287.75204Q441.04977 287.01767 441.04977 286.25204Q441.04977 286.17392 441.03415 286.00204Q440.67477 286.5958 440.03415 286.9708Q439.39352 287.33017 438.64352 287.33017Q437.39352 287.33017 436.53415 286.42392Q435.67477 285.51767 435.67477 284.04892Q435.67477 282.51767 436.5654 281.5958Q437.47165 280.6583 438.83102 280.6583Q439.79977 280.6583 440.61227 281.18954Q441.42477 281.70517 441.84665 282.68954Q442.26852 283.6583 442.26852 285.50204Q442.26852 287.42392 441.84665 288.56454Q441.4404 289.70517 440.61227 290.29892Q439.78415 290.89267 438.67477 290.89267Q437.5029 290.89267 436.7529 290.23642Q436.01852 289.58017 435.86227 288.4083ZM440.89352 283.98642Q440.89352 282.92392 440.33102 282.29892Q439.76852 281.67392 438.98727 281.67392Q438.15915 281.67392 437.54977 282.3458Q436.9404 283.01767 436.9404 284.08017Q436.9404 285.0333 437.51852 285.64267Q438.09665 286.23642 438.9404 286.23642Q439.79977 286.23642 440.34665 285.64267Q440.89352 285.0333 440.89352 283.98642ZM443.90915 283.11142Q443.90915 282.0333 444.4404 281.2833Q444.98727 280.5333 446.01852 280.5333Q446.95602 280.5333 447.5654 281.20517Q448.1904 281.87704 448.1904 283.17392Q448.1904 284.45517 447.5654 285.14267Q446.9404 285.83017 446.03415 285.83017Q445.1279 285.83017 444.51852 285.1583Q443.90915 284.4708 443.90915 283.11142ZM446.04977 281.37704Q445.59665 281.37704 445.28415 281.7833Q444.98727 282.17392 444.98727 283.2208Q444.98727 284.18954 445.28415 284.58017Q445.59665 284.9708 446.04977 284.9708Q446.51852 284.9708 446.8154 284.58017Q447.1279 284.18954 447.1279 283.12704Q447.1279 282.1583 446.8154 281.76767Q446.5029 281.37704 446.04977 281.37704ZM446.04977 291.0958L451.53415 280.5333L452.53415 280.5333L447.08102 291.0958L446.04977 291.0958ZM450.39352 288.36142Q450.39352 287.2833 450.92477 286.54892Q451.47165 285.79892 452.5029 285.79892Q453.4404 285.79892 454.0654 286.4708Q454.6904 287.14267 454.6904 288.43954Q454.6904 289.7208 454.0654 290.4083Q453.4404 291.0958 452.5029 291.0958Q451.59665 291.0958 450.98727 290.42392Q450.39352 289.73642 450.39352 288.36142ZM452.53415 286.64267Q452.0654 286.64267 451.76852 287.04892Q451.47165 287.43954 451.47165 288.48642Q451.47165 289.45517 451.76852 289.8458Q452.08102 290.23642 452.53415 290.23642Q453.0029 290.23642 453.29977 289.8458Q453.61227 289.45517 453.61227 288.39267Q453.61227 287.42392 453.29977 287.0333Q453.0029 286.64267 452.53415 286.64267Z" fill-rule="nonzero"/><path fill="#ffffff" d="M276.7858 125.45836L276.7858 126.64586L270.1608 126.64586Q270.14517 126.20836 270.30142 125.78648Q270.56705 125.11461 271.11392 124.45836Q271.67642 123.80211 272.7233 122.94273Q274.36392 121.59898 274.92642 120.81773Q275.50455 120.03648 275.50455 119.33336Q275.50455 118.59898 274.9733 118.09898Q274.45767 117.59898 273.62955 117.59898Q272.73892 117.59898 272.19205 118.13023Q271.6608 118.66148 271.6608 119.61461L270.39517 119.47398Q270.52017 118.06773 271.36392 117.33336Q272.2233 116.58336 273.64517 116.58336Q275.0983 116.58336 275.92642 117.38023Q276.77017 118.17711 276.77017 119.36461Q276.77017 119.97398 276.52017 120.55211Q276.2858 121.13023 275.70767 121.77086Q275.14517 122.41148 273.81705 123.53648Q272.70767 124.45836 272.39517 124.80211Q272.08267 125.13023 271.87955 125.45836L276.7858 125.45836ZM278.33267 124.00523L279.55142 123.83336Q279.77017 124.88023 280.27017 125.34898Q280.7858 125.80211 281.52017 125.80211Q282.39517 125.80211 282.98892 125.20836Q283.58267 124.59898 283.58267 123.70836Q283.58267 122.86461 283.02017 122.31773Q282.4733 121.77086 281.62955 121.77086Q281.27017 121.77086 280.75455 121.89586L280.89517 120.81773Q281.02017 120.83336 281.08267 120.83336Q281.87955 120.83336 282.50455 120.42711Q283.12955 120.02086 283.12955 119.16148Q283.12955 118.48961 282.67642 118.05211Q282.2233 117.59898 281.48892 117.59898Q280.77017 117.59898 280.2858 118.05211Q279.81705 118.48961 279.67642 119.39586L278.45767 119.17711Q278.67642 117.94273 279.4733 117.27086Q280.27017 116.58336 281.45767 116.58336Q282.2858 116.58336 282.9733 116.94273Q283.6608 117.28648 284.02017 117.89586Q284.39517 118.50523 284.39517 119.19273Q284.39517 119.83336 284.05142 120.36461Q283.70767 120.89586 283.02017 121.22398Q283.9108 121.42711 284.39517 122.06773Q284.89517 122.70836 284.89517 123.69273Q284.89517 125.00523 283.92642 125.91148Q282.9733 126.81773 281.52017 126.81773Q280.19205 126.81773 279.31705 126.03648Q278.45767 125.25523 278.33267 124.00523Z" fill-rule="nonzero"/><path fill="#ffffff" d="M288.95767 123.84898Q288.95767 124.42711 288.69205 124.92711Q288.48892 125.33336 288.08267 125.70836Q287.8483 125.94273 287.3483 126.31773L287.05142 125.94273Q287.5358 125.56773 287.69205 125.39586Q287.9733 125.08336 287.9733 124.81773Q287.62955 124.67711 287.37955 124.45836Q287.0983 124.22398 287.0983 123.80211Q287.0983 123.44273 287.3483 123.17711Q287.61392 122.91148 287.98892 122.91148Q288.36392 122.91148 288.6608 123.19273Q288.95767 123.45836 288.95767 123.84898Z" fill-rule="nonzero"/><path fill="#ffffff" d="M294.95767 126.64586L293.7233 126.64586L293.7233 118.80211Q293.2858 119.22398 292.55142 119.66148Q291.83267 120.08336 291.27017 120.28648L291.27017 119.09898Q292.30142 118.61461 293.06705 117.92711Q293.8483 117.23961 294.1608 116.58336L294.95767 116.58336L294.95767 126.64586ZM298.55142 119.03648Q298.55142 117.95836 299.08267 117.20836Q299.62955 116.45836 300.6608 116.45836Q301.5983 116.45836 302.20767 117.13023Q302.83267 117.80211 302.83267 119.09898Q302.83267 120.38023 302.20767 121.06773Q301.58267 121.75523 300.67642 121.75523Q299.77017 121.75523 299.1608 121.08336Q298.55142 120.39586 298.55142 119.03648ZM300.69205 117.30211Q300.23892 117.30211 299.92642 117.70836Q299.62955 118.09898 299.62955 119.14586Q299.62955 120.11461 299.92642 120.50523Q300.23892 120.89586 300.69205 120.89586Q301.1608 120.89586 301.45767 120.50523Q301.77017 120.11461 301.77017 119.05211Q301.77017 118.08336 301.45767 117.69273Q301.14517 117.30211 300.69205 117.30211ZM300.69205 127.02086L306.17642 116.45836L307.17642 116.45836L301.7233 127.02086L300.69205 127.02086ZM305.0358 124.28648Q305.0358 123.20836 305.56705 122.47398Q306.11392 121.72398 307.14517 121.72398Q308.08267 121.72398 308.70767 122.39586Q309.33267 123.06773 309.33267 124.36461Q309.33267 125.64586 308.70767 126.33336Q308.08267 127.02086 307.14517 127.02086Q306.23892 127.02086 305.62955 126.34898Q305.0358 125.66148 305.0358 124.28648ZM307.17642 122.56773Q306.70767 122.56773 306.4108 122.97398Q306.11392 123.36461 306.11392 124.41148Q306.11392 125.38023 306.4108 125.77086Q306.7233 126.16148 307.17642 126.16148Q307.64517 126.16148 307.94205 125.77086Q308.25455 125.38023 308.25455 124.31773Q308.25455 123.34898 307.94205 122.95836Q307.64517 122.56773 307.17642 122.56773Z" fill-rule="nonzero"/><path fill="#003049" d="M30.55 62.916668C30.55 66.23038 27.863708 68.916664 24.55 68.916664C21.236292 68.916664 18.55 66.23038 18.55 62.916668C18.55 59.60296 21.236292 56.916668 24.55 56.916668C27.863708 56.916668 30.55 59.60296 30.55 62.916668Z" fill-rule="nonzero"/><path fill="#1a1a1a" d="M63.065624 57.74479L62.534374 58.729164L61.425 58.135414L61.940624 57.166664L63.065624 57.74479ZM61.503124 58.354164L60.971874 59.354164L59.878124 58.77604L60.378124 57.791664L61.503124 58.354164ZM64.8 65.916664L63.815624 65.916664Q63.33125 65.916664 62.95625 65.072914Q62.675 64.447914 62.503124 63.447914Q62.3 63.83854 61.9875 64.05729Q61.675 64.260414 61.315624 64.260414Q60.534374 64.260414 60.003124 64.15104Q59.4875 64.041664 59.4875 63.885414Q59.4875 63.291664 60.253124 62.58854Q61.01875 61.86979 62.175 61.33854Q62.159374 61.27604 62.1125 61.041664Q62.065624 60.80729 62.065624 60.760414Q62.065624 60.52604 62.221874 60.24479Q62.346874 60.010414 62.565624 59.760414Q62.628124 60.18229 62.70625 60.58854Q62.784374 60.979164 62.878124 61.40104L63.08125 62.572914Q63.253124 63.541664 63.378124 64.010414Q63.596874 64.729164 63.815624 64.729164L64.8 64.729164L64.8 65.916664ZM62.409374 62.854164L62.284374 62.11979Q61.690624 62.322914 61.346874 62.55729Q61.003124 62.77604 60.76875 63.15104Q60.925 63.21354 61.1125 63.260414Q61.3 63.291664 61.628124 63.291664Q62.05 63.291664 62.409374 62.854164ZM67.97188 65.916664L64.06563 65.916664L64.06563 64.729164L67.47188 64.729164Q67.47188 63.916664 67.28438 63.49479Q67.14375 63.197914 66.62813 62.65104L67.175 61.52604Q67.65938 62.15104 67.78438 62.49479Q67.97188 63.02604 67.97188 64.24479L67.97188 65.916664ZM67.94063 67.27604L67.39375 68.260414L66.3 67.68229L66.8 66.697914L67.94063 67.27604ZM66.3625 67.90104L65.84688 68.885414L64.7375 68.30729L65.2375 67.322914L66.3625 67.90104ZM73.06563 65.916664L72.3625 65.916664Q71.89375 65.916664 71.33125 65.71354Q70.65938 65.46354 70.15938 65.05729Q69.75313 65.541664 69.33125 65.729164Q68.925 65.916664 68.14375 65.916664L67.06563 65.916664L67.06563 64.729164L68.1125 64.729164Q68.7375 64.729164 69.22188 64.416664Q69.59688 64.166664 69.90938 63.71354Q70.33125 63.11979 70.94063 62.666664Q71.4875 62.27604 71.94063 62.166664Q72.40938 62.885414 72.69063 63.46354Q73.06563 64.24479 73.06563 64.729164L73.06563 65.916664ZM72.28438 64.572914Q72.19063 64.166664 72.00313 63.791664Q71.84688 63.46354 71.59688 63.11979Q71.26875 63.21354 71.03438 63.43229Q70.89375 63.572914 70.675 63.916664Q70.925 64.18229 71.3625 64.40104Q71.81563 64.604164 72.22188 64.65104L72.28438 64.572914ZM79.59688 65.510414Q79.59688 66.635414 78.76875 67.74479Q77.83125 68.99479 76.6125 68.99479Q76.175 68.99479 75.69063 68.885414Q75.34688 68.80729 74.78438 68.635414Q74.33125 68.46354 73.89375 68.322914L74.00313 68.08854Q74.39375 68.166664 74.81563 68.260414Q75.2375 68.36979 75.56563 68.36979Q76.39375 68.36979 77.14375 67.947914Q77.72188 67.604164 78.31563 66.979164Q78.59688 66.65104 79.14375 65.93229Q78.22188 65.93229 77.76875 65.635414Q77.2375 65.291664 77.2375 64.52604Q77.2375 63.822914 77.56563 63.229164Q77.95625 62.52604 78.53438 62.52604Q79.12813 62.52604 79.39375 63.21354Q79.59688 63.760414 79.59688 64.729164L79.59688 65.510414ZM79.175 64.760414Q79.01875 64.104164 78.8 63.854164Q78.62813 63.635414 78.3625 63.635414Q78.15938 63.635414 78.01875 63.760414Q77.87813 63.885414 77.87813 64.072914Q77.87813 64.416664 78.175 64.58854Q78.4875 64.760414 79.175 64.760414ZM85.06563 65.916664L79.06563 65.916664L79.06563 64.729164L84.26875 64.729164Q83.8 63.99479 83.175 63.46354Q82.56563 62.93229 81.51875 62.30729L81.3 62.510414L80.4875 61.90104Q80.06563 61.541664 80.06563 61.354164Q80.06563 60.166664 80.64375 59.49479Q81.175 58.885414 82.47188 58.40104L84.40938 57.635414L84.40938 58.822914L82.97188 59.30729Q82.12813 59.58854 81.59688 59.822914Q80.925 60.104164 80.925 60.260414Q80.925 60.416664 81.3625 60.74479Q81.62813 60.96354 81.90938 61.166664Q82.95625 61.947914 83.72188 62.80729Q84.56563 63.729164 85.06563 64.729164L85.06563 65.916664ZM92.97188 65.916664L85.06563 65.916664L85.06563 64.729164L90.64375 64.729164Q89.94063 64.18229 89.47188 63.885414Q88.87813 63.510414 88.37813 63.33854Q87.83125 63.15104 87.25313 63.15104Q86.90938 63.15104 86.55 63.197914Q86.75313 62.68229 87.08125 62.385414Q87.53438 61.93229 88.25313 61.93229Q88.94063 61.93229 89.89375 62.61979Q90.3625 62.96354 91.44063 63.916664Q92.26875 64.666664 92.55 64.729164L92.97188 64.729164L92.97188 65.916664ZM100.06563 57.74479L99.53438 58.729164L98.425 58.135414L98.94063 57.166664L100.06563 57.74479ZM98.50313 58.354164L97.97188 59.354164L96.87813 58.77604L97.37813 57.791664L98.50313 58.354164ZM101.8 65.916664L100.81563 65.916664Q100.33125 65.916664 99.95625 65.072914Q99.675 64.447914 99.50313 63.447914Q99.3 63.83854 98.9875 64.05729Q98.675 64.260414 98.31563 64.260414Q97.53438 64.260414 97.00313 64.15104Q96.4875 64.041664 96.4875 63.885414Q96.4875 63.291664 97.25313 62.58854Q98.01875 61.86979 99.175 61.33854Q99.15938 61.27604 99.1125 61.041664Q99.06563 60.80729 99.06563 60.760414Q99.06563 60.52604 99.22188 60.24479Q99.34688 60.010414 99.56563 59.760414Q99.62813 60.18229 99.70625 60.58854Q99.78438 60.979164 99.87813 61.40104L100.08125 62.572914Q100.25313 63.541664 100.37813 64.010414Q100.59688 64.729164 100.81563 64.729164L101.8 64.729164L101.8 65.916664ZM99.40938 62.854164L99.28438 62.11979Q98.69063 62.322914 98.34688 62.55729Q98.00313 62.77604 97.76875 63.15104Q97.925 63.21354 98.1125 63.260414Q98.3 63.291664 98.62813 63.291664Q99.05 63.291664 99.40938 62.854164ZM107.06563 65.916664L106.06563 65.916664Q105.6125 65.916664 105.15938 65.697914Q104.6125 65.447914 104.3625 64.99479Q103.90938 65.40104 103.31563 65.635414Q102.59688 65.916664 101.69063 65.916664L101.06563 65.916664L101.06563 64.729164L101.69063 64.729164Q102.26875 64.729164 102.75313 64.604164Q103.31563 64.46354 103.84688 64.135414L103.56563 63.77604Q103.34688 63.510414 103.08125 63.510414Q102.95625 63.510414 102.84688 63.55729Q102.75313 63.604164 102.64375 63.760414L102.50313 63.760414L102.50313 63.354164Q102.50313 62.604164 102.89375 62.322914Q103.25313 62.05729 104.15938 62.05729Q104.925 62.05729 105.40938 62.27604Q106.05 62.541664 106.05 63.08854Q106.05 63.385414 105.8 63.697914Q105.6125 63.93229 105.1125 64.33854Q105.22188 64.510414 105.53438 64.61979Q105.84688 64.729164 106.06563 64.729164L107.06563 64.729164L107.06563 65.916664ZM113.06563 65.916664L112.3625 65.916664Q111.89375 65.916664 111.33125 65.71354Q110.65938 65.46354 110.15938 65.05729Q109.75313 65.541664 109.33125 65.729164Q108.925 65.916664 108.14375 65.916664L107.06563 65.916664L107.06563 64.729164L108.1125 64.729164Q108.7375 64.729164 109.22188 64.416664Q109.59688 64.166664 109.90938 63.71354Q110.33125 63.11979 110.94063 62.666664Q111.4875 62.27604 111.94063 62.166664Q112.40938 62.885414 112.69063 63.46354Q113.06563 64.24479 113.06563 64.729164L113.06563 65.916664ZM112.28438 64.572914Q112.19063 64.166664 112.00313 63.791664Q111.84688 63.46354 111.59688 63.11979Q111.26875 63.21354 111.03438 63.43229Q110.89375 63.572914 110.675 63.916664Q110.925 64.18229 111.3625 64.40104Q111.81563 64.604164 112.22188 64.65104L112.28438 64.572914ZM116.76875 65.916664L115.8 65.916664Q115.34688 65.916664 115.06563 65.541664Q114.81563 65.21354 114.69063 64.572914Q114.56563 63.916664 114.4875 62.96354Q114.45625 62.18229 114.40938 61.36979Q114.3625 60.55729 114.28438 60.135414Q114.22188 59.71354 114.09688 59.447914Q113.94063 59.11979 113.675 58.885414L114.51875 57.55729Q114.78438 58.36979 114.89375 59.510414Q114.97188 60.229164 115.03438 62.885414Q115.15938 64.08854 115.39375 64.43229Q115.58125 64.729164 115.8 64.729164L116.76875 64.729164L116.76875 65.916664ZM123.97188 65.916664L116.06563 65.916664L116.06563 64.729164L121.64375 64.729164Q120.94063 64.18229 120.47188 63.885414Q119.87813 63.510414 119.37813 63.33854Q118.83125 63.15104 118.25313 63.15104Q117.90938 63.15104 117.55 63.197914Q117.75313 62.68229 118.08125 62.385414Q118.53438 61.93229 119.25313 61.93229Q119.94063 61.93229 120.89375 62.61979Q121.3625 62.96354 122.44063 63.916664Q123.26875 64.666664 123.55 64.729164L123.97188 64.729164L123.97188 65.916664ZM120.4875 67.40104L119.97188 68.385414L118.8625 67.80729L119.39375 66.80729L120.4875 67.40104Z" fill-rule="nonzero"/><path fill="#e76f51" d="M30.55 88.916664C30.55 92.23038 27.863708 94.916664 24.55 94.916664C21.236292 94.916664 18.55 92.23038 18.55 88.916664C18.55 85.60296 21.236292 82.916664 24.55 82.916664C27.863708 82.916664 30.55 85.60296 30.55 88.916664Z" fill-rule="nonzero"/><path fill="#1a1a1a" d="M42.065624 83.74479L41.534374 84.729164L40.425 84.135414L40.940624 83.166664L42.065624 83.74479ZM40.503124 84.354164L39.971874 85.354164L38.878124 84.77604L39.378124 83.791664L40.503124 84.354164ZM43.8 91.916664L42.815624 91.916664Q42.33125 91.916664 41.95625 91.072914Q41.675 90.447914 41.503124 89.447914Q41.3 89.83854 40.9875 90.05729Q40.675 90.260414 40.315624 90.260414Q39.534374 90.260414 39.003124 90.15104Q38.4875 90.041664 38.4875 89.885414Q38.4875 89.291664 39.253124 88.58854Q40.01875 87.86979 41.175 87.33854Q41.159374 87.27604 41.1125 87.041664Q41.065624 86.80729 41.065624 86.760414Q41.065624 86.52604 41.221874 86.24479Q41.346874 86.010414 41.565624 85.760414Q41.628124 86.18229 41.70625 86.58854Q41.784374 86.979164 41.878124 87.40104L42.08125 88.572914Q42.253124 89.541664 42.378124 90.010414Q42.596874 90.729164 42.815624 90.729164L43.8 90.729164L43.8 91.916664ZM41.409374 88.854164L41.284374 88.11979Q40.690624 88.322914 40.346874 88.55729Q40.003124 88.77604 39.76875 89.15104Q39.925 89.21354 40.1125 89.260414Q40.3 89.291664 40.628124 89.291664Q41.05 89.291664 41.409374 88.854164ZM46.971874 91.916664L43.065624 91.916664L43.065624 90.729164L46.471874 90.729164Q46.471874 89.916664 46.284374 89.49479Q46.14375 89.197914 45.628124 88.65104L46.175 87.52604Q46.659374 88.15104 46.784374 88.49479Q46.971874 89.02604 46.971874 90.24479L46.971874 91.916664ZM46.940624 93.27604L46.39375 94.260414L45.3 93.68229L45.8 92.697914L46.940624 93.27604ZM45.3625 93.90104L44.846874 94.885414L43.7375 94.30729L44.2375 93.322914L45.3625 93.90104ZM49.45625 91.916664L46.065624 91.916664L46.065624 90.729164L48.753124 90.729164L47.940624 84.93229L47.596874 84.760414Q47.596874 84.291664 47.675 83.885414Q47.753124 83.46354 47.925 83.072914L48.01875 83.135414Q48.01875 83.541664 48.471874 83.74479Q48.8 83.86979 49.159374 84.010414Q49.159374 84.354164 49.096874 84.74479Q49.05 85.135414 48.971874 85.322914L48.64375 85.21354L49.45625 90.572914L49.45625 91.916664ZM55.596874 91.510414Q55.596874 92.635414 54.76875 93.74479Q53.83125 94.99479 52.6125 94.99479Q52.175 94.99479 51.690624 94.885414Q51.346874 94.80729 50.784374 94.635414Q50.33125 94.46354 49.89375 94.322914L50.003124 94.08854Q50.39375 94.166664 50.815624 94.260414Q51.2375 94.36979 51.565624 94.36979Q52.39375 94.36979 53.14375 93.947914Q53.721874 93.604164 54.315624 92.979164Q54.596874 92.65104 55.14375 91.93229Q54.221874 91.93229 53.76875 91.635414Q53.2375 91.291664 53.2375 90.52604Q53.2375 89.822914 53.565624 89.229164Q53.95625 88.52604 54.534374 88.52604Q55.128124 88.52604 55.39375 89.21354Q55.596874 89.760414 55.596874 90.729164L55.596874 91.510414ZM55.175 90.760414Q55.01875 90.104164 54.8 89.854164Q54.628124 89.635414 54.3625 89.635414Q54.159374 89.635414 54.01875 89.760414Q53.878124 89.885414 53.878124 90.072914Q53.878124 90.416664 54.175 90.58854Q54.4875 90.760414 55.175 90.760414ZM60.26875 91.916664L57.20625 91.916664Q56.815624 91.916664 56.503124 91.697914Q56.20625 91.46354 56.20625 91.15104Q56.20625 90.90104 56.221874 90.68229Q56.253124 90.46354 56.33125 90.21354L56.4875 90.21354Q56.565624 90.49479 56.753124 90.61979Q56.925 90.729164 57.20625 90.729164L59.8625 90.729164Q59.8625 89.49479 59.51875 88.760414Q59.096874 87.822914 58.096874 87.510414L58.20625 86.197914Q59.378124 86.77604 59.878124 88.041664Q60.26875 89.072914 60.26875 90.729164L60.26875 91.916664ZM64.55 94.08854L67.45625 83.729164L68.44063 83.729164L65.53438 94.08854L64.55 94.08854ZM76.06563 83.74479L75.53438 84.729164L74.425 84.135414L74.94063 83.166664L76.06563 83.74479ZM74.50313 84.354164L73.97188 85.354164L72.87813 84.77604L73.37813 83.791664L74.50313 84.354164ZM77.8 91.916664L76.81563 91.916664Q76.33125 91.916664 75.95625 91.072914Q75.675 90.447914 75.50313 89.447914Q75.3 89.83854 74.9875 90.05729Q74.675 90.260414 74.31563 90.260414Q73.53438 90.260414 73.00313 90.15104Q72.4875 90.041664 72.4875 89.885414Q72.4875 89.291664 73.25313 88.58854Q74.01875 87.86979 75.175 87.33854Q75.15938 87.27604 75.1125 87.041664Q75.06563 86.80729 75.06563 86.760414Q75.06563 86.52604 75.22188 86.24479Q75.34688 86.010414 75.56563 85.760414Q75.62813 86.18229 75.70625 86.58854Q75.78438 86.979164 75.87813 87.40104L76.08125 88.572914Q76.25313 89.541664 76.37813 90.010414Q76.59688 90.729164 76.81563 90.729164L77.8 90.729164L77.8 91.916664ZM75.40938 88.854164L75.28438 88.11979Q74.69063 88.322914 74.34688 88.55729Q74.00313 88.77604 73.76875 89.15104Q73.925 89.21354 74.1125 89.260414Q74.3 89.291664 74.62813 89.291664Q75.05 89.291664 75.40938 88.854164ZM80.97188 91.916664L77.06563 91.916664L77.06563 90.729164L80.47188 90.729164Q80.47188 89.916664 80.28438 89.49479Q80.14375 89.197914 79.62813 88.65104L80.175 87.52604Q80.65938 88.15104 80.78438 88.49479Q80.97188 89.02604 80.97188 90.24479L80.97188 91.916664ZM80.94063 93.27604L80.39375 94.260414L79.3 93.68229L79.8 92.697914L80.94063 93.27604ZM79.3625 93.90104L78.84688 94.885414L77.7375 94.30729L78.2375 93.322914L79.3625 93.90104ZM83.45625 91.916664L80.06563 91.916664L80.06563 90.729164L82.75313 90.729164L81.94063 84.93229L81.59688 84.760414Q81.59688 84.291664 81.675 83.885414Q81.75313 83.46354 81.925 83.072914L82.01875 83.135414Q82.01875 83.541664 82.47188 83.74479Q82.8 83.86979 83.15938 84.010414Q83.15938 84.354164 83.09688 84.74479Q83.05 85.135414 82.97188 85.322914L82.64375 85.21354L83.45625 90.572914L83.45625 91.916664ZM88.94063 90.760414Q88.94063 91.15104 88.69063 91.635414Q88.425 92.166664 88.15938 92.166664Q87.87813 92.166664 87.1125 91.80729Q86.40938 91.479164 85.925 91.166664Q85.12813 91.61979 84.76875 91.74479Q84.31563 91.916664 83.69063 91.916664L83.06563 91.916664L83.06563 90.729164L83.69063 90.729164Q83.97188 90.729164 84.22188 90.68229Q84.4875 90.635414 84.925 90.52604Q84.75313 90.385414 84.58125 90.24479Q84.37813 90.08854 84.37813 89.916664Q84.37813 89.80729 84.39375 89.760414Q84.40938 89.697914 84.4875 89.541664L85.15938 88.354164Q85.3 88.11979 85.40938 88.02604Q85.51875 87.93229 85.72188 87.885414Q85.25313 87.55729 85.25313 87.416664Q85.25313 87.291664 85.55 86.71354Q85.65938 86.52604 85.8625 86.15104Q86.3 86.572914 86.97188 87.354164Q87.81563 88.354164 88.3 89.15104Q88.94063 90.18229 88.94063 90.760414ZM86.53438 89.27604Q86.53438 88.979164 86.40938 88.80729Q86.26875 88.604164 85.95625 88.604164Q85.62813 88.604164 85.34688 88.822914Q85.08125 89.02604 85.08125 89.322914Q85.08125 89.58854 85.925 90.05729Q86.22188 89.86979 86.3625 89.68229Q86.53438 89.479164 86.53438 89.27604ZM88.175 90.83854Q88.175 90.604164 87.8 90.08854Q87.55 89.77604 87.20625 89.416664Q87.20625 89.74479 87.06563 90.041664Q86.925 90.322914 86.675 90.479164Q87.08125 90.697914 87.50313 90.90104Q87.84688 91.05729 87.9875 91.05729Q88.06563 91.05729 88.1125 90.99479Q88.175 90.93229 88.175 90.83854ZM92.05 82.71354Q92.05 82.885414 91.84688 83.02604Q91.69063 83.11979 91.40938 83.21354L90.14375 83.65104Q90.14375 83.33854 90.81563 83.104164Q90.6125 82.99479 90.50313 82.885414Q90.3625 82.760414 90.3625 82.61979Q90.3625 82.40104 90.72188 82.02604Q91.12813 81.604164 91.425 81.604164Q91.56563 81.604164 91.65938 81.697914Q91.76875 81.77604 91.76875 81.93229Q91.76875 82.02604 91.72188 82.135414Q91.69063 82.229164 91.6125 82.354164Q91.39375 82.15104 91.14375 82.15104Q91.00313 82.15104 90.84688 82.21354Q90.70625 82.27604 90.70625 82.36979Q90.70625 82.46354 91.01875 82.65104Q91.34688 82.822914 91.56563 82.822914Q91.72188 82.822914 91.78438 82.822914Q91.84688 82.80729 92.05 82.71354ZM91.8625 90.166664Q91.8625 90.71354 91.65938 91.229164Q91.56563 91.510414 91.22188 92.104164L91.09688 92.02604Q91.1125 91.83854 91.12813 91.572914Q91.14375 91.30729 91.14375 91.229164Q91.14375 90.510414 91.03438 89.24479Q90.925 87.96354 90.76875 86.572914Q90.675 85.729164 90.55 84.854164Q90.69063 84.55729 90.8625 84.21354Q91.03438 83.854164 91.19063 83.55729Q91.3 84.33854 91.47188 85.697914Q91.64375 87.041664 91.7375 88.11979Q91.8625 89.479164 91.8625 90.166664ZM100.06563 83.74479L99.53438 84.729164L98.425 84.135414L98.94063 83.166664L100.06563 83.74479ZM98.50313 84.354164L97.97188 85.354164L96.87813 84.77604L97.37813 83.791664L98.50313 84.354164ZM101.8 91.916664L100.81563 91.916664Q100.33125 91.916664 99.95625 91.072914Q99.675 90.447914 99.50313 89.447914Q99.3 89.83854 98.9875 90.05729Q98.675 90.260414 98.31563 90.260414Q97.53438 90.260414 97.00313 90.15104Q96.4875 90.041664 96.4875 89.885414Q96.4875 89.291664 97.25313 88.58854Q98.01875 87.86979 99.175 87.33854Q99.15938 87.27604 99.1125 87.041664Q99.06563 86.80729 99.06563 86.760414Q99.06563 86.52604 99.22188 86.24479Q99.34688 86.010414 99.56563 85.760414Q99.62813 86.18229 99.70625 86.58854Q99.78438 86.979164 99.87813 87.40104L100.08125 88.572914Q100.25313 89.541664 100.37813 90.010414Q100.59688 90.729164 100.81563 90.729164L101.8 90.729164L101.8 91.916664ZM99.40938 88.854164L99.28438 88.11979Q98.69063 88.322914 98.34688 88.55729Q98.00313 88.77604 97.76875 89.15104Q97.925 89.21354 98.1125 89.260414Q98.3 89.291664 98.62813 89.291664Q99.05 89.291664 99.40938 88.854164ZM107.06563 91.916664L106.06563 91.916664Q105.6125 91.916664 105.15938 91.697914Q104.6125 91.447914 104.3625 90.99479Q103.90938 91.40104 103.31563 91.635414Q102.59688 91.916664 101.69063 91.916664L101.06563 91.916664L101.06563 90.729164L101.69063 90.729164Q102.26875 90.729164 102.75313 90.604164Q103.31563 90.46354 103.84688 90.135414L103.56563 89.77604Q103.34688 89.510414 103.08125 89.510414Q102.95625 89.510414 102.84688 89.55729Q102.75313 89.604164 102.64375 89.760414L102.50313 89.760414L102.50313 89.354164Q102.50313 88.604164 102.89375 88.322914Q103.25313 88.05729 104.15938 88.05729Q104.925 88.05729 105.40938 88.27604Q106.05 88.541664 106.05 89.08854Q106.05 89.385414 105.8 89.697914Q105.6125 89.93229 105.1125 90.33854Q105.22188 90.510414 105.53438 90.61979Q105.84688 90.729164 106.06563 90.729164L107.06563 90.729164L107.06563 91.916664ZM113.06563 91.916664L112.3625 91.916664Q111.89375 91.916664 111.33125 91.71354Q110.65938 91.46354 110.15938 91.05729Q109.75313 91.541664 109.33125 91.729164Q108.925 91.916664 108.14375 91.916664L107.06563 91.916664L107.06563 90.729164L108.1125 90.729164Q108.7375 90.729164 109.22188 90.416664Q109.59688 90.166664 109.90938 89.71354Q110.33125 89.11979 110.94063 88.666664Q111.4875 88.27604 111.94063 88.166664Q112.40938 88.885414 112.69063 89.46354Q113.06563 90.24479 113.06563 90.729164L113.06563 91.916664ZM112.28438 90.572914Q112.19063 90.166664 112.00313 89.791664Q111.84688 89.46354 111.59688 89.11979Q111.26875 89.21354 111.03438 89.43229Q110.89375 89.572914 110.675 89.916664Q110.925 90.18229 111.3625 90.40104Q111.81563 90.604164 112.22188 90.65104L112.28438 90.572914ZM116.76875 91.916664L115.8 91.916664Q115.34688 91.916664 115.06563 91.541664Q114.81563 91.21354 114.69063 90.572914Q114.56563 89.916664 114.4875 88.96354Q114.45625 88.18229 114.40938 87.36979Q114.3625 86.55729 114.28438 86.135414Q114.22188 85.71354 114.09688 85.447914Q113.94063 85.11979 113.675 84.885414L114.51875 83.55729Q114.78438 84.36979 114.89375 85.510414Q114.97188 86.229164 115.03438 88.885414Q115.15938 90.08854 115.39375 90.43229Q115.58125 90.729164 115.8 90.729164L116.76875 90.729164L116.76875 91.916664ZM123.97188 91.916664L116.06563 91.916664L116.06563 90.729164L121.64375 90.729164Q120.94063 90.18229 120.47188 89.885414Q119.87813 89.510414 119.37813 89.33854Q118.83125 89.15104 118.25313 89.15104Q117.90938 89.15104 117.55 89.197914Q117.75313 88.68229 118.08125 88.385414Q118.53438 87.93229 119.25313 87.93229Q119.94063 87.93229 120.89375 88.61979Q121.3625 88.96354 122.44063 89.916664Q123.26875 90.666664 123.55 90.729164L123.97188 90.729164L123.97188 91.916664ZM120.4875 93.40104L119.97188 94.385414L118.8625 93.80729L119.39375 92.80729L120.4875 93.40104Z" fill-rule="nonzero"/><path fill="#001723" d="M498.41876 29.925L498.41876 27.175L501.15314 27.175L501.15314 29.925L498.41876 29.925ZM498.41876 37.55L498.41876 34.8L501.15314 34.8L501.15314 37.55L498.41876 37.55ZM515.4969 21.003124L514.41876 22.815624L513.02814 22.034374L512.2469 23.58125L510.4344 22.58125L511.45 20.8625L512.90314 21.58125L513.7469 20.08125L515.4969 21.003124ZM517.7469 34.690624L516.46564 34.690624Q516.1219 34.690624 515.825 34.534374Q515.2625 34.253124 514.8719 33.503124Q514.34064 32.471874 514.1844 30.675Q513.52814 31.4875 513.15314 31.83125Q512.6219 32.33125 512.2469 32.33125Q512.075 32.33125 511.77814 32.26875L510.59064 32.034374Q509.825 31.878124 509.65314 31.815624Q509.48126 31.753124 509.48126 31.565624Q509.48126 31.315624 510.15314 29.909374Q510.84064 28.503124 511.1375 28.175Q511.3875 27.909374 512.0125 27.4875Q512.3875 27.2375 513.0594 26.83125L513.575 26.534374Q513.5594 26.39375 513.54376 26.253124Q513.52814 26.1125 513.52814 25.9875Q513.52814 25.6125 513.7 25.05Q513.8719 24.4875 514.3094 23.659374L515.2469 29.753124Q515.46564 31.190624 515.825 31.70625Q516.0594 32.034374 516.46564 32.034374L517.7469 32.034374L517.7469 34.690624ZM513.95 29.175L513.7625 28.003124Q513.45 28.14375 513.2625 28.2375Q512.73126 28.51875 512.40314 28.753124Q512.16876 28.95625 512.0125 29.128124Q511.825 29.33125 511.825 29.440624Q511.825 29.58125 512.16876 29.659374Q512.5125 29.7375 512.84064 29.7375Q513.0594 29.7375 513.29376 29.6125Q513.52814 29.4875 513.95 29.175ZM524.65314 34.690624L523.21564 34.690624Q522.4344 34.690624 521.84064 34.378124Q521.2625 34.065624 520.90314 33.3625Q520.27814 34.14375 519.2625 34.471874Q518.59064 34.690624 517.79376 34.690624L516.7625 34.690624L516.7625 32.034374L517.79376 32.034374Q518.60626 32.034374 518.9344 31.95625Q519.2625 31.8625 519.8094 31.565624Q519.52814 31.003124 519.3094 30.7375Q519.04376 30.440624 518.7625 30.440624Q518.65314 30.440624 518.5594 30.51875Q518.46564 30.58125 518.35626 30.784374L517.91876 30.7375Q517.91876 28.971874 518.52814 28.221874Q519.1375 27.45625 520.46564 27.45625Q521.8094 27.45625 522.59064 27.9875Q523.3719 28.51875 523.3719 29.440624Q523.3719 29.940624 523.16876 30.39375Q522.96564 30.846874 522.3875 31.628124Q522.52814 31.815624 522.7625 31.925Q522.9969 32.034374 523.21564 32.034374L524.65314 32.034374L524.65314 34.690624ZM532.7469 34.675Q531.73126 34.675 530.34064 34.284374Q529.1219 33.925 528.1844 33.440624Q527.6219 34.3 526.79376 34.565624Q526.3875 34.690624 525.7 34.690624L523.7625 34.690624L523.7625 32.034374L525.7 32.034374Q526.575 32.034374 527.09064 31.815624Q527.7625 31.55 528.0125 30.8625Q528.575 29.628124 529.4344 28.83125Q530.21564 28.1125 530.7469 28.1125Q531.2469 28.1125 531.98126 29.6125Q532.7469 31.20625 532.7469 32.55L532.7469 34.675ZM530.91876 31.721874Q530.91876 31.51875 530.5125 30.9875Q530.04376 30.39375 529.7 30.39375Q529.3094 30.39375 529.04376 31.284374Q529.5594 31.471874 529.825 31.565624Q530.60626 31.8625 530.71564 31.8625Q530.91876 31.8625 530.91876 31.721874ZM537.1375 34.690624L535.77814 34.690624Q534.6219 34.690624 534.1219 33.753124Q533.5594 32.721874 533.5594 30.26875L533.5594 27.4875Q533.5594 26.534374 533.29376 26.003124Q533.16876 25.753124 532.7 25.26875L533.7625 22.83125Q534.325 23.6125 534.54376 24.378124Q534.8094 25.26875 534.8094 26.64375L534.8094 28.565624Q534.8094 30.6125 535.09064 31.39375Q535.3094 32.034374 535.77814 32.034374L537.1375 32.034374L537.1375 34.690624ZM547.91876 34.690624L536.7625 34.690624L536.7625 32.034374L543.71564 32.034374Q542.52814 30.815624 541.52814 30.26875Q540.6375 29.8 539.77814 29.8Q539.52814 29.8 539.3094 29.83125Q539.10626 29.846874 538.71564 29.925Q539.2469 28.70625 539.90314 28.128124Q540.5594 27.534374 541.40314 27.534374Q542.04376 27.534374 542.6375 27.846874Q543.2469 28.159374 543.98126 28.846874Q544.575 29.39375 545.6375 30.55Q546.3719 31.378124 546.7625 31.628124Q547.15314 31.8625 547.91876 32.034374L547.91876 34.690624ZM544.3094 36.83125L543.075 39.034374L540.825 37.83125L542.02814 35.6125L544.3094 36.83125ZM552.1375 34.690624L546.7625 34.690624L546.7625 32.034374L550.96564 32.034374L549.77814 25.39375L549.15314 24.9875Q549.15314 24.409374 549.34064 23.83125Q549.5594 23.08125 550.09064 22.065624L550.54376 22.3Q550.54376 22.346874 550.5125 22.6125Q550.5125 22.925 550.91876 23.2375Q551.27814 23.503124 552.075 23.83125Q551.98126 24.45625 551.8094 25.065624Q551.6375 25.659374 551.41876 26.128124L551.075 25.9875L552.1375 32.034374L552.1375 34.690624ZM556.0594 31.846874Q556.0594 32.721874 555.85626 33.440624Q555.65314 34.14375 555.075 35.3625L554.48126 35.128124Q554.71564 33.878124 554.71564 33.096874Q554.71564 32.503124 554.6219 31.346874Q554.52814 30.190624 554.3719 29.065624Q554.23126 27.940624 553.90314 26.378124Q553.77814 25.83125 553.77814 25.628124Q553.77814 25.315624 554.075 24.596874Q554.3875 23.8625 554.9344 22.83125L555.5125 26.284374Q555.84064 28.26875 555.96564 29.70625Q556.0594 30.815624 556.0594 31.846874ZM573.15314 39.33125L569.46564 41.6125L568.46564 41.628124Q565.7469 41.628124 564.35626 40.45625Q562.96564 39.3 562.96564 37.034374Q562.96564 35.58125 563.34064 34.471874Q563.7625 33.20625 564.71564 32.26875Q564.23126 31.721874 563.85626 30.9875Q563.48126 30.253124 563.48126 29.8Q563.48126 29.2375 563.90314 28.14375Q564.325 27.034374 564.73126 26.565624Q565.075 26.159374 565.73126 25.909374Q566.40314 25.659374 567.1844 25.659374Q568.2469 25.659374 569.15314 26.159374Q570.075 26.64375 570.7 27.565624Q570.40314 27.565624 570.1375 27.565624Q569.8719 27.55 569.575 27.534374Q567.5594 27.534374 566.3094 27.8625Q565.075 28.175 565.075 28.70625Q565.075 29.1125 565.4969 29.51875Q566.0125 30.003124 567.1375 30.503124Q568.48126 29.909374 569.2 29.690624Q569.9344 29.45625 571.45 29.1125Q571.1844 29.95625 571.02814 30.346874Q570.85626 30.8 570.5125 31.51875Q567.54376 32.221874 565.8094 33.4875Q564.075 34.7375 564.075 36.159374Q564.075 37.503124 565.5594 38.221874Q567.27814 39.034374 570.9344 39.034374L571.16876 39.034374Q571.73126 39.034374 571.9969 39.01875Q572.27814 39.003124 572.98126 38.940624L573.15314 39.33125ZM582.48126 34.01875Q582.48126 35.690624 581.04376 37.33125Q579.6219 38.971874 578.23126 38.971874Q577.41876 38.971874 576.45 38.45625Q575.4969 37.940624 573.5125 36.409374L573.91876 35.846874Q574.98126 36.55 575.65314 36.784374Q576.2 36.9875 576.90314 36.9875Q577.85626 36.9875 578.77814 36.45625Q579.8719 35.83125 581.04376 34.440624Q580.6375 34.503124 580.3719 34.503124Q579.40314 34.503124 578.825 33.878124Q578.2625 33.2375 578.2625 32.159374Q578.2625 30.690624 578.9344 29.33125Q579.66876 27.8625 580.60626 27.8625Q581.3875 27.8625 581.9344 28.925Q582.48126 29.9875 582.48126 31.4875L582.48126 34.01875ZM581.3094 32.034374Q581.02814 30.45625 580.1844 30.45625Q579.8875 30.45625 579.7 30.70625Q579.52814 30.940624 579.52814 31.221874Q579.52814 31.565624 579.90314 31.8Q580.29376 32.034374 580.9344 32.034374L581.3094 32.034374ZM587.9344 24.05L586.7625 26.2375L584.48126 25.05L585.66876 22.846874L587.9344 24.05ZM587.8875 34.690624L581.7625 34.690624L581.7625 32.034374L586.90314 32.034374Q586.79376 31.3625 586.5125 30.909374Q586.3719 30.659374 585.825 30.034374L586.60626 27.70625Q587.34064 28.534374 587.60626 29.440624Q587.8875 30.346874 587.8875 32.14375L587.8875 34.690624Z" fill-rule="nonzero"/></svg>